<?xml version="1.0" encoding="utf-8"?>
<!-- Generator: Adobe Illustrator 16.0.4, SVG Export Plug-In . SVG Version: 6.00 Build 0)  -->
<!DOCTYPE svg PUBLIC "-//W3C//DTD SVG 1.1 Tiny//EN" "http://www.w3.org/Graphics/SVG/1.1/DTD/svg11-tiny.dtd">
<svg version="1.1" baseProfile="tiny" id="Layer_1" xmlns="http://www.w3.org/2000/svg" xmlns:xlink="http://www.w3.org/1999/xlink"
	 x="0px" y="0px" width="407px" height="274px" viewBox="0 0 407 274" overflow="scroll" xml:space="preserve">
<rect x="-1.193" y="-0.895" fill="#EB0A00" width="409.61" height="275.678"/>
<path fill="#FFFFFF" d="M74.521,269.394c-5.017-0.056-9.81-1.225-14.247-3.477c-9.729-4.935-15.632-10.913-18.58-18.815
	c-0.293-0.785-0.567-1.579-0.823-2.379c-1.074-3.36-1.716-6.411-1.965-9.327c-0.164-1.919-0.125-4.062,0.12-6.554l0.032-0.331
	l-0.305,0.09c-0.246,0.101-0.442,0.152-0.585,0.152c-0.076,0-0.134-0.015-0.173-0.044c-0.309-0.226,0.315-1.402,0.688-2.105
	c0.495-0.934,0.723-1.395,0.495-1.647c-0.103-0.114-0.253-0.172-0.446-0.172c-0.333,0-0.776,0.171-1.245,0.354
	c-0.456,0.177-0.928,0.359-1.249,0.359c-0.116,0-0.197-0.023-0.247-0.073c-0.204-0.201,0.025-1.071,2.269-4.078
	c0.195-0.262,0.339-0.455,0.395-0.544l0.405-0.632c1.128-1.748,2.407-3.729,1.801-4.992c-1.874-3.906-5.176-6.7-8.673-9.659
	c-2.066-1.748-4.203-3.556-6.035-5.624c-4.297-4.854-7.343-10.524-9.052-16.856c-3.421-12.676,2.872-26.35,9.479-38.053
	c4.603-8.154,5.515-21.556,2.168-31.867c-2.199-6.778-4.798-12.67-7.946-18.015C6.643,71.064,1.774,49.26,5.918,28.445
	c2.236-11.227,5.023-15.638,6.072-17.298l0.111-0.175c0.382-0.608,1.707-2.594,2.734-2.594c0.035,0,0.07,0.002,0.104,0.007
	c0.216,0.032,0.045,1.417-0.028,2.009c-0.176,1.421-0.259,2.303,0.219,2.513c0.058,0.025,0.12,0.039,0.185,0.039
	c0.488,0,1.033-0.725,1.882-1.908c0.72-1.002,1.616-2.25,2.185-2.25c0.311,0.065,0.063,1.699-0.043,2.397
	c-0.248,1.635-0.375,2.647,0.122,2.865l0.038,0.017l0.131,0.018c0.439,0,0.976-0.642,1.815-1.688c0.707-0.882,1.587-1.98,2.084-1.98
	c0.041,0,0.076,0.009,0.109,0.026c0.331,0.174-0.09,2.296-0.292,3.316c-0.345,1.739-0.431,2.315-0.12,2.47
	c0.064,0.032,0.135,0.048,0.21,0.048c0.469,0,1.049-0.616,1.951-1.631c0.548-0.618,1.299-1.463,1.604-1.463
	c0.395,0.161,0.112,2.065-0.38,3.514c-1.495,4.409-2.406,11.708-2.267,18.164l0.037-0.118c-0.043,0.215-0.223,13.552,5.428,24.728
	c3.276,6.48,11.218,14.014,16.548,14.013c0.543,0,1.059-0.078,1.531-0.23c0.333-0.108,0.577-0.317,0.723-0.622
	c0.486-1.011-0.217-2.869-0.781-4.363c-0.184-0.486-0.349-0.921-0.44-1.251c-0.607-2.183-1.179-4.326-1.52-6.546
	c-0.059-0.39-0.064-0.834-0.07-1.305c-0.013-1.119-0.028-2.386-0.837-3.194c-0.55-0.548-1.255-0.554-1.938-0.559
	c-0.222-0.002-0.445-0.003-0.662-0.025c-3.77-0.375-6.703-3.74-6.677-7.662c0.017-2.831,1.48-5.209,3.728-6.06
	c1.073-0.406,2.39-0.639,3.613-0.639c1.217,0,2.301,0.224,3.133,0.647c0.164,0.083,0.334,0.176,0.51,0.272
	c0.771,0.421,1.645,0.897,2.543,0.897c0.373,0,0.726-0.084,1.051-0.25c0.685-0.351,1.233-0.888,1.762-1.407
	c0.336-0.33,0.684-0.67,1.056-0.95l0.105-0.079l0.008-0.155l-0.21-0.87c-0.605-2.558-1.121-4.889-1.577-7.128
	c-0.064-0.314-0.18-0.681-0.304-1.07c-0.266-0.834-0.567-1.78-0.399-2.438c0.131-0.512,0.696-0.751,1.243-0.983
	c0.213-0.09,0.419-0.178,0.596-0.278c1.109-0.628,2.339-1.184,3.87-1.748l0.161-0.059l-0.034-0.168
	c-0.089-0.438-0.149-0.876-0.186-1.336c-0.154-3.561,1.202-6.62,3.72-8.384c1.853-1.297,4.235-1.985,6.889-1.987
	c0.38,0,0.741,0.009,1.103,0.018c0.368,0.009,0.738,0.018,1.106,0.018c0.993,0,2.158-0.058,3.273-0.489
	c0.538-0.207,0.878-0.542,1.223-0.981c0.283-0.361,0.461-0.811,0.527-1.338c0.041-0.316,0.035-0.616-0.018-0.973l-0.02-0.135
	l-0.133-0.03c-0.227-0.051-0.434-0.134-0.615-0.246c-0.76-0.469-1.245-1.349-1.446-2.017c-0.22-0.735-0.325-1.515-0.426-2.27
	C71.47,4.604,71.402,4.096,71.3,3.595l-0.038-0.168c-0.071-0.307-0.261-1.121-0.08-1.348c0.019-0.023,0.044-0.044,0.11-0.044
	c0.036,0,0.079,0.007,0.127,0.02c0.153,0.042,0.333,0.255,0.477,0.427c0.054,0.064,0.105,0.125,0.153,0.175
	c0.25,0.266,0.462,0.39,0.666,0.39c0.447,0,0.601-0.553,0.75-1.087c0.132-0.475,0.343-0.753,0.556-0.753
	c0.156,0,0.344,0.129,0.545,0.372c0.075,0.091,0.16,0.236,0.255,0.395c0.282,0.474,0.634,1.063,1.106,1.063
	c0.183,0,0.356-0.088,0.514-0.261c0.108-0.118,0.202-0.304,0.301-0.5c0.147-0.291,0.348-0.688,0.546-0.688
	c0.067,0,0.152,0.044,0.246,0.126c0.228,0.201,0.196,0.482,0.116,0.922c-0.028,0.157-0.056,0.312-0.061,0.454
	c-0.011,0.309,0.016,0.612,0.043,0.918c0.029,0.318,0.058,0.646,0.041,0.979c-0.053,0.995-0.161,2.045-0.588,2.979
	c-0.205,0.449-0.778,1.006-1.238,1.324l-0.097,0.061l-0.087,0.163c0.016,0.649-0.143,1.343-0.485,2.123
	c-0.221,0.502-0.539,1.023-0.896,1.466c-1.088,1.352-2.913,1.494-4.688,1.523c-2.782,0.046-5.95,0.224-8.337,1.765
	c-1.744,1.125-2.961,3.121-3.341,5.475c-0.147,0.907-0.13,1.837,0.051,2.843l0.041,0.226l0.218-0.071
	c0.808-0.263,1.622-0.512,2.435-0.76c1.022-0.312,2.042-0.625,3.044-0.962c0.171-0.058,0.337-0.087,0.495-0.087
	c1.093,0,1.734,1.426,2.202,2.467l4.383,9.568l0.099,0.02c0.465,0.095,0.929,0.208,1.392,0.322c1.135,0.278,2.31,0.566,3.51,0.566
	c0.491,0,0.95-0.047,1.403-0.142c0.94-0.198,2.031-0.821,2.992-1.372c0.306-0.175,0.6-0.343,0.872-0.487
	c0.934-0.497,1.836-1.012,2.715-1.514c2.805-1.602,5.454-3.115,8.1-3.373c0.227-0.022,0.433-0.033,0.621-0.033
	c1.616,0,1.782,0.79,2.057,2.099c0.105,0.5,0.224,1.066,0.445,1.662c0.407,1.097,0.613,2.476,0.596,3.985
	c-0.038,3.278-3.244,6.665-9.8,10.356c-3.738,2.106-6.675,3.234-10.137,3.896l-0.478,0.091l0.404,0.271
	c1.934,1.298,3.826,1.928,5.785,1.928c4.071,0,7.708-2.803,11.225-5.514c0.75-0.578,1.498-1.155,2.25-1.704
	c0.565-0.414,1.051-0.624,1.445-0.624c0.816,0,1.051,0.965,1.104,1.774c0.253,3.781-2.134,8.781-4.622,11.767
	c-2.31,2.769-4.955,6.618-5.453,9.116c-0.398,1.992-0.612,4.748,2.107,5.686c0.18,0.062,0.409,0.094,0.679,0.094
	c2.066,0,6.448-1.825,7.424-2.535c1.604-1.166,7.16-5.693,11.284-15.019c3.662-8.282,3.185-22.482-1.217-36.175
	c-0.338-1.058-0.902-3.792-0.562-4.332c0.013-0.001,0.027-0.001,0.041-0.001c0.448,0,1.189,0.474,1.845,0.894
	c0.777,0.497,1.51,0.966,1.963,0.966c0.093,0,0.176-0.019,0.247-0.056c0.505-0.264,0.309-1.205-0.053-2.719
	c-0.208-0.871-0.493-2.063-0.271-2.288c0.059-0.06,0.124-0.086,0.209-0.086c0.468,0,1.262,0.752,1.963,1.416
	c0.742,0.703,1.383,1.31,1.862,1.31c0.077,0,0.149-0.015,0.214-0.045c0.559-0.254,0.547-1.324,0.534-2.564
	c-0.012-1.078-0.026-2.42,0.479-2.44c0.478,0,1.074,0.981,1.601,1.847c0.669,1.1,1.361,2.238,2.175,2.238
	c0.084,0,0.168-0.013,0.25-0.037c0.538-0.159,0.764-1.011,1.003-1.912c0.168-0.634,0.377-1.422,0.65-1.525c0.003,0,0.006,0,0.008,0
	c0.526,0,1.312,1.065,2.404,3.156l0.11,0.209c8.215,15.444,10.419,32.633,6.374,49.708c-2.195,9.261-6.479,17.259-11.016,25.727
	c-1.029,1.92-2.061,3.847-3.07,5.794c-5.593,10.798-4.403,27.993-3.025,47.904c0.122,1.754,0.245,3.529,0.364,5.324
	c1.396,20.911-2.095,38.467-6.074,54.322c-0.966,3.854-1.653,8.234-2.196,12.013l-0.01,0.065l0.032,0.058
	c3.066,5.684,4.753,11.888,4.879,17.94c0.205,9.938-4.329,20.295-11.833,27.031c-2.14,1.919-4.51,3.571-6.853,4.777
	c-5.844,3.008-11.393,4.47-16.964,4.47L74.521,269.394z M71.847,237.613c-0.149,0-0.291,0.044-0.435,0.136
	c-0.236,0.153-0.387,0.392-0.521,0.603l-0.374,0.559c-0.183,0.271-0.365,0.543-0.559,0.805c-0.784,1.057-1.546,2.129-2.308,3.2
	l-0.392,0.551c-1.922,2.694-3.676,5.104-5.688,7.317c-0.82,0.904-1.543,1.86-2.082,2.593c-0.326,0.442-0.646,0.892-0.966,1.341
	c-0.048,0.067-0.109,0.137-0.174,0.211c-0.241,0.277-0.541,0.621-0.447,1.025c0.088,0.376,0.572,0.665,0.96,0.896
	c0.095,0.057,0.182,0.108,0.248,0.153c0.932,0.637,1.907,1.22,2.897,1.735c2.006,1.041,4.13,1.828,6.312,2.337
	c2.024,0.473,4.11,0.713,6.2,0.713c0.605,0,1.247-0.029,1.906-0.087l0.253-0.02c0.259-0.018,0.525-0.038,0.77-0.097
	c0.506-0.121,0.82-0.523,0.798-1.025c-0.028-0.705-0.137-1.39-0.243-2.051c-0.076-0.477-0.152-0.952-0.199-1.438
	c-0.23-2.387-0.607-4.902-1.12-7.477l-0.047-0.233l-0.231,0.033c-0.719,0.279-1.23,0.415-1.563,0.415
	c-0.158,0-0.27-0.03-0.333-0.088c-0.204-0.188,0.797-1.352,1.278-1.911c0.866-1.007,1.389-1.65,1.348-2.089
	c-0.012-0.123-0.067-0.229-0.161-0.303c-0.104-0.083-0.243-0.125-0.415-0.125c-0.477,0-1.195,0.319-1.957,0.658
	c-0.692,0.307-1.408,0.625-1.803,0.625c-0.061,0-0.142-0.008-0.178-0.047c-0.165-0.18-0.082-0.774,1.247-2.596l0.138-0.191
	c0.236-0.334,0.799-0.891,1.511-1.596l0.323-0.32l-0.109-0.986c-0.061-0.545-0.121-1.089-0.218-1.629l-0.027-0.175
	c-0.048-0.338-0.109-0.758-0.614-0.87c-0.092-0.021-0.191-0.03-0.303-0.03c-0.096,0-0.193,0.008-0.291,0.015
	c-0.087,0.007-0.173,0.014-0.26,0.014c-0.04,0-0.081-0.002-0.12-0.006c-0.455-0.044-0.891-0.144-1.297-0.293
	c-0.079-0.029-0.152-0.063-0.222-0.096C72.216,237.692,72.044,237.613,71.847,237.613z M77.798,252.915
	c0.192,1.859,0.39,3.782,0.834,5.642c0.061,0.255,0.115,0.512,0.169,0.768c0.045,0.215,0.17,0.782,0.17,0.782
	c0.068,0.329,0.154,0.738,0.573,0.939c0.109,0.052,0.234,0.079,0.371,0.079c0.219,0,0.439-0.067,0.634-0.127l0.188-0.055
	c0.917-0.237,1.839-0.522,2.739-0.847c1.815-0.655,3.596-1.479,5.291-2.448c0.683-0.39,1.367-0.813,2.034-1.26l0.21-0.141
	l-0.186-0.172c-0.196-0.182-0.379-0.388-0.558-0.589c-0.188-0.211-0.372-0.416-0.559-0.587c-0.58-0.526-1.155-1.049-1.715-1.586
	c-0.292-0.28-0.578-0.569-0.863-0.857l-0.106-0.107l-0.136,0.069c-0.221,0.122-0.437,0.24-0.637,0.343
	c-1.459,0.737-3.563,1.6-4.687,1.6c-0.222,0-0.392-0.036-0.494-0.104c-0.014-0.173,0.625-1.026,1.006-1.536
	c0.741-0.989,1.19-1.615,1.102-2c-0.025-0.11-0.091-0.196-0.191-0.249l-0.043-0.022l-0.139-0.018c-0.293,0-0.796,0.232-1.66,0.644
	c-0.988,0.471-2.218,1.056-2.95,1.056c-0.08,0-0.152-0.008-0.214-0.022l-0.273-0.062L77.798,252.915z M69.266,234.844
	c-0.085,0-0.173,0.011-0.261,0.021l-0.135,0.016c-1.561,0.13-3.133,0.33-4.609,0.524l-0.255,0.033
	c-2.862,0.378-5.821,0.769-8.709,1.301c-0.625,0.114-1.251,0.242-1.878,0.37c-1.624,0.332-3.304,0.675-4.961,0.779
	c-0.689,0.042-1.429,0.177-1.479,1.246c-0.024,0.511,0.143,0.992,0.305,1.458c0.056,0.162,0.112,0.323,0.159,0.482
	c0.271,0.933,0.604,1.858,0.99,2.752c1.817,4.19,4.484,7.94,7.713,10.843l0.104,0.097c0.223,0.208,0.476,0.443,0.811,0.521
	c0.088,0.019,0.153,0.026,0.215,0.026c0.348-0.005,0.507-0.245,0.647-0.457l0.104-0.152c0.559-0.757,1.156-1.489,1.733-2.197
	c0.28-0.344,0.562-0.689,0.842-1.04l0.98-1.23c1.743-2.184,3.544-4.442,5.267-6.724c0.515-0.681,1-1.401,1.468-2.099
	c0.422-0.627,0.844-1.254,1.291-1.859c0.267-0.363,0.528-0.729,0.79-1.096l0.109-0.153c0.046-0.064,0.105-0.133,0.167-0.204
	c0.217-0.251,0.486-0.564,0.436-0.942c-0.04-0.304-0.294-0.58-0.54-0.847c-0.116-0.126-0.229-0.246-0.297-0.355
	c-0.056-0.092-0.104-0.206-0.153-0.322c-0.091-0.213-0.185-0.434-0.339-0.59C69.645,234.91,69.477,234.844,69.266,234.844z
	 M79.556,248.205c-0.371,0-1.053,0.297-1.918,0.672l-0.329,0.143l0.022,0.151c0.101,0.704,0.193,1.405,0.276,2.106l0.066,0.553
	l0.301-0.468c0.233-0.362,0.596-0.782,0.947-1.188c0.765-0.886,1.317-1.525,0.92-1.877
	C79.772,248.236,79.676,248.205,79.556,248.205z M102.566,234.062c-0.937,3.978-2.038,6.812-3.367,8.666
	c-0.126,0.174-0.299,0.379-0.492,0.594l-0.116,0.13l0.184,0.218c0.164,0.193,0.328,0.388,0.487,0.593
	c0.194,0.25,0.49,0.537,0.802,0.842l0.314,0.307l0.118-0.259c1.597-3.483,2.426-7.198,2.465-11.042L102.566,234.062z
	 M76.889,237.705c-0.11,0-0.72,0.217-0.806,0.286c-0.19,0.162-0.239,0.415-0.26,0.591c-0.031,0.272,0.013,0.534,0.055,0.787
	c0.02,0.116,0.039,0.233,0.05,0.35c0.043,0.467,0.108,0.931,0.173,1.395l0.056,0.401l0.284-0.288
	c0.787-0.797,1.408-1.468,1.953-2.113l0.133-0.157l-1.562-1.25L76.889,237.705z M54.064,226.457
	c-1.868,2.266-3.614,3.737-5.494,4.632c-0.029,0.015-1.637,0.805-2.087,1.008l-0.117,0.053l-0.001,0.129
	c-0.003,0.44-0.001,0.879,0.005,1.322c0.013,0.934,0.068,1.875,0.165,2.797c0.076,0.721,0.487,1.134,1.127,1.134
	c0.052,0,0.105-0.003,0.161-0.008c0.571-0.057,1.146-0.162,1.702-0.265c0.426-0.079,0.853-0.157,1.279-0.215
	c1.26-0.168,2.531-0.39,3.76-0.604c1.005-0.175,2.009-0.35,3.019-0.498c2.923-0.434,5.837-0.846,8.762-1.256
	c0.31-0.043,0.622-0.07,0.934-0.098l0.5-0.046c0.081-0.008,0.176-0.011,0.277-0.014c0.483-0.014,1.145-0.032,1.348-0.592
	c0.086-0.237,0.046-0.514,0.01-0.759c-0.014-0.099-0.029-0.194-0.032-0.279c-0.001-0.049,0.015-0.2,0.033-0.377
	c0.08-0.797,0.077-0.879-0.033-0.967l-7.755-6.292l-0.243,0.309c-0.14,0.179-0.279,0.357-0.428,0.529
	c-0.119,0.138-0.252,0.305-0.397,0.487c-0.667,0.836-1.674,2.099-2.627,2.099c-0.094,0-0.188-0.013-0.278-0.037
	c-0.374-0.101-1.737-1.016-3.313-2.225l-0.153-0.118L54.064,226.457z M80.55,235.772l0.113-0.241
	c0.338-0.866,0.552-1.791,0.653-2.828l0.027-0.277l-0.271,0.063c-0.364,0.084-0.589,0.192-0.669,0.321
	c-0.144,0.23-0.142,0.504-0.141,0.745c0,0.128,0.001,0.249-0.019,0.348c-0.019,0.087-0.241,0.742-0.338,1.01h-0.444L80.55,235.772z
	 M80.417,226.515c-0.249,0.293-0.534,0.587-0.924,0.953c-0.076,0.07-0.179,0.149-0.289,0.235c-0.284,0.219-0.606,0.468-0.724,0.743
	c-0.227,0.529,0.248,1.003,0.594,1.35c0.122,0.121,0.235,0.232,0.303,0.333c0.113,0.168,0.193,0.353,0.274,0.536
	c0.117,0.264,0.237,0.537,0.445,0.775c0.134,0.15,0.265,0.278,0.521,0.326l0.109,0.007c0.106,0,0.297-0.008,0.461-0.015l0.188-0.009
	l0.003-0.188c0.015-1.139-0.087-2.342-0.312-3.681c-0.058-0.344-0.155-0.754-0.307-1.291l-0.102-0.36L80.417,226.515z
	 M61.733,207.714c0.377,1.904,0.394,3.666,0.052,5.384l-0.026,0.134l1.351,0.875c0.165,0.104,0.381,0.228,0.625,0.365
	c1.011,0.572,2.704,1.53,2.604,2.522c-0.128,1.271-0.908,2.515-1.596,3.611l-0.859,1.38l0.127,0.112
	c2.38,2.093,4.886,4.228,7.448,6.344l0.109,0.09l0.121-0.072c0.087-0.05,0.131-0.069,0.175-0.088l0.135-0.059l0.068-0.183
	c-0.587-5.66-1.271-11.366-2.033-16.958c-0.212-1.561-0.467-3.115-0.722-4.67l-0.25-1.534l-0.206,0.044
	c-0.816,0.174-1.646,0.389-2.465,0.639c-1.589,0.483-3.121,1.097-4.554,1.821l-0.18,0.104L61.733,207.714z M74.501,211.669
	c0.247,1.833,0.463,3.674,0.68,5.514c0.308,2.615,0.625,5.32,1.03,7.957c0.095,0.613,0.109,1.286,0.123,1.937l0.018,0.667
	c0,0.146,0,0.146,0.728,0.423l0.155,0.06c0.119,0.049,0.239,0.074,0.359,0.074c0.561,0,0.979-0.522,1.314-0.941l0.169-0.207
	c0.45-0.53,0.847-1.099,1.248-1.683l0.057-0.083l-0.033-0.096c-0.557-1.6-1.364-3.505-2.219-5.523
	c-1.058-2.496-2.256-5.326-3.241-8.189L74.501,211.669z M47.224,225.306l0.387,0.104c0.061-0.229,0.125-0.454,0.19-0.678
	l-0.384-0.112C47.35,224.846,47.286,225.073,47.224,225.306z M54.362,184.194c-1.083,1.464-2.234,3.527-1.895,5.361
	c0.459,2.468,2.217,4.927,4.079,7.531c0.764,1.067,1.554,2.173,2.248,3.279l0.086,0.137l0.151-0.055
	c1.799-0.817,3.628-1.485,5.484-2.008c1.124-0.317,2.271-0.584,3.41-0.795l0.183-0.033l-0.021-0.186
	c-0.213-1.925-0.44-3.857-0.692-5.777c-0.144-1.097-0.26-2.196-0.376-3.297c-0.107-1.019-0.215-2.037-0.345-3.054
	c-0.048-0.39-0.119-0.791-0.19-1.197l-0.093-0.537l-0.181,0.014c-1.944,0.188-4.391,0.408-6.838,0.528
	c-0.399,0.02-0.797,0.057-1.195,0.094c-0.546,0.052-1.112,0.104-1.665,0.104c-0.232,0-0.465-0.009-0.699-0.031
	c-0.464-0.046-0.879-0.193-1.27-0.452l-0.241,0.318l-0.007-0.007C54.316,184.153,54.338,184.174,54.362,184.194z"/>
<path fill="#E90D00" d="M76.947,245.301c-0.326-0.141-0.657-0.135-0.992,0.021c0.059,0.729,0.125,1.455,0.211,2.18
	c0.441-0.52,0.761-0.93,0.93-1.271C77.046,245.92,76.997,245.611,76.947,245.301C76.841,245.242,76.997,245.611,76.947,245.301z"/>
<path fill="#FFFFFF" d="M105.599,214.645c-0.228,1.57-0.447,3.148-0.662,4.715c-0.662,4.809-1.305,9.484-2.178,13.521
	c0.005,0.131,0.014,0.26,0.017,0.391c0.084,4.094-0.757,8.094-2.453,11.791c-0.357-0.348-0.688-0.662-0.896-0.93
	c-0.243-0.312-0.493-0.609-0.745-0.902c-2.145,2.404-8.338,7.182-11.899,9.15c0.354,0.363,0.715,0.721,1.08,1.072
	c0.563,0.539,1.141,1.064,1.719,1.59c0.365,0.332,0.715,0.803,1.115,1.174c-0.659,0.441-1.333,0.859-2.021,1.252
	c-1.679,0.961-3.44,1.777-5.26,2.434c-0.894,0.322-1.802,0.604-2.722,0.842c-0.323,0.084-0.733,0.27-1.056,0.115
	c-0.378-0.182-0.411-0.58-0.494-0.941c-0.108-0.471-0.198-0.943-0.31-1.414c-0.506-2.121-0.686-4.283-0.917-6.459
	c-0.002-0.02-0.005-0.037-0.007-0.057c-0.021-0.012-0.049-0.018-0.065-0.033c-0.046-0.039-0.024-0.133,0.03-0.252
	c-0.107-0.953-0.236-1.904-0.377-2.859c-0.342,0.148-0.705,0.307-1.062,0.445c0.021,0.113,0.037,0.227,0.06,0.338
	c0.485,2.43,0.877,4.965,1.118,7.457c0.113,1.172,0.393,2.285,0.441,3.479c0.017,0.408-0.228,0.723-0.646,0.822
	c-0.316,0.076-0.669,0.082-0.993,0.111c-0.628,0.055-1.259,0.086-1.889,0.086c-2.07,0-4.139-0.236-6.155-0.707
	c-2.174-0.508-4.283-1.291-6.265-2.32c-0.993-0.516-1.954-1.092-2.877-1.723c-0.309-0.211-1.038-0.553-1.126-0.93
	c-0.094-0.402,0.384-0.787,0.587-1.072c0.32-0.449,0.64-0.898,0.966-1.342c0.653-0.887,1.328-1.76,2.069-2.576
	c2.085-2.295,3.904-4.814,5.702-7.336c0.893-1.254,1.781-2.512,2.697-3.748c0.29-0.391,0.554-0.801,0.828-1.201
	c0.168-0.244,0.317-0.549,0.574-0.715c0.381-0.244,0.639-0.004,1.015,0.135c0.433,0.16,0.888,0.26,1.346,0.305
	c0.313,0.031,0.639-0.064,0.95,0.004c0.44,0.098,0.419,0.498,0.489,0.885c0.129,0.719,0.192,1.445,0.278,2.17
	c0.028,0.232,0.052,0.465,0.075,0.697c0.215-0.213,0.439-0.438,0.67-0.668c-0.085-0.58-0.162-1.162-0.218-1.746
	c-0.034-0.363-0.147-0.729-0.104-1.094c0.018-0.158,0.058-0.35,0.186-0.459c0.046-0.037,0.664-0.26,0.686-0.24
	c0.52,0.42,1.043,0.838,1.568,1.256c0.76-0.9,1.456-1.848,1.931-2.793c0.118-0.234,0.221-0.479,0.319-0.725
	c-0.223-0.178-0.448-0.354-0.672-0.531c0.013,0.01,0.379-1.064,0.4-1.17c0.065-0.318-0.048-0.736,0.134-1.027
	c0.099-0.158,0.844-0.322,0.838-0.26c0.034-0.361,0.053-0.734,0.058-1.121c0,0.012-0.736,0.049-0.814,0.035
	c-0.188-0.035-0.283-0.121-0.407-0.262c-0.331-0.379-0.428-0.881-0.704-1.291c-0.261-0.387-1.123-0.928-0.88-1.492
	c0.141-0.328,0.705-0.668,0.966-0.912c0.339-0.316,0.669-0.643,0.968-0.998c0.066-0.078,0.128-0.16,0.193-0.238
	c-0.123-0.414-0.267-0.854-0.43-1.312c-0.456,0.668-0.914,1.34-1.438,1.957c-0.399,0.471-0.922,1.307-1.613,1.02
	c-0.07-0.029-0.759-0.285-0.759-0.305c-0.031-0.875-0.013-1.791-0.142-2.627c-0.762-4.965-1.186-10.02-1.914-15
	c-0.574-1.822-1.049-3.656-1.335-5.438c-0.62-3.857-0.964-7.828-1.299-11.668c-0.11-1.277-0.222-2.555-0.342-3.83
	c-0.039-0.41-0.076-0.832-0.113-1.258c-0.115-1.312-0.241-2.627-0.439-3.93c-0.332-2.184-0.598-4.209-1.588-6.193
	c-0.533-1.068-1.565-1.967-2.49-2.707c-1.213-0.967-2.798-1.158-4.295-1.143c-0.413,0.004-1.064,0.076-1.474,0.127
	c-0.794,0.1-1.546,0.189-2.338,0.305c-1.218,0.178-2.302,0.443-3.481,0.789c-0.95,0.277-2.292,0.891-2.56,1.875
	c-0.14,0.283-0.289,0.807-0.35,1.1c-0.114,1.09-0.158,1.773,0.191,2.92c0.5,1.637,1.355,3.232,3.213,3.414
	c1.204,0.115,2.39-0.109,3.588-0.166c2.257-0.111,4.511-0.305,6.76-0.521c0.027-0.002,0.055-0.006,0.082-0.008
	c0.09,0.525,0.188,1.045,0.251,1.547c0.269,2.115,0.443,4.238,0.721,6.352c0.252,1.918,0.478,3.85,0.691,5.773
	c-1.165,0.215-2.307,0.482-3.429,0.799c-1.886,0.531-3.713,1.201-5.465,1.996c-2.297,1.039-4.425,2.291-6.464,3.783
	c-5.657,4.145-9.969,10.074-12.146,16.771c-0.007,0.021-1.373,4.244-1.558,8.023c-0.214,2.182-0.307,4.402-0.12,6.59
	c0.272,3.186,1.001,6.33,1.974,9.371c0.257,0.803,0.532,1.6,0.826,2.389c3.344,8.967,10.365,14.707,18.676,18.924
	c4.512,2.289,9.399,3.443,14.335,3.498c6.16,0.068,11.962-1.689,17.403-4.49c2.459-1.266,4.841-2.963,6.896-4.807
	c7.53-6.76,12.108-17.057,11.899-27.184C110.592,226.693,108.709,220.254,105.599,214.645z M61.936,207.645
	c1.455-0.736,2.97-1.336,4.523-1.809c0.807-0.246,1.624-0.459,2.448-0.635c0.322,1.994,0.665,3.988,0.938,5.992
	c0.77,5.654,1.446,11.311,2.032,16.951c-0.076,0.035-0.152,0.064-0.228,0.104c-0.02,0.01-0.036,0.021-0.055,0.033
	c-2.513-2.076-4.996-4.188-7.443-6.34c0.148-0.238,0.297-0.477,0.444-0.715c0.777-1.27,1.797-2.695,1.951-4.219
	c0.137-1.363-2.403-2.49-3.321-3.076c-0.496-0.316-0.983-0.646-1.481-0.959c-0.478,2.521-1.757,4.518-3.403,7.025
	c-0.635-0.449-1.263-0.908-1.892-1.365c-0.809-0.59-1.616-1.182-2.42-1.779c-0.288-0.213-0.573-0.428-0.862-0.641
	c-0.215-0.16-0.501-0.377-0.462-0.682c0.035-0.279,0.294-0.812,0.473-1.012C56.168,211.186,59.913,208.742,61.936,207.645z
	 M46.742,236.371c-0.095-0.906-0.15-1.832-0.163-2.779c-0.022-1.605-0.003-3.201,0.183-4.826c0.616-5.365,2.991-9.361,4.155-11.232
	c0.1-0.16,0.316-0.361,0.479-0.457c0.392-0.23,0.728,0.121,1.04,0.34c0.298,0.211,0.597,0.42,0.896,0.631
	c0.633,0.445,1.267,0.893,1.9,1.338c0.845,0.598,1.702,1.182,2.536,1.795c0.016,0.012,0.032,0.021,0.047,0.035
	c-0.607,0.961-2.596,3.715-3.862,5.152c1.399,1.088,3.161,2.336,3.657,2.471c1.374,0.373,2.749-1.732,3.506-2.611
	c0.192-0.223,0.369-0.455,0.551-0.686c2.533,2.055,5.065,4.109,7.598,6.164c0.055,0.045-0.08,1.055-0.075,1.195
	c0.01,0.285,0.135,0.684,0.034,0.963c-0.194,0.535-1.014,0.432-1.457,0.475c-0.48,0.049-0.963,0.078-1.441,0.145
	c-2.926,0.41-5.84,0.822-8.764,1.256c-2.264,0.334-4.506,0.799-6.775,1.102c-0.992,0.133-1.98,0.381-2.976,0.479
	C47.166,237.383,46.809,237.012,46.742,236.371z M57.284,255.107c-0.05,0-0.106-0.008-0.169-0.021
	c-0.332-0.076-0.584-0.352-0.827-0.57c-3.309-2.975-5.896-6.699-7.663-10.773c-0.384-0.889-0.711-1.801-0.981-2.729
	c-0.177-0.607-0.486-1.23-0.456-1.875c0.04-0.852,0.526-1.01,1.292-1.057c2.303-0.145,4.588-0.734,6.863-1.152
	c2.967-0.547,5.963-0.938,8.955-1.332c1.528-0.201,3.07-0.396,4.599-0.523c0.263-0.021,0.538-0.109,0.75,0.105
	c0.208,0.211,0.306,0.619,0.464,0.877c0.203,0.326,0.759,0.744,0.809,1.123c0.051,0.385-0.368,0.725-0.567,1.004
	c-0.297,0.416-0.593,0.834-0.896,1.246c-0.952,1.289-1.789,2.676-2.758,3.957c-2.038,2.699-4.149,5.318-6.244,7.949
	c-0.868,1.09-1.75,2.121-2.579,3.244C57.676,254.85,57.584,255.104,57.284,255.107z"/>
<g>
	<path fill="#FFFFFF" d="M156.215,83.364c2.239-0.115,7.808-0.345,12.171-0.345c9.588,0,13.492,4.42,13.492,9.989
		c0,4.191-1.607,7.005-4.593,8.957v0.115c2.928,1.091,5.741,4.019,5.741,9.186c0,8.44-6.545,12.401-15.271,12.401
		c-3.846,0-9.186-0.115-11.54-0.344V83.364z M165.401,91.861v7.292h3.042c2.354,0,4.249-0.977,4.249-3.905
		c0-2.411-2.181-3.617-4.42-3.617C167.123,91.631,166.434,91.746,165.401,91.861z M165.401,107.189v7.521
		c0.631,0.172,1.377,0.345,3.101,0.345c3.559,0,5.339-1.55,5.339-4.249c0-2.526-1.895-3.617-4.88-3.617H165.401z"/>
	<path fill="#FFFFFF" d="M187.332,83.249h23.826v8.612h-14.64v7.062h12.918v8.612h-12.918v7.292h15.214v8.611h-24.4V83.249z"/>
	<path fill="#FFFFFF" d="M230.014,83.249h8.21l16.708,40.188h-9.818l-3.33-8.439h-15.902l-3.33,8.439h-9.244L230.014,83.249z
		 M229.325,106.386h9.015l-4.479-11.368L229.325,106.386z"/>
	<path fill="#FFFFFF" d="M257.343,123.437V83.249c2.239,0,12.517-0.115,13.665-0.115c10.966,0,14.869,5.454,14.869,12.86
		c0,7.463-4.594,10.506-6.774,11.597l11.712,15.846h-11.138l-9.761-14.066h-3.387v14.066H257.343z M266.529,91.861v8.899h3.33
		c3.502,0,6.258-1.264,6.258-4.651c0-2.239-1.148-4.363-5.568-4.363C269.171,91.746,268.424,91.803,266.529,91.861z"/>
	<path fill="#FFFFFF" d="M323.081,82.56c12.229,0,21.358,7.98,21.358,20.784c0,12.171-9.13,20.783-21.358,20.783
		c-12.228,0-21.356-7.98-21.356-20.783C301.725,91.688,310.278,82.56,323.081,82.56z M323.081,115.514
		c7.636,0,11.598-5.396,11.598-12.171c0-7.349-5.109-12.172-11.598-12.172c-6.659,0-11.597,4.823-11.597,12.172
		C311.484,110.232,316.65,115.514,323.081,115.514z"/>
	<path fill="#FFFFFF" d="M375.614,123.437l-19.061-24.113v24.113h-8.612V83.249h7.35l19.061,24.228V83.249h8.611v40.188H375.614z"/>
	<path fill="#FFFFFF" d="M189.571,165.924c0,12.287-7.808,17.281-16.419,17.281c-10.335,0-17.511-5.914-17.511-17.684v-23.193h9.186
		v21.242c0,6.258,1.895,11.023,8.325,11.023c5.569,0,7.233-4.076,7.233-10.508v-21.758h9.187V165.924z"/>
	<path fill="#FFFFFF" d="M221.723,182.516l-19.061-24.113v24.113h-8.612v-40.188h7.349l19.062,24.229v-24.229h8.611v40.188H221.723z
		"/>
	<path fill="#FFFFFF" d="M234.184,142.328h9.185v40.188h-9.185V142.328z"/>
	<path fill="#FFFFFF" d="M281.266,178.555c-2.41,2.699-7.635,4.65-13.089,4.65c-12.459,0-21.069-8.268-21.069-20.783
		c0-11.539,7.176-20.783,21.012-20.783c5.339,0,9.875,1.838,12.286,4.191l-4.077,6.889c-2.182-1.32-4.42-2.469-8.209-2.469
		c-6.201,0-11.253,4.25-11.253,12.172c0,7.119,4.938,12.172,12.172,12.172c2.87,0,6.028-0.918,8.726-2.928L281.266,178.555z"/>
	<path fill="#FFFFFF" d="M303.83,166.154v16.361h-9.186v-16.361l-14.123-23.826h10.506l8.611,15.215l8.498-15.215h9.932
		L303.83,166.154z"/>
	<path fill="#FFFFFF" d="M348.102,178.555c-2.412,2.699-7.637,4.65-13.09,4.65c-12.459,0-21.07-8.268-21.07-20.783
		c0-11.539,7.176-20.783,21.012-20.783c5.34,0,9.876,1.838,12.288,4.191l-4.077,6.889c-2.182-1.32-4.422-2.469-8.211-2.469
		c-6.199,0-11.252,4.25-11.252,12.172c0,7.119,4.938,12.172,12.172,12.172c2.869,0,6.027-0.918,8.727-2.928L348.102,178.555z"/>
	<path fill="#FFFFFF" d="M351.174,142.328h9.188v31.576h16.361v8.611h-25.549V142.328z"/>
	<path fill="#FFFFFF" d="M379.33,142.328h23.826v8.611h-14.641v7.062h12.918v8.611h-12.918v7.291h15.215v8.611h-24.4V142.328z"/>
</g>
<path fill="#FFFFFF" d="M77.799,3.091c0.018-0.494,0.329-1.136-0.122-1.534c-0.747-0.659-1.042,0.714-1.374,1.077
	c-0.66,0.724-1.223-0.766-1.573-1.19c-0.682-0.825-1.211-0.396-1.441,0.427c-0.197,0.706-0.376,1.394-1.085,0.642
	c-0.191-0.202-0.444-0.582-0.724-0.658c-0.928-0.254-0.451,1.366-0.368,1.773c0.256,1.262,0.297,2.566,0.668,3.804
	c0.238,0.792,0.784,1.667,1.533,2.129c0.209,0.128,0.437,0.216,0.676,0.271c0.045,0.3,0.06,0.592,0.018,0.918
	c-0.056,0.44-0.202,0.878-0.486,1.24c-0.327,0.417-0.641,0.727-1.137,0.918c-1.721,0.664-3.61,0.438-5.411,0.439
	c-2.461,0.002-4.968,0.598-7.004,2.024c-2.777,1.945-3.946,5.273-3.804,8.563c0.041,0.522,0.11,0.968,0.188,1.36
	c-1.346,0.496-2.659,1.058-3.899,1.761c-0.649,0.368-1.723,0.562-1.933,1.386c-0.263,1.028,0.496,2.592,0.701,3.597
	c0.486,2.387,1.018,4.764,1.578,7.134c0.093,0.392,0.189,0.783,0.284,1.174c0.02-0.015,0.038-0.033,0.058-0.049
	c1.538-1.159,3.255-2.17,5.104-3.005c3.615-1.634,7.327-2.445,10.733-2.344l0.194,0.007c0.637,0.024,1.275,0.134,1.907,0.27
	c-0.926-2.021-1.852-4.042-2.778-6.063c-0.53-1.156-1.06-2.313-1.59-3.471c-0.561-1.224-1.361-3.322-3.061-2.747
	c-1.796,0.606-3.651,1.128-5.477,1.722c-0.166-0.921-0.2-1.846-0.05-2.776c0.341-2.121,1.411-4.151,3.252-5.339
	c2.35-1.516,5.516-1.688,8.232-1.732c1.716-0.029,3.678-0.153,4.841-1.598c0.359-0.447,0.691-0.985,0.922-1.511
	c0.307-0.697,0.522-1.441,0.502-2.208c0.031-0.02,0.068-0.033,0.098-0.054c0.455-0.314,1.074-0.897,1.307-1.405
	c0.438-0.958,0.55-2.011,0.605-3.051C77.918,4.329,77.777,3.722,77.799,3.091z"/>
<g>
	<path d="M61.969,207.572c-0.68,0.344-1.376,0.807-2.028,1.209c-0.011,0.041-0.021,0.08-0.044,0.113
		c0.062,2.789-0.572,5.51-1.921,7.969c0.789-2.439,1.439-5.166,1.421-7.738c-0.248,0.156-1.803,1.26-2.459,1.791
		c-0.26,2.045-0.808,3.928-1.877,5.691c0.631-1.691,1.082-3.455,1.312-5.246c-0.001,0-0.001,0-0.002,0
		c-1.107,0.973-2.171,1.988-3.192,3.051c-0.105,0.42-0.186,0.852-0.285,1.275c0-0.32,0.008-0.639,0.021-0.957
		c-0.358,0.475-0.417,1.213,0.18,1.639c1.795,1.277,5.16,3.801,5.53,4.062C61.351,216.271,62.984,212.656,61.969,207.572z"/>
	<circle cx="64.936" cy="43.68" r="1.414"/>
	<path d="M49.359,220.182c0.266-0.328,0.465-0.389,0.893-0.855c-0.403,0.914-1.044,1.732-1.706,2.48
		c-1.396,3.318-2.094,6.531-2.078,10.5c4.994-2.227,8.567-6.533,11.652-11.119c-2.012-1.459-4.121-2.912-6.371-4.396
		C51.258,216.467,50.374,217.99,49.359,220.182z M48.721,225.398c-0.62,0.453-1.065,0.717-1.065,0.717
		c1.828-1.998,3.637-4.014,5.427-6.047C52.094,222.166,50.596,224.029,48.721,225.398C48.101,225.852,48.876,225.285,48.721,225.398
		z M54.548,222.52c0.422-0.646,0.865-1.281,1.29-1.926c-1.137,3.252-3.375,5.893-6.395,7.549
		C51.317,226.504,53.22,224.625,54.548,222.52C54.694,222.297,54.407,222.744,54.548,222.52z"/>
	<path d="M52.506,177.586c0.005-0.016,0.013-0.031,0.019-0.049C52.519,177.555,52.512,177.57,52.506,177.586z"/>
	<path d="M124.444,14.161c-0.386-0.725-1.897-3.787-2.77-3.459c-0.759,0.285-0.804,3.185-1.639,3.432
		c-1.445,0.427-2.722-4.107-3.978-4.057c-1.298,0.052-0.135,4.589-1.087,5.022c-0.844,0.384-3.385-3.485-4.307-2.553
		c-0.617,0.625,1.136,4.571,0.372,4.97c-0.702,0.368-3.704-2.476-4.172-1.732c-0.435,0.692,0.297,3.736,0.542,4.499
		c4.859,15.118,4.474,28.684,1.224,36.033c-3.522,7.967-8.315,12.83-11.219,14.939c-1.061,0.771-6.379,2.944-7.92,2.413
		c-2.186-0.753-2.517-2.749-1.976-5.458c0.452-2.271,2.843-5.95,5.409-9.027c2.466-2.957,4.928-8.023,4.669-11.908
		c-0.132-1.979-1.159-2.55-2.867-1.299c-5.885,4.305-11.591,10.277-19.03,5.285c3.895-0.744,6.91-2.066,10.197-3.918
		c3.741-2.106,9.849-5.991,9.903-10.528c0.016-1.357-0.144-2.802-0.609-4.057c-0.854-2.304-0.15-4.167-3.33-3.857
		c-3.511,0.343-6.915,2.796-10.889,4.91c-1.124,0.598-2.609,1.587-3.812,1.84c-2.761,0.583-5.283-0.874-7.973-0.98
		c-3.791-0.15-7.617,0.809-11.055,2.363c-1.821,0.822-3.561,1.834-5.158,3.037c-0.964,0.725-1.698,1.781-2.789,2.339
		c-1.345,0.688-2.788-0.342-3.922-0.919c-1.962-0.998-4.908-0.773-6.908-0.017c-2.558,0.967-3.842,3.617-3.857,6.245
		c-0.025,3.952,2.878,7.467,6.857,7.862c0.864,0.086,1.816-0.136,2.479,0.526c1.071,1.069,0.645,3.033,0.851,4.388
		c0.341,2.224,0.923,4.404,1.524,6.569c0.43,1.546,2.45,5.402,0.63,5.991c-5.331,1.724-14.469-7.017-17.839-13.683
		c-5.627-11.128-5.445-24.61-5.444-24.524c-0.13-6.059,0.663-13.395,2.257-18.095c0.333-0.983,0.949-3.481,0.291-3.759
		c-0.756-0.319-3.013,3.429-3.775,3.048c-0.465-0.232,1.229-5.357,0.416-5.784c-1.072-0.564-3.423,3.938-4.192,3.602
		c-0.768-0.336,0.783-5.066-0.035-5.264c-1.281-0.312-3.429,4.502-4.295,4.122c-0.742-0.327,0.567-4.418-0.242-4.537
		c-1.084-0.161-2.427,1.707-3.037,2.678c-1.016,1.617-3.888,5.88-6.21,17.541C1,52.162,8.608,74.774,20.639,95.199
		c3.37,5.72,5.929,11.812,7.928,17.974c3.14,9.676,2.692,23.126-2.152,31.708c-7.665,13.578-12.694,26.361-9.497,38.203
		c1.501,5.562,4.249,11.465,9.095,16.938c4.862,5.488,11.691,9.012,14.677,15.236c0.63,1.314-1.071,3.65-2.195,5.432
		c-0.304,0.484-3.328,4.186-2.634,4.871c0.589,0.582,2.71-0.994,3.178-0.477c0.347,0.385-1.923,3.217-1.152,3.781
		c0.202,0.146,0.546,0.08,0.956-0.088c0.282-2.842,0.832-5.594,1.625-8.033c0.933-2.871,2.249-5.562,3.886-8.031
		c-0.398-0.865-0.822-1.707-1.162-2.344c-0.374-0.68-0.623-1.133-0.623-1.133s0.41,0.334,0.895,0.955
		c0.245,0.307,0.511,0.682,0.765,1.102c0.176,0.277,0.336,0.582,0.492,0.893c0.536-0.775,1.097-1.535,1.696-2.264
		c-0.044-0.119-0.087-0.236-0.129-0.357c-0.113-0.32-0.227-0.641-0.333-0.941c-0.106-0.305-0.199-0.582-0.29-0.811
		c-0.048-0.117-0.076-0.232-0.121-0.33c-0.047-0.096-0.087-0.182-0.121-0.25c-0.064-0.143-0.097-0.227-0.097-0.227
		s0.07,0.057,0.186,0.158c0.119,0.1,0.278,0.244,0.428,0.475c0.171,0.221,0.327,0.492,0.474,0.787
		c0.162,0.293,0.273,0.623,0.408,0.949c0.007,0.018,0.013,0.037,0.019,0.057c-0.009,0.01-0.018,0.021-0.027,0.031
		c0.604-0.709,1.231-1.398,1.893-2.057c-0.002,0.002-0.004,0.004-0.006,0.006c-0.024-0.082-0.048-0.166-0.075-0.242
		c-0.147-0.463-0.292-0.836-0.415-1.098c-0.122-0.262-0.185-0.416-0.185-0.416s0.105,0.129,0.279,0.359
		c0.09,0.111,0.182,0.262,0.289,0.434c0.114,0.172,0.229,0.371,0.333,0.6c0.017,0.031,0.031,0.066,0.048,0.1
		c-0.005,0.004-0.01,0.01-0.015,0.014c2.881-2.812,6.269-5.148,10.029-6.883c-2.341-3.744-5.671-7.307-6.313-10.766
		c-0.326-1.758,0.809-3.828,1.986-5.377c-0.092-0.039-0.151-0.09-0.195-0.133c-0.917-0.885-2.222-2.539-2.063-5.871
		c0,0.01,0,0.02,0,0.029c-0.064-0.256-0.125-0.518-0.179-0.783c-0.068-0.691-0.092-1.387-0.073-1.912
		c0.014-0.525,0.073-0.881,0.073-0.881s0.129,0.336,0.25,0.848c0.107,0.439,0.207,1.01,0.279,1.6
		c-0.001,0.002-0.001,0.004-0.002,0.006c0.133-0.236,0.289-0.457,0.469-0.631c0.933-0.898,2.381-1.279,3.611-1.539
		c1.687-0.357,3.442-0.605,5.157-0.768c2.002-0.188,4.025,0.16,5.497,1.625c0.975,0.969,1.884,2.039,2.3,3.318
		c0.46,1.414,0.719,2.861,0.915,4.533c0.464,3.955,0.743,7.822,1.118,11.773c0.295,3.125,0.576,6.262,1.074,9.359
		c1.416,8.816,7.212,18.537,7.992,23.197c0.493,2.938,0.528,5.816-0.732,8.326c-1.537,3.059-5.519,6.295-6.292,7.387
		c-0.359,0.508-1.891,2.469-1.369,3.037c0.577,0.629,3.714-1.617,4.375-1.09c0.711,0.568-3.165,3.66-2.477,4.293
		c0.825,0.76,4.883-1.818,5.334-1.42c0.543,0.48-2.824,3.061-2.059,3.729c0.946,0.826,4.757-1.779,5.245-1.525
		c0.676,0.352-2.495,3.4-1.936,3.773c0.792,0.529,3.59-0.578,5.383-1.484c3.771-1.908,11.371-7.799,13.02-10.096
		c5.177-7.215,5.37-26.705,8.645-39.754c4.44-17.691,7.398-34.631,6.08-54.385c-1.477-22.122-3.42-41.426,2.639-53.123
		c5.369-10.364,11.393-20.134,14.103-31.566C134.627,48.003,133.124,30.479,124.444,14.161z M46.045,45.092
		c-3.107-1.527-6.822-0.27-6.964,3.409c0.368,2.29,2.903,3.569,5.024,3.736c-2.32,0.088-5.175-1.099-5.569-3.673
		c0.031-4.564,4.297-5.072,7.686-3.392C46.222,45.172,46.161,45.144,46.045,45.092C45.932,45.036,46.161,45.144,46.045,45.092z
		 M125.996,35.934c0.191,0.963,0.268,1.932,0.229,2.908c-0.682-1.805-1.07-3.739-1.137-5.667
		C125.497,34.057,125.8,34.977,125.996,35.934C126.122,36.651,125.836,35.229,125.996,35.934z M126.661,53.865
		c0.255,2.3-0.089,4.624-0.999,6.752C125.82,58.347,126.155,56.083,126.661,53.865z M126.608,43.819
		c0.025-0.689,0.092-1.152,0.092-1.152c0.587,2.396,0.664,4.888,0.224,7.315C126.665,47.955,126.522,45.864,126.608,43.819
		C126.633,43.129,126.579,44.508,126.608,43.819z M122.818,44.174c0.051-0.586,0.136-0.985,0.136-0.985
		c0.493,2.063,0.474,4.208-0.054,6.263C122.716,47.718,122.65,45.913,122.818,44.174C122.869,43.587,122.762,44.761,122.818,44.174z
		 M123.176,25.609c-0.144-0.628-0.191-1.064-0.191-1.064c1.117,2.003,1.835,4.217,2.107,6.494
		C124.257,29.319,123.59,27.48,123.176,25.609C123.033,24.981,123.315,26.239,123.176,25.609z M123.124,16.407
		c0.996,1.617,1.727,3.372,2.133,5.227c-1.188-1.886-2.113-3.958-2.722-6.102C122.535,15.532,122.798,15.869,123.124,16.407
		C123.454,16.942,122.798,15.869,123.124,16.407z M122.626,53.017c0.083,2.106-0.348,4.195-1.259,6.096
		C121.527,57.046,121.955,54.978,122.626,53.017z M121.027,36.675c-0.16-0.862-0.208-1.728-0.143-2.597
		c0.674,1.616,0.94,3.383,0.772,5.126C121.337,38.392,121.127,37.548,121.027,36.675C120.924,36.041,121.116,37.317,121.027,36.675z
		 M120.034,17.575c0.903,1.475,1.552,3.093,1.901,4.785c-1.12-1.702-1.952-3.606-2.439-5.584
		C119.496,16.775,119.738,17.082,120.034,17.575C120.334,18.065,119.738,17.082,120.034,17.575z M119.449,26.396
		c0.663,1.656,1.053,3.413,1.142,5.193c-0.85-1.924-1.378-4.001-1.551-6.098C119.04,25.491,119.232,25.842,119.449,26.396
		C119.669,26.947,119.232,25.842,119.449,26.396z M120.262,62.603c-0.432,2.303-1.339,4.497-2.66,6.433
		C118.213,66.798,119.114,64.619,120.262,62.603z M119.775,47.972c-0.125,0.507-0.259,0.84-0.259,0.84
		c-0.125-1.833,0.011-3.706,0.396-5.502C120.244,44.869,120.171,46.431,119.775,47.972C119.65,48.479,119.905,47.465,119.775,47.972
		z M119.341,53.101c0.201-0.511,0.383-0.839,0.383-0.839c-0.067,1.965-0.619,3.882-1.606,5.582
		C118.342,56.24,118.735,54.607,119.341,53.101C119.542,52.589,119.136,53.61,119.341,53.101z M117.204,18.68
		c0.672,1.276,1.098,2.688,1.259,4.118c-0.91-1.453-1.486-3.11-1.674-4.815C116.789,17.983,116.983,18.251,117.204,18.68
		C117.428,19.106,116.983,18.251,117.204,18.68z M117.358,45.772c-0.085,0.875-0.279,1.722-0.583,2.541
		c-0.132-1.717-0.004-3.479,0.374-5.159C117.333,44.015,117.403,44.887,117.358,45.772
		C117.281,46.415,117.375,45.117,117.358,45.772z M116.575,35.382c0.033-0.447,0.105-0.755,0.105-0.755
		c0.51,1.516,0.619,3.147,0.313,4.718C116.619,38.073,116.462,36.708,116.575,35.382C116.608,34.935,116.537,35.831,116.575,35.382z
		 M113.8,38.78c-0.051,0.377-0.136,0.633-0.136,0.633c-0.434-1.277-0.494-2.662-0.17-3.972
		C113.855,36.507,113.966,37.663,113.8,38.78C113.749,39.158,113.856,38.402,113.8,38.78z M113.894,43.672
		c0.169,1.488,0.02,2.958-0.51,4.362c-0.146-1.724-0.018-3.495,0.375-5.18C113.759,42.854,113.842,43.183,113.894,43.672
		C113.949,44.162,113.842,43.183,113.894,43.672z M114.206,75.094c0.494-0.973,1.083-1.883,1.767-2.728
		c-0.659,2.065-1.693,4.015-3.032,5.72C113.257,77.046,113.679,76.049,114.206,75.094C114.586,74.379,113.829,75.81,114.206,75.094z
		 M115.628,64.484c-0.424,0.952-0.946,1.844-1.565,2.677c0.513-2.004,1.406-3.914,2.616-5.592
		C116.436,62.577,116.085,63.548,115.628,64.484C115.299,65.182,115.953,63.784,115.628,64.484z M115.127,26.381
		c0.789,1.798,1.219,3.754,1.258,5.718C115.596,30.3,115.166,28.344,115.127,26.381z M114.799,55.886
		c0.253-1.442,0.752-2.881,1.372-4.201c-0.021,1.783-0.53,3.518-1.475,5.03C114.696,56.715,114.708,56.374,114.799,55.886
		C114.885,55.396,114.708,56.374,114.799,55.886z M113.239,19.379c0.794,1.381,1.245,2.951,1.306,4.542
		C113.75,22.54,113.3,20.971,113.239,19.379z M112.137,27.244c0.742,1.689,1.126,3.534,1.119,5.379
		C112.512,30.934,112.128,29.088,112.137,27.244z M111.678,55.122c0.165-1.285,0.585-2.575,1.146-3.736
		c0.053,1.581-0.363,3.134-1.198,4.478C111.626,55.863,111.619,55.555,111.678,55.122C111.734,54.688,111.619,55.555,111.678,55.122
		z M110.595,22.576c-0.249-0.768-0.387-1.552-0.416-2.353c0.815,1.375,1.29,2.944,1.374,4.541
		C111.13,24.083,110.811,23.354,110.595,22.576C110.425,22.008,110.768,23.144,110.595,22.576z M110.701,64.252
		c0.65-1.418,1.531-2.776,2.487-4.003c-0.492,1.835-1.462,3.497-2.819,4.828C110.369,65.078,110.477,64.731,110.701,64.252
		C110.922,63.771,110.477,64.731,110.701,64.252z M112.321,70.473c-0.626,1.925-1.626,3.731-2.926,5.283
		C110.021,73.831,111.021,72.026,112.321,70.473z M108.258,62.848c0.498-1.301,1.241-2.552,2.08-3.658
		c-0.339,1.667-1.143,3.193-2.325,4.417C108.013,63.606,108.086,63.285,108.258,62.848
		C108.426,62.408,108.086,63.285,108.258,62.848z M106.597,70.613c0.602-0.849,1.304-1.601,2.105-2.254
		c-0.918,1.846-2.224,3.494-3.81,4.804C105.411,72.278,105.985,71.436,106.597,70.613C107.063,70.001,106.371,70.917,106.597,70.613
		z M106.287,123.283c-0.046,0.508-0.111,1.014-0.193,1.517c-0.326-3.232-0.261-6.513,0.191-9.729
		C106.554,117.795,106.556,120.556,106.287,123.283C106.246,123.739,106.376,122.373,106.287,123.283z M106.413,134.797
		c0.01,2.179-0.049,4.324-0.249,6.486c-0.414-4.306-0.438-8.658-0.071-12.967C106.316,130.474,106.398,132.619,106.413,134.797
		C106.42,136.418,106.402,133.176,106.413,134.797z M106.413,110.586c-0.052-1.758,0.174-3.532,0.653-5.221
		c0.191,2.08-0.007,4.198-0.582,6.206C106.484,111.571,106.425,111.174,106.413,110.586
		C106.395,109.998,106.425,111.174,106.413,110.586z M106.853,80.734c-0.686,1.79-1.627,3.487-2.781,5.015
		c0.689-2.167,1.752-4.219,3.125-6.032C107.197,79.717,107.086,80.138,106.853,80.734C106.624,81.333,107.086,80.138,106.853,80.734
		z M102.521,70.596c1.099-1.285,2.195-2.572,3.307-3.845c-0.722,1.954-2.089,3.566-3.897,4.6
		C101.93,71.351,102.15,71.022,102.521,70.596C102.613,70.488,102.15,71.022,102.521,70.596z M103.188,78.418
		c0.44-0.559,0.774-0.904,0.774-0.904c-1.075,2.268-2.372,4.453-3.849,6.481C100.789,81.945,101.845,80.104,103.188,78.418
		C103.628,77.859,102.746,78.974,103.188,78.418z M101.018,94.018c-0.505,1.529-1.062,2.998-1.758,4.438
		c0.578-3.147,1.65-6.195,3.173-9.01C102.071,91.009,101.583,92.506,101.018,94.018C100.645,95.148,101.437,92.899,101.018,94.018z
		 M101.658,130.722c0.023-0.68,0.064-1.359,0.124-2.037c0.474,4.318,0.559,8.688,0.253,13.022
		C101.64,138.064,101.511,134.384,101.658,130.722C101.677,130.111,101.609,131.944,101.658,130.722z M100.439,191.863
		c-0.016-1.848,0.036-3.658,0.23-5.486c0.425,3.639,0.462,7.332,0.108,10.979C100.548,195.527,100.46,193.715,100.439,191.863
		C100.427,190.492,100.455,193.236,100.439,191.863z M100.561,211.262c-0.943-3.666-1.473-7.445-1.576-11.229
		C99.861,203.711,100.391,207.484,100.561,211.262z M100.995,181.389c-0.059,0.49-0.135,0.979-0.227,1.463
		c-0.252-3.131-0.112-6.303,0.414-9.398C101.389,176.092,101.325,178.76,100.995,181.389
		C100.943,181.828,101.105,180.512,100.995,181.389z M100.906,107.054c-0.306,1.235-0.718,2.433-1.236,3.591
		c0.26-2.516,0.912-4.997,1.92-7.317C101.476,104.588,101.247,105.831,100.906,107.054
		C100.664,107.968,101.144,106.138,100.906,107.054z M99.227,77.431c0.57-0.64,1.186-1.232,1.848-1.777
		c-1.506,2.214-3.121,4.359-4.833,6.418C96.963,80.351,97.984,78.825,99.227,77.431C99.533,77.069,98.911,77.785,99.227,77.431z
		 M78.123,108.703c-0.053,0.31-0.09,0.485-0.09,0.485c-0.116-3.812,0.162-7.645,0.825-11.4
		C78.963,101.448,78.665,105.085,78.123,108.703C78.07,109.013,78.169,108.393,78.123,108.703z M78.206,160.258
		c0.257,3.82,0.218,7.676-0.114,11.49C77.644,167.932,77.682,164.062,78.206,160.258z M78.109,74.739
		c-0.006-1.676,0.213-3.349,0.691-4.958c0.036,2.425-0.114,4.86-0.448,7.265C78.196,76.285,78.116,75.516,78.109,74.739
		C78.107,74.307,78.097,75.172,78.109,74.739z M78.759,63.922c-0.976,0.818-1.932,1.64-2.827,2.546
		c1.017-1.979,2.702-3.482,4.796-4.308C80.101,62.784,79.436,63.354,78.759,63.922z M77.763,113.322
		c-0.12,4.512-0.486,9.004-1.254,13.454c0.027-4.708,0.447-9.423,1.253-14.062C77.762,112.713,77.767,112.936,77.763,113.322
		C77.752,113.709,77.767,112.936,77.763,113.322z M74.578,93.607c-0.261-4.124-0.289-8.279-0.116-12.407
		c0.588,4.296,0.644,8.656,0.167,12.965C74.629,94.165,74.605,93.961,74.578,93.607C74.556,93.252,74.605,93.961,74.578,93.607z
		 M74.513,103.54c-0.099,1.968-0.265,3.897-0.572,5.835c-0.198-3.902-0.004-7.833,0.577-11.697
		C74.631,99.635,74.606,101.572,74.513,103.54C74.439,105.002,74.583,102.078,74.513,103.54z M74.884,141.988
		c0.119-3.904,0.661-7.833,1.295-11.689c0.076,4.101-0.362,8.217-1.296,12.221C74.883,142.52,74.878,142.326,74.884,141.988
		C74.895,141.652,74.878,142.326,74.884,141.988z M75.21,73.18c0.044-1.155,0.201-2.293,0.471-3.413
		c0.261,2.285,0.133,4.619-0.376,6.862C75.16,75.484,75.129,74.334,75.21,73.18C75.258,72.322,75.165,74.038,75.21,73.18z
		 M79.876,85.838c0.008,2.84-0.164,5.639-0.677,8.431c-0.109-4.125,0.103-8.259,0.632-12.346
		C79.879,83.229,79.876,84.532,79.876,85.838C79.878,86.562,79.876,85.476,79.876,85.838z M79.155,141.932
		c0.12-4.059,0.484-8.096,1.249-12.087c-0.025,4.235-0.444,8.478-1.247,12.636C79.157,142.48,79.151,142.281,79.155,141.932
		C79.165,141.584,79.151,142.281,79.155,141.932z M80.129,67.077c-0.271,0.313-0.484,0.511-0.484,0.511
		c0.371-1.499,1.31-2.737,2.652-3.477C81.636,65.134,80.933,66.162,80.129,67.077C79.859,67.391,80.266,66.922,80.129,67.077z
		 M82.25,170.027c-0.057,0.598-0.131,1.191-0.222,1.785c-0.264-3.818-0.137-7.672,0.379-11.465
		C82.625,163.568,82.572,166.814,82.25,170.027C82.2,170.564,82.357,168.955,82.25,170.027z M82.397,182.748
		c-0.031,0.777-0.101,1.299-0.101,1.299c-0.537-2.721-0.643-5.523-0.313-8.275C82.347,178.068,82.498,180.422,82.397,182.748
		C82.367,183.525,82.431,181.969,82.397,182.748z M82.411,109.02c-0.043,0.303-0.076,0.475-0.076,0.475
		c-0.227-3.703-0.063-7.438,0.488-11.106C83.037,101.941,82.854,105.49,82.411,109.02C82.367,109.322,82.449,108.717,82.411,109.02z
		 M81.989,69.818c-0.133,2.365-0.377,4.727-0.732,7.068C80.85,74.505,81.1,72.061,81.989,69.818z M80.736,125.893
		c0.154-4.417,0.576-8.815,1.387-13.162c-0.074,4.612-0.541,9.226-1.393,13.759C80.731,126.49,80.728,126.272,80.736,125.893
		C80.75,125.515,80.728,126.272,80.736,125.893z M80.756,199.908c0.766,3.857,1.458,7.732,2.074,11.615
		C81.452,207.811,80.742,203.859,80.756,199.908z M82.682,155.959c-0.047,0.279-0.081,0.438-0.081,0.438
		c-0.187-3.428,0.019-6.885,0.61-10.266C83.385,149.422,83.16,152.701,82.682,155.959C82.635,156.238,82.723,155.68,82.682,155.959z
		 M86.097,162.268c0.049-0.555,0.116-1.107,0.2-1.658c0.265,3.535,0.25,7.107-0.046,10.641
		C85.837,168.268,85.811,165.264,86.097,162.268C86.14,161.77,86.002,163.264,86.097,162.268z M85.732,124.343
		c-0.079,0.703-0.174,1.404-0.286,2.103c-0.126-4.518,0.141-9.056,0.795-13.528C86.342,116.729,86.172,120.554,85.732,124.343
		C85.663,124.975,85.879,123.08,85.732,124.343z M86.318,176.453c0.012-0.471,0.042-0.938,0.088-1.404
		c0.545,2.932,0.706,5.945,0.474,8.918C86.426,181.494,86.237,178.967,86.318,176.453C86.328,176.033,86.291,177.293,86.318,176.453
		z M86.756,154.785c-0.071,0.545-0.161,1.086-0.268,1.625c-0.165-3.496,0.063-7.02,0.677-10.465
		C87.297,148.893,87.162,151.861,86.756,154.785C86.693,155.273,86.892,153.809,86.756,154.785z M86.414,104.251
		c-0.124,1.712-0.312,3.38-0.643,5.054c-0.151-3.392,0.092-6.812,0.72-10.148C86.583,100.862,86.532,102.538,86.414,104.251
		C86.322,105.52,86.501,102.983,86.414,104.251z M85.409,62.546c-0.434,0.456-0.89,0.895-1.344,1.33
		c0.852-1.839,2.271-3.333,4.066-4.302C87.294,60.624,86.386,61.624,85.409,62.546C85.291,62.67,85.657,62.312,85.409,62.546z
		 M85.244,71.311c-0.048,2.295-0.176,4.434-0.917,6.611c0.074-2.639,0.37-5.275,0.882-7.858
		C85.209,70.064,85.253,70.57,85.244,71.311C85.236,71.681,85.253,70.57,85.244,71.311z M84.32,84.083
		c0.179-0.623,0.374-1.241,0.584-1.854c-0.599,4.081-1.21,8.161-1.834,12.238C82.947,90.97,83.362,87.452,84.32,84.083
		C84.479,83.523,84.161,84.644,84.32,84.083z M84.349,131.775c-0.032,3.626-0.337,7.256-0.906,10.836
		c-0.098-4.297,0.198-8.612,0.88-12.855C84.35,130.429,84.358,131.102,84.349,131.775C84.338,132.985,84.358,131.17,84.349,131.775z
		 M82.897,188.408c0.009-0.242,0.023-0.381,0.023-0.381c0.589,2.865,1.036,5.766,1.337,8.674
		C83.238,194.031,82.851,191.254,82.897,188.408C82.906,188.166,82.893,188.65,82.897,188.408z M83.062,234.916
		c0.279-2.234,0.665-4.398,0.682-6.658c0.713,2.346,0.456,4.803-0.724,6.965C83.02,235.223,83.035,235.111,83.062,234.916
		C83.086,234.721,83.035,235.111,83.062,234.916z M84.15,215.885c-0.109-0.605-0.201-1.213-0.276-1.822
		c1.34,3.688,2.218,7.539,2.608,11.443C85.527,222.354,84.723,219.129,84.15,215.885C84.052,215.342,84.342,216.971,84.15,215.885z
		 M86.393,234.973c0.329-2.348,0.562-4.703,0.672-7.068c0.601,2.818,0.316,5.738-0.813,8.395
		C86.251,236.299,86.279,235.758,86.393,234.973C86.42,234.777,86.279,235.758,86.393,234.973z M87.054,209.709
		c-1.095-3.193-1.944-6.48-2.549-9.801c1.46,3.729,2.535,7.615,3.199,11.564C87.471,210.891,87.254,210.303,87.054,209.709
		C86.689,208.645,87.233,210.242,87.054,209.709z M87.477,192.238c-0.202-1.545-0.332-3.055-0.324-4.602
		c0.735,2.977,1.219,6.035,1.438,9.092C88.104,195.256,87.762,193.775,87.477,192.238C87.328,191.096,87.688,193.375,87.477,192.238
		z M87.492,142.615c0.159-4.342,0.71-8.677,1.643-12.92C88.977,134.037,88.426,138.373,87.492,142.615z M88.687,214.537
		c1.044,3.561,1.625,7.244,1.641,10.969c-0.787-3.779-1.387-7.602-1.798-11.443C88.529,214.062,88.591,214.234,88.687,214.537
		C88.776,214.842,88.591,214.234,88.687,214.537z M90.433,100.083c-0.165,3.204-0.562,6.402-1.239,9.538
		c-0.058-3.362,0.362-6.73,1.245-9.975C90.438,99.646,90.441,99.806,90.433,100.083C90.418,100.359,90.441,99.806,90.433,100.083z
		 M90.583,115.118c0.127-0.684,0.272-1.364,0.433-2.041c-0.168,4.438-0.648,8.867-1.436,13.233
		C89.651,122.589,89.879,118.775,90.583,115.118C90.697,114.503,90.465,115.731,90.583,115.118z M89.177,237.365
		c0.811-3.107,1.444-6.252,1.831-9.443c0.347,3.426-0.321,6.842-1.939,9.869C89.068,237.791,89.103,237.633,89.177,237.365
		C89.247,237.098,89.103,237.633,89.177,237.365z M90.371,205.684c-0.439-1.922-0.804-3.826-1.036-5.775
		c1.25,3.703,2.132,7.541,2.623,11.418C91.316,209.473,90.814,207.604,90.371,205.684C90.045,204.256,90.701,207.111,90.371,205.684
		z M92.278,140.209c-0.093,0.674-0.204,1.342-0.33,2.01c-0.088-4.338,0.355-8.679,1.319-12.91
		C93.088,132.945,92.794,136.604,92.278,140.209C92.196,140.812,92.45,139.006,92.278,140.209z M92.742,181.924
		c-0.006,0.469-0.03,0.938-0.071,1.404c-0.583-2.928-0.783-5.943-0.59-8.924C92.567,176.873,92.792,179.404,92.742,181.924
		C92.738,182.344,92.758,181.082,92.742,181.924z M91.936,150.668c-0.037,1.668-0.14,3.295-0.386,4.934
		c-0.321-3.283-0.252-6.613,0.205-9.881C91.931,147.369,91.968,149,91.936,150.668C91.909,151.902,91.96,149.434,91.936,150.668z
		 M92.626,108.379c-0.14,0.463-0.296,0.919-0.469,1.371c0.276-3.064,0.944-6.102,1.979-8.999
		C93.898,103.333,93.393,105.9,92.626,108.379C92.502,108.794,92.882,107.551,92.626,108.379z M93.888,87.327
		c-1.007,2.917-1.869,5.888-2.801,8.829c0.366-3.68,1.493-7.258,3.301-10.481C94.238,86.229,94.071,86.781,93.888,87.327
		C93.804,87.57,94.052,86.839,93.888,87.327z M91.11,160.77c0.011-0.299,0.025-0.469,0.025-0.469
		c0.622,3.57,0.858,7.219,0.702,10.84C91.244,167.711,91.053,164.246,91.11,160.77C91.121,160.471,91.105,161.066,91.11,160.77z
		 M91.878,192.238c-0.141-1.631-0.208-3.236-0.055-4.867c0.5,3.189,0.833,6.414,0.997,9.637
		C92.373,195.438,92.096,193.875,91.878,192.238C91.826,191.629,92.039,193.443,91.878,192.238z M92.751,214.547
		c0.772,3.613,1.296,7.264,1.421,10.959c-0.898-3.746-1.417-7.594-1.542-11.443C92.63,214.062,92.679,214.238,92.751,214.547
		C92.817,214.855,92.679,214.238,92.751,214.547z M93.892,124.981c-0.083,0.318-0.138,0.499-0.138,0.499
		c0.254-3.986,0.901-7.956,1.925-11.816C95.431,117.489,94.782,121.256,93.892,124.981C93.809,125.3,93.968,124.663,93.892,124.981z
		 M96.531,161.184c0.035-0.551,0.086-1.102,0.154-1.648c0.408,3.494,0.426,7.043,0.055,10.541
		C96.402,167.129,96.331,164.145,96.531,161.184C96.56,160.689,96.464,162.172,96.531,161.184z M96.411,150.34
		c0.007-1.592,0.083-3.141,0.3-4.705c0.378,3.119,0.367,6.293-0.033,9.41C96.472,153.479,96.407,151.93,96.411,150.34
		C96.416,149.162,96.408,151.516,96.411,150.34z M96.941,141.646c-0.051,0.354-0.089,0.553-0.089,0.553
		c-0.13-4.327,0.131-8.675,0.779-12.955C97.752,133.395,97.472,137.53,96.941,141.646C96.89,142,96.987,141.293,96.941,141.646z
		 M97.535,106.328c-0.288,1.368-0.686,2.702-1.194,4c0.23-2.774,0.851-5.521,1.834-8.125
		C98.075,103.593,97.861,104.968,97.535,106.328C97.305,107.343,97.763,105.312,97.535,106.328z M98.141,88.86
		c-0.873,2.83-1.949,5.625-3.065,8.365c0.616-3.491,1.803-6.857,3.513-9.963C98.456,87.799,98.307,88.332,98.141,88.86
		C97.848,89.809,98.29,88.387,98.141,88.86z M94.349,200.393c0.968,3.611,1.685,7.273,2.009,11c-1.1-3.74-1.824-7.6-2.156-11.484
		C94.203,199.908,94.261,200.084,94.349,200.393C94.432,200.703,94.261,200.084,94.349,200.393z M96.355,192.287
		c-0.072-1.824-0.075-3.609,0.064-5.42c0.475,3.562,0.709,7.176,0.699,10.77C96.749,195.865,96.52,194.098,96.355,192.287
		C96.302,190.934,96.478,193.631,96.355,192.287z M96.911,178.66c-0.121-1.578-0.17-3.121-0.081-4.691
		c0.67,3.072,0.856,6.242,0.55,9.371C97.108,181.787,96.977,180.246,96.911,178.66C96.821,177.496,96.959,179.834,96.911,178.66z
		 M97.159,214.559c0.003-0.314,0.013-0.496,0.013-0.496c0.755,3.762,1.015,7.615,0.773,11.443
		C97.44,221.883,97.187,218.217,97.159,214.559C97.162,214.244,97.161,214.875,97.159,214.559z M97.926,125.464
		c-0.043-3.808,0.307-7.628,1.041-11.365C99.01,117.907,98.661,121.728,97.926,125.464z M93.437,79.166
		c1.415-1.686,2.999-3.198,4.83-4.43c-1.862,2.132-3.847,4.158-5.941,6.064C92.652,80.224,93.022,79.679,93.437,79.166
		C93.584,78.989,93.284,79.337,93.437,79.166z M88.99,78.713c0.857-1.498,2.186-2.701,3.722-3.459
		c-1.328,1.492-2.721,2.929-4.17,4.302C88.542,79.557,88.694,79.205,88.99,78.713C89.133,78.463,88.694,79.205,88.99,78.713z
		 M87.48,91.524c0.524-2.696,1.209-5.267,2.417-7.738c-0.865,3.854-1.907,7.671-3.119,11.422
		C86.999,93.978,87.247,92.753,87.48,91.524C87.613,90.844,87.351,92.207,87.48,91.524z M89.196,61.8
		c-1.132,1.919-2.258,3.837-3.467,5.709c0.768-2.565,2.164-4.908,4.051-6.815C89.78,60.694,89.569,61.158,89.196,61.8
		C89.102,61.959,89.569,61.158,89.196,61.8z M93.841,55.585c-0.611,1.261-1.478,2.356-2.592,3.207
		c0.703-1.469,1.696-2.816,2.89-3.924C94.14,54.868,94.047,55.169,93.841,55.585C93.639,56.003,94.047,55.169,93.841,55.585z
		 M95.418,52.431c0.162-1.054,0.469-2.099,0.86-3.089c0.262,1.326-0.067,2.636-0.914,3.708
		C95.364,53.049,95.357,52.792,95.418,52.431C95.446,52.25,95.357,52.792,95.418,52.431z M94.882,49.022
		c0.234-0.211,0.431-0.322,0.431-0.322c-0.31,1.082-0.98,2.022-1.903,2.668C93.667,50.472,94.177,49.642,94.882,49.022
		C95.116,48.811,94.645,49.23,94.882,49.022z M92.286,49.517c0.582-0.792,1.383-1.358,2.327-1.625
		c-0.657,0.918-1.576,1.651-2.617,2.089C91.996,49.98,92.092,49.772,92.286,49.517C92.477,49.257,92.092,49.772,92.286,49.517z
		 M92.209,54.373c0.333-0.303,0.599-0.477,0.599-0.477c-0.672,1.487-1.763,2.733-3.148,3.597
		C90.35,56.359,91.212,55.256,92.209,54.373C92.543,54.07,91.872,54.672,92.209,54.373z M90.904,53.058
		c0.358-0.273,0.64-0.427,0.64-0.427c-0.835,1.415-2.094,2.533-3.597,3.204C88.811,54.771,89.821,53.89,90.904,53.058
		C91.262,52.785,90.725,53.195,90.904,53.058z M86.923,53.137c0.982-0.69,2.141-1.215,3.278-1.583
		c-1.014,1.095-2.345,1.797-3.821,2.017C86.38,53.57,86.585,53.37,86.923,53.137C87.26,52.9,86.585,53.37,86.923,53.137z
		 M87.011,57.983c-1.437,1.21-3.085,2.196-4.832,2.888C83.526,59.525,85.187,58.532,87.011,57.983z M85.833,56.156
		c-1.543,1.135-3.347,1.864-5.245,2.122C82.206,57.307,83.994,56.583,85.833,56.156z M80.447,54.78
		c1.46-0.253,2.91-0.524,4.383-0.687c-1.588,0.923-3.417,1.235-5.208,0.876C79.622,54.97,79.952,54.864,80.447,54.78
		C80.571,54.759,79.952,54.864,80.447,54.78z M78.537,60.336c-1.346,0.621-2.814,0.99-4.29,1.094
		c1.542-0.854,3.271-1.363,5.029-1.483C79.276,59.948,78.989,60.132,78.537,60.336C78.085,60.545,78.989,60.132,78.537,60.336z
		 M76.203,54.326c0.502,0.146,0.993,0.327,1.47,0.542c-1.701,0.103-3.345-0.402-4.703-1.439
		C74.066,53.629,75.161,53.922,76.203,54.326C76.469,54.436,75.936,54.223,76.203,54.326z M72.258,51.697
		c-0.248,0.159-0.449,0.23-0.449,0.23c0.187-0.485,0.469-0.914,0.847-1.284c0.4-0.369,0.855-0.632,1.366-0.79
		C73.592,50.572,72.976,51.25,72.258,51.697C72.011,51.855,72.508,51.541,72.258,51.697z M72.65,75.51
		c-0.042,0.656-0.121,1.096-0.121,1.096c-0.498-2.287-0.552-4.66-0.161-6.967C72.678,71.567,72.79,73.559,72.65,75.51
		C72.608,76.166,72.697,74.854,72.65,75.51z M81.633,46.749c-1.61,0.855-3.356,1.458-5.148,1.78
		c1.856-1.097,3.908-1.878,6.023-2.292C82.508,46.236,82.171,46.469,81.633,46.749C81.096,47.034,82.171,46.469,81.633,46.749z
		 M83.93,42.684c1.459-1.088,3.042-2.021,4.701-2.772C87.389,41.303,85.754,42.264,83.93,42.684z M89.524,42.376
		c-1.145,1.1-2.462,1.918-3.987,2.373c1.38-1.194,2.94-2.217,4.585-3.007C90.122,41.743,89.905,42.018,89.524,42.376
		C89.146,42.739,89.905,42.018,89.524,42.376z M94.575,36.695c-0.501,1.326-1.413,2.44-2.613,3.194
		C92.578,38.651,93.483,37.544,94.575,36.695z M93.878,34.836c-0.808,1.232-1.937,2.24-3.252,2.904
		C91.435,36.509,92.563,35.501,93.878,34.836z M93.24,32.688c-1.276,1.139-2.787,2.014-4.415,2.555
		C90.064,34.056,91.588,33.175,93.24,32.688z M87.648,31.944c1.446-0.937,3.047-1.434,4.778-1.347
		c-1.838,0.639-3.679,1.278-5.517,1.917C86.909,32.514,87.191,32.259,87.648,31.944C87.882,31.792,87.191,32.259,87.648,31.944z
		 M87.055,37.855c-1.231,1.121-2.721,1.948-4.322,2.401C83.963,39.135,85.454,38.308,87.055,37.855z M85.717,35.773
		c-1.158,1.077-2.576,1.861-4.104,2.27C82.771,36.967,84.189,36.182,85.717,35.773z M81.143,35.457
		c1.036-0.793,2.247-1.379,3.501-1.724c-1.137,1.076-2.544,1.84-4.066,2.207C80.578,35.94,80.79,35.72,81.143,35.457
		C81.493,35.189,80.79,35.72,81.143,35.457z M81.214,43.845c-2.071,1.231-4.348,2.127-6.702,2.64
		C76.584,45.254,78.86,44.357,81.214,43.845z M78.887,42.126c-1.636,1.12-3.635,1.837-5.554,2.263
		c2.042-1.19,4.214-2.173,6.459-2.925C79.792,41.464,79.449,41.753,78.887,42.126C78.608,42.317,79.449,41.753,78.887,42.126z
		 M77.905,39.857c-1.792,1.049-3.729,1.857-5.734,2.393c2.063-1.335,4.339-2.356,6.708-3.012
		C78.878,39.238,78.503,39.512,77.905,39.857C77.308,40.207,78.503,39.512,77.905,39.857z M71.516,39.278
		c1.957-1.29,4.438-1.982,6.75-2.238c-2.268,0.964-4.621,1.78-7.011,2.432C71.256,39.472,71.351,39.401,71.516,39.278
		C71.688,39.165,71.351,39.401,71.516,39.278z M71.463,45.358c-2.488,1.284-4.769,2.953-6.742,4.936
		C66.216,47.749,68.58,46.02,71.463,45.358z M67.429,53.205c-0.009,1.145-0.187,2.292-0.517,3.388
		c-0.348-1.362-0.18-2.792,0.471-4.043C67.384,52.549,67.431,52.82,67.429,53.205C67.428,53.397,67.431,52.82,67.429,53.205z
		 M65.471,73.264c-0.227-1.136-0.34-2.28-0.34-3.434c0.779,2.159,1.211,4.453,1.272,6.748
		C65.983,75.505,65.673,74.401,65.471,73.264C65.319,72.419,65.636,74.105,65.471,73.264z M65.524,107.929
		c-0.013,0.621-0.044,1.242-0.092,1.861c-0.541-3.926-0.693-7.914-0.453-11.87C65.429,101.231,65.615,104.587,65.524,107.929
		C65.514,108.487,65.555,106.813,65.524,107.929z M62.862,55.978c-0.087,0.401-0.196,0.665-0.196,0.665
		c-0.375-1.462-0.193-2.966,0.537-4.269C63.194,53.568,63.117,54.814,62.862,55.978C62.775,56.379,62.95,55.576,62.862,55.978z
		 M62.889,76.765c-0.921-2.076-1.411-4.327-1.436-6.598C62.232,72.281,62.719,74.519,62.889,76.765z M63.14,59.265
		c0.678,2.662,1.222,5.359,1.63,8.076C63.622,64.811,63.063,62.043,63.14,59.265z M68.665,37.845
		c0.115-0.277,0.366-0.604,0.636-0.908c0.395-0.407,0.858-0.681,1.392-0.823c-0.563,0.887-1.322,1.649-2.206,2.216
		C68.486,38.33,68.534,38.118,68.665,37.845C68.779,37.568,68.534,38.118,68.665,37.845z M66.215,37.76
		c0.032-0.275,0.12-0.625,0.25-0.957c0.215-0.464,0.518-0.854,0.909-1.168c-0.103,0.963-0.519,1.885-1.173,2.6
		C66.201,38.235,66.179,38.034,66.215,37.76C66.247,37.485,66.179,38.034,66.215,37.76z M63.777,37.445
		c0.147-0.545,0.393-1.037,0.735-1.476c0.029,1.092-0.243,2.199-0.774,3.152C63.635,38.564,63.648,38.005,63.777,37.445
		C63.895,37.056,63.698,37.854,63.777,37.445z M63.845,41.887c1.673-1.008,3.451-1.439,5.136-0.793
		c-0.037,1.76-1.199,3.338-2.546,4.431c-1.347,1.091-2.804,1.848-4.882,0.977C61.229,44.581,61.938,43.036,63.845,41.887z
		 M61.094,38.638c0.062-0.569,0.229-1.102,0.5-1.597c0.208,1.095,0.091,2.249-0.331,3.28C61.094,39.776,61.037,39.215,61.094,38.638
		C61.151,38.23,61.067,39.057,61.094,38.638z M61.158,115.629c0.016-0.697,0.048-1.393,0.097-2.087
		c0.593,4.417,0.639,8.898,0.135,13.327C61.178,123.135,61.061,119.369,61.158,115.629C61.171,115.003,61.125,116.88,61.158,115.629
		z M61.118,109.502c-0.005,0.325-0.016,0.51-0.016,0.51c-0.691-3.878-0.998-7.834-0.912-11.773
		C60.849,101.961,61.112,105.725,61.118,109.502C61.113,109.827,61.117,109.179,61.118,109.502z M59.882,59.74
		c0.758,2.527,1.143,5.173,1.136,7.812C60.26,65.024,59.875,62.378,59.882,59.74z M59.198,51.901
		c0.502,1.652,0.629,3.414,0.368,5.121C59.064,55.37,58.937,53.608,59.198,51.901z M59.088,47.654
		c0.054,0.669-0.004,1.325-0.175,1.968c-0.449-1.25-0.524-2.612-0.217-3.904C58.935,46.337,59.066,46.983,59.088,47.654
		C59.113,48.142,59.058,47.166,59.088,47.654z M58.385,39.293c0.062-0.368,0.155-0.613,0.155-0.613
		c0.395,1.268,0.412,2.633,0.049,3.91C58.259,41.532,58.184,40.389,58.385,39.293C58.447,38.926,58.317,39.661,58.385,39.293z
		 M58.639,71.858c0.615,1.823,0.988,3.744,1.127,5.66c-0.908-2.107-1.423-4.378-1.513-6.671
		C58.252,70.847,58.437,71.245,58.639,71.858C58.845,72.47,58.437,71.245,58.639,71.858z M57.188,66.846
		c0.031,0.74,0.002,1.24,0.002,1.24c-0.73-2.528-1.086-5.171-1.049-7.802C56.749,62.415,57.107,64.629,57.188,66.846
		C57.219,67.586,57.161,66.105,57.188,66.846z M56.661,54.721c0.099,0.859,0.083,1.713-0.046,2.563
		c-0.536-1.631-0.699-3.38-0.473-5.082C56.423,53.017,56.597,53.856,56.661,54.721C56.718,55.356,56.599,54.086,56.661,54.721z
		 M56.224,48.044c0.053,0.663-0.007,1.312-0.18,1.948c-0.445-1.24-0.518-2.592-0.208-3.872
		C56.075,46.735,56.205,47.377,56.224,48.044C56.249,48.528,56.196,47.56,56.224,48.044z M55.538,40.461
		c0.064-0.367,0.157-0.612,0.157-0.612c0.391,1.268,0.404,2.63,0.037,3.905C55.406,42.695,55.334,41.554,55.538,40.461
		C55.602,40.094,55.47,40.827,55.538,40.461z M54.896,72.342c0.788,1.805,1.315,3.72,1.552,5.674
		c-1.017-2.096-1.706-4.36-2.031-6.667C54.417,71.349,54.637,71.737,54.896,72.342C55.159,72.944,54.637,71.737,54.896,72.342z
		 M53.369,53.385c0.449,1.43,0.634,2.946,0.553,4.439c-0.656-1.656-0.946-3.454-0.845-5.231
		C53.077,52.593,53.223,52.906,53.369,53.385C53.519,53.865,53.223,52.906,53.369,53.385z M52.48,43.476
		c0.019-0.53,0.144-1.029,0.374-1.497c0.315,1.001,0.25,2.073-0.183,3.029C52.499,44.516,52.435,44.005,52.48,43.476
		C52.505,43.097,52.459,43.855,52.48,43.476z M52.526,47.658c0.048-0.341,0.13-0.571,0.13-0.571
		c0.444,1.146,0.517,2.406,0.208,3.596C52.494,49.729,52.371,48.675,52.526,47.658C52.574,47.317,52.474,47.999,52.526,47.658z
		 M52.102,62.216c0.655,2.077,0.904,4.436,1.064,6.619c-0.889-2.5-1.384-5.146-1.46-7.805C51.706,61.03,51.893,61.499,52.102,62.216
		C52.326,62.928,51.893,61.499,52.102,62.216z M52.796,78.845c-1.085-2.019-1.827-4.227-2.181-6.492
		C51.701,74.373,52.442,76.581,52.796,78.845z M50.309,54.093c0.007-0.485,0.062-0.814,0.062-0.814
		c0.563,1.618,0.817,3.357,0.74,5.068C50.534,57.001,50.273,55.557,50.309,54.093C50.316,53.608,50.297,54.579,50.309,54.093z
		 M49.774,46.269c0.078-0.601,0.214-1.188,0.41-1.762c0.125,1.877,0.089,3.769-0.104,5.642C49.665,48.879,49.6,47.588,49.774,46.269
		C49.81,45.934,49.73,46.601,49.774,46.269z M48.351,57.898c-0.031,0.443-0.101,0.743-0.101,0.743
		c-0.546-1.495-0.664-3.12-0.334-4.673C48.25,55.212,48.462,56.614,48.351,57.898C48.32,58.341,48.389,57.455,48.351,57.898z
		 M48.536,62.929c-0.042-0.759-0.019-1.268-0.019-1.268c0.727,2.584,1.169,5.266,1.313,7.947
		C49.061,67.455,48.646,65.212,48.536,62.929C48.494,62.169,48.572,63.688,48.536,62.929z M47.726,88.575
		c1.237,2.459,2.204,5.017,2.803,7.705c-1.604-3.647-3.186-7.307-4.742-10.975C46.503,86.349,47.158,87.442,47.726,88.575
		C48.042,89.205,47.568,88.26,47.726,88.575z M50.588,117.208c0.31,3.437,0.136,6.915-0.515,10.305
		c0.004-4.07,0.098-8.143,0.283-12.208C50.451,115.937,50.528,116.572,50.588,117.208C50.614,117.495,50.536,116.635,50.588,117.208
		z M48.023,184.406c0.596,1.391,0.996,2.918,1.279,4.398c-1.042-1.537-1.614-3.32-1.657-5.176
		C47.645,183.629,47.827,183.938,48.023,184.406C48.225,184.877,47.827,183.938,48.023,184.406z M47.607,168.775
		c0.043-3.385,0.611-6.75,1.683-9.961C48.985,162.164,48.419,165.51,47.607,168.775z M49.28,135.567
		c-0.293,1.58-0.647,3.109-1.14,4.626c0.224-3.162,0.75-6.319,1.562-9.383C49.678,132.411,49.515,133.973,49.28,135.567
		C49.062,136.736,49.454,134.386,49.28,135.567z M49.603,109.688c-0.595-2.882-1.24-5.753-1.795-8.643
		c1.389,3.235,2.134,6.721,2.19,10.241C49.849,110.758,49.717,110.225,49.603,109.688C49.553,109.447,49.705,110.169,49.603,109.688
		z M47.16,178.369c-0.054,0.58-0.14,0.967-0.14,0.967c-0.501-2.035-0.448-4.146,0.156-6.154
		C47.291,174.889,47.331,176.662,47.16,178.369C47.106,178.949,47.218,177.791,47.16,178.369z M47.237,144.738
		c-0.474,3.297-1.191,6.541-2.299,9.686c0.399-3.449,1.189-6.861,2.346-10.133C47.284,144.291,47.271,144.455,47.237,144.738
		C47.196,145.02,47.271,144.455,47.237,144.738z M31.474,184.916c1.422,3.604,3.055,7.107,4.996,10.465
		c-2.675-3.127-4.47-6.902-5.205-10.947C31.265,184.434,31.345,184.607,31.474,184.916
		C31.597,185.227,31.345,184.607,31.474,184.916z M31.224,164.449c0.117-2.717,0.688-5.406,1.686-7.934
		C32.668,159.209,32.099,161.889,31.224,164.449z M33.16,126.019c-0.229-2.722-0.326-5.459-0.289-8.191
		C33.598,120.499,33.696,123.304,33.16,126.019z M33.237,129.932c-0.071,2.909-0.76,5.781-2.016,8.408
		C31.737,135.505,32.412,132.693,33.237,129.932z M32.362,81.902c-0.306-0.544-0.47-0.937-0.47-0.937
		c1.583,1.555,2.895,3.392,3.852,5.394C34.414,85.047,33.265,83.539,32.362,81.902C32.056,81.357,32.664,82.45,32.362,81.902z
		 M33.719,93.24c1.451,2.369,2.629,4.816,3.306,7.521c-1.413-2.485-2.597-5.124-3.515-7.831
		C33.51,92.931,33.591,93.042,33.719,93.24C33.843,93.442,33.591,93.042,33.719,93.24z M37.161,151.598
		c0.459-2.939,1.189-5.844,2.169-8.652c-0.41,3.504-1.212,6.969-2.382,10.297C37.001,152.691,37.072,152.143,37.161,151.598
		C37.314,150.615,37.08,152.088,37.161,151.598z M37.06,117.87c-0.003-0.252,0.003-0.398,0.003-0.398
		c0.851,2.965,0.983,6.099,0.385,9.125C37.292,123.69,37.156,120.779,37.06,117.87C37.057,117.617,37.068,118.122,37.06,117.87z
		 M45.885,124.206c-0.042-2.718-0.009-5.442,0.023-8.161c0.715,3.942,0.727,7.997,0.038,11.946
		C45.899,126.73,45.873,125.467,45.885,124.206C45.875,123.506,45.882,124.554,45.885,124.206z M46.335,96.978
		c-1.609-3.157-3.198-6.325-4.806-9.483c2.339,2.917,4.058,6.297,5.038,9.905C46.567,97.399,46.478,97.248,46.335,96.978
		C46.196,96.706,46.478,97.248,46.335,96.978z M42.269,152.367c-0.171,0.527-0.358,1.049-0.562,1.564
		c0.479-3.498,1.348-6.949,2.583-10.256C43.88,146.623,43.203,149.541,42.269,152.367C42.117,152.842,42.581,151.424,42.269,152.367
		z M42.508,171.271c-0.157,2.631-0.279,5.264-0.366,7.898C41.468,176.553,41.594,173.811,42.508,171.271z M43.113,102.837
		c1.409,2.983,2.208,6.229,2.343,9.524C44.566,109.217,43.784,106.037,43.113,102.837z M42.923,166.66
		c0.291-2.725,0.838-5.406,1.769-7.988c-0.213,2.848-0.819,5.674-1.792,8.359C42.9,167.031,42.904,166.896,42.923,166.66
		C42.948,166.428,42.904,166.896,42.923,166.66z M44.614,138.965c-0.124,0.479-0.264,0.953-0.421,1.424
		c0.215-3.138,0.708-6.276,1.466-9.328C45.674,133.737,45.298,136.378,44.614,138.965C44.504,139.396,44.842,138.104,44.614,138.965
		z M42.016,97.117c0.182,0.475,0.346,0.955,0.493,1.44c-1.633-2.777-3.12-5.663-4.434-8.604
		C39.782,92.126,41.049,94.532,42.016,97.117C42.18,97.543,41.696,96.261,42.016,97.117z M40.387,137.964
		c-0.105,0.444-0.227,0.881-0.365,1.315c0.099-2.884,0.459-5.78,1.069-8.601C41.236,133.138,40.971,135.572,40.387,137.964
		C40.295,138.363,40.581,137.169,40.387,137.964z M40.674,157.709c-0.367,2.75-1.123,5.455-2.235,7.998
		C38.806,162.957,39.562,160.252,40.674,157.709z M39.302,108.724c-0.409-1.417-0.741-2.811-0.943-4.26
		c1.25,2.648,1.97,5.514,2.121,8.439C39.974,111.537,39.608,110.158,39.302,108.724C39,107.678,39.527,109.78,39.302,108.724z
		 M41.097,122.104c-0.06-1.721-0.083-3.443-0.051-5.165c0.723,3.391,0.816,6.9,0.275,10.326
		C41.188,125.547,41.124,123.827,41.097,122.104C41.075,121.462,41.107,122.747,41.097,122.104z M37.248,176.555
		c0.031,1.061,0.09,2.117,0.11,3.176c-1-3.279-0.964-6.748,0.125-9.975C37.199,172.012,37.124,174.285,37.248,176.555
		C37.265,177.141,37.216,175.971,37.248,176.555z M35.484,147.543c-0.504,1.662-1.062,3.266-1.761,4.844
		c0.638-3.365,1.601-6.684,2.865-9.867C36.333,144.223,35.947,145.875,35.484,147.543C35.11,148.775,35.827,146.307,35.484,147.543z
		 M36.141,156.854c-0.122,2.855-0.638,5.701-1.525,8.418C34.738,162.416,35.254,159.57,36.141,156.854z M34.295,106.061
		c1.236,2.336,1.962,4.902,2.133,7.54C35.511,111.159,34.792,108.621,34.295,106.061z M36.371,134.706
		c-0.379,1.36-0.865,2.679-1.457,3.956c0.483-2.755,1.174-5.495,2.058-8.15C36.887,131.925,36.687,133.323,36.371,134.706
		C36.073,135.714,36.59,133.668,36.371,134.706z M33.642,171.135c0.094-0.541,0.206-1.078,0.334-1.611
		c-0.078,3.482-0.08,6.967-0.006,10.451C33.255,177.082,33.152,174.072,33.642,171.135
		C33.726,170.648,33.601,171.377,33.642,171.135z M35.959,187.18c-0.347-1.033-0.59-2.107-0.743-3.186
		c1.222,3.195,2.593,6.328,4.108,9.395C37.799,191.537,36.729,189.449,35.959,187.18C35.862,186.891,36.155,187.756,35.959,187.18z
		 M39.079,185.439c-0.211-0.701-0.386-1.414-0.534-2.133c1.353,2.83,2.715,5.656,4.087,8.477
		C41.141,189.973,39.657,187.723,39.079,185.439C39.006,185.197,39.141,185.686,39.079,185.439z M42.535,184.4
		c-0.192-0.732-0.27-1.227-0.27-1.227c1.148,2.373,2.407,4.689,3.775,6.943C44.37,188.6,43.084,186.598,42.535,184.4
		C42.342,183.668,42.581,184.584,42.535,184.4z M41.404,74.511c2.265,1.653,4.224,3.678,5.756,6.043
		c-2.16-1.94-4.193-4.034-6.072-6.253C41.088,74.301,41.207,74.373,41.404,74.511C41.598,74.652,41.207,74.373,41.404,74.511z
		 M38.462,75.767c1.878,2.008,3.582,4.183,5.021,6.526c-2.104-1.967-3.895-4.266-5.288-6.787
		C38.195,75.506,38.296,75.598,38.462,75.767C38.624,75.94,38.296,75.598,38.462,75.767z M38.833,83.06
		c0.347,0.658,0.536,1.123,0.536,1.123c-1.772-1.968-3.197-4.238-4.198-6.689C36.556,79.22,37.811,81.092,38.833,83.06
		C39.179,83.717,38.49,82.399,38.833,83.06z M32.484,66.913c1.409,1.266,2.702,2.725,3.887,4.198
		c-1.941-1.231-3.552-2.9-4.713-4.884C31.658,66.227,32.011,66.481,32.484,66.913C32.96,67.341,32.011,66.481,32.484,66.913z
		 M30.236,69.908c1.054,1.295,1.979,2.688,2.708,4.189c-1.745-1.721-3.165-3.754-4.17-5.979
		C29.277,68.698,29.775,69.293,30.236,69.908C30.505,70.239,30.109,69.739,30.236,69.908z M28.952,84.561
		c1.107,1.443,1.999,3.059,2.636,4.76c-1.415-1.63-2.537-3.52-3.29-5.543C28.298,83.777,28.585,84.075,28.952,84.561
		C29.322,85.043,28.585,84.075,28.952,84.561z M27.231,74.078c-0.765-1.206-1.428-2.462-1.989-3.771
		c1.806,2.196,3.314,4.645,4.462,7.246C28.787,76.462,27.963,75.304,27.231,74.078C26.675,73.171,27.79,74.983,27.231,74.078z
		 M27.733,59.74c0.782,1.034,1.384,2.242,1.788,3.468c-1.136-1.095-1.922-2.493-2.27-4.032
		C27.252,59.176,27.471,59.388,27.733,59.74C27.999,60.091,27.471,59.388,27.733,59.74z M24.996,60.355
		c0.739,1.353,1.272,2.86,1.625,4.355c-1.113-1.499-1.83-3.254-2.082-5.104C24.539,59.605,24.751,59.897,24.996,60.355
		C25.245,60.811,24.751,59.897,24.996,60.355z M25.726,79.165c0.216,0.441,0.415,0.889,0.598,1.344
		c-1.935-2.466-3.488-5.225-4.593-8.158C23.222,74.512,24.591,76.796,25.726,79.165C25.919,79.559,25.346,78.372,25.726,79.165z
		 M21.347,61.576c-0.132-0.601-0.172-1.018-0.172-1.018c1,1.929,1.779,3.997,2.299,6.106C22.417,65.118,21.732,63.405,21.347,61.576
		C21.214,60.975,21.474,62.178,21.347,61.576z M22.806,25.201c0.181-2.042,0.663-4.023,1.505-5.894
		c-0.236,2.388-0.765,4.767-1.563,7.031C22.748,26.337,22.742,25.877,22.806,25.201C22.866,24.524,22.742,25.877,22.806,25.201z
		 M22.49,49.283c0.744,2.15,1.271,4.412,1.658,6.651c-1.184-2.461-1.903-5.125-2.117-7.848C22.031,48.085,22.245,48.56,22.49,49.283
		C22.739,50.004,22.245,48.56,22.49,49.283z M21.63,32.189c0.147-0.863,0.33-1.717,0.556-2.562c0.223,1.756,0,3.55-0.64,5.213
		C21.423,33.956,21.451,33.072,21.63,32.189C21.685,31.869,21.527,32.847,21.63,32.189z M21.476,39.713
		c0.239,1.569,0.234,3.214,0.07,4.788c-0.553-1.841-0.638-3.791-0.246-5.673C21.299,38.828,21.4,39.184,21.476,39.713
		C21.556,40.242,21.4,39.184,21.476,39.713z M19.581,24.798c0.216-2.181,0.73-4.308,1.585-6.327
		c-0.255,2.562-0.816,5.11-1.663,7.542C19.504,26.013,19.505,25.524,19.581,24.798C19.653,24.072,19.505,25.524,19.581,24.798z
		 M19.33,52.901c0.309,1.449,0.578,2.904,0.783,4.371c-1.188-2.743-1.783-5.717-1.74-8.706C18.742,50,19.054,51.447,19.33,52.901
		C19.445,53.442,19.228,52.36,19.33,52.901z M20.069,68.915c-1.449-2.302-2.425-4.867-2.874-7.55
		C18.371,63.784,19.338,66.326,20.069,68.915z M18.361,32.353c0.085-0.979,0.281-1.934,0.587-2.864
		c0.181,1.944-0.028,3.924-0.61,5.787C18.23,34.304,18.238,33.329,18.361,32.353C18.439,31.63,18.286,33.077,18.361,32.353z
		 M18.281,39.865c0.13,1.685,0.025,3.427-0.217,5.094c-0.459-1.995-0.425-4.069,0.102-6.047
		C18.166,38.912,18.242,39.295,18.281,39.865C18.325,40.435,18.242,39.295,18.281,39.865z M16.021,24.109
		c0.359-2.396,1.031-4.697,2.105-6.871c-0.516,2.786-1.277,5.545-2.262,8.201C15.864,25.439,15.896,24.903,16.021,24.109
		C16.14,23.314,15.896,24.903,16.021,24.109z M15.647,53.726c0.312,1.469,0.549,2.909,0.651,4.396
		c-1.064-2.798-1.596-5.771-1.566-8.765C15.151,50.793,15.431,52.235,15.647,53.726C15.877,54.807,15.487,52.624,15.647,53.726z
		 M15.238,29.92c-0.03,1.77-0.312,3.564-0.761,5.272c-0.215-2.117,0.037-4.262,0.737-6.271
		C15.214,28.921,15.253,29.325,15.238,29.92C15.228,30.517,15.253,29.325,15.238,29.92z M14.548,44.775
		c-0.04,0.654-0.118,1.096-0.118,1.096c-0.516-2.288-0.562-4.664-0.136-6.97C14.57,40.83,14.684,42.828,14.548,44.775
		C14.508,45.43,14.594,44.121,14.548,44.775z M13.407,20.406c0.491-1.441,1.031-2.817,1.713-4.165
		c-0.644,2.909-1.521,5.787-2.608,8.561C12.698,23.31,13.014,21.869,13.407,20.406C13.77,19.34,13.116,21.487,13.407,20.406z
		 M7.245,34.127c0.124-2.353,0.565-4.635,1.432-6.829c-0.252,2.738-0.742,5.475-1.457,8.13C7.221,35.428,7.201,34.906,7.245,34.127
		C7.286,33.347,7.201,34.906,7.245,34.127z M6.892,45.449c-0.059,0.757-0.149,1.269-0.149,1.269
		c-0.483-2.688-0.415-5.441,0.199-8.103C7.052,40.876,7.083,43.191,6.892,45.449C6.833,46.207,6.956,44.691,6.892,45.449z
		 M8.586,59.273c-0.959-3.039-1.607-6.059-1.599-9.261c0.763,3.177,1.348,6.417,1.742,9.66C8.73,59.672,8.673,59.529,8.586,59.273
		C8.505,59.017,8.673,59.529,8.586,59.273z M9.611,23.771c0.5-3.018,1.525-5.932,3.022-8.6C11.865,18.107,10.849,21,9.611,23.771z
		 M10.818,35.336c-0.168-2.332,0.148-4.679,0.927-6.883C11.729,30.768,11.415,33.099,10.818,35.336z M10.816,45.299
		c-0.039,0.725-0.115,1.21-0.115,1.21c-0.532-2.537-0.566-5.157-0.101-7.707C10.842,40.944,10.947,43.146,10.816,45.299
		C10.777,46.024,10.86,44.575,10.816,45.299z M10.985,49.8c0.72,2.817,1.192,5.719,1.401,8.619
		C11.413,55.654,10.937,52.73,10.985,49.8z M13.019,72.42c-1.439-2.85-2.593-5.758-3.205-8.902c1.368,2.994,2.515,6.11,3.412,9.276
		C13.227,72.794,13.146,72.661,13.019,72.42C12.897,72.179,13.146,72.661,13.019,72.42z M13.586,63.719
		c-0.101-0.465-0.185-0.933-0.252-1.404c1.181,2.779,2.142,5.674,2.855,8.608C14.956,68.66,14.115,66.241,13.586,63.719
		C13.493,63.302,13.762,64.557,13.586,63.719z M19.304,85.453c-1.865-2.952-3.467-6.012-4.608-9.318
		c1.883,3.09,3.52,6.35,4.872,9.706C19.568,85.84,19.467,85.702,19.304,85.453C19.145,85.201,19.467,85.702,19.304,85.453z
		 M19.695,79.276c-0.748-1.541-1.417-3.074-1.964-4.686c1.765,2.869,3.327,5.885,4.651,8.982
		C21.387,82.198,20.521,80.77,19.695,79.276C19.141,78.133,20.307,80.383,19.695,79.276z M23.727,93.93
		c-0.991-1.39-1.759-2.946-2.271-4.572c1.281,1.572,2.259,3.392,2.863,5.327C24.319,94.686,24.056,94.398,23.727,93.93
		C23.396,93.465,24.056,94.398,23.727,93.93z M24.671,87.814c-0.239-0.538-0.354-0.922-0.354-0.922
		c1.375,1.573,2.456,3.406,3.168,5.37C26.333,90.936,25.374,89.427,24.671,87.814C24.433,87.276,24.906,88.354,24.671,87.814z
		 M28.406,103.373c-0.966-1.604-1.731-3.366-2.309-5.144c1.366,1.787,2.353,3.844,2.89,6.028
		C28.988,104.257,28.727,103.914,28.406,103.373C28.082,102.834,28.727,103.914,28.406,103.373z M29.478,95.774
		c1.507,1.95,2.628,4.18,3.294,6.553C31.413,100.293,30.299,98.077,29.478,95.774z M30.507,108.122
		c1.093,1.985,1.712,4.191,1.812,6.455C31.475,112.511,30.862,110.326,30.507,108.122z M31.478,146.676
		c0.615-1.467,1.274-2.865,2.073-4.227c-0.791,3.062-2.108,5.971-3.888,8.586C30.162,149.533,30.78,148.107,31.478,146.676
		C31.931,145.596,30.962,147.734,31.478,146.676z M30.267,176.41c0.028,1.23,0.093,2.459,0.125,3.691
		c-0.998-3.828-0.931-7.834,0.196-11.621C30.32,171.123,30.265,173.756,30.267,176.41C30.275,176.75,30.267,175.73,30.267,176.41z
		 M29.365,159.777c-0.3,1.322-0.709,2.609-1.228,3.859c0.231-2.705,0.917-5.365,2.021-7.846
		C30.005,157.141,29.741,158.469,29.365,159.777C29.125,160.758,29.629,158.799,29.365,159.777z M26.683,149.594
		c0.839-2.764,1.903-5.436,3.337-7.945c-0.777,2.904-1.937,5.715-3.433,8.324C26.587,149.973,26.617,149.834,26.683,149.594
		C26.754,149.357,26.617,149.834,26.683,149.594z M25.366,159.207c0.598-1.545,1.244-3.025,2.028-4.473
		c-0.851,3.143-1.959,6.232-3.299,9.199C24.408,162.324,24.848,160.773,25.366,159.207C25.81,158.061,24.982,160.367,25.366,159.207
		z M26.54,177.711c0.028,1.027,0.046,2.055,0.021,3.084c-0.871-4.4-0.604-8.939,0.775-13.209
		C26.875,170.857,26.28,174.42,26.54,177.711C26.549,178.066,26.512,177.357,26.54,177.711z M20.876,162.951
		c0.817-3.166,1.89-6.189,3.521-9.033c-0.964,3.232-2.178,6.408-3.614,9.461C20.783,163.379,20.812,163.223,20.876,162.951
		C20.946,162.682,20.812,163.223,20.876,162.951z M22.603,175.951c-0.06,1.9,0.286,3.896,0.612,5.766
		c-1.611-4.645-1.49-9.578,0.338-14.148C22.945,170.314,22.6,173.141,22.603,175.951C22.589,176.387,22.602,175.514,22.603,175.951z
		 M19.479,168.062c-1.112,4.676-1.177,9.549-0.245,14.279c-1.711-4.928-1.589-10.125,0.384-14.918
		C19.618,167.424,19.567,167.654,19.479,168.062C19.431,168.264,19.567,167.654,19.479,168.062z M29.148,199.873
		c-4.116-3.529-7.135-8.037-8.689-13.242c2.278,5.059,5.405,9.691,9.244,13.697C29.703,200.328,29.501,200.162,29.148,199.873
		C28.974,199.723,29.501,200.162,29.148,199.873z M31.736,198.318c-3.391-3.893-6.195-7.871-7.85-12.779
		c2.393,4.645,5.177,9.088,8.315,13.273C32.201,198.812,32.033,198.633,31.736,198.318
		C31.453,197.994,32.033,198.633,31.736,198.318z M32.194,194.6c-2.532-2.639-4.203-6.072-4.89-9.637
		c1.686,4.373,4.134,8.416,7.229,11.951C33.707,196.188,32.943,195.404,32.194,194.6C31.929,194.322,32.454,194.879,32.194,194.6z
		 M37.337,208.037c-1.562-1.305-2.981-2.82-4.228-4.426c2.015,1.371,3.762,3.115,5.135,5.129
		C38.244,208.74,37.858,208.479,37.337,208.037C36.812,207.6,37.858,208.479,37.337,208.037z M37.731,204.555
		c-0.915-0.885-1.741-1.844-2.477-2.877c1.993,1.523,3.846,3.264,5.491,5.158C39.675,206.166,38.67,205.406,37.731,204.555
		C37.062,203.885,38.439,205.176,37.731,204.555z M42.347,215.764c-0.005,0.139-0.014,0.217-0.014,0.217
		c-0.629-1.5-1.295-2.988-1.995-4.457C41.596,212.551,42.388,214.105,42.347,215.764C42.342,215.902,42.351,215.625,42.347,215.764z
		 M42.732,204.484c-1.782-1.4-3.258-3.215-4.345-5.195c1.893,1.881,3.686,3.869,5.362,5.947
		C43.749,205.236,43.323,204.959,42.732,204.484C42.434,204.25,43.323,204.959,42.732,204.484z M45.523,202.688
		c-1.512-1.734-2.861-3.65-4.056-5.611c2.021,1.875,3.697,4.1,4.939,6.561C46.407,203.637,46.027,203.271,45.523,202.688
		C45.016,202.105,46.027,203.271,45.523,202.688z M48.361,201.268c-1.577-1.715-2.957-3.621-4.101-5.648
		c1.966,1.943,3.663,4.168,5.014,6.578C49.275,202.197,48.885,201.844,48.361,201.268C47.833,200.693,48.885,201.844,48.361,201.268
		z M51.12,205.223c-0.118-0.283-0.231-0.568-0.339-0.855c0.164,0.242,0.324,0.488,0.479,0.736
		C51.211,205.143,51.167,205.184,51.12,205.223C51.06,205.082,51.167,205.184,51.12,205.223z M53.104,200.338
		c-1.793-2.061-3.6-4.109-5.354-6.199c2.382,1.66,4.319,3.885,5.611,6.471C53.36,200.609,53.263,200.514,53.104,200.338
		C52.949,200.16,53.263,200.514,53.104,200.338z M52.312,193.449c1.651,1.82,3.03,3.424,3.779,5.775
		c-1.547-2.24-3.105-4.502-4.64-6.732C51.746,192.805,52.033,193.125,52.312,193.449C52.57,193.734,52.044,193.174,52.312,193.449z
		 M52.145,145.02c-0.376,3.344-1.007,6.643-2.025,9.854c0.3-3.494,0.993-6.965,2.059-10.307
		C52.179,144.566,52.171,144.732,52.145,145.02C52.112,145.307,52.171,144.732,52.145,145.02z M52.452,105.402
		c-0.362-1.757-0.65-3.491-0.804-5.269c1.177,3.382,1.798,6.935,1.838,10.516C53.026,108.919,52.709,107.184,52.452,105.402
		C52.184,104.103,52.643,106.724,52.452,105.402z M52.722,140.703c0.042-3.382,0.39-6.777,1.037-10.097
		C53.888,133.999,53.538,137.407,52.722,140.703z M53.742,116.406c0.012-0.666,0.04-1.332,0.085-1.996
		c0.638,4.217,0.682,8.504,0.131,12.733C53.792,123.577,53.666,119.978,53.742,116.406C53.75,115.809,53.716,117.6,53.742,116.406z
		 M54.523,159.758c-0.358,3.641-0.878,7.277-1.479,10.889c-0.137-3.844,0.378-7.705,1.511-11.385
		C54.555,159.262,54.548,159.443,54.523,159.758C54.492,160.07,54.548,159.443,54.523,159.758z M55.055,94.785
		c-1.51-3.832-3.154-7.565-5.246-11.121C52.631,86.99,54.51,91,55.266,95.302C55.266,95.302,55.185,95.115,55.055,94.785
		C54.925,94.456,55.185,95.115,55.055,94.785z M56.456,148.295c-0.12,2.297-0.485,4.578-1.153,6.781
		c0.226-3.332,0.583-6.66,1.068-9.965C56.479,146.166,56.515,147.236,56.456,148.295C56.425,148.887,56.472,148,56.456,148.295z
		 M56.24,100.762c-0.051-0.6-0.085-1.201-0.103-1.803c1.004,3.721,1.484,7.571,1.422,11.425
		C56.979,107.208,56.499,103.982,56.24,100.762C56.192,100.224,56.327,101.841,56.24,100.762z M56.877,140.752
		c-0.053,0.287-0.091,0.451-0.091,0.451c-0.111-3.54,0.17-7.101,0.835-10.579C57.723,134.023,57.424,137.4,56.877,140.752
		C56.824,141.039,56.924,140.465,56.877,140.752z M57.68,116.203c0.024-0.675,0.066-1.349,0.126-2.021
		c0.523,4.289,0.517,8.634-0.019,12.921C57.601,123.482,57.529,119.828,57.68,116.203C57.701,115.597,57.629,117.417,57.68,116.203z
		 M58.625,160.027c-0.238,3.746-0.624,7.49-1.106,11.213c-0.268-3.934,0.115-7.906,1.122-11.723
		C58.642,159.518,58.64,159.703,58.625,160.027C58.605,160.35,58.64,159.703,58.625,160.027z M58.665,91.659
		c-0.819-3.277-2.185-6.502-3.531-9.6c2.444,3.779,3.963,8.089,4.435,12.57C59.236,93.649,58.946,92.656,58.665,91.659
		C58.578,91.312,58.762,92.004,58.665,91.659z M60.541,146.719c-0.091,2.949-0.49,5.865-1.279,8.711
		c0.155-3.471,0.587-6.945,1.286-10.348C60.563,145.627,60.561,146.174,60.541,146.719C60.511,147.699,60.56,146.23,60.541,146.719z
		 M60.848,141.121c-0.043,0.305-0.076,0.479-0.076,0.479c-0.226-3.739-0.059-7.511,0.497-11.216
		C61.479,133.973,61.292,137.555,60.848,141.121C60.804,141.426,60.886,140.814,60.848,141.121z M62.339,160.297
		c-0.136,3.83-0.52,7.672-0.943,11.484c-0.322-4.016,0-8.082,0.944-12.006C62.341,159.775,62.345,159.965,62.339,160.297
		C62.328,160.627,62.345,159.965,62.339,160.297z M62.479,85.321c-0.364-1.335-0.714-2.676-1.064-4.016
		c1.875,3.981,2.942,8.312,3.133,12.71C63.887,91.111,63.174,88.218,62.479,85.321C62.379,84.953,62.658,86.064,62.479,85.321z
		 M64.076,147.281c-0.11,2.895-0.486,5.785-1.127,8.607c-0.007-3.434,0.378-6.877,1.145-10.223
		C64.104,146.203,64.099,146.742,64.076,147.281C64.039,148.246,64.097,146.797,64.076,147.281z M65.083,136.108
		c-0.141,1.88-0.345,3.716-0.692,5.558c-0.11-3.731,0.155-7.482,0.788-11.16C65.262,132.379,65.208,134.228,65.083,136.108
		C64.979,137.505,65.176,134.713,65.083,136.108z M65.457,126.458c-0.041,0.376-0.072,0.591-0.072,0.591
		c-0.176-4.596-0.151-9.213,0.075-13.807C65.996,117.661,65.881,122.037,65.457,126.458
		C65.416,126.835,65.493,126.082,65.457,126.458z M67.111,160.752c-0.222,3.783-0.674,7.562-1.391,11.285
		c-0.018-3.973,0.455-7.943,1.404-11.799C67.125,160.238,67.125,160.426,67.111,160.752
		C67.092,161.076,67.125,160.426,67.111,160.752z M67.244,60.361c-0.068-0.764-0.062-1.282-0.062-1.282
		c0.864,2.595,1.331,5.323,1.379,8.058C67.887,64.939,67.431,62.653,67.244,60.361C67.176,59.597,67.306,61.126,67.244,60.361z
		 M68.874,84.828c0.532,2.974,0.796,5.978,0.708,9c-0.637-4.343-1.203-8.699-1.697-13.061
		C68.292,82.099,68.628,83.457,68.874,84.828z M68.871,70.934c0.007-0.608,0.062-1.024,0.062-1.024
		c0.651,2.099,0.786,4.315,0.392,6.477C69.03,74.604,68.834,72.745,68.871,70.934C68.878,70.325,68.858,71.543,68.871,70.934z
		 M68.248,150.857c-0.131,1.75-0.328,3.455-0.667,5.168c-0.134-3.471,0.125-6.967,0.768-10.379
		C68.432,147.389,68.376,149.107,68.248,150.857C68.151,152.154,68.343,149.561,68.248,150.857z M69.1,136.402
		c-0.098,2.055-0.262,4.068-0.568,6.094c-0.201-4.074-0.009-8.176,0.57-12.213C69.217,132.326,69.193,134.349,69.1,136.402
		C69.027,137.929,69.169,134.875,69.1,136.402z M69.68,120.032c-0.061,2.292-0.187,4.55-0.455,6.819
		c-0.277-4.546-0.162-9.125,0.343-13.651C69.721,115.478,69.734,117.74,69.68,120.032C69.635,121.738,69.72,118.325,69.68,120.032z
		 M69.839,107.491c-0.041,0.606-0.1,1.211-0.176,1.814c-0.362-3.859-0.335-7.765,0.081-11.619
		C70.043,100.941,70.076,104.229,69.839,107.491C69.803,108.035,69.918,106.402,69.839,107.491z M69.407,49.633
		c-0.424,0.419-0.871,0.815-1.289,1.241c0.799-1.813,2.286-3.158,4.174-3.787C71.333,47.936,70.328,48.743,69.407,49.633
		C69.291,49.748,69.641,49.407,69.407,49.633z M71.038,53.858c0.021,0.95-0.126,1.899-0.436,2.797
		c-0.369-1.128-0.232-2.323,0.377-3.344C70.979,53.311,71.032,53.539,71.038,53.858C71.041,54.017,71.032,53.539,71.038,53.858z
		 M70.348,171.545c-0.046,0.311-0.081,0.488-0.081,0.488c-0.189-3.816,0.013-7.662,0.603-11.438
		C71.048,164.258,70.828,167.912,70.348,171.545C70.302,171.855,70.389,171.234,70.348,171.545z M71.142,178.162
		c-0.015,0.742-0.14,1.461-0.377,2.156c-0.319-1.434-0.253-2.939,0.188-4.34C71.128,176.693,71.191,177.422,71.142,178.162
		C71.117,178.703,71.164,177.619,71.142,178.162z M71.711,151.15c-0.106,1.729-0.277,3.414-0.592,5.107
		c-0.184-3.422,0.024-6.875,0.618-10.25C71.844,147.727,71.813,149.42,71.711,151.15C71.632,152.432,71.787,149.869,71.711,151.15z
		 M71.571,63.307c-0.298-1.261-0.482-2.537-0.553-3.828c0.998,2.398,1.496,4.987,1.449,7.577
		C72.132,65.815,71.831,64.565,71.571,63.307C71.365,62.365,71.667,63.773,71.571,63.307z M72.621,136.367
		c-0.131,2.055-0.326,4.07-0.664,6.092c-0.137-4.082,0.119-8.186,0.762-12.219C72.802,132.288,72.746,134.312,72.621,136.367
		C72.523,137.894,72.714,134.839,72.621,136.367z M72.859,57.168c2.027-0.013,4.057,0.084,6.072,0.291
		C76.919,58.015,74.793,57.917,72.859,57.168z M73.027,126.102c-0.052,0.375-0.09,0.59-0.09,0.59
		c-0.121-4.609,0.151-9.237,0.811-13.8C73.859,117.312,73.568,121.716,73.027,126.102C72.975,126.478,73.073,125.726,73.027,126.102
		z M73.537,166.17c0.064-2.004,0.189-3.939,0.57-5.908c0.061,3.939,0.018,7.885-0.128,11.822
		C73.678,170.113,73.574,168.184,73.537,166.17C73.561,165.426,73.564,167.654,73.537,166.17z M74.372,182.945
		c-0.037,0.789-0.112,1.318-0.112,1.318c-0.547-2.771-0.575-5.623-0.081-8.404C74.394,178.199,74.496,180.594,74.372,182.945
		C74.334,183.734,74.414,182.154,74.372,182.945z M74.266,155.879c-0.042,0.279-0.074,0.438-0.074,0.438
		c-0.24-3.414-0.088-6.867,0.451-10.248C74.868,149.348,74.7,152.623,74.266,155.879C74.224,156.158,74.303,155.6,74.266,155.879z
		 M75.984,197.344c-0.83-2.988-1.373-5.984-1.371-9.094c0.768,3.105,1.271,6.297,1.498,9.49
		C76.111,197.74,76.06,197.598,75.984,197.344C75.913,197.088,76.06,197.598,75.984,197.344z M78.06,210.992
		c-1.061-3.584-1.66-7.352-1.932-11.084c0.99,3.791,1.69,7.664,2.091,11.564C78.219,211.473,78.157,211.299,78.06,210.992
		C77.969,210.684,78.157,211.299,78.06,210.992z M78.835,183.027c-0.017,0.793-0.079,1.326-0.079,1.326
		c-0.563-2.766-0.746-5.615-0.538-8.43C78.688,178.256,78.898,180.646,78.835,183.027C78.818,183.82,78.856,182.232,78.835,183.027z
		 M78.879,151.168c-0.096,1.67-0.257,3.293-0.562,4.928c-0.204-3.299-0.017-6.633,0.556-9.887
		C78.991,147.865,78.97,149.498,78.879,151.168C78.808,152.404,78.947,149.932,78.879,151.168z M79.089,189.572
		c-0.015-0.467-0.014-0.934,0.005-1.398c0.717,2.881,1.056,5.867,1.002,8.836C79.496,194.58,79.158,192.076,79.089,189.572
		C79.074,189.156,79.112,190.41,79.089,189.572z M80.824,219.832c-0.539-1.916-1.004-3.816-1.337-5.77
		c1.482,3.672,2.515,7.523,3.07,11.443C81.868,223.645,81.317,221.764,80.824,219.832C80.423,218.408,81.19,221.268,80.824,219.832z
		 M78.534,242.012c-0.484,0.32-0.998,0.592-1.542,0.795c1.838-1.598,3.538-3.35,5.081-5.236
		C81.363,239.277,80.128,241.008,78.534,242.012C78.363,242.125,78.708,241.902,78.534,242.012z M80.337,244.58
		c-0.635,0.41-1.092,0.639-1.092,0.639c1.991-1.762,3.888-3.633,5.674-5.6C83.893,241.746,82.319,243.305,80.337,244.58
		C79.702,244.99,80.656,244.375,80.337,244.58z M82.839,246.447c-0.382,0.252-0.772,0.488-1.172,0.711
		c2.103-1.98,4.112-4.055,6.024-6.219C86.598,243.166,84.924,245.092,82.839,246.447C82.498,246.674,83.011,246.336,82.839,246.447z
		 M84.175,248.461c-0.231,0.1-0.366,0.15-0.366,0.15c2.486-1.74,4.818-3.682,6.978-5.812
		C89.206,245.41,86.914,247.191,84.175,248.461C83.944,248.561,84.402,248.355,84.175,248.461z M93.73,244.701
		c-2.196,2.703-4.779,4.883-8.027,6.219c2.909-2.014,5.681-4.213,8.302-6.588C94.005,244.332,93.909,244.469,93.73,244.701
		C93.546,244.928,93.909,244.469,93.73,244.701z M94.588,231.607c-0.21,2.57-0.905,4.969-2.372,7.094
		c1.297-3.381,2.073-6.957,2.3-10.58C94.652,229.27,94.692,230.453,94.588,231.607C94.562,231.93,94.646,230.961,94.588,231.607z
		 M96.702,236.535c-0.472,1.248-1.049,2.412-1.834,3.492c1.59-3.785,2.579-7.805,2.932-11.902
		C98.026,230.969,97.658,233.848,96.702,236.535C96.572,236.879,96.825,236.189,96.702,236.535z M101.339,228.938
		c-0.377,4.363-1.413,8.328-3.987,11.918c1.907-3.951,3.255-8.158,4.007-12.488C101.359,228.367,101.357,228.574,101.339,228.938
		C101.308,229.299,101.357,228.574,101.339,228.938z M101.347,223.834c-0.021,0.6-0.06,1.197-0.116,1.793
		c-0.401-3.795-0.559-7.623-0.473-11.443C101.36,217.383,101.48,220.576,101.347,223.834
		C101.329,224.371,101.391,222.758,101.347,223.834z M101.943,163.873c-0.082,1.652-0.229,3.262-0.517,4.881
		c-0.235-3.262-0.078-6.562,0.466-9.789C102.027,160.604,102.019,162.219,101.943,163.873
		C101.883,165.096,102,162.648,101.943,163.873z M102.208,153.188c-0.04,0.492-0.098,0.982-0.173,1.471
		c-0.367-3.121-0.344-6.295,0.066-9.41C102.406,147.879,102.442,150.549,102.208,153.188
		C102.173,153.629,102.286,152.307,102.208,153.188z M102.734,115.136c-0.216,3.383-0.508,6.762-0.933,10.125
		c-0.319-3.553,0.002-7.147,0.945-10.586C102.747,114.675,102.747,114.843,102.734,115.136
		C102.715,115.427,102.747,114.843,102.734,115.136z M102.753,99.758c0.613-2.845,1.71-5.576,3.236-8.055
		C105.182,94.479,104.091,97.194,102.753,99.758z M103.245,110.061c0.06-1.788,0.395-3.572,0.98-5.26
		c0.06,2.124-0.272,4.261-0.972,6.267C103.253,111.067,103.22,110.66,103.245,110.061
		C103.265,109.461,103.22,110.66,103.245,110.061z M103.888,209.771c-0.041,0.541-0.099,1.082-0.175,1.621
		c-0.365-3.451-0.34-6.951,0.075-10.396C104.088,203.906,104.125,206.854,103.888,209.771
		C103.853,210.258,103.967,208.799,103.888,209.771z M104.308,192.395c-0.085,1.984-0.237,3.932-0.531,5.887
		c-0.225-3.932-0.059-7.896,0.495-11.795C104.4,188.459,104.389,190.41,104.308,192.395
		C104.245,193.869,104.368,190.92,104.308,192.395z M105.006,177.658c-0.096,1.789-0.257,3.535-0.559,5.291
		c-0.207-3.541-0.021-7.113,0.551-10.611C105.117,174.115,105.096,175.869,105.006,177.658
		C104.935,178.984,105.073,176.33,105.006,177.658z M105.726,163.311c-0.077,1.594-0.219,3.143-0.505,4.703
		c-0.242-3.145-0.092-6.326,0.444-9.434C105.802,160.16,105.799,161.715,105.726,163.311
		C105.669,164.49,105.78,162.131,105.726,163.311z M106.264,149.348c-0.046,1.531-0.159,3.016-0.412,4.516
		c-0.304-3.008-0.217-6.062,0.257-9.047C106.277,146.326,106.304,147.816,106.264,149.348
		C106.229,150.479,106.293,148.217,106.264,149.348z M108.059,187.279c-0.279,3.812-0.82,7.596-1.75,11.307
		c0.203-3.982,0.797-7.955,1.771-11.822C108.081,186.764,108.078,186.953,108.059,187.279
		C108.035,187.605,108.078,186.953,108.059,187.279z M107.73,101.281c0.098-2.547,0.686-5.057,1.729-7.383
		C109.166,96.408,108.582,98.902,107.73,101.281z M110.234,109.617c-0.111,0.954-0.333,1.878-0.667,2.774
		c-0.126-1.901,0.138-3.829,0.771-5.626C110.417,107.717,110.382,108.668,110.234,109.617
		C110.136,110.32,110.329,108.913,110.234,109.617z M110.398,149.176c0.069,1.512,0.071,2.98-0.07,4.477
		c-0.53-2.938-0.675-5.953-0.428-8.928C110.183,146.199,110.324,147.664,110.398,149.176
		C110.45,150.291,110.343,148.059,110.398,149.176z M109.733,134.529c0.083,2.107,0.098,4.182-0.03,6.278
		c-0.559-4.147-0.729-8.355-0.507-12.535C109.491,130.351,109.645,132.421,109.733,134.529
		C109.795,136.096,109.667,132.962,109.733,134.529z M109.476,120.5c-0.022,1.474-0.11,2.9-0.34,4.345
		c-0.352-2.883-0.314-5.824,0.112-8.697C109.439,117.597,109.491,119.028,109.476,120.5
		C109.459,121.588,109.487,119.413,109.476,120.5z M110.151,171.627c-0.126,3.967-0.523,7.859-1.519,11.711
		c0.259-4.102,0.768-8.203,1.518-12.244C110.151,171.094,110.156,171.287,110.151,171.627
		C110.141,171.965,110.156,171.287,110.151,171.627z M110.582,165.131c-0.041,0.445-0.098,0.891-0.172,1.332
		c-0.37-2.826-0.35-5.711,0.058-8.531C110.773,160.314,110.814,162.738,110.582,165.131
		C110.547,165.531,110.66,164.332,110.582,165.131z M110.565,82.845c-0.741,1.9-1.744,3.706-2.954,5.346
		c0.756-2.299,1.887-4.48,3.329-6.424C110.94,81.767,110.817,82.212,110.565,82.845C110.317,83.48,110.817,82.212,110.565,82.845z
		 M112.596,97.979c-0.237,1.538-0.731,3.066-1.388,4.473c0.055-1.875,0.564-3.714,1.481-5.351
		C112.689,97.102,112.681,97.461,112.596,97.979C112.516,98.499,112.681,97.461,112.596,97.979z M111.788,89.265
		c-0.413,0.543-0.732,0.878-0.732,0.878c0.924-2.237,2.212-4.329,3.792-6.161C114.067,85.862,113.035,87.651,111.788,89.265
		C111.375,89.808,112.205,88.725,111.788,89.265z M117.483,86.844c-0.85,2.155-1.96,4.215-3.282,6.114
		c0.884-2.601,2.142-5.082,3.718-7.332C117.919,85.626,117.772,86.126,117.483,86.844C117.2,87.563,117.772,86.126,117.483,86.844z
		 M118.497,77.798c-0.575,1-1.243,1.933-2.002,2.796c0.829-2.138,2.026-4.139,3.517-5.882
		C119.61,75.79,119.105,76.818,118.497,77.798C118.056,78.533,118.935,77.062,118.497,77.798z M122.636,77.113
		c-0.738,1.862-1.734,3.627-2.938,5.225c0.752-2.253,1.877-4.388,3.312-6.281C123.01,76.057,122.887,76.493,122.636,77.113
		C122.39,77.735,122.887,76.493,122.636,77.113z M124.366,65.277c-0.6,2.179-1.498,4.216-2.797,6.07
		c0.814-2.504,1.854-4.957,3.088-7.284C124.656,64.063,124.568,64.56,124.366,65.277C124.168,65.996,124.568,64.56,124.366,65.277z
		 M127.33,66.35c-0.556,2.209-1.406,4.294-2.64,6.213c0.73-2.559,1.709-5.067,2.905-7.444
		C127.595,65.119,127.518,65.621,127.33,66.35C127.146,67.08,127.518,65.621,127.33,66.35z M127.866,29.768
		c-0.755-1.932-1.29-3.981-1.646-6.021c1.146,2.206,1.864,4.618,2.111,7.092C128.331,30.839,128.115,30.417,127.866,29.768
		C127.612,29.12,128.115,30.417,127.866,29.768z M129.607,57.728c-0.205,1.213-0.523,2.395-0.954,3.543
		c0.138-2.411,0.482-4.832,1.022-7.186C129.766,55.299,129.743,56.514,129.607,57.728C129.437,58.63,129.693,56.824,129.607,57.728z
		 M129.736,39.098c-0.608-1.954-0.923-4.017-0.926-6.063C129.573,34.958,129.89,37.034,129.736,39.098z M130.204,49.071
		c-0.088,0.683-0.197,1.132-0.197,1.132c-0.269-2.412-0.259-4.873,0.027-7.283C130.451,44.956,130.483,47.015,130.204,49.071
		C130.116,49.754,130.297,48.389,130.204,49.071z"/>
</g>
</svg>
