<?xml version="1.0" encoding="utf-8"?>
<!-- Generator: Adobe Illustrator 16.0.4, SVG Export Plug-In . SVG Version: 6.00 Build 0)  -->
<!DOCTYPE svg PUBLIC "-//W3C//DTD SVG 1.1//EN" "http://www.w3.org/Graphics/SVG/1.1/DTD/svg11.dtd">
<svg version="1.1" id="Layer_1" xmlns="http://www.w3.org/2000/svg" xmlns:xlink="http://www.w3.org/1999/xlink" x="0px" y="0px"
	 width="208.999px" height="373.395px" viewBox="0 0 208.999 373.395" enable-background="new 0 0 208.999 373.395"
	 xml:space="preserve">
<rect fill="#EB0A00" width="208.999" height="373.395"/>
<path fill="#FFFFFF" d="M106.924,270.64c-5.016-0.056-9.81-1.225-14.247-3.477c-9.729-4.935-15.632-10.913-18.58-18.815
	c-0.293-0.785-0.567-1.579-0.823-2.379c-1.074-3.36-1.716-6.411-1.965-9.327c-0.164-1.919-0.125-4.062,0.12-6.554l0.032-0.331
	l-0.305,0.09c-0.246,0.101-0.442,0.152-0.585,0.152c-0.076,0-0.134-0.015-0.173-0.044c-0.309-0.226,0.315-1.402,0.688-2.105
	c0.495-0.934,0.723-1.395,0.495-1.647c-0.103-0.114-0.253-0.172-0.446-0.172c-0.333,0-0.776,0.171-1.245,0.354
	c-0.456,0.177-0.928,0.359-1.249,0.359c-0.116,0-0.197-0.023-0.247-0.073c-0.204-0.201,0.025-1.071,2.269-4.078
	c0.195-0.262,0.339-0.455,0.395-0.544l0.405-0.632c1.128-1.748,2.407-3.729,1.801-4.992c-1.874-3.906-5.176-6.7-8.673-9.659
	c-2.066-1.748-4.203-3.556-6.035-5.624c-4.297-4.854-7.343-10.524-9.052-16.856c-3.421-12.676,2.872-26.35,9.479-38.053
	c4.603-8.153,5.515-21.556,2.168-31.867c-2.199-6.778-4.798-12.671-7.946-18.015c-14.16-24.039-19.029-45.843-14.885-66.658
	c2.236-11.227,5.023-15.638,6.072-17.298l0.111-0.175c0.382-0.608,1.707-2.594,2.734-2.594c0.035,0,0.07,0.002,0.104,0.007
	c0.216,0.032,0.045,1.417-0.028,2.009c-0.176,1.421-0.259,2.303,0.219,2.513c0.058,0.025,0.12,0.039,0.185,0.039
	c0.488,0,1.033-0.725,1.882-1.908c0.72-1.002,1.616-2.25,2.185-2.25c0.311,0.065,0.063,1.699-0.043,2.397
	c-0.248,1.635-0.375,2.647,0.122,2.865l0.038,0.017l0.131,0.018c0.439,0,0.976-0.642,1.815-1.688c0.707-0.882,1.587-1.98,2.084-1.98
	c0.041,0,0.076,0.009,0.109,0.026c0.331,0.174-0.09,2.296-0.292,3.316c-0.345,1.739-0.431,2.315-0.12,2.47
	c0.064,0.032,0.135,0.048,0.21,0.048c0.469,0,1.049-0.616,1.951-1.631c0.548-0.618,1.299-1.463,1.604-1.463
	c0.395,0.161,0.112,2.065-0.38,3.514c-1.495,4.409-2.406,11.708-2.267,18.164l0.037-0.118c-0.043,0.215-0.223,13.552,5.428,24.728
	c3.276,6.48,11.218,14.014,16.548,14.013c0.543,0,1.059-0.077,1.531-0.229c0.333-0.108,0.577-0.317,0.723-0.622
	c0.486-1.01-0.217-2.869-0.781-4.362c-0.184-0.486-0.349-0.921-0.44-1.251c-0.607-2.184-1.179-4.326-1.52-6.546
	c-0.059-0.39-0.064-0.834-0.07-1.305c-0.013-1.119-0.028-2.386-0.837-3.194c-0.55-0.548-1.255-0.554-1.938-0.559
	c-0.222-0.002-0.445-0.003-0.662-0.025c-3.77-0.375-6.703-3.74-6.677-7.662c0.017-2.831,1.48-5.209,3.728-6.06
	c1.073-0.406,2.39-0.639,3.613-0.639c1.217,0,2.301,0.224,3.133,0.647c0.164,0.083,0.334,0.176,0.51,0.272
	c0.771,0.421,1.645,0.897,2.543,0.897c0.373,0,0.726-0.084,1.051-0.25c0.685-0.351,1.233-0.888,1.762-1.407
	c0.336-0.33,0.684-0.67,1.056-0.95l0.105-0.079L85.6,41.25l-0.21-0.87c-0.605-2.558-1.121-4.889-1.577-7.128
	c-0.064-0.314-0.18-0.681-0.304-1.07c-0.266-0.834-0.567-1.78-0.399-2.438c0.131-0.512,0.696-0.751,1.243-0.983
	c0.213-0.09,0.419-0.178,0.596-0.278c1.109-0.628,2.339-1.184,3.87-1.748l0.161-0.059l-0.034-0.168
	c-0.089-0.438-0.149-0.876-0.186-1.336c-0.154-3.561,1.202-6.62,3.72-8.384c1.853-1.297,4.235-1.985,6.889-1.987
	c0.38,0,0.741,0.009,1.103,0.018c0.368,0.009,0.738,0.018,1.106,0.018c0.993,0,2.158-0.058,3.273-0.489
	c0.538-0.207,0.878-0.542,1.223-0.981c0.283-0.361,0.461-0.811,0.527-1.338c0.041-0.316,0.035-0.616-0.019-0.973l-0.02-0.135
	l-0.133-0.03c-0.227-0.051-0.434-0.134-0.616-0.246c-0.76-0.469-1.245-1.349-1.446-2.017c-0.22-0.735-0.325-1.515-0.426-2.27
	c-0.068-0.508-0.136-1.016-0.238-1.517l-0.038-0.168c-0.071-0.307-0.261-1.121-0.08-1.348c0.019-0.023,0.044-0.044,0.11-0.044
	c0.036,0,0.079,0.007,0.127,0.02c0.153,0.042,0.333,0.255,0.477,0.427c0.054,0.064,0.105,0.125,0.153,0.175
	c0.25,0.266,0.462,0.39,0.666,0.39c0.447,0,0.601-0.553,0.75-1.087c0.132-0.475,0.343-0.753,0.556-0.753
	c0.156,0,0.344,0.129,0.545,0.372c0.075,0.091,0.16,0.236,0.256,0.395c0.281,0.474,0.633,1.063,1.105,1.063
	c0.184,0,0.356-0.088,0.514-0.261c0.108-0.118,0.202-0.304,0.302-0.5c0.147-0.291,0.349-0.688,0.546-0.688
	c0.066,0,0.152,0.044,0.246,0.126c0.228,0.201,0.195,0.482,0.115,0.922c-0.027,0.157-0.055,0.312-0.061,0.454
	c-0.01,0.309,0.017,0.612,0.044,0.918c0.028,0.318,0.058,0.646,0.04,0.979c-0.053,0.995-0.16,2.045-0.588,2.979
	c-0.205,0.449-0.777,1.006-1.238,1.324l-0.096,0.061l-0.088,0.163c0.017,0.649-0.143,1.343-0.484,2.123
	c-0.221,0.502-0.539,1.023-0.896,1.466c-1.087,1.352-2.912,1.494-4.688,1.523c-2.782,0.046-5.95,0.224-8.337,1.765
	c-1.744,1.125-2.961,3.121-3.341,5.475c-0.147,0.907-0.13,1.837,0.051,2.843l0.041,0.226l0.218-0.071
	c0.808-0.263,1.622-0.512,2.435-0.76c1.022-0.312,2.042-0.625,3.044-0.962c0.171-0.058,0.337-0.087,0.495-0.087
	c1.093,0,1.734,1.426,2.202,2.467l4.383,9.568l0.099,0.02c0.465,0.095,0.929,0.208,1.392,0.322c1.135,0.278,2.31,0.566,3.51,0.566
	c0.491,0,0.95-0.047,1.403-0.142c0.939-0.198,2.03-0.821,2.992-1.372c0.305-0.175,0.6-0.343,0.871-0.487
	c0.934-0.497,1.836-1.012,2.715-1.514c2.805-1.602,5.455-3.115,8.101-3.373c0.227-0.022,0.433-0.033,0.62-0.033
	c1.616,0,1.782,0.79,2.057,2.099c0.105,0.5,0.225,1.066,0.445,1.662c0.407,1.097,0.613,2.476,0.596,3.985
	c-0.038,3.278-3.244,6.665-9.801,10.356c-3.738,2.106-6.675,3.234-10.137,3.896l-0.478,0.091l0.404,0.271
	c1.934,1.298,3.825,1.928,5.784,1.928c4.072,0,7.709-2.803,11.225-5.514c0.75-0.578,1.498-1.155,2.25-1.704
	c0.564-0.414,1.051-0.624,1.445-0.624c0.815,0,1.051,0.965,1.104,1.774c0.254,3.781-2.133,8.781-4.621,11.767
	c-2.311,2.769-4.955,6.618-5.453,9.116c-0.398,1.991-0.612,4.748,2.107,5.687c0.18,0.062,0.408,0.094,0.68,0.094
	c2.066,0,6.447-1.826,7.424-2.535c1.604-1.166,7.159-5.693,11.283-15.02c3.662-8.282,3.186-22.482-1.217-36.175
	c-0.338-1.058-0.902-3.792-0.562-4.332c0.014-0.001,0.027-0.001,0.041-0.001c0.449,0,1.189,0.474,1.846,0.894
	c0.776,0.497,1.51,0.966,1.963,0.966c0.093,0,0.176-0.019,0.246-0.056c0.505-0.264,0.309-1.205-0.053-2.719
	c-0.208-0.871-0.492-2.063-0.271-2.288c0.06-0.06,0.124-0.086,0.21-0.086c0.468,0,1.263,0.752,1.963,1.416
	c0.741,0.703,1.383,1.31,1.862,1.31c0.076,0,0.148-0.015,0.213-0.045c0.559-0.254,0.547-1.324,0.534-2.564
	c-0.012-1.078-0.026-2.42,0.479-2.44c0.478,0,1.074,0.981,1.601,1.847c0.67,1.1,1.361,2.238,2.176,2.238
	c0.084,0,0.168-0.013,0.25-0.037c0.537-0.159,0.764-1.011,1.004-1.912c0.168-0.634,0.377-1.422,0.649-1.525c0.003,0,0.006,0,0.009,0
	c0.525,0,1.312,1.065,2.404,3.156l0.109,0.209c8.215,15.444,10.419,32.633,6.373,49.708c-2.194,9.261-6.479,17.259-11.016,25.727
	c-1.028,1.921-2.061,3.847-3.069,5.794c-5.593,10.798-4.403,27.993-3.024,47.904c0.121,1.754,0.244,3.529,0.363,5.324
	c1.396,20.911-2.094,38.467-6.074,54.322c-0.966,3.854-1.652,8.234-2.195,12.013l-0.01,0.065l0.031,0.058
	c3.066,5.684,4.754,11.888,4.879,17.94c0.205,9.938-4.329,20.295-11.833,27.031c-2.14,1.919-4.51,3.571-6.853,4.777
	c-5.844,3.008-11.394,4.47-16.965,4.47L106.924,270.64z M104.251,238.859c-0.149,0-0.291,0.044-0.435,0.136
	c-0.236,0.153-0.387,0.392-0.521,0.603l-0.374,0.559c-0.183,0.271-0.365,0.543-0.559,0.805c-0.784,1.057-1.546,2.129-2.308,3.2
	l-0.392,0.551c-1.922,2.694-3.676,5.104-5.688,7.317c-0.82,0.904-1.543,1.86-2.082,2.593c-0.326,0.442-0.646,0.892-0.966,1.341
	c-0.048,0.067-0.109,0.137-0.174,0.211c-0.241,0.277-0.541,0.621-0.447,1.025c0.088,0.376,0.572,0.665,0.96,0.896
	c0.095,0.057,0.182,0.108,0.248,0.153c0.932,0.637,1.907,1.22,2.897,1.735c2.006,1.041,4.13,1.828,6.312,2.337
	c2.024,0.473,4.11,0.713,6.2,0.713c0.605,0,1.247-0.029,1.906-0.087l0.253-0.02c0.26-0.018,0.525-0.038,0.77-0.097
	c0.506-0.121,0.82-0.523,0.799-1.025c-0.029-0.705-0.138-1.39-0.244-2.051c-0.075-0.477-0.151-0.952-0.198-1.438
	c-0.23-2.387-0.606-4.902-1.12-7.477l-0.047-0.233l-0.231,0.033c-0.719,0.279-1.229,0.415-1.563,0.415
	c-0.157,0-0.27-0.03-0.332-0.088c-0.204-0.188,0.797-1.352,1.278-1.911c0.866-1.007,1.39-1.65,1.349-2.089
	c-0.012-0.123-0.068-0.229-0.161-0.303c-0.104-0.083-0.243-0.125-0.415-0.125c-0.477,0-1.195,0.319-1.956,0.658
	c-0.692,0.307-1.408,0.625-1.803,0.625c-0.061,0-0.142-0.008-0.178-0.047c-0.165-0.18-0.082-0.774,1.247-2.596l0.138-0.191
	c0.235-0.334,0.799-0.891,1.511-1.596l0.323-0.32l-0.108-0.986c-0.061-0.545-0.121-1.089-0.219-1.629l-0.027-0.175
	c-0.048-0.338-0.108-0.758-0.613-0.87c-0.092-0.021-0.191-0.03-0.304-0.03c-0.097,0-0.193,0.008-0.29,0.015
	c-0.088,0.007-0.174,0.014-0.26,0.014c-0.041,0-0.081-0.002-0.121-0.006c-0.455-0.044-0.891-0.144-1.297-0.293
	c-0.079-0.029-0.152-0.063-0.222-0.096C104.62,238.938,104.448,238.859,104.251,238.859z M110.202,254.161
	c0.191,1.859,0.391,3.782,0.834,5.642c0.061,0.255,0.115,0.512,0.17,0.768c0.045,0.215,0.17,0.782,0.17,0.782
	c0.068,0.329,0.154,0.738,0.572,0.939c0.109,0.052,0.234,0.079,0.371,0.079c0.219,0,0.439-0.067,0.634-0.127l0.188-0.055
	c0.917-0.237,1.838-0.522,2.738-0.847c1.816-0.655,3.596-1.479,5.291-2.448c0.684-0.39,1.367-0.813,2.034-1.26l0.21-0.141
	l-0.186-0.172c-0.195-0.182-0.379-0.388-0.558-0.589c-0.188-0.211-0.372-0.416-0.559-0.587c-0.579-0.526-1.155-1.049-1.716-1.586
	c-0.291-0.28-0.577-0.569-0.863-0.857l-0.105-0.107l-0.137,0.069c-0.221,0.122-0.437,0.24-0.637,0.343
	c-1.46,0.737-3.564,1.6-4.688,1.6c-0.221,0-0.392-0.036-0.494-0.104c-0.014-0.173,0.625-1.026,1.007-1.536
	c0.741-0.989,1.19-1.615,1.103-2c-0.025-0.11-0.092-0.196-0.191-0.249l-0.044-0.022l-0.139-0.018c-0.294,0-0.796,0.232-1.659,0.644
	c-0.988,0.471-2.219,1.056-2.951,1.056c-0.08,0-0.152-0.008-0.214-0.022l-0.272-0.062L110.202,254.161z M101.67,236.09
	c-0.085,0-0.173,0.011-0.261,0.021l-0.135,0.016c-1.561,0.13-3.133,0.33-4.609,0.524l-0.255,0.033
	c-2.862,0.378-5.821,0.769-8.709,1.301c-0.625,0.114-1.251,0.242-1.878,0.37c-1.624,0.332-3.304,0.675-4.961,0.779
	c-0.689,0.042-1.429,0.177-1.479,1.246c-0.024,0.511,0.143,0.992,0.305,1.458c0.056,0.162,0.112,0.323,0.159,0.482
	c0.271,0.933,0.604,1.858,0.99,2.752c1.817,4.19,4.484,7.94,7.713,10.843l0.104,0.097c0.223,0.208,0.476,0.443,0.811,0.521
	c0.088,0.019,0.153,0.026,0.215,0.026c0.348-0.005,0.507-0.245,0.647-0.457l0.104-0.152c0.559-0.757,1.156-1.489,1.733-2.197
	c0.28-0.344,0.562-0.689,0.842-1.04l0.98-1.23c1.743-2.184,3.544-4.442,5.267-6.724c0.515-0.681,1-1.401,1.468-2.099
	c0.422-0.627,0.844-1.254,1.291-1.859c0.267-0.363,0.528-0.729,0.79-1.096l0.109-0.153c0.046-0.064,0.105-0.133,0.167-0.204
	c0.217-0.251,0.486-0.564,0.436-0.942c-0.04-0.304-0.294-0.58-0.54-0.847c-0.116-0.126-0.229-0.246-0.297-0.355
	c-0.056-0.092-0.104-0.206-0.153-0.322c-0.091-0.213-0.185-0.434-0.339-0.59C102.049,236.156,101.881,236.09,101.67,236.09z
	 M111.959,249.451c-0.37,0-1.053,0.297-1.918,0.672l-0.328,0.143l0.021,0.151c0.102,0.704,0.193,1.405,0.277,2.106l0.065,0.553
	l0.301-0.468c0.233-0.362,0.597-0.782,0.946-1.188c0.766-0.886,1.318-1.525,0.92-1.877
	C112.176,249.482,112.081,249.451,111.959,249.451z M134.969,235.308c-0.936,3.978-2.037,6.812-3.367,8.666
	c-0.125,0.174-0.299,0.379-0.492,0.594l-0.115,0.13l0.184,0.218c0.164,0.193,0.328,0.388,0.486,0.593
	c0.195,0.25,0.49,0.537,0.803,0.842l0.314,0.307l0.118-0.259c1.597-3.483,2.427-7.198,2.465-11.042L134.969,235.308z
	 M109.292,238.951c-0.11,0-0.72,0.217-0.806,0.286c-0.19,0.162-0.239,0.415-0.26,0.591c-0.031,0.272,0.012,0.534,0.055,0.787
	c0.02,0.116,0.039,0.233,0.05,0.35c0.044,0.467,0.108,0.931,0.173,1.395l0.057,0.401l0.283-0.288
	c0.787-0.797,1.408-1.468,1.953-2.113l0.133-0.157l-1.562-1.25L109.292,238.951z M86.468,227.703
	c-1.868,2.266-3.614,3.737-5.494,4.632c-0.029,0.015-1.637,0.805-2.087,1.008l-0.117,0.053l-0.001,0.129
	c-0.003,0.44-0.001,0.879,0.005,1.322c0.013,0.934,0.068,1.875,0.165,2.797c0.076,0.721,0.487,1.134,1.127,1.134
	c0.052,0,0.105-0.003,0.161-0.008c0.571-0.057,1.146-0.162,1.702-0.265c0.426-0.079,0.853-0.157,1.279-0.215
	c1.26-0.168,2.531-0.39,3.76-0.604c1.005-0.175,2.009-0.35,3.019-0.498c2.923-0.434,5.837-0.846,8.762-1.256
	c0.31-0.043,0.622-0.07,0.934-0.098l0.5-0.046c0.081-0.008,0.176-0.011,0.277-0.014c0.483-0.014,1.145-0.032,1.348-0.592
	c0.086-0.237,0.046-0.514,0.01-0.759c-0.014-0.099-0.029-0.194-0.032-0.279c-0.001-0.049,0.015-0.2,0.033-0.377
	c0.08-0.797,0.077-0.879-0.033-0.967l-7.755-6.292l-0.243,0.309c-0.14,0.179-0.279,0.357-0.428,0.529
	c-0.119,0.138-0.252,0.305-0.397,0.487c-0.667,0.836-1.674,2.099-2.627,2.099c-0.094,0-0.188-0.013-0.278-0.037
	c-0.374-0.101-1.737-1.016-3.313-2.225l-0.153-0.118L86.468,227.703z M112.954,237.019l0.113-0.241
	c0.338-0.866,0.552-1.791,0.653-2.828l0.026-0.277l-0.271,0.063c-0.363,0.084-0.588,0.192-0.668,0.321
	c-0.145,0.23-0.143,0.504-0.141,0.745c0,0.128,0.001,0.249-0.02,0.348c-0.019,0.087-0.24,0.742-0.338,1.01h-0.443L112.954,237.019z
	 M112.821,227.761c-0.248,0.293-0.533,0.587-0.924,0.953c-0.076,0.07-0.18,0.149-0.289,0.235c-0.284,0.219-0.605,0.468-0.724,0.743
	c-0.228,0.529,0.247,1.003,0.595,1.35c0.121,0.121,0.234,0.232,0.303,0.333c0.113,0.168,0.193,0.353,0.274,0.536
	c0.116,0.264,0.237,0.537,0.445,0.775c0.134,0.15,0.265,0.278,0.521,0.326l0.109,0.007c0.105,0,0.297-0.008,0.461-0.015l0.188-0.009
	l0.003-0.188c0.015-1.139-0.087-2.342-0.312-3.681c-0.058-0.344-0.155-0.754-0.307-1.291l-0.103-0.36L112.821,227.761z
	 M94.137,208.96c0.377,1.904,0.394,3.666,0.052,5.384l-0.026,0.134l1.351,0.875c0.165,0.104,0.381,0.228,0.625,0.365
	c1.011,0.572,2.704,1.53,2.604,2.522c-0.128,1.271-0.908,2.515-1.596,3.611l-0.859,1.38l0.127,0.112
	c2.38,2.093,4.886,4.228,7.448,6.344l0.109,0.09l0.121-0.072c0.087-0.05,0.131-0.069,0.175-0.088l0.135-0.059l0.068-0.183
	c-0.587-5.66-1.271-11.366-2.033-16.958c-0.212-1.561-0.467-3.115-0.722-4.67l-0.25-1.534l-0.206,0.044
	c-0.816,0.174-1.646,0.389-2.465,0.639c-1.589,0.483-3.121,1.097-4.554,1.821l-0.18,0.104L94.137,208.96z M106.905,212.915
	c0.246,1.833,0.463,3.674,0.68,5.514c0.308,2.615,0.625,5.32,1.029,7.957c0.096,0.613,0.109,1.286,0.123,1.937l0.018,0.667
	c0,0.146,0,0.146,0.729,0.423l0.154,0.06c0.119,0.049,0.239,0.074,0.359,0.074c0.561,0,0.979-0.522,1.314-0.941l0.169-0.207
	c0.45-0.53,0.847-1.099,1.248-1.683l0.058-0.083l-0.033-0.096c-0.557-1.6-1.364-3.505-2.219-5.523
	c-1.059-2.496-2.257-5.326-3.242-8.189L106.905,212.915z M79.627,226.552l0.387,0.104c0.061-0.229,0.125-0.454,0.19-0.678
	l-0.384-0.112C79.753,226.092,79.689,226.319,79.627,226.552z M86.766,185.44c-1.083,1.464-2.234,3.527-1.895,5.361
	c0.459,2.468,2.217,4.927,4.079,7.531c0.764,1.067,1.554,2.173,2.248,3.279l0.086,0.137l0.151-0.055
	c1.799-0.817,3.628-1.485,5.484-2.008c1.124-0.317,2.271-0.584,3.41-0.795l0.183-0.033l-0.021-0.186
	c-0.213-1.925-0.44-3.857-0.692-5.777c-0.144-1.097-0.26-2.196-0.376-3.297c-0.107-1.019-0.215-2.037-0.345-3.054
	c-0.048-0.39-0.119-0.791-0.19-1.197l-0.093-0.537l-0.181,0.014c-1.944,0.188-4.391,0.408-6.838,0.528
	c-0.399,0.02-0.797,0.057-1.195,0.094c-0.546,0.052-1.112,0.104-1.665,0.104c-0.232,0-0.465-0.009-0.699-0.031
	c-0.464-0.046-0.879-0.193-1.27-0.452l-0.241,0.318l-0.007-0.007C86.72,185.399,86.742,185.42,86.766,185.44z"/>
<path fill="#E90D00" d="M109.351,246.547c-0.326-0.141-0.657-0.135-0.992,0.021c0.059,0.729,0.124,1.455,0.211,2.18
	c0.441-0.52,0.761-0.93,0.931-1.271C109.45,247.166,109.401,246.857,109.351,246.547
	C109.245,246.488,109.401,246.857,109.351,246.547z"/>
<path fill="#FFFFFF" d="M138.002,215.891c-0.228,1.57-0.446,3.148-0.662,4.715c-0.661,4.809-1.305,9.484-2.178,13.521
	c0.006,0.131,0.014,0.26,0.018,0.391c0.084,4.094-0.758,8.094-2.453,11.791c-0.357-0.348-0.688-0.662-0.896-0.93
	c-0.242-0.312-0.492-0.609-0.744-0.902c-2.145,2.404-8.338,7.182-11.898,9.15c0.354,0.363,0.715,0.721,1.079,1.072
	c0.563,0.539,1.142,1.064,1.719,1.59c0.365,0.332,0.715,0.803,1.115,1.174c-0.659,0.441-1.333,0.859-2.021,1.252
	c-1.68,0.961-3.44,1.777-5.26,2.434c-0.895,0.322-1.803,0.604-2.723,0.842c-0.322,0.084-0.732,0.27-1.056,0.115
	c-0.378-0.182-0.411-0.58-0.493-0.941c-0.109-0.471-0.199-0.943-0.311-1.414c-0.506-2.121-0.686-4.283-0.918-6.459
	c-0.002-0.02-0.004-0.037-0.007-0.057c-0.021-0.012-0.05-0.018-0.065-0.033c-0.046-0.039-0.024-0.133,0.03-0.252
	c-0.106-0.953-0.236-1.904-0.377-2.859c-0.342,0.148-0.704,0.307-1.062,0.445c0.021,0.113,0.037,0.227,0.06,0.338
	c0.485,2.43,0.877,4.965,1.118,7.457c0.113,1.172,0.393,2.285,0.441,3.479c0.017,0.408-0.229,0.723-0.646,0.822
	c-0.315,0.076-0.669,0.082-0.992,0.111c-0.628,0.055-1.259,0.086-1.889,0.086c-2.07,0-4.14-0.236-6.155-0.707
	c-2.174-0.508-4.283-1.291-6.265-2.32c-0.993-0.516-1.954-1.092-2.877-1.723c-0.309-0.211-1.038-0.553-1.126-0.93
	c-0.094-0.402,0.384-0.787,0.587-1.072c0.32-0.449,0.64-0.898,0.966-1.342c0.653-0.887,1.328-1.76,2.069-2.576
	c2.085-2.295,3.904-4.814,5.702-7.336c0.893-1.254,1.781-2.512,2.697-3.748c0.29-0.391,0.554-0.801,0.828-1.201
	c0.168-0.244,0.317-0.549,0.574-0.715c0.381-0.244,0.639-0.004,1.015,0.135c0.433,0.16,0.888,0.26,1.346,0.305
	c0.314,0.031,0.64-0.064,0.95,0.004c0.44,0.098,0.419,0.498,0.489,0.885c0.129,0.719,0.191,1.445,0.277,2.17
	c0.028,0.232,0.053,0.465,0.076,0.697c0.215-0.213,0.439-0.438,0.67-0.668c-0.086-0.58-0.162-1.162-0.218-1.746
	c-0.034-0.363-0.147-0.729-0.104-1.094c0.018-0.158,0.058-0.35,0.186-0.459c0.047-0.037,0.664-0.26,0.687-0.24
	c0.521,0.42,1.044,0.838,1.567,1.256c0.761-0.9,1.456-1.848,1.932-2.793c0.117-0.234,0.221-0.479,0.318-0.725
	c-0.223-0.178-0.448-0.354-0.672-0.531c0.013,0.01,0.379-1.064,0.4-1.17c0.064-0.318-0.049-0.736,0.133-1.027
	c0.1-0.158,0.845-0.322,0.839-0.26c0.034-0.361,0.054-0.734,0.058-1.121c0,0.012-0.736,0.049-0.814,0.035
	c-0.188-0.035-0.282-0.121-0.406-0.262c-0.332-0.379-0.429-0.881-0.705-1.291c-0.26-0.387-1.122-0.928-0.879-1.492
	c0.141-0.328,0.704-0.668,0.965-0.912c0.34-0.316,0.67-0.643,0.969-0.998c0.066-0.078,0.128-0.16,0.193-0.238
	c-0.123-0.414-0.268-0.854-0.431-1.312c-0.456,0.668-0.913,1.34-1.438,1.957c-0.399,0.471-0.922,1.307-1.613,1.02
	c-0.069-0.029-0.759-0.285-0.759-0.305c-0.031-0.875-0.014-1.791-0.143-2.627c-0.762-4.965-1.186-10.02-1.914-15
	c-0.574-1.822-1.049-3.656-1.334-5.438c-0.62-3.857-0.964-7.828-1.299-11.668c-0.11-1.277-0.222-2.555-0.342-3.83
	c-0.039-0.41-0.076-0.832-0.113-1.258c-0.115-1.312-0.241-2.627-0.439-3.93c-0.332-2.184-0.598-4.209-1.588-6.193
	c-0.533-1.068-1.565-1.967-2.49-2.707c-1.213-0.967-2.798-1.158-4.295-1.143c-0.413,0.004-1.064,0.076-1.474,0.127
	c-0.794,0.1-1.546,0.189-2.338,0.305c-1.218,0.178-2.302,0.443-3.481,0.789c-0.95,0.277-2.292,0.891-2.56,1.875
	c-0.14,0.283-0.289,0.807-0.35,1.1c-0.114,1.09-0.158,1.773,0.191,2.92c0.5,1.637,1.355,3.232,3.213,3.414
	c1.204,0.115,2.39-0.109,3.588-0.166c2.257-0.111,4.511-0.305,6.76-0.521c0.027-0.002,0.055-0.006,0.082-0.008
	c0.09,0.525,0.188,1.045,0.251,1.547c0.269,2.115,0.443,4.238,0.721,6.352c0.252,1.918,0.478,3.85,0.691,5.773
	c-1.165,0.215-2.307,0.482-3.429,0.799c-1.886,0.531-3.713,1.201-5.465,1.996c-2.297,1.039-4.425,2.291-6.464,3.783
	c-5.657,4.145-9.969,10.074-12.146,16.771c-0.007,0.021-1.373,4.244-1.558,8.023c-0.214,2.182-0.307,4.402-0.12,6.59
	c0.272,3.186,1.001,6.33,1.974,9.371c0.257,0.803,0.532,1.6,0.826,2.389c3.344,8.967,10.365,14.707,18.676,18.924
	c4.512,2.289,9.399,3.443,14.335,3.498c6.16,0.068,11.963-1.689,17.403-4.49c2.46-1.266,4.841-2.963,6.896-4.807
	c7.531-6.76,12.109-17.057,11.9-27.184C142.997,227.939,141.113,221.5,138.002,215.891z M94.339,208.891
	c1.455-0.736,2.97-1.336,4.523-1.809c0.807-0.246,1.624-0.459,2.448-0.635c0.322,1.994,0.665,3.988,0.938,5.992
	c0.77,5.654,1.446,11.311,2.032,16.951c-0.076,0.035-0.152,0.064-0.228,0.104c-0.02,0.01-0.036,0.021-0.055,0.033
	c-2.513-2.076-4.996-4.188-7.443-6.34c0.148-0.238,0.297-0.477,0.444-0.715c0.777-1.27,1.797-2.695,1.951-4.219
	c0.137-1.363-2.403-2.49-3.321-3.076c-0.496-0.316-0.983-0.646-1.481-0.959c-0.478,2.521-1.757,4.518-3.403,7.025
	c-0.635-0.449-1.263-0.908-1.892-1.365c-0.809-0.59-1.616-1.182-2.42-1.779c-0.288-0.213-0.573-0.428-0.862-0.641
	c-0.215-0.16-0.501-0.377-0.462-0.682c0.035-0.279,0.294-0.812,0.473-1.012C88.572,212.432,92.317,209.988,94.339,208.891z
	 M79.146,237.617c-0.095-0.906-0.15-1.832-0.163-2.779c-0.022-1.605-0.003-3.201,0.183-4.826c0.616-5.365,2.991-9.361,4.155-11.232
	c0.1-0.16,0.316-0.361,0.479-0.457c0.392-0.23,0.728,0.121,1.04,0.34c0.298,0.211,0.597,0.42,0.896,0.631
	c0.633,0.445,1.267,0.893,1.9,1.338c0.845,0.598,1.702,1.182,2.536,1.795c0.016,0.012,0.032,0.021,0.047,0.035
	c-0.607,0.961-2.596,3.715-3.862,5.152c1.399,1.088,3.161,2.336,3.657,2.471c1.374,0.373,2.749-1.732,3.506-2.611
	c0.192-0.223,0.369-0.455,0.551-0.686c2.533,2.055,5.065,4.109,7.598,6.164c0.055,0.045-0.08,1.055-0.075,1.195
	c0.01,0.285,0.135,0.684,0.034,0.963c-0.194,0.535-1.014,0.432-1.457,0.475c-0.48,0.049-0.963,0.078-1.441,0.145
	c-2.926,0.41-5.84,0.822-8.764,1.256c-2.264,0.334-4.506,0.799-6.775,1.102c-0.992,0.133-1.98,0.381-2.976,0.479
	C79.569,238.629,79.213,238.258,79.146,237.617z M89.688,256.354c-0.05,0-0.106-0.008-0.169-0.021
	c-0.332-0.076-0.584-0.352-0.827-0.57c-3.309-2.975-5.896-6.699-7.663-10.773c-0.384-0.889-0.711-1.801-0.981-2.729
	c-0.177-0.607-0.486-1.23-0.456-1.875c0.04-0.852,0.526-1.01,1.292-1.057c2.303-0.145,4.588-0.734,6.863-1.152
	c2.967-0.547,5.963-0.938,8.955-1.332c1.528-0.201,3.07-0.396,4.599-0.523c0.263-0.021,0.538-0.109,0.75,0.105
	c0.208,0.211,0.306,0.619,0.464,0.877c0.203,0.326,0.759,0.744,0.809,1.123c0.051,0.385-0.368,0.725-0.567,1.004
	c-0.297,0.416-0.593,0.834-0.896,1.246c-0.952,1.289-1.789,2.676-2.758,3.957c-2.038,2.699-4.149,5.318-6.244,7.949
	c-0.868,1.09-1.75,2.121-2.579,3.244C90.08,256.096,89.988,256.35,89.688,256.354z"/>
<path fill="#FFFFFF" d="M110.203,4.337c0.018-0.494,0.329-1.136-0.122-1.534c-0.747-0.659-1.042,0.714-1.374,1.077
	c-0.659,0.724-1.224-0.766-1.573-1.19c-0.682-0.825-1.21-0.396-1.44,0.427c-0.197,0.706-0.376,1.394-1.085,0.642
	c-0.191-0.202-0.444-0.582-0.724-0.658c-0.928-0.254-0.451,1.366-0.368,1.773c0.256,1.262,0.297,2.566,0.668,3.804
	c0.238,0.792,0.784,1.667,1.533,2.129c0.209,0.128,0.437,0.216,0.675,0.271c0.045,0.3,0.061,0.592,0.018,0.918
	c-0.056,0.44-0.201,0.878-0.486,1.24c-0.327,0.417-0.641,0.727-1.137,0.918c-1.721,0.664-3.61,0.438-5.411,0.439
	c-2.461,0.002-4.968,0.598-7.004,2.024c-2.777,1.945-3.946,5.273-3.804,8.563c0.041,0.522,0.11,0.968,0.188,1.36
	c-1.346,0.496-2.659,1.058-3.899,1.761c-0.649,0.368-1.723,0.562-1.933,1.386c-0.263,1.028,0.496,2.592,0.701,3.597
	c0.486,2.387,1.018,4.764,1.578,7.134c0.093,0.392,0.189,0.783,0.284,1.174c0.02-0.015,0.038-0.033,0.058-0.049
	c1.538-1.159,3.255-2.17,5.104-3.005c3.615-1.634,7.327-2.445,10.733-2.344l0.194,0.007c0.637,0.024,1.275,0.134,1.907,0.27
	c-0.926-2.021-1.852-4.042-2.778-6.063c-0.53-1.156-1.06-2.313-1.59-3.471c-0.561-1.224-1.361-3.322-3.061-2.747
	c-1.796,0.606-3.651,1.128-5.477,1.722c-0.166-0.921-0.2-1.846-0.05-2.776c0.341-2.121,1.411-4.151,3.252-5.339
	c2.35-1.516,5.516-1.688,8.232-1.732c1.716-0.029,3.678-0.153,4.84-1.598c0.359-0.447,0.691-0.985,0.923-1.511
	c0.308-0.697,0.522-1.441,0.503-2.208c0.031-0.02,0.067-0.033,0.098-0.054c0.454-0.314,1.074-0.897,1.307-1.405
	c0.438-0.958,0.549-2.011,0.604-3.051C110.323,5.575,110.181,4.968,110.203,4.337z"/>
<g>
	<path d="M94.373,208.818c-0.68,0.344-1.376,0.807-2.028,1.209c-0.011,0.041-0.021,0.08-0.044,0.113
		c0.062,2.789-0.572,5.51-1.921,7.969c0.789-2.439,1.439-5.166,1.421-7.738c-0.248,0.156-1.803,1.26-2.459,1.791
		c-0.26,2.045-0.808,3.928-1.877,5.691c0.631-1.691,1.082-3.455,1.312-5.246c-0.001,0-0.001,0-0.002,0
		c-1.107,0.973-2.171,1.988-3.192,3.051c-0.105,0.42-0.186,0.852-0.285,1.275c0-0.32,0.008-0.639,0.021-0.957
		c-0.358,0.475-0.417,1.213,0.18,1.639c1.795,1.277,5.16,3.801,5.53,4.062C93.755,217.518,95.388,213.902,94.373,208.818z"/>
	<circle cx="97.34" cy="44.926" r="1.414"/>
	<path d="M81.763,221.428c0.266-0.328,0.465-0.389,0.893-0.855c-0.403,0.914-1.044,1.732-1.706,2.48
		c-1.396,3.318-2.094,6.531-2.078,10.5c4.994-2.227,8.567-6.533,11.652-11.119c-2.012-1.459-4.121-2.912-6.371-4.396
		C83.662,217.713,82.777,219.236,81.763,221.428z M81.125,226.645c-0.62,0.453-1.065,0.717-1.065,0.717
		c1.828-1.998,3.637-4.014,5.427-6.047C84.498,223.412,83,225.275,81.125,226.645C80.505,227.098,81.28,226.531,81.125,226.645z
		 M86.952,223.766c0.422-0.646,0.865-1.281,1.29-1.926c-1.137,3.252-3.375,5.893-6.395,7.549
		C83.721,227.75,85.624,225.871,86.952,223.766C87.098,223.543,86.811,223.99,86.952,223.766z"/>
	<path d="M84.91,178.832c0.005-0.016,0.013-0.031,0.019-0.049C84.923,178.801,84.916,178.816,84.91,178.832z"/>
	<path d="M156.848,15.407c-0.387-0.725-1.897-3.787-2.771-3.459c-0.759,0.285-0.804,3.185-1.64,3.432
		c-1.445,0.427-2.721-4.107-3.977-4.057c-1.299,0.052-0.136,4.589-1.088,5.022c-0.844,0.384-3.385-3.485-4.307-2.553
		c-0.617,0.625,1.137,4.571,0.372,4.97c-0.702,0.368-3.704-2.476-4.172-1.732c-0.435,0.692,0.297,3.736,0.542,4.499
		c4.859,15.118,4.475,28.684,1.224,36.033c-3.522,7.966-8.315,12.83-11.219,14.939c-1.061,0.771-6.379,2.944-7.92,2.413
		c-2.186-0.753-2.517-2.749-1.976-5.458c0.451-2.271,2.844-5.949,5.409-9.026c2.466-2.957,4.929-8.023,4.669-11.908
		c-0.132-1.979-1.159-2.55-2.867-1.299c-5.885,4.305-11.592,10.277-19.029,5.285c3.895-0.744,6.909-2.066,10.197-3.918
		c3.74-2.106,9.849-5.991,9.902-10.528c0.016-1.357-0.144-2.802-0.609-4.057c-0.854-2.304-0.149-4.167-3.329-3.857
		c-3.511,0.343-6.915,2.796-10.89,4.91c-1.123,0.598-2.608,1.587-3.812,1.84c-2.761,0.583-5.283-0.874-7.973-0.98
		c-3.791-0.15-7.617,0.809-11.055,2.363c-1.821,0.822-3.561,1.834-5.158,3.037c-0.964,0.725-1.698,1.781-2.789,2.339
		c-1.345,0.688-2.788-0.342-3.922-0.919c-1.962-0.998-4.908-0.773-6.908-0.017c-2.558,0.967-3.842,3.617-3.857,6.245
		c-0.025,3.952,2.878,7.467,6.857,7.862c0.864,0.086,1.816-0.136,2.479,0.526c1.071,1.069,0.645,3.033,0.851,4.389
		c0.341,2.223,0.923,4.404,1.524,6.568c0.43,1.547,2.45,5.402,0.63,5.991C74.909,76.025,65.77,67.285,62.4,60.619
		c-5.627-11.128-5.445-24.61-5.444-24.524C56.827,30.037,57.62,22.7,59.213,18c0.333-0.983,0.949-3.481,0.291-3.759
		c-0.756-0.319-3.013,3.429-3.775,3.048c-0.465-0.232,1.229-5.357,0.416-5.784c-1.072-0.564-3.423,3.938-4.192,3.602
		c-0.768-0.336,0.783-5.066-0.035-5.264c-1.281-0.312-3.429,4.502-4.295,4.122c-0.742-0.327,0.567-4.418-0.242-4.537
		c-1.084-0.161-2.427,1.707-3.037,2.678c-1.016,1.617-3.888,5.88-6.21,17.541c-4.73,23.762,2.878,46.374,14.909,66.799
		c3.37,5.72,5.929,11.811,7.928,17.974c3.14,9.676,2.692,23.126-2.152,31.708c-7.665,13.578-12.694,26.361-9.497,38.203
		c1.501,5.562,4.249,11.465,9.095,16.938c4.862,5.488,11.691,9.012,14.677,15.236c0.63,1.314-1.071,3.65-2.195,5.432
		c-0.304,0.484-3.328,4.186-2.634,4.871c0.589,0.582,2.71-0.994,3.178-0.477c0.347,0.385-1.923,3.217-1.152,3.781
		c0.202,0.146,0.546,0.08,0.956-0.088c0.282-2.842,0.832-5.594,1.625-8.033c0.933-2.871,2.249-5.562,3.886-8.031
		c-0.398-0.865-0.822-1.707-1.162-2.344c-0.374-0.68-0.623-1.133-0.623-1.133s0.41,0.334,0.895,0.955
		c0.245,0.307,0.511,0.682,0.765,1.102c0.176,0.277,0.336,0.582,0.492,0.893c0.536-0.775,1.097-1.535,1.696-2.264
		c-0.044-0.119-0.087-0.236-0.129-0.357c-0.113-0.32-0.227-0.641-0.333-0.941c-0.106-0.305-0.199-0.582-0.29-0.811
		c-0.048-0.117-0.076-0.232-0.121-0.33c-0.047-0.096-0.087-0.182-0.121-0.25c-0.064-0.143-0.097-0.227-0.097-0.227
		s0.07,0.057,0.186,0.158c0.119,0.1,0.278,0.244,0.428,0.475c0.171,0.221,0.327,0.492,0.474,0.787
		c0.162,0.293,0.273,0.623,0.408,0.949c0.007,0.018,0.013,0.037,0.019,0.057c-0.009,0.01-0.018,0.021-0.027,0.031
		c0.604-0.709,1.231-1.398,1.893-2.057c-0.002,0.002-0.004,0.004-0.006,0.006c-0.024-0.082-0.048-0.166-0.075-0.242
		c-0.147-0.463-0.292-0.836-0.415-1.098c-0.122-0.262-0.185-0.416-0.185-0.416s0.105,0.129,0.279,0.359
		c0.09,0.111,0.182,0.262,0.289,0.434c0.114,0.172,0.229,0.371,0.333,0.6c0.017,0.031,0.031,0.066,0.048,0.1
		c-0.005,0.004-0.01,0.01-0.015,0.014c2.881-2.812,6.269-5.148,10.029-6.883c-2.341-3.744-5.671-7.307-6.313-10.766
		c-0.326-1.758,0.809-3.828,1.986-5.377c-0.092-0.039-0.151-0.09-0.195-0.133c-0.917-0.885-2.222-2.539-2.063-5.871
		c0,0.01,0,0.02,0,0.029c-0.064-0.256-0.125-0.518-0.179-0.783c-0.068-0.691-0.092-1.387-0.073-1.912
		c0.014-0.525,0.073-0.881,0.073-0.881s0.129,0.336,0.25,0.848c0.107,0.439,0.207,1.01,0.279,1.6
		c-0.001,0.002-0.001,0.004-0.002,0.006c0.133-0.236,0.289-0.457,0.469-0.631c0.933-0.898,2.381-1.279,3.611-1.539
		c1.687-0.357,3.442-0.605,5.157-0.768c2.002-0.188,4.025,0.16,5.497,1.625c0.975,0.969,1.884,2.039,2.3,3.318
		c0.46,1.414,0.719,2.861,0.915,4.533c0.464,3.955,0.743,7.822,1.118,11.773c0.295,3.125,0.576,6.262,1.074,9.359
		c1.416,8.816,7.212,18.537,7.992,23.197c0.492,2.938,0.528,5.816-0.732,8.326c-1.537,3.059-5.52,6.295-6.293,7.387
		c-0.359,0.508-1.891,2.469-1.369,3.037c0.577,0.629,3.714-1.617,4.375-1.09c0.711,0.568-3.165,3.66-2.477,4.293
		c0.824,0.76,4.883-1.818,5.334-1.42c0.543,0.48-2.824,3.061-2.06,3.729c0.946,0.826,4.757-1.779,5.245-1.525
		c0.676,0.352-2.495,3.4-1.936,3.773c0.792,0.529,3.59-0.578,5.383-1.484c3.771-1.908,11.37-7.799,13.02-10.096
		c5.177-7.215,5.369-26.705,8.645-39.754c4.439-17.691,7.398-34.631,6.079-54.385c-1.478-22.122-3.42-41.426,2.639-53.123
		c5.369-10.363,11.394-20.134,14.103-31.566C167.032,49.249,165.528,31.726,156.848,15.407z M78.449,46.338
		c-3.107-1.527-6.822-0.27-6.964,3.409c0.368,2.29,2.903,3.569,5.024,3.736c-2.32,0.088-5.175-1.099-5.569-3.673
		c0.031-4.564,4.297-5.072,7.686-3.392C78.626,46.418,78.565,46.39,78.449,46.338C78.336,46.282,78.565,46.39,78.449,46.338z
		 M158.4,37.18c0.19,0.963,0.268,1.932,0.229,2.908c-0.682-1.805-1.07-3.739-1.137-5.667C157.901,35.303,158.204,36.223,158.4,37.18
		C158.526,37.897,158.241,36.476,158.4,37.18z M159.065,55.111c0.254,2.3-0.09,4.624-0.999,6.752
		C158.223,59.593,158.559,57.33,159.065,55.111z M159.012,45.065c0.025-0.689,0.092-1.152,0.092-1.152
		c0.587,2.396,0.664,4.888,0.224,7.315C159.069,49.201,158.926,47.11,159.012,45.065C159.038,44.375,158.983,45.754,159.012,45.065z
		 M155.222,45.42c0.051-0.586,0.136-0.985,0.136-0.985c0.492,2.063,0.475,4.208-0.055,6.263
		C155.12,48.964,155.054,47.159,155.222,45.42C155.273,44.833,155.166,46.007,155.222,45.42z M155.581,26.855
		c-0.145-0.628-0.191-1.064-0.191-1.064c1.116,2.003,1.834,4.217,2.107,6.494C156.661,30.565,155.994,28.726,155.581,26.855
		C155.436,26.228,155.719,27.485,155.581,26.855z M155.528,17.653c0.996,1.617,1.727,3.372,2.133,5.227
		c-1.188-1.886-2.112-3.958-2.722-6.102C154.939,16.778,155.202,17.115,155.528,17.653
		C155.858,18.188,155.202,17.115,155.528,17.653z M155.03,54.263c0.084,2.106-0.348,4.195-1.259,6.096
		C153.931,58.292,154.358,56.224,155.03,54.263z M153.43,37.921c-0.159-0.862-0.207-1.728-0.143-2.597
		c0.674,1.616,0.939,3.383,0.772,5.126C153.741,39.638,153.531,38.794,153.43,37.921C153.328,37.287,153.52,38.563,153.43,37.921z
		 M152.438,18.821c0.902,1.475,1.552,3.093,1.9,4.785c-1.119-1.702-1.951-3.606-2.439-5.584
		C151.899,18.021,152.141,18.328,152.438,18.821C152.738,19.311,152.141,18.328,152.438,18.821z M151.852,27.642
		c0.663,1.656,1.053,3.413,1.143,5.193c-0.85-1.924-1.379-4.001-1.551-6.098C151.444,26.737,151.636,27.088,151.852,27.642
		C152.073,28.193,151.636,27.088,151.852,27.642z M152.666,63.85c-0.432,2.303-1.339,4.496-2.659,6.432
		C150.618,68.044,151.518,65.865,152.666,63.85z M152.178,49.218c-0.125,0.507-0.258,0.84-0.258,0.84
		c-0.125-1.833,0.01-3.706,0.396-5.502C152.648,46.115,152.575,47.677,152.178,49.218C152.053,49.725,152.309,48.711,152.178,49.218
		z M151.745,54.347c0.201-0.511,0.383-0.839,0.383-0.839c-0.066,1.965-0.618,3.882-1.605,5.582
		C150.747,57.486,151.139,55.853,151.745,54.347C151.946,53.835,151.54,54.856,151.745,54.347z M149.608,19.926
		c0.672,1.276,1.098,2.688,1.259,4.118c-0.91-1.453-1.486-3.11-1.674-4.815C149.193,19.229,149.387,19.498,149.608,19.926
		C149.833,20.353,149.387,19.498,149.608,19.926z M149.762,47.018c-0.086,0.875-0.279,1.722-0.584,2.541
		c-0.131-1.717-0.004-3.479,0.374-5.159C149.737,45.261,149.807,46.133,149.762,47.018
		C149.684,47.661,149.779,46.363,149.762,47.018z M148.979,36.628c0.033-0.447,0.105-0.755,0.105-0.755
		c0.51,1.516,0.619,3.147,0.313,4.718C149.022,39.319,148.866,37.955,148.979,36.628C149.012,36.181,148.941,37.077,148.979,36.628z
		 M146.204,40.026c-0.051,0.377-0.135,0.633-0.135,0.633c-0.435-1.277-0.494-2.662-0.171-3.972
		C146.259,37.753,146.37,38.909,146.204,40.026C146.153,40.404,146.26,39.648,146.204,40.026z M146.297,44.918
		c0.169,1.488,0.02,2.958-0.51,4.362c-0.146-1.724-0.019-3.495,0.375-5.18C146.163,44.101,146.247,44.429,146.297,44.918
		C146.353,45.408,146.247,44.429,146.297,44.918z M146.61,76.34c0.494-0.973,1.082-1.883,1.766-2.729
		c-0.658,2.066-1.692,4.016-3.031,5.721C145.661,78.293,146.083,77.295,146.61,76.34C146.99,75.625,146.233,77.057,146.61,76.34z
		 M148.032,65.73c-0.424,0.951-0.946,1.844-1.565,2.676c0.513-2.004,1.406-3.913,2.616-5.592
		C148.839,63.822,148.489,64.795,148.032,65.73C147.704,66.428,148.356,65.03,148.032,65.73z M147.532,27.627
		c0.788,1.798,1.219,3.754,1.258,5.718C148,31.546,147.57,29.59,147.532,27.627z M147.203,57.132
		c0.253-1.442,0.752-2.881,1.372-4.201c-0.021,1.783-0.53,3.518-1.475,5.03C147.1,57.961,147.112,57.62,147.203,57.132
		C147.289,56.642,147.112,57.62,147.203,57.132z M145.643,20.625c0.794,1.381,1.244,2.951,1.305,4.542
		C146.155,23.786,145.704,22.217,145.643,20.625z M144.541,28.49c0.742,1.689,1.126,3.534,1.119,5.379
		C144.917,32.18,144.532,30.334,144.541,28.49z M144.083,56.368c0.164-1.285,0.585-2.575,1.145-3.736
		c0.053,1.581-0.362,3.134-1.197,4.478C144.03,57.109,144.022,56.801,144.083,56.368C144.137,55.934,144.022,56.801,144.083,56.368z
		 M142.999,23.822c-0.249-0.768-0.387-1.552-0.416-2.353c0.816,1.375,1.291,2.944,1.374,4.541
		C143.534,25.329,143.215,24.6,142.999,23.822C142.829,23.254,143.172,24.39,142.999,23.822z M143.105,65.498
		c0.65-1.418,1.531-2.775,2.487-4.002c-0.492,1.835-1.463,3.497-2.819,4.829C142.773,66.324,142.88,65.978,143.105,65.498
		C143.326,65.018,142.88,65.978,143.105,65.498z M144.725,71.719c-0.627,1.926-1.627,3.731-2.926,5.283
		C142.425,75.077,143.425,73.271,144.725,71.719z M140.662,64.094c0.498-1.301,1.241-2.552,2.079-3.658
		c-0.339,1.667-1.143,3.193-2.324,4.417C140.417,64.853,140.491,64.531,140.662,64.094
		C140.831,63.654,140.491,64.531,140.662,64.094z M139,71.859c0.602-0.85,1.304-1.602,2.105-2.254
		c-0.919,1.846-2.225,3.494-3.811,4.803C137.815,73.524,138.389,72.682,139,71.859C139.467,71.248,138.775,72.162,139,71.859z
		 M138.69,124.529c-0.046,0.508-0.11,1.014-0.192,1.517c-0.325-3.231-0.261-6.513,0.191-9.729
		C138.958,119.041,138.959,121.803,138.69,124.529C138.65,124.984,138.78,123.619,138.69,124.529z M138.817,136.043
		c0.01,2.18-0.049,4.324-0.248,6.486c-0.414-4.307-0.438-8.658-0.071-12.967C138.72,131.721,138.801,133.865,138.817,136.043
		C138.825,137.664,138.805,134.422,138.817,136.043z M138.817,111.832c-0.053-1.758,0.174-3.531,0.652-5.221
		c0.191,2.08-0.007,4.198-0.582,6.206C138.887,112.817,138.829,112.42,138.817,111.832
		C138.799,111.244,138.829,112.42,138.817,111.832z M139.256,81.98c-0.686,1.79-1.627,3.486-2.78,5.016
		c0.689-2.168,1.753-4.22,3.125-6.033C139.601,80.963,139.491,81.385,139.256,81.98C139.028,82.578,139.491,81.385,139.256,81.98z
		 M134.924,71.842c1.1-1.285,2.195-2.572,3.307-3.845c-0.721,1.954-2.088,3.566-3.896,4.6
		C134.334,72.597,134.554,72.269,134.924,71.842C135.017,71.734,134.554,72.269,134.924,71.842z M135.592,79.664
		c0.439-0.559,0.773-0.903,0.773-0.903c-1.074,2.268-2.371,4.452-3.849,6.481C133.193,83.191,134.249,81.35,135.592,79.664
		C136.032,79.105,135.149,80.22,135.592,79.664z M133.422,95.264c-0.506,1.529-1.062,2.998-1.758,4.439
		c0.577-3.148,1.65-6.195,3.172-9.011C134.475,92.255,133.987,93.752,133.422,95.264C133.049,96.395,133.84,94.146,133.422,95.264z
		 M134.061,131.969c0.023-0.681,0.064-1.359,0.124-2.037c0.474,4.318,0.56,8.688,0.253,13.021
		C134.043,139.311,133.915,135.631,134.061,131.969C134.081,131.357,134.012,133.19,134.061,131.969z M132.842,193.109
		c-0.016-1.848,0.037-3.658,0.23-5.486c0.426,3.639,0.462,7.332,0.108,10.979C132.952,196.773,132.864,194.961,132.842,193.109
		C132.831,191.738,132.858,194.482,132.842,193.109z M132.965,212.508c-0.943-3.666-1.474-7.445-1.576-11.229
		C132.265,204.957,132.794,208.73,132.965,212.508z M133.399,182.635c-0.06,0.49-0.135,0.979-0.228,1.463
		c-0.252-3.131-0.112-6.303,0.414-9.398C133.792,177.338,133.729,180.006,133.399,182.635
		C133.346,183.074,133.508,181.758,133.399,182.635z M133.31,108.3c-0.306,1.235-0.718,2.433-1.235,3.591
		c0.26-2.516,0.911-4.997,1.92-7.316C133.879,105.834,133.651,107.076,133.31,108.3C133.067,109.214,133.547,107.385,133.31,108.3z
		 M131.63,78.678c0.569-0.641,1.186-1.232,1.848-1.777c-1.506,2.214-3.12,4.359-4.833,6.418
		C129.368,81.597,130.388,80.071,131.63,78.678C131.937,78.314,131.315,79.031,131.63,78.678z M110.527,109.949
		c-0.053,0.31-0.091,0.485-0.091,0.485c-0.115-3.812,0.162-7.646,0.826-11.4C111.368,102.693,111.069,106.331,110.527,109.949
		C110.474,110.259,110.573,109.639,110.527,109.949z M110.61,161.504c0.257,3.82,0.219,7.676-0.114,11.49
		C110.047,169.178,110.086,165.309,110.61,161.504z M110.512,75.985c-0.006-1.677,0.213-3.349,0.691-4.958
		c0.036,2.426-0.113,4.86-0.448,7.265C110.6,77.531,110.52,76.762,110.512,75.985C110.511,75.553,110.5,76.418,110.512,75.985z
		 M111.163,65.168c-0.977,0.818-1.932,1.641-2.826,2.547c1.017-1.979,2.701-3.482,4.796-4.309
		C112.504,64.029,111.84,64.601,111.163,65.168z M110.167,114.568c-0.119,4.512-0.486,9.004-1.254,13.453
		c0.027-4.708,0.447-9.423,1.253-14.062C110.166,113.959,110.17,114.182,110.167,114.568
		C110.157,114.955,110.17,114.182,110.167,114.568z M106.982,94.854c-0.261-4.125-0.289-8.279-0.116-12.408
		c0.589,4.297,0.645,8.656,0.167,12.966C107.033,95.411,107.009,95.207,106.982,94.854
		C106.959,94.498,107.009,95.207,106.982,94.854z M106.917,104.785c-0.1,1.969-0.265,3.898-0.572,5.836
		c-0.198-3.902-0.004-7.834,0.576-11.697C107.036,100.881,107.01,102.818,106.917,104.785
		C106.842,106.248,106.987,103.324,106.917,104.785z M107.288,143.234c0.119-3.904,0.662-7.834,1.295-11.689
		c0.076,4.102-0.361,8.217-1.296,12.221C107.287,143.766,107.282,143.572,107.288,143.234
		C107.298,142.898,107.282,143.572,107.288,143.234z M107.614,74.426c0.044-1.155,0.201-2.293,0.471-3.413
		c0.262,2.285,0.133,4.619-0.377,6.862C107.564,76.73,107.533,75.58,107.614,74.426C107.663,73.568,107.569,75.283,107.614,74.426z
		 M112.28,87.084c0.008,2.84-0.163,5.639-0.677,8.432c-0.108-4.125,0.103-8.26,0.632-12.347
		C112.283,84.475,112.28,85.777,112.28,87.084C112.282,87.809,112.28,86.723,112.28,87.084z M111.559,143.178
		c0.119-4.059,0.483-8.096,1.248-12.087c-0.025,4.235-0.443,8.478-1.246,12.636C111.561,143.727,111.555,143.527,111.559,143.178
		C111.569,142.83,111.555,143.527,111.559,143.178z M112.534,68.323c-0.271,0.313-0.484,0.511-0.484,0.511
		c0.37-1.498,1.31-2.736,2.651-3.477C114.04,66.381,113.336,67.408,112.534,68.323C112.262,68.637,112.669,68.168,112.534,68.323z
		 M114.654,171.273c-0.057,0.598-0.131,1.191-0.222,1.785c-0.264-3.818-0.137-7.672,0.379-11.465
		C115.029,164.814,114.975,168.061,114.654,171.273C114.604,171.811,114.761,170.201,114.654,171.273z M114.801,183.994
		c-0.031,0.777-0.101,1.299-0.101,1.299c-0.537-2.721-0.644-5.523-0.313-8.275C114.75,179.314,114.902,181.668,114.801,183.994
		C114.77,184.771,114.834,183.215,114.801,183.994z M114.815,110.266c-0.044,0.303-0.076,0.475-0.076,0.475
		c-0.228-3.702-0.063-7.438,0.487-11.105C115.44,103.188,115.258,106.736,114.815,110.266
		C114.771,110.568,114.852,109.963,114.815,110.266z M114.393,71.064c-0.133,2.365-0.377,4.727-0.732,7.068
		C113.253,75.751,113.504,73.307,114.393,71.064z M113.14,127.139c0.154-4.416,0.576-8.814,1.388-13.161
		c-0.074,4.612-0.541,9.226-1.393,13.759C113.135,127.736,113.131,127.519,113.14,127.139
		C113.153,126.762,113.131,127.519,113.14,127.139z M113.161,201.154c0.766,3.857,1.457,7.732,2.073,11.615
		C113.856,209.057,113.146,205.105,113.161,201.154z M115.085,157.205c-0.047,0.279-0.081,0.438-0.081,0.438
		c-0.187-3.428,0.02-6.885,0.609-10.266C115.79,150.668,115.564,153.947,115.085,157.205
		C115.039,157.484,115.126,156.926,115.085,157.205z M118.5,163.514c0.05-0.555,0.117-1.107,0.201-1.658
		c0.265,3.535,0.249,7.107-0.047,10.641C118.241,169.514,118.214,166.51,118.5,163.514
		C118.543,163.016,118.406,164.51,118.5,163.514z M118.136,125.589c-0.079,0.703-0.174,1.404-0.286,2.103
		c-0.126-4.518,0.141-9.056,0.795-13.527C118.747,117.975,118.576,121.801,118.136,125.589
		C118.067,126.221,118.283,124.326,118.136,125.589z M118.721,177.699c0.013-0.471,0.042-0.938,0.089-1.404
		c0.546,2.932,0.706,5.945,0.474,8.918C118.83,182.74,118.641,180.213,118.721,177.699
		C118.732,177.279,118.695,178.539,118.721,177.699z M119.16,156.031c-0.071,0.545-0.161,1.086-0.269,1.625
		c-0.164-3.496,0.064-7.02,0.678-10.465C119.701,150.139,119.566,153.107,119.16,156.031
		C119.096,156.52,119.295,155.055,119.16,156.031z M118.817,105.498c-0.123,1.712-0.312,3.379-0.643,5.054
		c-0.15-3.392,0.092-6.812,0.721-10.148C118.987,102.107,118.936,103.783,118.817,105.498
		C118.725,106.766,118.905,104.229,118.817,105.498z M117.813,63.793c-0.435,0.455-0.891,0.895-1.345,1.329
		c0.852-1.839,2.271-3.333,4.065-4.302C119.698,61.87,118.79,62.869,117.813,63.793C117.695,63.916,118.061,63.559,117.813,63.793z
		 M117.648,72.557c-0.048,2.295-0.177,4.434-0.917,6.611c0.074-2.639,0.371-5.274,0.883-7.857
		C117.614,71.311,117.657,71.816,117.648,72.557C117.64,72.927,117.657,71.816,117.648,72.557z M116.723,85.33
		c0.18-0.623,0.374-1.241,0.584-1.854c-0.599,4.08-1.21,8.16-1.834,12.238C115.351,92.216,115.766,88.698,116.723,85.33
		C116.882,84.77,116.565,85.89,116.723,85.33z M116.752,133.021c-0.031,3.625-0.336,7.256-0.905,10.836
		c-0.098-4.297,0.198-8.611,0.88-12.855C116.754,131.675,116.762,132.348,116.752,133.021
		C116.743,134.231,116.762,132.416,116.752,133.021z M115.301,189.654c0.009-0.242,0.023-0.381,0.023-0.381
		c0.589,2.865,1.035,5.766,1.337,8.674C115.642,195.277,115.254,192.5,115.301,189.654
		C115.31,189.412,115.297,189.896,115.301,189.654z M115.465,236.162c0.279-2.234,0.665-4.398,0.682-6.658
		c0.713,2.346,0.457,4.803-0.723,6.965C115.424,236.469,115.439,236.357,115.465,236.162
		C115.49,235.967,115.439,236.357,115.465,236.162z M116.554,217.131c-0.109-0.605-0.201-1.213-0.276-1.822
		c1.34,3.688,2.219,7.539,2.607,11.443C117.931,223.6,117.126,220.375,116.554,217.131
		C116.456,216.588,116.746,218.217,116.554,217.131z M118.796,236.219c0.329-2.348,0.562-4.703,0.672-7.068
		c0.601,2.818,0.316,5.738-0.813,8.395C118.655,237.545,118.683,237.004,118.796,236.219
		C118.824,236.023,118.683,237.004,118.796,236.219z M119.458,210.955c-1.095-3.193-1.943-6.48-2.549-9.801
		c1.461,3.729,2.535,7.615,3.199,11.564C119.875,212.137,119.659,211.549,119.458,210.955
		C119.092,209.891,119.637,211.488,119.458,210.955z M119.881,193.484c-0.203-1.545-0.332-3.055-0.324-4.602
		c0.734,2.977,1.219,6.035,1.438,9.092C120.508,196.502,120.167,195.021,119.881,193.484
		C119.731,192.342,120.092,194.621,119.881,193.484z M119.896,143.861c0.159-4.342,0.71-8.678,1.643-12.92
		C121.38,135.283,120.83,139.619,119.896,143.861z M121.09,215.783c1.045,3.561,1.625,7.244,1.641,10.969
		c-0.787-3.779-1.387-7.602-1.798-11.443C120.933,215.309,120.995,215.48,121.09,215.783
		C121.18,216.088,120.995,215.48,121.09,215.783z M122.836,101.329c-0.164,3.204-0.562,6.402-1.239,9.538
		c-0.058-3.362,0.362-6.73,1.245-9.975C122.842,100.893,122.845,101.052,122.836,101.329
		C122.823,101.605,122.845,101.052,122.836,101.329z M122.987,116.363c0.128-0.684,0.272-1.363,0.434-2.041
		c-0.168,4.438-0.648,8.867-1.436,13.233C122.055,123.836,122.283,120.021,122.987,116.363
		C123.101,115.749,122.87,116.977,122.987,116.363z M121.581,238.611c0.811-3.107,1.444-6.252,1.83-9.443
		c0.348,3.426-0.32,6.842-1.939,9.869C121.471,239.037,121.506,238.879,121.581,238.611
		C121.651,238.344,121.506,238.879,121.581,238.611z M122.775,206.93c-0.438-1.922-0.804-3.826-1.036-5.775
		c1.251,3.703,2.133,7.541,2.623,11.418C123.719,210.719,123.218,208.85,122.775,206.93
		C122.449,205.502,123.104,208.357,122.775,206.93z M124.682,141.455c-0.094,0.674-0.204,1.342-0.33,2.01
		c-0.089-4.338,0.354-8.68,1.318-12.91C125.492,134.191,125.198,137.85,124.682,141.455
		C124.6,142.059,124.854,140.252,124.682,141.455z M125.145,183.17c-0.006,0.469-0.029,0.938-0.07,1.404
		c-0.584-2.928-0.783-5.943-0.59-8.924C124.971,178.119,125.196,180.65,125.145,183.17
		C125.141,183.59,125.163,182.328,125.145,183.17z M124.34,151.914c-0.037,1.668-0.141,3.295-0.387,4.934
		c-0.321-3.283-0.252-6.613,0.205-9.881C124.334,148.615,124.372,150.246,124.34,151.914
		C124.313,153.148,124.364,150.68,124.34,151.914z M125.03,109.625c-0.139,0.463-0.295,0.92-0.469,1.371
		c0.276-3.064,0.944-6.102,1.979-8.999C126.302,104.579,125.796,107.146,125.03,109.625
		C124.907,110.04,125.286,108.797,125.03,109.625z M126.292,88.572c-1.008,2.917-1.869,5.889-2.801,8.829
		c0.366-3.681,1.492-7.258,3.301-10.481C126.641,87.476,126.475,88.027,126.292,88.572
		C126.208,88.816,126.456,88.086,126.292,88.572z M123.514,162.016c0.01-0.299,0.024-0.469,0.024-0.469
		c0.622,3.57,0.858,7.219,0.702,10.84C123.648,168.957,123.457,165.492,123.514,162.016
		C123.524,161.717,123.508,162.312,123.514,162.016z M124.282,193.484c-0.141-1.631-0.208-3.236-0.055-4.867
		c0.5,3.189,0.834,6.414,0.997,9.637C124.776,196.684,124.5,195.121,124.282,193.484
		C124.229,192.875,124.442,194.689,124.282,193.484z M125.155,215.793c0.771,3.613,1.296,7.264,1.422,10.959
		c-0.898-3.746-1.417-7.594-1.543-11.443C125.034,215.309,125.083,215.484,125.155,215.793
		C125.221,216.102,125.083,215.484,125.155,215.793z M126.295,126.228c-0.082,0.318-0.137,0.499-0.137,0.499
		c0.254-3.986,0.9-7.955,1.925-11.816C127.834,118.735,127.186,122.502,126.295,126.228
		C126.213,126.546,126.372,125.908,126.295,126.228z M128.934,162.43c0.035-0.551,0.086-1.102,0.154-1.648
		c0.408,3.494,0.427,7.043,0.055,10.541C128.805,168.375,128.735,165.391,128.934,162.43
		C128.963,161.936,128.868,163.418,128.934,162.43z M128.815,151.586c0.007-1.592,0.082-3.141,0.3-4.705
		c0.378,3.119,0.367,6.293-0.032,9.41C128.875,154.725,128.811,153.176,128.815,151.586
		C128.82,150.408,128.812,152.762,128.815,151.586z M129.345,142.893c-0.052,0.354-0.089,0.553-0.089,0.553
		c-0.131-4.326,0.131-8.675,0.779-12.955C130.156,134.641,129.875,138.775,129.345,142.893
		C129.293,143.246,129.391,142.539,129.345,142.893z M129.939,107.574c-0.288,1.367-0.687,2.701-1.194,4
		c0.23-2.773,0.852-5.521,1.835-8.125C130.479,104.84,130.265,106.215,129.939,107.574
		C129.708,108.589,130.167,106.559,129.939,107.574z M130.544,90.105c-0.873,2.83-1.949,5.625-3.065,8.365
		c0.615-3.491,1.803-6.857,3.514-9.963C130.86,89.045,130.711,89.578,130.544,90.105C130.251,91.055,130.694,89.633,130.544,90.105z
		 M126.752,201.639c0.969,3.611,1.686,7.273,2.01,11c-1.1-3.74-1.824-7.6-2.156-11.484
		C126.606,201.154,126.665,201.33,126.752,201.639C126.836,201.949,126.665,201.33,126.752,201.639z M128.759,193.533
		c-0.071-1.824-0.075-3.609,0.064-5.42c0.476,3.562,0.71,7.176,0.699,10.77C129.153,197.111,128.924,195.344,128.759,193.533
		C128.706,192.18,128.881,194.877,128.759,193.533z M129.315,179.906c-0.121-1.578-0.171-3.121-0.082-4.691
		c0.67,3.072,0.857,6.242,0.551,9.371C129.512,183.033,129.38,181.492,129.315,179.906
		C129.225,178.742,129.364,181.08,129.315,179.906z M129.563,215.805c0.003-0.314,0.013-0.496,0.013-0.496
		c0.755,3.762,1.015,7.615,0.772,11.443C129.844,223.129,129.59,219.463,129.563,215.805
		C129.566,215.49,129.565,216.121,129.563,215.805z M130.331,126.711c-0.043-3.809,0.307-7.629,1.04-11.365
		C131.415,119.152,131.065,122.975,130.331,126.711z M125.84,80.412c1.415-1.686,2.999-3.199,4.83-4.43
		c-1.861,2.131-3.848,4.158-5.941,6.063C125.055,81.471,125.426,80.926,125.84,80.412C125.989,80.235,125.688,80.584,125.84,80.412z
		 M121.393,79.959c0.857-1.498,2.187-2.7,3.723-3.459c-1.328,1.492-2.721,2.93-4.17,4.303
		C120.946,80.803,121.098,80.451,121.393,79.959C121.537,79.709,121.098,80.451,121.393,79.959z M119.884,92.771
		c0.524-2.696,1.209-5.267,2.417-7.737c-0.865,3.854-1.907,7.67-3.119,11.422C119.403,95.225,119.651,93.999,119.884,92.771
		C120.016,92.09,119.754,93.453,119.884,92.771z M121.6,63.046c-1.133,1.919-2.258,3.837-3.467,5.709
		c0.768-2.565,2.164-4.908,4.051-6.815C122.184,61.939,121.973,62.404,121.6,63.046C121.506,63.205,121.973,62.404,121.6,63.046z
		 M126.245,56.831c-0.61,1.261-1.478,2.356-2.592,3.207c0.703-1.469,1.697-2.816,2.891-3.924
		C126.543,56.114,126.451,56.416,126.245,56.831C126.042,57.25,126.451,56.416,126.245,56.831z M127.822,53.677
		c0.162-1.054,0.47-2.099,0.86-3.089c0.262,1.326-0.068,2.636-0.914,3.708C127.768,54.295,127.761,54.038,127.822,53.677
		C127.85,53.496,127.761,54.038,127.822,53.677z M127.286,50.268c0.234-0.211,0.432-0.322,0.432-0.322
		c-0.311,1.082-0.98,2.022-1.903,2.668C126.071,51.718,126.581,50.888,127.286,50.268C127.52,50.057,127.049,50.477,127.286,50.268z
		 M124.69,50.763c0.582-0.792,1.383-1.358,2.326-1.625c-0.656,0.918-1.575,1.651-2.617,2.089
		C124.399,51.227,124.497,51.019,124.69,50.763C124.88,50.503,124.497,51.019,124.69,50.763z M124.614,55.619
		c0.333-0.303,0.599-0.477,0.599-0.477c-0.673,1.487-1.763,2.733-3.147,3.597C122.754,57.605,123.616,56.502,124.614,55.619
		C124.947,55.316,124.276,55.918,124.614,55.619z M123.307,54.304c0.359-0.273,0.641-0.427,0.641-0.427
		c-0.836,1.415-2.094,2.533-3.598,3.204C121.215,56.017,122.225,55.136,123.307,54.304
		C123.667,54.031,123.128,54.441,123.307,54.304z M119.327,54.383c0.982-0.69,2.142-1.215,3.278-1.583
		c-1.015,1.095-2.345,1.797-3.821,2.017C118.784,54.816,118.989,54.616,119.327,54.383
		C119.665,54.146,118.989,54.616,119.327,54.383z M119.415,59.229c-1.437,1.21-3.086,2.196-4.832,2.888
		C115.93,60.771,117.59,59.778,119.415,59.229z M118.237,57.402c-1.544,1.135-3.348,1.864-5.246,2.122
		C114.61,58.553,116.398,57.83,118.237,57.402z M112.851,56.026c1.46-0.253,2.909-0.524,4.384-0.687
		c-1.588,0.923-3.417,1.235-5.209,0.876C112.026,56.216,112.356,56.11,112.851,56.026C112.975,56.005,112.356,56.11,112.851,56.026z
		 M110.94,61.582c-1.346,0.621-2.814,0.99-4.289,1.095c1.542-0.854,3.271-1.363,5.029-1.483
		C111.68,61.194,111.393,61.378,110.94,61.582C110.489,61.791,111.393,61.378,110.94,61.582z M108.606,55.572
		c0.503,0.146,0.993,0.327,1.471,0.542c-1.701,0.103-3.346-0.402-4.704-1.439C106.47,54.875,107.565,55.168,108.606,55.572
		C108.873,55.682,108.34,55.469,108.606,55.572z M104.662,52.943c-0.248,0.159-0.449,0.23-0.449,0.23
		c0.187-0.485,0.469-0.914,0.847-1.284c0.4-0.369,0.855-0.632,1.366-0.79C105.996,51.818,105.38,52.496,104.662,52.943
		C104.415,53.102,104.912,52.787,104.662,52.943z M105.054,76.756c-0.042,0.656-0.121,1.096-0.121,1.096
		c-0.498-2.286-0.552-4.66-0.161-6.967C105.082,72.812,105.193,74.805,105.054,76.756C105.012,77.412,105.101,76.1,105.054,76.756z
		 M114.037,47.995c-1.61,0.855-3.356,1.458-5.148,1.78c1.856-1.097,3.907-1.878,6.023-2.292
		C114.912,47.482,114.575,47.715,114.037,47.995C113.5,48.28,114.575,47.715,114.037,47.995z M116.333,43.93
		c1.459-1.088,3.042-2.021,4.7-2.772C119.792,42.549,118.158,43.51,116.333,43.93z M121.928,43.623
		c-1.145,1.1-2.463,1.918-3.988,2.373c1.381-1.194,2.941-2.217,4.586-3.007C122.526,42.989,122.309,43.264,121.928,43.623
		C121.55,43.985,122.309,43.264,121.928,43.623z M126.979,37.941c-0.502,1.326-1.413,2.44-2.613,3.194
		C124.982,39.897,125.887,38.791,126.979,37.941z M126.282,36.083c-0.808,1.232-1.936,2.24-3.252,2.904
		C123.838,37.755,124.967,36.747,126.282,36.083z M125.643,33.934c-1.275,1.139-2.787,2.014-4.414,2.555
		C122.467,35.302,123.993,34.421,125.643,33.934z M120.051,33.19c1.447-0.937,3.047-1.434,4.779-1.347
		c-1.839,0.639-3.68,1.278-5.518,1.917C119.313,33.76,119.594,33.505,120.051,33.19C120.286,33.039,119.594,33.505,120.051,33.19z
		 M119.459,39.101c-1.231,1.121-2.721,1.948-4.322,2.401C116.368,40.381,117.858,39.554,119.459,39.101z M118.121,37.019
		c-1.157,1.077-2.576,1.861-4.104,2.27C115.174,38.213,116.593,37.428,118.121,37.019z M113.546,36.703
		c1.036-0.793,2.247-1.379,3.501-1.724c-1.137,1.076-2.543,1.84-4.065,2.207C112.982,37.186,113.194,36.966,113.546,36.703
		C113.897,36.435,113.194,36.966,113.546,36.703z M113.618,45.091c-2.07,1.231-4.348,2.127-6.701,2.64
		C108.988,46.5,111.264,45.604,113.618,45.091z M111.291,43.373c-1.636,1.12-3.635,1.837-5.554,2.263
		c2.042-1.19,4.214-2.173,6.459-2.925C112.196,42.71,111.852,42.999,111.291,43.373C111.012,43.563,111.852,42.999,111.291,43.373z
		 M110.309,41.104c-1.793,1.049-3.73,1.857-5.735,2.393c2.063-1.335,4.338-2.356,6.708-3.012
		C111.282,40.484,110.907,40.758,110.309,41.104C109.711,41.453,110.907,40.758,110.309,41.104z M103.92,40.524
		c1.957-1.29,4.438-1.982,6.75-2.238c-2.268,0.964-4.621,1.78-7.011,2.432C103.66,40.718,103.754,40.647,103.92,40.524
		C104.092,40.411,103.754,40.647,103.92,40.524z M103.867,46.604c-2.488,1.284-4.769,2.953-6.742,4.936
		C98.62,48.995,100.984,47.266,103.867,46.604z M99.833,54.451c-0.009,1.145-0.187,2.292-0.517,3.388
		c-0.348-1.362-0.18-2.792,0.471-4.043C99.788,53.795,99.835,54.066,99.833,54.451C99.832,54.644,99.835,54.066,99.833,54.451z
		 M97.875,74.51c-0.227-1.136-0.34-2.28-0.34-3.434c0.779,2.158,1.211,4.452,1.272,6.747C98.387,76.752,98.077,75.646,97.875,74.51
		C97.723,73.665,98.04,75.352,97.875,74.51z M97.928,109.175c-0.013,0.621-0.044,1.241-0.092,1.86
		c-0.541-3.926-0.693-7.914-0.453-11.869C97.833,102.477,98.019,105.834,97.928,109.175
		C97.918,109.732,97.958,108.06,97.928,109.175z M95.266,57.224c-0.087,0.401-0.196,0.665-0.196,0.665
		c-0.375-1.462-0.193-2.966,0.537-4.269C95.598,54.814,95.521,56.06,95.266,57.224C95.179,57.625,95.354,56.822,95.266,57.224z
		 M95.292,78.012c-0.921-2.076-1.411-4.328-1.436-6.599C94.636,73.527,95.123,75.766,95.292,78.012z M95.543,60.511
		c0.678,2.662,1.222,5.36,1.63,8.076C96.026,66.057,95.467,63.289,95.543,60.511z M101.068,39.091
		c0.115-0.277,0.366-0.604,0.636-0.908c0.395-0.407,0.858-0.681,1.392-0.823c-0.563,0.887-1.322,1.649-2.206,2.216
		C100.89,39.576,100.938,39.364,101.068,39.091C101.183,38.814,100.938,39.364,101.068,39.091z M98.619,39.006
		c0.032-0.275,0.12-0.625,0.25-0.957c0.215-0.464,0.518-0.854,0.909-1.168c-0.103,0.963-0.519,1.885-1.173,2.6
		C98.605,39.481,98.583,39.28,98.619,39.006C98.651,38.731,98.583,39.28,98.619,39.006z M96.181,38.691
		c0.147-0.545,0.393-1.037,0.735-1.476c0.029,1.092-0.243,2.199-0.774,3.152C96.039,39.811,96.052,39.251,96.181,38.691
		C96.299,38.302,96.102,39.1,96.181,38.691z M96.249,43.133c1.673-1.008,3.451-1.439,5.136-0.793
		c-0.037,1.76-1.199,3.338-2.546,4.431c-1.347,1.091-2.804,1.848-4.882,0.977C93.633,45.827,94.342,44.282,96.249,43.133z
		 M93.498,39.884c0.062-0.569,0.229-1.102,0.5-1.597c0.208,1.095,0.091,2.249-0.331,3.28C93.498,41.022,93.441,40.461,93.498,39.884
		C93.555,39.476,93.471,40.303,93.498,39.884z M93.562,116.875c0.016-0.697,0.048-1.393,0.097-2.088
		c0.593,4.418,0.639,8.898,0.135,13.328C93.582,124.381,93.464,120.615,93.562,116.875
		C93.575,116.249,93.529,118.127,93.562,116.875z M93.521,110.748c-0.005,0.325-0.016,0.511-0.016,0.511
		c-0.691-3.878-0.998-7.835-0.912-11.773C93.252,103.207,93.516,106.971,93.521,110.748
		C93.517,111.073,93.521,110.426,93.521,110.748z M92.286,60.986c0.758,2.528,1.143,5.172,1.136,7.811
		C92.664,66.27,92.279,63.625,92.286,60.986z M91.602,53.147c0.502,1.652,0.629,3.414,0.368,5.121
		C91.468,56.616,91.341,54.854,91.602,53.147z M91.492,48.9c0.054,0.669-0.004,1.325-0.175,1.968
		c-0.449-1.25-0.524-2.612-0.217-3.904C91.339,47.583,91.47,48.229,91.492,48.9C91.517,49.388,91.462,48.412,91.492,48.9z
		 M90.789,40.54c0.062-0.368,0.155-0.613,0.155-0.613c0.395,1.268,0.412,2.633,0.049,3.91C90.663,42.778,90.587,41.635,90.789,40.54
		C90.851,40.172,90.721,40.907,90.789,40.54z M91.042,73.104c0.615,1.824,0.988,3.744,1.127,5.66
		c-0.908-2.107-1.423-4.379-1.513-6.671C90.656,72.093,90.84,72.49,91.042,73.104C91.249,73.717,90.84,72.49,91.042,73.104z
		 M89.591,68.092c0.031,0.74,0.002,1.24,0.002,1.24c-0.73-2.527-1.086-5.171-1.049-7.803C89.153,63.661,89.511,65.875,89.591,68.092
		C89.623,68.832,89.564,67.352,89.591,68.092z M89.064,55.967c0.099,0.859,0.083,1.713-0.046,2.563
		c-0.536-1.631-0.699-3.38-0.473-5.082C88.827,54.263,89,55.103,89.064,55.967C89.122,56.603,89.003,55.332,89.064,55.967z
		 M88.627,49.29c0.053,0.663-0.007,1.312-0.18,1.948c-0.445-1.24-0.518-2.592-0.208-3.872C88.479,47.981,88.608,48.623,88.627,49.29
		C88.652,49.774,88.6,48.806,88.627,49.29z M87.942,41.707c0.064-0.367,0.157-0.612,0.157-0.612c0.391,1.268,0.404,2.63,0.037,3.905
		C87.81,43.941,87.738,42.8,87.942,41.707C88.006,41.34,87.874,42.073,87.942,41.707z M87.299,73.588
		c0.788,1.805,1.315,3.721,1.552,5.674c-1.017-2.096-1.706-4.36-2.031-6.667C86.82,72.595,87.041,72.983,87.299,73.588
		C87.562,74.19,87.041,72.983,87.299,73.588z M85.772,54.631c0.449,1.43,0.634,2.946,0.553,4.439
		c-0.656-1.656-0.946-3.454-0.845-5.231C85.48,53.839,85.626,54.152,85.772,54.631C85.923,55.111,85.626,54.152,85.772,54.631z
		 M84.884,44.722c0.019-0.53,0.144-1.029,0.374-1.497c0.315,1.001,0.25,2.073-0.183,3.029
		C84.902,45.762,84.838,45.251,84.884,44.722C84.909,44.343,84.863,45.101,84.884,44.722z M84.93,48.904
		c0.048-0.341,0.13-0.571,0.13-0.571c0.444,1.146,0.517,2.406,0.208,3.596C84.897,50.975,84.774,49.921,84.93,48.904
		C84.978,48.563,84.878,49.245,84.93,48.904z M84.505,63.462c0.655,2.077,0.904,4.437,1.064,6.619
		c-0.889-2.501-1.384-5.146-1.46-7.805C84.109,62.276,84.297,62.744,84.505,63.462C84.73,64.174,84.297,62.744,84.505,63.462z
		 M85.2,80.092c-1.085-2.02-1.827-4.228-2.181-6.492C84.104,75.619,84.846,77.826,85.2,80.092z M82.712,55.339
		c0.007-0.485,0.062-0.814,0.062-0.814c0.563,1.618,0.817,3.357,0.74,5.068C82.938,58.248,82.677,56.803,82.712,55.339
		C82.72,54.854,82.701,55.825,82.712,55.339z M82.178,47.515c0.078-0.601,0.214-1.188,0.41-1.762
		c0.125,1.877,0.089,3.769-0.104,5.642C82.068,50.125,82.004,48.834,82.178,47.515C82.213,47.18,82.134,47.847,82.178,47.515z
		 M80.754,59.144c-0.031,0.443-0.101,0.743-0.101,0.743c-0.546-1.495-0.664-3.12-0.334-4.673
		C80.653,56.458,80.866,57.86,80.754,59.144C80.724,59.587,80.793,58.701,80.754,59.144z M80.939,64.175
		c-0.042-0.759-0.019-1.268-0.019-1.268c0.727,2.585,1.169,5.267,1.313,7.946C81.465,68.701,81.049,66.458,80.939,64.175
		C80.897,63.416,80.976,64.934,80.939,64.175z M80.129,89.82c1.237,2.46,2.204,5.018,2.803,7.705
		c-1.604-3.646-3.186-7.307-4.742-10.975C78.907,87.596,79.562,88.688,80.129,89.82C80.446,90.451,79.972,89.506,80.129,89.82z
		 M82.992,118.455c0.31,3.436,0.136,6.914-0.515,10.305c0.004-4.07,0.098-8.144,0.283-12.209
		C82.855,117.184,82.932,117.818,82.992,118.455C83.018,118.741,82.94,117.881,82.992,118.455z M80.427,185.652
		c0.596,1.391,0.996,2.918,1.279,4.398c-1.042-1.537-1.614-3.32-1.657-5.176C80.049,184.875,80.231,185.184,80.427,185.652
		C80.629,186.123,80.231,185.184,80.427,185.652z M80.011,170.021c0.043-3.385,0.611-6.75,1.683-9.961
		C81.389,163.41,80.823,166.756,80.011,170.021z M81.684,136.812c-0.293,1.58-0.647,3.109-1.14,4.627
		c0.224-3.162,0.75-6.319,1.562-9.383C82.082,133.656,81.919,135.219,81.684,136.812C81.466,137.982,81.858,135.633,81.684,136.812z
		 M82.007,110.934c-0.595-2.882-1.24-5.752-1.795-8.643c1.389,3.235,2.134,6.721,2.19,10.241
		C82.253,112.004,82.121,111.471,82.007,110.934C81.957,110.693,82.108,111.416,82.007,110.934z M79.563,179.615
		c-0.054,0.58-0.14,0.967-0.14,0.967c-0.501-2.035-0.448-4.146,0.156-6.154C79.695,176.135,79.735,177.908,79.563,179.615
		C79.51,180.195,79.622,179.037,79.563,179.615z M79.641,145.984c-0.474,3.297-1.191,6.541-2.299,9.686
		c0.399-3.449,1.189-6.861,2.346-10.133C79.688,145.537,79.675,145.701,79.641,145.984C79.6,146.266,79.675,145.701,79.641,145.984z
		 M63.878,186.162c1.422,3.604,3.055,7.107,4.996,10.465c-2.675-3.127-4.47-6.902-5.205-10.947
		C63.669,185.68,63.749,185.854,63.878,186.162C64,186.473,63.749,185.854,63.878,186.162z M63.628,165.695
		c0.117-2.717,0.688-5.406,1.686-7.934C65.072,160.455,64.502,163.135,63.628,165.695z M65.564,127.266
		c-0.229-2.723-0.326-5.46-0.289-8.191C66.001,121.744,66.1,124.55,65.564,127.266z M65.641,131.178
		c-0.071,2.91-0.76,5.781-2.016,8.408C64.141,136.751,64.815,133.939,65.641,131.178z M64.766,83.148
		c-0.306-0.545-0.47-0.938-0.47-0.938c1.583,1.555,2.895,3.392,3.852,5.394C66.818,86.293,65.668,84.785,64.766,83.148
		C64.459,82.604,65.068,83.695,64.766,83.148z M66.123,94.486c1.451,2.369,2.629,4.816,3.306,7.521
		c-1.413-2.484-2.597-5.123-3.515-7.83C65.914,94.178,65.995,94.288,66.123,94.486C66.247,94.688,65.995,94.288,66.123,94.486z
		 M69.565,152.844c0.459-2.939,1.189-5.844,2.169-8.652c-0.41,3.504-1.212,6.969-2.382,10.297
		C69.405,153.938,69.476,153.389,69.565,152.844C69.718,151.861,69.484,153.334,69.565,152.844z M69.464,119.115
		c-0.003-0.252,0.003-0.397,0.003-0.397c0.851,2.965,0.983,6.099,0.385,9.125C69.696,124.936,69.56,122.025,69.464,119.115
		C69.46,118.863,69.472,119.367,69.464,119.115z M78.289,125.451c-0.042-2.718-0.009-5.441,0.023-8.16
		c0.715,3.942,0.727,7.996,0.038,11.945C78.303,127.977,78.277,126.713,78.289,125.451
		C78.278,124.752,78.286,125.801,78.289,125.451z M78.739,98.224c-1.609-3.157-3.198-6.325-4.806-9.483
		c2.339,2.917,4.058,6.297,5.038,9.905C78.971,98.646,78.882,98.494,78.739,98.224C78.6,97.951,78.882,98.494,78.739,98.224z
		 M74.672,153.613c-0.171,0.527-0.358,1.049-0.562,1.564c0.479-3.498,1.348-6.949,2.583-10.256
		C76.284,147.869,75.607,150.787,74.672,153.613C74.521,154.088,74.984,152.67,74.672,153.613z M74.912,172.518
		c-0.157,2.631-0.279,5.264-0.366,7.898C73.872,177.799,73.998,175.057,74.912,172.518z M75.517,104.084
		c1.409,2.982,2.208,6.229,2.343,9.523C76.97,110.463,76.188,107.283,75.517,104.084z M75.327,167.906
		c0.291-2.725,0.838-5.406,1.769-7.988c-0.213,2.848-0.819,5.674-1.792,8.359C75.304,168.277,75.308,168.143,75.327,167.906
		C75.352,167.674,75.308,168.143,75.327,167.906z M77.018,140.211c-0.124,0.479-0.264,0.953-0.421,1.424
		c0.215-3.139,0.708-6.275,1.466-9.328C78.078,134.982,77.702,137.625,77.018,140.211C76.908,140.643,77.246,139.35,77.018,140.211z
		 M74.42,98.363c0.182,0.475,0.346,0.954,0.493,1.439c-1.633-2.777-3.12-5.662-4.434-8.604
		C72.186,93.372,73.453,95.778,74.42,98.363C74.584,98.789,74.1,97.507,74.42,98.363z M72.791,139.211
		c-0.105,0.443-0.227,0.881-0.365,1.314c0.099-2.884,0.459-5.78,1.069-8.602C73.64,134.385,73.375,136.818,72.791,139.211
		C72.699,139.609,72.985,138.416,72.791,139.211z M73.078,158.955c-0.367,2.75-1.123,5.455-2.235,7.998
		C71.21,164.203,71.966,161.498,73.078,158.955z M71.706,109.97c-0.409-1.417-0.741-2.811-0.943-4.26
		c1.25,2.648,1.97,5.515,2.121,8.438C72.378,112.783,72.012,111.404,71.706,109.97C71.404,108.924,71.931,111.026,71.706,109.97z
		 M73.501,123.35c-0.06-1.721-0.083-3.442-0.051-5.164c0.723,3.391,0.816,6.9,0.275,10.326
		C73.592,126.793,73.527,125.073,73.501,123.35C73.479,122.709,73.511,123.993,73.501,123.35z M69.651,177.801
		c0.031,1.061,0.09,2.117,0.11,3.176c-1-3.279-0.964-6.748,0.125-9.975C69.603,173.258,69.528,175.531,69.651,177.801
		C69.668,178.387,69.62,177.217,69.651,177.801z M67.888,148.789c-0.504,1.662-1.062,3.266-1.761,4.844
		c0.638-3.365,1.601-6.684,2.865-9.867C68.736,145.469,68.351,147.121,67.888,148.789C67.514,150.021,68.231,147.553,67.888,148.789
		z M68.545,158.1c-0.122,2.855-0.638,5.701-1.525,8.418C67.142,163.662,67.658,160.816,68.545,158.1z M66.699,107.307
		c1.236,2.336,1.962,4.902,2.133,7.539C67.915,112.404,67.196,109.867,66.699,107.307z M68.775,135.952
		c-0.379,1.36-0.865,2.679-1.457,3.956c0.483-2.756,1.174-5.495,2.058-8.15C69.291,133.171,69.09,134.568,68.775,135.952
		C68.477,136.961,68.994,134.914,68.775,135.952z M66.045,172.381c0.094-0.541,0.206-1.078,0.334-1.611
		c-0.078,3.482-0.08,6.967-0.006,10.451C65.659,178.328,65.556,175.318,66.045,172.381
		C66.129,171.895,66.005,172.623,66.045,172.381z M68.363,188.426c-0.347-1.033-0.59-2.107-0.743-3.186
		c1.222,3.195,2.593,6.328,4.108,9.395C70.203,192.783,69.133,190.695,68.363,188.426C68.266,188.137,68.559,189.002,68.363,188.426
		z M71.483,186.686c-0.211-0.701-0.386-1.414-0.534-2.133c1.353,2.83,2.715,5.656,4.087,8.477
		C73.544,191.219,72.061,188.969,71.483,186.686C71.41,186.443,71.545,186.932,71.483,186.686z M74.938,185.646
		c-0.192-0.732-0.27-1.227-0.27-1.227c1.148,2.373,2.407,4.689,3.775,6.943C76.773,189.846,75.488,187.844,74.938,185.646
		C74.746,184.914,74.984,185.83,74.938,185.646z M73.808,75.757c2.265,1.653,4.224,3.678,5.756,6.044
		c-2.16-1.94-4.193-4.035-6.072-6.254C73.492,75.547,73.61,75.619,73.808,75.757C74.001,75.898,73.61,75.619,73.808,75.757z
		 M70.866,77.014c1.878,2.008,3.582,4.182,5.021,6.525c-2.104-1.967-3.895-4.266-5.288-6.787
		C70.599,76.752,70.7,76.844,70.866,77.014C71.027,77.186,70.7,76.844,70.866,77.014z M71.236,84.306
		c0.347,0.657,0.536,1.123,0.536,1.123c-1.772-1.968-3.197-4.237-4.198-6.689C68.959,80.466,70.215,82.338,71.236,84.306
		C71.583,84.963,70.894,83.646,71.236,84.306z M64.888,68.158c1.409,1.267,2.702,2.726,3.887,4.198
		c-1.941-1.231-3.552-2.899-4.713-4.884C64.062,67.473,64.415,67.727,64.888,68.158C65.364,68.587,64.415,67.727,64.888,68.158z
		 M62.64,71.154c1.054,1.295,1.979,2.688,2.708,4.189c-1.745-1.721-3.165-3.754-4.17-5.979
		C61.681,69.943,62.179,70.539,62.64,71.154C62.909,71.484,62.513,70.984,62.64,71.154z M61.355,85.807
		c1.107,1.443,1.999,3.059,2.636,4.76c-1.415-1.631-2.537-3.52-3.29-5.543C60.702,85.023,60.989,85.321,61.355,85.807
		C61.726,86.289,60.989,85.321,61.355,85.807z M59.635,75.324c-0.765-1.205-1.428-2.463-1.989-3.771
		c1.806,2.196,3.314,4.645,4.462,7.246C61.191,77.709,60.367,76.551,59.635,75.324C59.079,74.418,60.194,76.229,59.635,75.324z
		 M60.137,60.986c0.782,1.033,1.384,2.242,1.788,3.468c-1.136-1.095-1.922-2.493-2.27-4.032
		C59.656,60.422,59.875,60.634,60.137,60.986C60.402,61.337,59.875,60.634,60.137,60.986z M57.399,61.602
		c0.739,1.352,1.272,2.859,1.625,4.354c-1.113-1.499-1.83-3.255-2.082-5.104C56.942,60.852,57.155,61.143,57.399,61.602
		C57.648,62.057,57.155,61.143,57.399,61.602z M58.129,80.411c0.216,0.44,0.415,0.89,0.598,1.345
		c-1.935-2.467-3.488-5.225-4.593-8.158C55.625,75.758,56.995,78.042,58.129,80.411C58.323,80.805,57.75,79.618,58.129,80.411z
		 M53.75,62.822c-0.132-0.602-0.172-1.019-0.172-1.019c1,1.929,1.779,3.997,2.299,6.106C54.821,66.363,54.136,64.65,53.75,62.822
		C53.618,62.221,53.877,63.424,53.75,62.822z M55.209,26.447c0.181-2.042,0.663-4.023,1.505-5.894
		c-0.236,2.388-0.765,4.767-1.563,7.031C55.151,27.583,55.146,27.123,55.209,26.447C55.27,25.771,55.146,27.123,55.209,26.447z
		 M54.894,50.529c0.744,2.15,1.271,4.412,1.658,6.651c-1.184-2.461-1.903-5.125-2.117-7.848
		C54.435,49.332,54.648,49.806,54.894,50.529C55.143,51.25,54.648,49.806,54.894,50.529z M54.034,33.435
		c0.147-0.863,0.33-1.717,0.556-2.562c0.223,1.756,0,3.55-0.64,5.213C53.827,35.202,53.855,34.318,54.034,33.435
		C54.089,33.115,53.931,34.093,54.034,33.435z M53.879,40.959c0.239,1.569,0.234,3.214,0.07,4.788
		c-0.553-1.841-0.638-3.791-0.246-5.673C53.703,40.074,53.804,40.43,53.879,40.959C53.96,41.488,53.804,40.43,53.879,40.959z
		 M51.985,26.044c0.216-2.181,0.73-4.308,1.585-6.327c-0.255,2.562-0.816,5.11-1.663,7.542
		C51.908,27.259,51.909,26.77,51.985,26.044C52.057,25.318,51.909,26.77,51.985,26.044z M51.734,54.147
		c0.309,1.449,0.578,2.904,0.783,4.371c-1.188-2.743-1.783-5.717-1.74-8.706C51.146,51.247,51.458,52.693,51.734,54.147
		C51.849,54.688,51.631,53.606,51.734,54.147z M52.473,70.16c-1.449-2.301-2.425-4.867-2.874-7.549
		C50.774,65.03,51.742,67.572,52.473,70.16z M50.765,33.599c0.085-0.979,0.281-1.934,0.587-2.864
		c0.181,1.944-0.028,3.924-0.61,5.787C50.634,35.55,50.642,34.575,50.765,33.599C50.843,32.876,50.69,34.323,50.765,33.599z
		 M50.685,41.111c0.13,1.685,0.025,3.427-0.217,5.094c-0.459-1.995-0.425-4.069,0.102-6.047
		C50.569,40.158,50.646,40.541,50.685,41.111C50.729,41.681,50.646,40.541,50.685,41.111z M48.424,25.355
		c0.359-2.396,1.031-4.697,2.105-6.871c-0.516,2.786-1.277,5.545-2.262,8.201C48.268,26.686,48.3,26.149,48.424,25.355
		C48.543,24.56,48.3,26.149,48.424,25.355z M48.051,54.972c0.312,1.469,0.549,2.909,0.651,4.396
		c-1.064-2.798-1.596-5.771-1.566-8.765C47.555,52.04,47.834,53.481,48.051,54.972C48.281,56.053,47.891,53.87,48.051,54.972z
		 M47.642,31.167c-0.03,1.77-0.312,3.564-0.761,5.272c-0.215-2.117,0.037-4.262,0.737-6.271
		C47.618,30.167,47.657,30.571,47.642,31.167C47.632,31.763,47.657,30.571,47.642,31.167z M46.952,46.021
		c-0.04,0.654-0.118,1.096-0.118,1.096c-0.516-2.288-0.562-4.664-0.136-6.97C46.974,42.076,47.087,44.074,46.952,46.021
		C46.912,46.676,46.998,45.367,46.952,46.021z M45.811,21.652c0.491-1.441,1.031-2.817,1.713-4.165
		c-0.644,2.909-1.521,5.787-2.608,8.561C45.102,24.556,45.417,23.115,45.811,21.652C46.174,20.586,45.52,22.733,45.811,21.652z
		 M39.649,35.373c0.124-2.353,0.565-4.635,1.432-6.829c-0.252,2.738-0.742,5.475-1.457,8.13
		C39.625,36.674,39.604,36.152,39.649,35.373C39.69,34.593,39.604,36.152,39.649,35.373z M39.296,46.695
		c-0.059,0.757-0.149,1.269-0.149,1.269c-0.483-2.688-0.415-5.441,0.199-8.103C39.456,42.122,39.486,44.437,39.296,46.695
		C39.237,47.453,39.36,45.937,39.296,46.695z M40.99,60.52c-0.959-3.039-1.607-6.059-1.599-9.261
		c0.763,3.177,1.348,6.417,1.742,9.66C41.134,60.918,41.077,60.775,40.99,60.52C40.909,60.263,41.077,60.775,40.99,60.52z
		 M42.015,25.017c0.5-3.018,1.525-5.932,3.022-8.6C44.269,19.353,43.252,22.246,42.015,25.017z M43.222,36.582
		c-0.168-2.332,0.148-4.679,0.927-6.883C44.132,32.014,43.818,34.345,43.222,36.582z M43.22,46.545
		c-0.039,0.725-0.115,1.21-0.115,1.21c-0.532-2.537-0.566-5.157-0.101-7.707C43.246,42.19,43.351,44.392,43.22,46.545
		C43.181,47.271,43.264,45.821,43.22,46.545z M43.389,51.046c0.72,2.817,1.192,5.719,1.401,8.619
		C43.816,56.9,43.341,53.977,43.389,51.046z M45.423,73.666c-1.439-2.85-2.593-5.758-3.205-8.902
		c1.368,2.994,2.515,6.11,3.412,9.277C45.63,74.041,45.55,73.906,45.423,73.666C45.301,73.425,45.55,73.906,45.423,73.666z
		 M45.99,64.965c-0.101-0.465-0.185-0.933-0.252-1.403c1.181,2.778,2.142,5.675,2.855,8.608
		C47.359,69.906,46.519,67.486,45.99,64.965C45.897,64.549,46.166,65.803,45.99,64.965z M51.708,86.699
		c-1.865-2.952-3.467-6.012-4.608-9.318c1.883,3.09,3.52,6.35,4.872,9.705C51.972,87.086,51.871,86.947,51.708,86.699
		C51.548,86.447,51.871,86.947,51.708,86.699z M52.099,80.521c-0.748-1.54-1.417-3.074-1.964-4.686
		c1.765,2.869,3.327,5.886,4.651,8.982C53.791,83.444,52.924,82.016,52.099,80.521C51.544,79.379,52.71,81.629,52.099,80.521z
		 M56.131,95.176c-0.991-1.39-1.759-2.945-2.271-4.571c1.281,1.571,2.259,3.392,2.863,5.327
		C56.723,95.932,56.459,95.645,56.131,95.176C55.799,94.711,56.459,95.645,56.131,95.176z M57.075,89.061
		c-0.239-0.539-0.354-0.922-0.354-0.922c1.375,1.572,2.456,3.405,3.168,5.369C58.737,92.182,57.777,90.674,57.075,89.061
		C56.836,88.521,57.31,89.6,57.075,89.061z M60.81,104.619c-0.966-1.604-1.731-3.366-2.309-5.145
		c1.366,1.787,2.353,3.845,2.89,6.029C61.392,105.504,61.13,105.16,60.81,104.619C60.485,104.08,61.13,105.16,60.81,104.619z
		 M61.881,97.02c1.507,1.951,2.628,4.18,3.294,6.553C63.817,101.539,62.703,99.322,61.881,97.02z M62.911,109.368
		c1.093,1.985,1.712,4.191,1.812,6.455C63.878,113.757,63.266,111.572,62.911,109.368z M63.882,147.922
		c0.615-1.467,1.274-2.865,2.073-4.227c-0.791,3.062-2.108,5.971-3.888,8.586C62.566,150.779,63.184,149.354,63.882,147.922
		C64.335,146.842,63.366,148.98,63.882,147.922z M62.671,177.656c0.028,1.23,0.093,2.459,0.125,3.691
		c-0.998-3.828-0.931-7.834,0.196-11.621C62.724,172.369,62.669,175.002,62.671,177.656
		C62.679,177.996,62.67,176.977,62.671,177.656z M61.769,161.023c-0.3,1.322-0.709,2.609-1.228,3.859
		c0.231-2.705,0.917-5.365,2.021-7.846C62.409,158.387,62.145,159.715,61.769,161.023C61.529,162.004,62.033,160.045,61.769,161.023
		z M59.086,150.84c0.839-2.764,1.903-5.436,3.337-7.945c-0.777,2.904-1.937,5.715-3.433,8.324
		C58.991,151.219,59.021,151.08,59.086,150.84C59.158,150.604,59.021,151.08,59.086,150.84z M57.77,160.453
		c0.598-1.545,1.244-3.025,2.028-4.473c-0.851,3.143-1.959,6.232-3.299,9.199C56.812,163.57,57.251,162.02,57.77,160.453
		C58.213,159.307,57.386,161.613,57.77,160.453z M58.943,178.957c0.028,1.027,0.046,2.055,0.021,3.084
		c-0.871-4.4-0.604-8.939,0.775-13.209C59.278,172.104,58.684,175.666,58.943,178.957C58.953,179.312,58.916,178.604,58.943,178.957
		z M53.28,164.197c0.817-3.166,1.89-6.189,3.521-9.033c-0.964,3.232-2.178,6.408-3.614,9.461
		C53.187,164.625,53.216,164.469,53.28,164.197C53.35,163.928,53.216,164.469,53.28,164.197z M55.006,177.197
		c-0.06,1.9,0.286,3.896,0.612,5.766c-1.611-4.645-1.49-9.578,0.338-14.148C55.349,171.561,55.003,174.387,55.006,177.197
		C54.993,177.633,55.006,176.76,55.006,177.197z M51.882,169.309c-1.112,4.676-1.177,9.549-0.245,14.279
		c-1.711-4.928-1.589-10.125,0.384-14.918C52.021,168.67,51.971,168.9,51.882,169.309C51.834,169.51,51.971,168.9,51.882,169.309z
		 M61.552,201.119c-4.116-3.529-7.135-8.037-8.689-13.242c2.278,5.059,5.405,9.691,9.244,13.697
		C62.107,201.574,61.905,201.408,61.552,201.119C61.377,200.969,61.905,201.408,61.552,201.119z M64.14,199.564
		c-3.391-3.893-6.195-7.871-7.85-12.779c2.393,4.645,5.177,9.088,8.315,13.273C64.605,200.059,64.437,199.879,64.14,199.564
		C63.856,199.24,64.437,199.879,64.14,199.564z M64.598,195.846c-2.532-2.639-4.203-6.072-4.89-9.637
		c1.686,4.373,4.134,8.416,7.229,11.951C66.111,197.434,65.347,196.65,64.598,195.846C64.333,195.568,64.858,196.125,64.598,195.846
		z M69.741,209.283c-1.562-1.305-2.981-2.82-4.228-4.426c2.015,1.371,3.762,3.115,5.135,5.129
		C70.648,209.986,70.262,209.725,69.741,209.283C69.216,208.846,70.262,209.725,69.741,209.283z M70.135,205.801
		c-0.915-0.885-1.741-1.844-2.477-2.877c1.993,1.523,3.846,3.264,5.491,5.158C72.079,207.412,71.074,206.652,70.135,205.801
		C69.465,205.131,70.843,206.422,70.135,205.801z M74.751,217.01c-0.005,0.139-0.014,0.217-0.014,0.217
		c-0.629-1.5-1.295-2.988-1.995-4.457C74,213.797,74.792,215.352,74.751,217.01C74.746,217.148,74.754,216.871,74.751,217.01z
		 M75.136,205.73c-1.782-1.4-3.258-3.215-4.345-5.195c1.893,1.881,3.686,3.869,5.362,5.947
		C76.153,206.482,75.727,206.205,75.136,205.73C74.838,205.496,75.727,206.205,75.136,205.73z M77.927,203.934
		c-1.512-1.734-2.861-3.65-4.056-5.611c2.021,1.875,3.697,4.1,4.939,6.561C78.811,204.883,78.431,204.518,77.927,203.934
		C77.419,203.352,78.431,204.518,77.927,203.934z M80.765,202.514c-1.577-1.715-2.957-3.621-4.101-5.648
		c1.966,1.943,3.663,4.168,5.014,6.578C81.679,203.443,81.289,203.09,80.765,202.514C80.237,201.939,81.289,203.09,80.765,202.514z
		 M83.523,206.469c-0.118-0.283-0.231-0.568-0.339-0.855c0.164,0.242,0.324,0.488,0.479,0.736
		C83.615,206.389,83.57,206.43,83.523,206.469C83.464,206.328,83.57,206.43,83.523,206.469z M85.507,201.584
		c-1.793-2.061-3.6-4.109-5.354-6.199c2.382,1.66,4.319,3.885,5.611,6.471C85.764,201.855,85.667,201.76,85.507,201.584
		C85.353,201.406,85.667,201.76,85.507,201.584z M84.716,194.695c1.651,1.82,3.03,3.424,3.779,5.775
		c-1.547-2.24-3.105-4.502-4.64-6.732C84.149,194.051,84.437,194.371,84.716,194.695C84.974,194.98,84.448,194.42,84.716,194.695z
		 M84.548,146.266c-0.376,3.344-1.007,6.643-2.025,9.854c0.3-3.494,0.993-6.965,2.059-10.307
		C84.583,145.812,84.575,145.979,84.548,146.266C84.516,146.553,84.575,145.979,84.548,146.266z M84.855,106.648
		c-0.362-1.757-0.65-3.491-0.804-5.269c1.177,3.382,1.798,6.935,1.838,10.516C85.43,110.165,85.113,108.43,84.855,106.648
		C84.587,105.349,85.046,107.971,84.855,106.648z M85.126,141.949c0.042-3.383,0.39-6.777,1.037-10.098
		C86.292,135.245,85.941,138.652,85.126,141.949z M86.146,117.652c0.012-0.666,0.04-1.332,0.085-1.996
		c0.638,4.217,0.682,8.504,0.131,12.732C86.196,124.822,86.069,121.224,86.146,117.652C86.154,117.055,86.12,118.846,86.146,117.652
		z M86.927,161.004c-0.358,3.641-0.878,7.277-1.479,10.889c-0.137-3.844,0.378-7.705,1.511-11.385
		C86.958,160.508,86.952,160.689,86.927,161.004C86.896,161.316,86.952,160.689,86.927,161.004z M87.458,96.031
		c-1.51-3.832-3.154-7.565-5.246-11.121c2.822,3.326,4.701,7.336,5.457,11.638C87.67,96.548,87.588,96.361,87.458,96.031
		S87.588,96.361,87.458,96.031z M88.859,149.541c-0.12,2.297-0.485,4.578-1.153,6.781c0.226-3.332,0.583-6.66,1.068-9.965
		C88.883,147.412,88.919,148.482,88.859,149.541C88.829,150.133,88.876,149.246,88.859,149.541z M88.644,102.008
		c-0.051-0.6-0.085-1.201-0.103-1.803c1.004,3.721,1.484,7.571,1.422,11.425C89.383,108.455,88.903,105.229,88.644,102.008
		C88.596,101.47,88.73,103.088,88.644,102.008z M89.281,141.998c-0.053,0.287-0.091,0.451-0.091,0.451
		c-0.111-3.539,0.17-7.102,0.835-10.579C90.127,135.27,89.828,138.646,89.281,141.998C89.228,142.285,89.328,141.711,89.281,141.998
		z M90.083,117.449c0.024-0.676,0.066-1.35,0.126-2.021c0.523,4.289,0.517,8.635-0.019,12.922
		C90.004,124.729,89.933,121.074,90.083,117.449C90.105,116.844,90.033,118.662,90.083,117.449z M91.029,161.273
		c-0.238,3.746-0.624,7.49-1.106,11.213c-0.268-3.934,0.115-7.906,1.122-11.723C91.045,160.764,91.044,160.949,91.029,161.273
		C91.009,161.596,91.044,160.949,91.029,161.273z M91.069,92.905c-0.819-3.276-2.185-6.503-3.531-9.6
		c2.444,3.779,3.963,8.089,4.435,12.57C91.64,94.895,91.35,93.902,91.069,92.905C90.982,92.558,91.166,93.25,91.069,92.905z
		 M92.945,147.965c-0.091,2.949-0.49,5.865-1.279,8.711c0.155-3.471,0.587-6.945,1.286-10.348
		C92.967,146.873,92.964,147.42,92.945,147.965C92.915,148.945,92.963,147.477,92.945,147.965z M93.251,142.367
		c-0.043,0.305-0.076,0.479-0.076,0.479c-0.226-3.738-0.059-7.512,0.497-11.217C93.883,135.219,93.696,138.801,93.251,142.367
		C93.208,142.672,93.29,142.061,93.251,142.367z M94.743,161.543c-0.136,3.83-0.52,7.672-0.943,11.484
		c-0.322-4.016,0-8.082,0.944-12.006C94.745,161.021,94.749,161.211,94.743,161.543C94.731,161.873,94.749,161.211,94.743,161.543z
		 M94.883,86.567c-0.364-1.335-0.714-2.677-1.064-4.016c1.875,3.981,2.942,8.312,3.133,12.71
		C96.291,92.357,95.578,89.465,94.883,86.567C94.783,86.199,95.062,87.311,94.883,86.567z M96.479,148.527
		c-0.11,2.895-0.486,5.785-1.127,8.607c-0.007-3.434,0.378-6.877,1.145-10.223C96.508,147.449,96.503,147.988,96.479,148.527
		C96.443,149.492,96.501,148.043,96.479,148.527z M97.487,137.354c-0.141,1.881-0.345,3.717-0.692,5.559
		c-0.11-3.73,0.155-7.482,0.788-11.16C97.666,133.625,97.612,135.474,97.487,137.354C97.383,138.752,97.58,135.959,97.487,137.354z
		 M97.86,127.705c-0.041,0.376-0.072,0.59-0.072,0.59c-0.176-4.596-0.151-9.213,0.075-13.807
		C98.4,118.907,98.285,123.283,97.86,127.705C97.819,128.081,97.896,127.328,97.86,127.705z M99.515,161.998
		c-0.222,3.783-0.674,7.562-1.391,11.285c-0.018-3.973,0.455-7.943,1.404-11.799C99.528,161.484,99.528,161.672,99.515,161.998
		C99.496,162.322,99.528,161.672,99.515,161.998z M99.647,61.607c-0.068-0.765-0.062-1.283-0.062-1.283
		c0.864,2.595,1.331,5.324,1.379,8.058C100.291,66.186,99.834,63.899,99.647,61.607C99.58,60.843,99.71,62.373,99.647,61.607z
		 M101.277,86.074c0.532,2.975,0.796,5.979,0.708,9c-0.637-4.343-1.203-8.699-1.697-13.061
		C100.696,83.346,101.032,84.703,101.277,86.074z M101.274,72.18c0.007-0.608,0.062-1.024,0.062-1.024
		c0.651,2.099,0.786,4.315,0.392,6.478C101.434,75.85,101.238,73.99,101.274,72.18C101.282,71.571,101.262,72.789,101.274,72.18z
		 M100.652,152.104c-0.131,1.75-0.328,3.455-0.667,5.168c-0.134-3.471,0.125-6.967,0.768-10.379
		C100.835,148.635,100.78,150.354,100.652,152.104C100.555,153.4,100.747,150.807,100.652,152.104z M101.504,137.648
		c-0.098,2.055-0.262,4.068-0.568,6.094c-0.201-4.074-0.009-8.176,0.57-12.213C101.621,133.572,101.597,135.596,101.504,137.648
		C101.431,139.176,101.573,136.121,101.504,137.648z M102.083,121.277c-0.061,2.293-0.187,4.551-0.455,6.819
		c-0.277-4.546-0.162-9.124,0.343-13.651C102.125,116.725,102.138,118.986,102.083,121.277
		C102.039,122.984,102.124,119.571,102.083,121.277z M102.243,108.737c-0.041,0.606-0.1,1.211-0.176,1.813
		c-0.362-3.859-0.335-7.765,0.081-11.619C102.447,102.188,102.479,105.475,102.243,108.737
		C102.207,109.281,102.322,107.648,102.243,108.737z M101.811,50.879c-0.424,0.419-0.871,0.815-1.289,1.241
		c0.799-1.813,2.286-3.158,4.174-3.787C103.736,49.182,102.732,49.989,101.811,50.879C101.695,50.994,102.044,50.653,101.811,50.879
		z M103.441,55.104c0.021,0.95-0.126,1.899-0.436,2.797c-0.369-1.128-0.232-2.323,0.377-3.344
		C103.383,54.557,103.436,54.785,103.441,55.104C103.445,55.263,103.436,54.785,103.441,55.104z M102.752,172.791
		c-0.046,0.311-0.081,0.488-0.081,0.488c-0.189-3.816,0.013-7.662,0.603-11.438C103.452,165.504,103.232,169.158,102.752,172.791
		C102.706,173.102,102.793,172.48,102.752,172.791z M103.546,179.408c-0.015,0.742-0.14,1.461-0.377,2.156
		c-0.319-1.434-0.253-2.939,0.188-4.34C103.532,177.939,103.595,178.668,103.546,179.408
		C103.521,179.949,103.568,178.865,103.546,179.408z M104.115,152.396c-0.106,1.729-0.277,3.414-0.592,5.107
		c-0.184-3.422,0.024-6.875,0.618-10.25C104.248,148.973,104.217,150.666,104.115,152.396
		C104.036,153.678,104.19,151.115,104.115,152.396z M103.975,64.553c-0.298-1.262-0.482-2.537-0.553-3.828
		c0.998,2.398,1.496,4.988,1.449,7.577C104.536,67.062,104.234,65.811,103.975,64.553C103.769,63.611,104.071,65.02,103.975,64.553z
		 M105.024,137.613c-0.131,2.055-0.326,4.07-0.664,6.092c-0.137-4.082,0.119-8.186,0.762-12.219
		C105.206,133.534,105.15,135.559,105.024,137.613C104.927,139.141,105.118,136.086,105.024,137.613z M105.263,58.415
		c2.027-0.013,4.057,0.084,6.071,0.291C109.323,59.261,107.197,59.163,105.263,58.415z M105.431,127.348
		c-0.052,0.376-0.09,0.591-0.09,0.591c-0.121-4.608,0.151-9.237,0.811-13.8C106.262,118.559,105.972,122.963,105.431,127.348
		C105.378,127.724,105.477,126.973,105.431,127.348z M105.941,167.416c0.064-2.004,0.189-3.939,0.569-5.908
		c0.061,3.939,0.018,7.885-0.128,11.822C106.082,171.359,105.978,169.43,105.941,167.416
		C105.965,166.672,105.968,168.9,105.941,167.416z M106.776,184.191c-0.037,0.789-0.113,1.318-0.113,1.318
		c-0.547-2.771-0.574-5.623-0.08-8.404C106.797,179.445,106.9,181.84,106.776,184.191C106.739,184.98,106.817,183.4,106.776,184.191
		z M106.67,157.125c-0.043,0.279-0.074,0.438-0.074,0.438c-0.24-3.414-0.088-6.867,0.45-10.248
		C107.272,150.594,107.104,153.869,106.67,157.125C106.627,157.404,106.708,156.846,106.67,157.125z M108.387,198.59
		c-0.829-2.988-1.373-5.984-1.37-9.094c0.769,3.105,1.271,6.297,1.497,9.49C108.514,198.986,108.463,198.844,108.387,198.59
		C108.317,198.334,108.463,198.844,108.387,198.59z M110.463,212.238c-1.061-3.584-1.659-7.352-1.932-11.084
		c0.99,3.791,1.691,7.664,2.092,11.564C110.624,212.719,110.561,212.545,110.463,212.238
		C110.373,211.93,110.561,212.545,110.463,212.238z M111.239,184.273c-0.018,0.793-0.079,1.326-0.079,1.326
		c-0.563-2.766-0.745-5.615-0.538-8.43C111.092,179.502,111.301,181.893,111.239,184.273
		C111.221,185.066,111.26,183.479,111.239,184.273z M111.284,152.414c-0.097,1.67-0.258,3.293-0.562,4.928
		c-0.203-3.299-0.016-6.633,0.557-9.887C111.395,149.111,111.374,150.744,111.284,152.414
		C111.211,153.65,111.35,151.178,111.284,152.414z M111.493,190.818c-0.016-0.467-0.014-0.934,0.006-1.398
		c0.717,2.881,1.056,5.867,1.002,8.836C111.899,195.826,111.561,193.322,111.493,190.818
		C111.478,190.402,111.516,191.656,111.493,190.818z M113.227,221.078c-0.539-1.916-1.004-3.816-1.336-5.77
		c1.481,3.672,2.515,7.523,3.07,11.443C114.272,224.891,113.721,223.01,113.227,221.078
		C112.827,219.654,113.594,222.514,113.227,221.078z M110.938,243.258c-0.484,0.32-0.998,0.592-1.541,0.795
		c1.838-1.598,3.537-3.35,5.08-5.236C113.767,240.523,112.532,242.254,110.938,243.258
		C110.767,243.371,111.112,243.148,110.938,243.258z M112.741,245.826c-0.635,0.41-1.092,0.639-1.092,0.639
		c1.991-1.762,3.888-3.633,5.674-5.6C116.297,242.992,114.723,244.551,112.741,245.826
		C112.106,246.236,113.06,245.621,112.741,245.826z M115.243,247.693c-0.381,0.252-0.771,0.488-1.172,0.711
		c2.104-1.98,4.112-4.055,6.024-6.219C119.002,244.412,117.328,246.338,115.243,247.693
		C114.902,247.92,115.415,247.582,115.243,247.693z M116.579,249.707c-0.23,0.1-0.365,0.15-0.365,0.15
		c2.485-1.74,4.818-3.682,6.977-5.812C121.61,246.656,119.317,248.438,116.579,249.707
		C116.348,249.807,116.806,249.602,116.579,249.707z M126.133,245.947c-2.195,2.703-4.779,4.883-8.026,6.219
		c2.909-2.014,5.681-4.213,8.302-6.588C126.409,245.578,126.313,245.715,126.133,245.947
		C125.95,246.174,126.313,245.715,126.133,245.947z M126.992,232.854c-0.21,2.57-0.905,4.969-2.372,7.094
		c1.298-3.381,2.073-6.957,2.301-10.58C127.056,230.516,127.096,231.699,126.992,232.854
		C126.965,233.176,127.049,232.207,126.992,232.854z M129.106,237.781c-0.473,1.248-1.05,2.412-1.834,3.492
		c1.59-3.785,2.578-7.805,2.932-11.902C130.43,232.215,130.062,235.094,129.106,237.781
		C128.975,238.125,129.229,237.436,129.106,237.781z M133.743,230.184c-0.377,4.363-1.412,8.328-3.986,11.918
		c1.906-3.951,3.255-8.158,4.007-12.488C133.763,229.613,133.76,229.82,133.743,230.184
		C133.711,230.545,133.76,229.82,133.743,230.184z M133.75,225.08c-0.021,0.6-0.06,1.197-0.115,1.793
		c-0.401-3.795-0.56-7.623-0.473-11.443C133.764,218.629,133.883,221.822,133.75,225.08
		C133.733,225.617,133.795,224.004,133.75,225.08z M134.347,165.119c-0.082,1.652-0.229,3.262-0.517,4.881
		c-0.234-3.262-0.078-6.562,0.467-9.789C134.43,161.85,134.422,163.465,134.347,165.119
		C134.287,166.342,134.403,163.895,134.347,165.119z M134.612,154.434c-0.04,0.492-0.098,0.982-0.173,1.471
		c-0.366-3.121-0.345-6.295,0.065-9.41C134.809,149.125,134.846,151.795,134.612,154.434
		C134.577,154.875,134.69,153.553,134.612,154.434z M135.137,116.383c-0.215,3.383-0.508,6.762-0.932,10.125
		c-0.319-3.553,0.002-7.148,0.945-10.587C135.151,115.921,135.151,116.09,135.137,116.383
		C135.12,116.674,135.151,116.09,135.137,116.383z M135.157,101.004c0.613-2.846,1.711-5.576,3.236-8.055
		C137.585,95.726,136.495,98.44,135.157,101.004z M135.649,111.307c0.06-1.788,0.395-3.572,0.98-5.26
		c0.06,2.123-0.271,4.261-0.973,6.267C135.657,112.313,135.624,111.906,135.649,111.307
		C135.668,110.707,135.624,111.906,135.649,111.307z M136.292,211.018c-0.041,0.541-0.1,1.082-0.175,1.621
		c-0.365-3.451-0.34-6.951,0.075-10.396C136.493,205.152,136.529,208.1,136.292,211.018
		C136.256,211.504,136.371,210.045,136.292,211.018z M136.711,193.641c-0.085,1.984-0.236,3.932-0.531,5.887
		c-0.225-3.932-0.059-7.896,0.496-11.795C136.804,189.705,136.792,191.656,136.711,193.641
		C136.649,195.115,136.772,192.166,136.711,193.641z M137.41,178.904c-0.096,1.789-0.257,3.535-0.56,5.291
		c-0.206-3.541-0.02-7.113,0.552-10.611C137.521,175.361,137.5,177.115,137.41,178.904
		C137.338,180.23,137.477,177.576,137.41,178.904z M138.129,164.557c-0.076,1.594-0.219,3.143-0.505,4.703
		c-0.241-3.145-0.092-6.326,0.444-9.434C138.206,161.406,138.203,162.961,138.129,164.557
		C138.073,165.736,138.184,163.377,138.129,164.557z M138.667,150.594c-0.046,1.531-0.159,3.016-0.412,4.516
		c-0.304-3.008-0.217-6.062,0.257-9.047C138.681,147.572,138.708,149.062,138.667,150.594
		C138.633,151.725,138.698,149.463,138.667,150.594z M140.463,188.525c-0.279,3.812-0.82,7.596-1.75,11.307
		c0.202-3.982,0.797-7.955,1.771-11.822C140.485,188.01,140.482,188.199,140.463,188.525
		C140.439,188.852,140.482,188.199,140.463,188.525z M140.134,102.527c0.099-2.547,0.686-5.058,1.729-7.383
		C141.57,97.654,140.986,100.148,140.134,102.527z M142.637,110.863c-0.111,0.953-0.333,1.879-0.666,2.773
		c-0.126-1.9,0.138-3.828,0.771-5.626C142.821,108.963,142.786,109.914,142.637,110.863
		C142.54,111.566,142.733,110.159,142.637,110.863z M142.802,150.422c0.069,1.512,0.071,2.98-0.069,4.477
		c-0.531-2.938-0.676-5.953-0.428-8.928C142.586,147.445,142.727,148.91,142.802,150.422
		C142.854,151.537,142.747,149.305,142.802,150.422z M142.137,135.775c0.083,2.107,0.098,4.182-0.03,6.277
		c-0.559-4.146-0.729-8.355-0.507-12.535C141.895,131.598,142.049,133.668,142.137,135.775
		C142.199,137.342,142.071,134.209,142.137,135.775z M141.879,121.746c-0.022,1.475-0.11,2.9-0.34,4.346
		c-0.352-2.884-0.314-5.824,0.111-8.697C141.843,118.844,141.895,120.273,141.879,121.746
		C141.863,122.834,141.891,120.659,141.879,121.746z M142.555,172.873c-0.126,3.967-0.523,7.859-1.519,11.711
		c0.259-4.102,0.768-8.203,1.519-12.244C142.555,172.34,142.559,172.533,142.555,172.873
		C142.544,173.211,142.559,172.533,142.555,172.873z M142.986,166.377c-0.04,0.445-0.098,0.891-0.172,1.332
		c-0.37-2.826-0.351-5.711,0.058-8.531C143.177,161.561,143.218,163.984,142.986,166.377
		C142.952,166.777,143.063,165.578,142.986,166.377z M142.969,84.092c-0.741,1.9-1.744,3.705-2.954,5.346
		c0.757-2.3,1.887-4.48,3.329-6.425C143.344,83.013,143.221,83.458,142.969,84.092C142.721,84.727,143.221,83.458,142.969,84.092z
		 M145,99.226c-0.237,1.538-0.731,3.066-1.388,4.473c0.055-1.875,0.564-3.714,1.481-5.351C145.093,98.348,145.084,98.707,145,99.226
		C144.919,99.744,145.084,98.707,145,99.226z M144.192,90.511c-0.413,0.543-0.732,0.878-0.732,0.878
		c0.925-2.236,2.213-4.328,3.793-6.161C146.471,87.108,145.439,88.897,144.192,90.511C143.779,91.054,144.609,89.971,144.192,90.511
		z M149.887,88.09c-0.85,2.154-1.96,4.215-3.281,6.114c0.884-2.601,2.142-5.081,3.717-7.332
		C150.323,86.872,150.176,87.373,149.887,88.09C149.604,88.81,150.176,87.373,149.887,88.09z M150.901,79.045
		c-0.576,1-1.243,1.932-2.003,2.796c0.829-2.138,2.026-4.14,3.517-5.882C152.014,77.035,151.508,78.064,150.901,79.045
		C150.459,79.779,151.338,78.308,150.901,79.045z M155.04,78.359c-0.738,1.861-1.733,3.627-2.938,5.225
		c0.752-2.254,1.877-4.388,3.312-6.281C155.414,77.303,155.292,77.739,155.04,78.359C154.793,78.98,155.292,77.739,155.04,78.359z
		 M156.77,66.523c-0.601,2.18-1.498,4.217-2.798,6.07c0.814-2.504,1.854-4.957,3.088-7.284
		C157.06,65.31,156.972,65.806,156.77,66.523C156.572,67.242,156.972,65.806,156.77,66.523z M159.734,67.596
		c-0.556,2.209-1.405,4.295-2.64,6.213c0.73-2.559,1.709-5.066,2.904-7.443C159.999,66.365,159.921,66.867,159.734,67.596
		C159.55,68.326,159.921,66.867,159.734,67.596z M160.27,31.014c-0.756-1.932-1.29-3.981-1.646-6.021
		c1.146,2.206,1.863,4.618,2.111,7.092C160.735,32.085,160.519,31.663,160.27,31.014C160.016,30.366,160.519,31.663,160.27,31.014z
		 M162.01,58.974c-0.205,1.213-0.523,2.395-0.953,3.543c0.137-2.412,0.481-4.833,1.021-7.187
		C162.17,56.545,162.147,57.76,162.01,58.974C161.84,59.876,162.096,58.07,162.01,58.974z M162.14,40.344
		c-0.608-1.954-0.923-4.017-0.927-6.063C161.977,36.204,162.293,38.28,162.14,40.344z M162.608,50.317
		c-0.088,0.683-0.197,1.132-0.197,1.132c-0.269-2.412-0.26-4.873,0.027-7.283C162.854,46.202,162.887,48.261,162.608,50.317
		C162.52,51,162.701,49.635,162.608,50.317z"/>
</g>
<g>
	<path fill="#FFFFFF" d="M11.052,289.683c1.839-0.095,6.416-0.283,10-0.283c7.878,0,11.085,3.632,11.085,8.207
		c0,3.444-1.32,5.756-3.773,7.359v0.095c2.406,0.896,4.717,3.302,4.717,7.547c0,6.935-5.377,10.189-12.547,10.189
		c-3.16,0-7.547-0.094-9.481-0.283V289.683z M18.6,296.665v5.99h2.5c1.934,0,3.491-0.803,3.491-3.208
		c0-1.981-1.792-2.972-3.632-2.972C20.014,296.476,19.448,296.57,18.6,296.665z M18.6,309.259v6.18
		c0.519,0.142,1.131,0.282,2.547,0.282c2.924,0,4.387-1.272,4.387-3.49c0-2.075-1.557-2.972-4.01-2.972H18.6z"/>
	<path fill="#FFFFFF" d="M36.619,289.588h19.576v7.077H44.167v5.801H54.78v7.076H44.167v5.991h12.5v7.075H36.619V289.588z"/>
	<path fill="#FFFFFF" d="M71.687,289.588h6.746l13.728,33.021h-8.067l-2.736-6.934H68.292l-2.736,6.934H57.96L71.687,289.588z
		 M71.122,308.599h7.407l-3.68-9.341L71.122,308.599z"/>
	<path fill="#FFFFFF" d="M94.142,322.608v-33.021c1.84,0,10.284-0.094,11.228-0.094c9.01,0,12.217,4.48,12.217,10.566
		c0,6.132-3.775,8.632-5.566,9.528l9.623,13.02h-9.151l-8.02-11.558h-2.783v11.558H94.142z M101.689,296.665v7.311h2.736
		c2.877,0,5.141-1.038,5.141-3.82c0-1.84-0.943-3.585-4.575-3.585C103.86,296.57,103.246,296.616,101.689,296.665z"/>
	<path fill="#FFFFFF" d="M148.154,289.022c10.048,0,17.549,6.557,17.549,17.076c0,9.999-7.501,17.075-17.549,17.075
		c-10.046,0-17.547-6.557-17.547-17.075C130.607,296.521,137.635,289.022,148.154,289.022z M148.154,316.098
		c6.274,0,9.529-4.434,9.529-9.999c0-6.038-4.198-10-9.529-10c-5.472,0-9.528,3.962-9.528,10
		C138.625,311.759,142.871,316.098,148.154,316.098z"/>
	<path fill="#FFFFFF" d="M191.317,322.608l-15.66-19.812v19.812h-7.076v-33.021h6.038l15.661,19.906v-19.906h7.075v33.021H191.317z"
		/>
	<path fill="#FFFFFF" d="M30.458,357.517c0,10.096-6.416,14.198-13.491,14.198c-8.492,0-14.388-4.858-14.388-14.529V338.13h7.547
		v17.453c0,5.142,1.557,9.057,6.84,9.057c4.576,0,5.943-3.349,5.943-8.633V338.13h7.548V357.517z"/>
	<path fill="#FFFFFF" d="M56.875,371.148l-15.661-19.812v19.812h-7.076V338.13h6.038l15.661,19.906V338.13h7.076v33.019H56.875z"/>
	<path fill="#FFFFFF" d="M67.113,338.13h7.546v33.019h-7.546V338.13z"/>
	<path fill="#FFFFFF" d="M105.797,367.895c-1.98,2.218-6.273,3.82-10.754,3.82c-10.237,0-17.311-6.792-17.311-17.075
		c0-9.481,5.896-17.076,17.264-17.076c4.387,0,8.114,1.51,10.095,3.443l-3.35,5.66c-1.793-1.085-3.632-2.028-6.745-2.028
		c-5.095,0-9.246,3.491-9.246,10.001c0,5.849,4.058,10,10.001,10c2.358,0,4.953-0.754,7.169-2.405L105.797,367.895z"/>
	<path fill="#FFFFFF" d="M124.336,357.706v13.442h-7.547v-13.442l-11.604-19.576h8.632l7.075,12.501l6.982-12.501h8.16
		L124.336,357.706z"/>
	<path fill="#FFFFFF" d="M160.711,367.895c-1.981,2.218-6.274,3.82-10.755,3.82c-10.236,0-17.312-6.792-17.312-17.075
		c0-9.481,5.896-17.076,17.264-17.076c4.387,0,8.114,1.51,10.096,3.443l-3.35,5.66c-1.793-1.085-3.633-2.028-6.746-2.028
		c-5.094,0-9.245,3.491-9.245,10.001c0,5.849,4.057,10,10.001,10c2.357,0,4.952-0.754,7.17-2.405L160.711,367.895z"/>
	<path fill="#FFFFFF" d="M163.236,338.13h7.549v25.943h13.442v7.075h-20.991V338.13z"/>
	<path fill="#FFFFFF" d="M186.37,338.13h19.576v7.075h-12.029v5.803h10.614v7.075h-10.614v5.99h12.502v7.075H186.37V338.13z"/>
</g>
</svg>
