<?xml  version="1.0" encoding="UTF-8"?>
<!DOCTYPE svg PUBLIC "-//W3C//DTD SVG 1.0//EN" "http://www.w3.org/TR/2001/REC-SVG-20010904/DTD/svg10.dtd" >
<svg xmlns="http://www.w3.org/2000/svg" >
<metadata>
<version>1.0</version>
<id><![CDATA[Circe W01 Light]]></id>
<vendor>Monotype Imaging Inc.</vendor>
<credits>
<name>Fonts.com WebFonts</name>
<URL>http://webfonts.fonts.com</URL>
<role>Home of the Web fonts</role>
</credits>
<license>
<URL>http://webfonts.fonts.com/Legal</URL>
</license>
<copyright></copyright>
<trademark></trademark>
<licensee>
<name></name>
</licensee>
</metadata>
<defs >
<font horiz-adv-x="530" id="25e3b5f7-25d5-4894-a1a7-680da98ed892">
<font-face font-family="" panose-1="2 11 4 2 2 2 3 2 2 3" ascent="751" descent="-249" units-per-em="1000" alphabetic="0">
</font-face>
<missing-glyph horiz-adv-x="0" />

<glyph unicode="&#xA;" />
<glyph unicode="&#xD;" />
<glyph unicode=" " horiz-adv-x="235" />
<glyph unicode="!" horiz-adv-x="310" d="M116 38Q116 52 127 63T156 74Q172 74 182 63T193 38Q193 22 183 10T156 -2Q138 -2 127 10T116 38ZM127 700H182V193H127V700Z"  />
<glyph unicode="&quot;" horiz-adv-x="401" d="M99 700H151V492H99V700ZM250 700H302V492H250V700Z"  />
<glyph unicode="#" horiz-adv-x="688" d="M394 207H184L104 -9L63 6L137 207H40V253H154L226 447H40V493H243L324 709L365 694L290 493H500L581 709L622 695L547 493H648V447H530L459 253H648V207H442L362 -9L320 6L394 207ZM201 253H411L483 447H273L201 253Z"  />
<glyph unicode="$" horiz-adv-x="589" d="M455 174Q455 223 428 253T361 303T274 340T187 380T120 440T93 534Q93 603 140 651T275 708V790H327V708Q378 703 421 685T490 638L459 597Q400 657 303 657Q231 657 191 624T151 534Q151 485 178 456T245 408T332 372T419 333T486 273T513 175Q513 137 499 105T460 50T401 12T327 -7V-100H275V-8Q246 -6 216 1T160 21T112 52T78 92L111 130Q143 88 194 66T293 43Q325 43 354 51T406 76T442 117T455 174Z"  />
<glyph unicode="%" horiz-adv-x="850" d="M672 709L703 687L182 -9L151 13L672 709ZM51 542Q51 578 64 608T100 659T154 692T223 704Q260 704 291 692T346 659T382 608T395 542Q395 506 382 476T346 425T292 391T223 379Q186 379 155 391T100 424T64 476T51 542ZM100 542Q100 515 110 493T137 455T177 431T223 422Q248 422 270 430T309 454T336 492T346 542Q346 569 336 591T309 628T270 652T223 661Q199 661 177 653T137 629T110 591T100 542ZM455 159Q455 195 468 225T504 276T558 309T627 321Q664 321 695 309T750 276T786 225T799 159Q799 123 786 93T750 42T696 8T627 -4Q590 -4 559 8T504 41T468 93T455 159ZM504 159Q504 132 514 110T541 72T581 48T627 39Q652 39 674 47T713 71T740 109T750 159Q750 186 740 208T713 245T674 269T627 278Q603 278 581 270T541 246T514 208T504 159Z"  />
<glyph unicode="&amp;" horiz-adv-x="737" d="M519 107Q484 56 429 24T296 -9Q249 -9 209 6T140 47T95 109T78 190Q78 234 93 270T134 338T190 394T252 439Q208 450 179 484T150 570Q150 600 161 625T193 669T239 698T295 709Q324 709 350 699T397 670T428 626T440 570Q440 544 431 522T406 481T370 452T325 438L523 186Q554 240 571 308T589 450H640Q640 366 619 287T555 144L669 0H604L519 107ZM297 43Q362 43 408 71T487 148L285 409Q256 388 229 365T182 316T149 262T136 200Q136 165 149 136T184 87T236 55T297 43ZM199 570Q199 550 206 533T227 503T257 483T295 475Q315 475 332 482T363 503T383 533T391 570Q391 590 384 607T363 638T332 658T295 666Q255 666 227 639T199 570Z"  />
<glyph unicode="&apos;" horiz-adv-x="250" d="M99 700H151V492H99V700Z"  />
<glyph unicode="(" horiz-adv-x="276" d="M242 -206Q185 -157 147 -104T84 3T50 114T40 225Q40 280 50 335T84 444T147 551T243 656L276 627Q175 532 134 434T92 225Q92 114 137 10T276 -177L242 -206Z"  />
<glyph unicode=")" horiz-adv-x="276" d="M0 -177Q94 -95 139 9T184 225Q184 335 143 433T0 627L33 656Q90 604 129 551T192 444T226 335T236 225Q236 170 226 114T192 4T130 -104T34 -206L0 -177Z"  />
<glyph unicode="*" horiz-adv-x="460" d="M83 602Q83 619 94 631T124 643Q139 643 150 631T162 602Q162 586 151 575T124 564Q106 564 95 575T83 602ZM83 481Q83 497 94 509T124 521Q139 521 150 509T162 481Q162 464 151 453T124 442Q106 442 95 453T83 481ZM297 481Q297 497 309 509T338 521Q354 521 365 509T377 481Q377 464 366 453T338 442Q321 442 309 453T297 481ZM297 602Q297 619 309 631T338 643Q354 643 365 631T377 602Q377 586 366 575T338 564Q321 564 309 575T297 602ZM191 415Q191 431 203 443T232 456Q247 456 258 444T269 415Q269 398 258 387T232 376Q215 376 203 387T191 415ZM194 668Q194 685 205 697T233 709Q249 709 260 697T272 668Q272 653 261 642T233 630Q216 630 205 641T194 668Z"  />
<glyph unicode="+" horiz-adv-x="589" d="M71 383H269V582H318V383H517V337H318V136H269V337H71V383Z"  />
<glyph unicode="&#x2c;" horiz-adv-x="200" d="M60 33Q60 49 70 59T101 70Q125 70 142 47T160 -16Q160 -67 132 -101T63 -147L49 -121Q70 -114 90 -95T116 -42Q118 -19 115 -7T106 10Q101 0 88 0Q77 0 69 9T60 33Z"  />
<glyph unicode="-" horiz-adv-x="399" d="M85 296H314V247H85V296Z"  />
<glyph unicode="." horiz-adv-x="184" d="M54 38Q54 52 65 63T94 74Q110 74 120 63T130 38Q130 22 120 10T94 -2Q76 -2 65 10T54 38Z"  />
<glyph unicode="/" horiz-adv-x="317" d="M306 709L347 694L12 -208L-30 -192L306 709Z"  />
<glyph unicode="0" horiz-adv-x="572" d="M65 350Q65 428 77 493T117 606T185 681T286 708Q344 708 386 681T455 607T494 494T507 350Q507 272 495 207T456 93T388 19T288 -8Q229 -8 187 18T118 93T78 206T65 350ZM120 350Q120 280 129 223T159 126T211 63T288 41Q333 41 364 63T415 125T443 222T452 350Q452 420 443 477T415 575T363 637T286 659Q241 659 210 637T158 575T129 477T120 350Z"  />
<glyph unicode="1" horiz-adv-x="372" d="M204 706H240V0H188V630L73 537L45 579L204 706Z"  />
<glyph unicode="2" horiz-adv-x="529" d="M51 43Q79 71 115 106T187 182T259 266T321 354T365 442T382 526Q382 551 374 574T349 616T307 645T248 656Q225 656 202 649T158 626T124 586T104 529L59 546Q65 586 83 616T127 666T186 697T251 708Q299 708 334 693T392 653T426 598T437 536Q437 487 418 436T368 335T300 239T228 156T163 90T119 49H468V0H51V43Z"  />
<glyph unicode="3" horiz-adv-x="533" d="M249 -9Q182 -9 127 20T45 112L76 148Q89 120 108 100T151 68T199 49T249 43Q286 43 315 54T364 86T396 133T407 193Q407 224 396 249T364 293T316 322T255 332H195V384H249Q274 384 297 394T339 424T369 469T380 526Q380 590 344 623T246 657Q186 657 150 631T94 561L63 594Q84 649 133 679T250 709Q336 709 385 663T435 533Q435 478 407 432T324 364V361Q357 356 382 341T426 302T453 250T462 191Q462 145 446 108T402 45T334 5T249 -9Z"  />
<glyph unicode="4" horiz-adv-x="538" d="M349 185H24V220L330 700H390L94 237H349V450H401V237H504V185H401V0H349V185Z"  />
<glyph unicode="5" horiz-adv-x="518" d="M156 700H460V648H201L171 420Q184 424 202 426T240 429Q288 429 328 414T398 372T444 305T461 217Q461 164 444 122T396 51T327 7T244 -9Q216 -9 188 -3T133 17T84 52T45 102L76 139Q104 90 151 67T245 43Q279 43 308 56T359 91T393 145T406 215Q406 251 393 281T355 334T296 369T219 382Q190 382 162 377T113 364L156 700Z"  />
<glyph unicode="6" horiz-adv-x="550" d="M54 248Q54 344 85 423T164 562T273 658T391 709L413 670Q363 658 314 630T224 557T154 452T114 315Q124 338 141 359T180 395T232 420T296 429Q341 429 378 413T443 369T484 301T499 213Q499 164 482 123T435 53T369 8T291 -9Q232 -9 188 12T114 68T69 150T54 248ZM109 248Q109 208 120 171T153 106T210 60T290 43Q322 43 350 56T399 92T432 145T444 209Q444 244 434 275T403 329T351 366T280 380Q243 380 214 368T164 336T129 294T109 248Z"  />
<glyph unicode="7" horiz-adv-x="475" d="M34 700H438V668L172 0H114L374 648H34V700Z"  />
<glyph unicode="8" horiz-adv-x="591" d="M311 386Q335 386 358 396T400 425T429 467T441 521Q441 554 429 579T396 621T349 648T294 657Q265 657 239 648T194 621T162 578T150 521Q150 492 161 468T191 425T232 397T280 386H311ZM284 334Q252 334 224 323T173 293T139 248T126 190Q126 158 139 131T176 85T229 54T295 43Q331 43 362 53T416 83T452 129T465 190Q465 224 453 251T419 296T370 324T310 334H284ZM296 -9Q252 -9 211 4T139 41T90 101T71 181Q71 212 81 241T109 293T154 333T213 358V361Q188 368 167 384T129 423T104 472T95 527Q95 568 111 601T154 659T217 696T295 709Q336 709 372 696T436 659T480 602T496 527Q496 501 488 476T464 429T426 390T375 362V359Q406 355 432 341T478 303T509 250T520 185Q520 139 502 103T452 42T381 4T296 -9Z"  />
<glyph unicode="9" horiz-adv-x="548" d="M494 449Q494 351 468 271T396 132T288 37T152 -9L133 32Q195 43 247 72T338 145T402 249T434 382Q414 335 369 305T256 275Q209 275 171 292T105 338T63 406T48 489Q48 538 67 578T116 648T185 693T264 709Q322 709 365 689T437 633T480 550T494 449ZM439 449Q439 489 429 526T398 593T344 639T266 657Q234 657 205 644T153 609T117 557T103 493Q103 460 113 430T145 376T197 338T269 324Q305 324 334 335T384 364T419 404T439 449Z"  />
<glyph unicode=":" horiz-adv-x="322" d="M123 38Q123 52 134 63T163 74Q179 74 189 63T199 38Q199 22 189 10T163 -2Q145 -2 134 10T123 38ZM123 423Q123 437 134 448T163 459Q179 459 189 448T199 423Q199 407 189 395T163 383Q145 383 134 395T123 423Z"  />
<glyph unicode=";" horiz-adv-x="325" d="M123 33Q123 49 133 59T164 70Q188 70 205 47T223 -16Q223 -67 195 -101T126 -147L112 -121Q133 -114 153 -95T179 -42Q181 -19 178 -7T169 10Q164 0 151 0Q140 0 132 9T123 33ZM123 423Q123 437 134 448T163 459Q179 459 189 448T199 423Q199 407 189 395T163 383Q145 383 134 395T123 423Z"  />
<glyph unicode="&lt;" horiz-adv-x="589" d="M64 351V373L484 633V576L137 362L484 146V89L64 351Z"  />
<glyph unicode="=" horiz-adv-x="589" d="M71 297H517V251H71V297ZM71 469H517V423H71V469Z"  />
<glyph unicode="&gt;" horiz-adv-x="589" d="M105 89V146L452 362L105 576V633L524 373V351L105 89Z"  />
<glyph unicode="?" horiz-adv-x="460" d="M163 38Q163 52 173 63T202 74Q218 74 228 63T239 38Q239 22 229 10T202 -2Q184 -2 174 10T163 38ZM371 528Q371 555 361 579T331 620T285 647T226 657Q178 657 140 636T72 576L40 609Q67 653 117 681T230 709Q277 709 313 696T375 659T413 604T426 539Q426 492 411 461T374 406T325 364T276 326T238 283T223 225Q223 217 224 209T227 192L180 190Q178 202 177 212T175 233Q175 270 189 295T226 341T273 378T320 416T356 463T371 528Z"  />
<glyph unicode="@" horiz-adv-x="1014" d="M652 58Q626 30 586 11T500 -9Q449 -9 408 7T338 54T292 128T276 225Q276 274 295 317T347 391T425 441T525 459Q576 459 623 446T704 410V49H726Q766 49 797 67T849 115T882 184T894 268Q894 342 866 405T788 514T669 586T517 612Q432 612 360 583T234 502T150 380T120 225Q120 143 150 73T233 -50T359 -132T517 -162Q574 -162 625 -150L630 -198Q603 -204 575 -207T517 -211Q420 -211 338 -178T197 -86T105 53T71 225Q71 316 104 395T197 534T338 627T517 661Q608 661 686 632T821 552T910 428T943 269Q943 219 929 171T887 84T815 23T715 0H652V58ZM508 40Q530 40 552 46T592 62T626 84T652 109V377Q620 395 588 402T524 410Q482 410 447 396T386 356T346 296T331 223Q331 137 379 89T508 40Z"  />
<glyph unicode="A" horiz-adv-x="697" d="M326 706H371L676 0H617L515 238H179L77 0H21L326 706ZM201 290H492L347 630L201 290Z"  />
<glyph unicode="B" horiz-adv-x="617" d="M111 699Q126 699 148 700T195 701T246 702T295 703Q358 703 400 690T468 653T505 598T516 530Q516 495 505 468T476 420T432 386T380 366V364Q456 355 499 313T543 196Q543 143 524 106T472 44T393 9T294 -3Q271 -3 246 -3T196 -2T149 -1T111 1V699ZM166 333V53Q187 52 225 51T296 49Q387 49 437 86T488 199Q488 264 439 298T299 333H166ZM293 651Q277 651 259 651T224 650T192 649T166 648V382H302Q335 382 363 391T414 418T448 461T461 519Q461 583 421 617T293 651Z"  />
<glyph unicode="C" horiz-adv-x="656" d="M622 68Q604 50 580 36T527 12T467 -3T405 -9Q327 -9 263 16T152 89T80 202T54 350Q54 425 78 490T146 604T254 681T397 709Q529 709 609 643L583 602Q545 631 500 644T398 657Q334 657 282 634T192 570T133 473T112 350Q112 281 134 225T195 128T288 65T409 43Q466 43 514 61T600 109L622 68Z"  />
<glyph unicode="D" horiz-adv-x="737" d="M111 700H122Q160 700 202 701T290 703Q395 703 469 675T591 600T661 490T683 360Q683 285 658 219T583 104T457 27T282 -2Q244 -2 203 -1T120 0H111V700ZM288 651Q249 651 223 650T166 648V52Q187 52 207 52T244 51T270 50T284 50Q368 50 432 74T539 139T603 237T625 360Q625 421 605 474T544 566T439 628T288 651Z"  />
<glyph unicode="E" horiz-adv-x="575" d="M111 700H498V648H166V381H468V329H166V52H508V0H111V700Z"  />
<glyph unicode="F" horiz-adv-x="542" d="M111 700H502V648H166V360H472V308H166V0H111V700Z"  />
<glyph unicode="G" horiz-adv-x="727" d="M406 339H663V87Q640 64 609 46T542 16T470 -2T401 -9Q323 -9 259 16T150 89T79 202T54 350Q54 425 78 490T147 604T254 681T394 709Q463 709 515 693T610 643L585 600Q550 629 503 643T400 657Q335 657 282 634T192 571T133 474T112 350Q112 280 133 224T192 127T284 65T403 43Q431 43 461 48T518 63T570 86T611 116V287H406V339Z"  />
<glyph unicode="H" horiz-adv-x="769" d="M603 331H166V0H111V700H166V383H603V700H658V0H603V331Z"  />
<glyph unicode="I" horiz-adv-x="325" d="M135 700H190V0H135V700Z"  />
<glyph unicode="J" horiz-adv-x="361" d="M250 154Q250 117 243 87T219 36T176 3T110 -9Q78 -9 53 1T14 23L34 66Q46 57 64 50T103 43Q131 43 149 52T177 77T191 115T195 162V700H250V154Z"  />
<glyph unicode="K" horiz-adv-x="637" d="M111 700H166V0H111V700ZM264 369L609 0H538L199 365L528 700H595L264 369Z"  />
<glyph unicode="L" horiz-adv-x="552" d="M111 700H166V52H535V0H111V700Z"  />
<glyph unicode="M" horiz-adv-x="884" d="M111 700H167L449 316L720 700H773V0H718V614L449 236H440L166 611V0H111V700Z"  />
<glyph unicode="N" horiz-adv-x="797" d="M642 0L163 602V0H111V700H155L634 96V700H686V0H642Z"  />
<glyph unicode="O" horiz-adv-x="810" d="M54 350Q54 426 80 491T154 605T265 681T405 709Q480 709 544 683T655 608T729 494T756 350Q756 273 729 207T655 93T544 18T405 -9Q330 -9 266 17T155 92T81 206T54 350ZM112 350Q112 284 134 228T196 131T289 67T405 43Q469 43 523 66T616 131T676 228T698 350Q698 416 676 472T614 570T521 634T405 657Q343 657 290 634T197 570T135 473T112 350Z"  />
<glyph unicode="P" horiz-adv-x="585" d="M111 0V700Q126 700 148 700T196 701T244 701T282 702Q355 702 403 684T479 636T519 568T531 491Q531 450 517 412T472 343T394 295T282 277Q257 277 227 278T166 281V0H111ZM287 650Q275 650 260 650T228 650T195 649T166 648V334Q195 332 222 331T280 329Q376 329 424 374T473 492Q473 526 463 555T430 605T372 638T287 650Z"  />
<glyph unicode="Q" horiz-adv-x="810" d="M54 350Q54 426 80 491T154 605T265 681T405 709Q480 709 544 683T655 608T729 494T756 350Q756 268 726 200T644 83L714 0H648L605 51Q563 22 513 7T405 -9Q330 -9 266 17T155 92T81 206T54 350ZM112 350Q112 284 134 228T196 131T289 67T405 43Q453 43 494 56T570 92L508 167L545 200L609 124Q651 166 674 223T698 350Q698 416 676 472T614 570T521 634T405 657Q343 657 290 634T197 570T135 473T112 350Z"  />
<glyph unicode="R" horiz-adv-x="631" d="M111 0V700Q126 700 151 700T202 701T249 701T279 702Q351 702 398 686T473 641T512 577T524 500Q524 462 512 430T477 373T424 330T358 305L603 0H535L302 294H166V0H111ZM276 650Q268 650 255 650T226 650T194 649T166 648V346H287Q320 346 352 357T410 388T450 436T466 500Q466 532 457 559T425 607T366 638T276 650Z"  />
<glyph unicode="S" horiz-adv-x="546" d="M434 174Q434 223 407 253T340 303T253 340T166 380T99 440T72 534Q72 571 85 603T125 658T190 695T277 709Q336 709 386 690T465 638L435 597Q375 657 279 657Q210 657 170 624T130 534Q130 485 157 456T224 408T311 372T398 333T465 273T492 175Q492 133 475 99T427 41T356 4T269 -9Q238 -9 206 -2T144 18T91 49T54 92L87 130Q102 109 123 93T169 66T218 49T268 43Q300 43 330 51T383 76T420 117T434 174Z"  />
<glyph unicode="T" horiz-adv-x="593" d="M10 700H583V648H324V0H269V648H10V700Z"  />
<glyph unicode="U" horiz-adv-x="751" d="M650 293Q650 213 629 156T571 63T486 9T385 -8Q324 -8 272 11T182 69T123 165T101 300V700H156V310Q156 246 172 197T219 113T291 62T385 44Q431 44 469 59T536 107T579 189T595 305V700H650V293Z"  />
<glyph unicode="V" horiz-adv-x="656" d="M351 -6H312L11 700H70L333 78L589 700H645L351 -6Z"  />
<glyph unicode="W" horiz-adv-x="958" d="M740 0H692L482 608L276 0H228L14 700H76L257 98L458 700H509L715 97L890 700H944L740 0Z"  />
<glyph unicode="X" horiz-adv-x="660" d="M366 356L632 0H566L330 314L93 0H28L295 356L39 700H104L331 398L557 700H623L366 356Z"  />
<glyph unicode="Y" horiz-adv-x="584" d="M318 306V0H263V306L14 700H78L293 358L509 700H570L318 306Z"  />
<glyph unicode="Z" horiz-adv-x="629" d="M60 700H579V665L116 52H589V0H40V35L501 648H60V700Z"  />
<glyph unicode="[" horiz-adv-x="296" d="M60 650H290V601H112V-151H290V-200H60V650Z"  />
<glyph unicode="\" horiz-adv-x="317" d="M347 -192L305 -208L-30 694L11 709L347 -192Z"  />
<glyph unicode="]" horiz-adv-x="296" d="M236 -200H6V-151H184V601H6V650H236V-200Z"  />
<glyph unicode="^" horiz-adv-x="480" d="M224 708H258L432 450H375L241 653L105 450H48L224 708Z"  />
<glyph unicode="_" horiz-adv-x="287" d="M0 -148H287V-200H0V-148Z"  />
<glyph unicode="`" horiz-adv-x="269" d="M60 684L101 715L209 565L176 542L60 684Z"  />
<glyph unicode="a" horiz-adv-x="459" d="M79 418Q111 438 146 448T222 459Q269 459 301 447T352 412T380 356T389 279V0H337V69Q316 40 280 17T183 -6Q120 -6 82 30T44 128Q44 162 57 188T93 232T147 259T215 268Q242 268 276 261T337 234Q337 274 335 306T320 362T285 397T219 410Q179 410 151 401T93 375L79 418ZM199 43Q227 43 249 49T287 66T316 89T337 114V189Q287 225 220 225Q198 225 177 220T138 203T110 174T99 131Q99 89 128 66T199 43Z"  />
<glyph unicode="b" horiz-adv-x="550" d="M79 700H131V395Q157 422 200 440T288 459Q338 459 378 442T445 395T487 324T502 232Q502 176 484 132T434 56T357 8T257 -9Q204 -9 158 4T79 44V700ZM277 410Q253 410 231 404T190 388T156 366T131 341V79Q164 56 195 48T260 40Q299 40 333 53T393 90T432 148T447 227Q447 312 401 361T277 410Z"  />
<glyph unicode="c" horiz-adv-x="490" d="M455 64Q426 28 381 10T285 -9Q233 -9 189 7T114 54T65 128T47 225Q47 274 64 317T111 391T182 441T271 459Q324 459 369 447T446 403L421 361Q391 388 355 399T279 410Q243 410 211 396T155 358T117 299T102 225Q102 182 116 148T156 90T215 53T289 40Q333 40 369 57T429 102L455 64Z"  />
<glyph unicode="d" horiz-adv-x="553" d="M422 64Q396 34 356 13T267 -8Q217 -8 177 8T107 55T63 127T47 223Q47 275 65 318T117 393T194 441T292 459Q331 459 362 450T422 420V700H474V0H422V64ZM277 41Q299 41 320 47T361 64T395 86T422 112V369Q387 392 356 401T293 410Q254 410 219 397T158 359T117 301T102 225Q102 182 115 148T151 90T206 54T277 41Z"  />
<glyph unicode="e" horiz-adv-x="524" d="M452 55Q421 23 376 7T286 -9Q233 -9 189 7T114 54T65 128T47 225Q47 274 62 317T105 391T176 441T275 459Q318 459 355 445T420 404T463 340T479 256Q479 232 476 214H105Q108 133 158 87T289 40Q335 40 373 55T435 95L452 55ZM270 410Q195 410 152 367T102 257H426Q424 329 383 369T270 410Z"  />
<glyph unicode="f" horiz-adv-x="335" d="M93 523Q93 617 133 663T248 709Q289 709 318 698T365 671L345 631Q329 644 308 652T256 660Q202 660 174 626T145 514V450H317V401H145V0H93V523Z"  />
<glyph unicode="g" horiz-adv-x="490" d="M14 -66Q14 -12 51 21T152 69Q137 87 137 112Q137 138 154 157Q109 176 85 214T60 300Q60 334 72 363T108 413T164 447T238 459Q272 459 300 450T351 425H352L480 459V410L389 387Q402 368 409 346T416 300Q416 266 403 237T367 187T311 153T238 141Q212 141 193 145Q184 132 184 112Q184 90 197 76Q208 77 218 77T239 78Q288 78 329 69T401 42T447 -3T464 -66Q464 -101 448 -127T401 -172T330 -199T239 -208Q190 -208 149 -199T77 -173T31 -129T14 -66ZM67 -66Q67 -111 114 -136T239 -161Q318 -161 364 -136T411 -66Q411 -21 365 5T239 31Q161 31 114 5T67 -66ZM113 300Q113 252 147 220T238 188Q295 188 329 220T363 300Q363 324 354 344T328 380T288 403T238 412Q211 412 188 404T149 380T123 345T113 300Z"  />
<glyph unicode="h" horiz-adv-x="551" d="M79 700H131V389Q144 404 162 416T202 438T246 452T293 458Q385 458 433 410T481 256V0H429V248Q429 409 281 409Q235 409 194 388T131 340V0H79V700Z"  />
<glyph unicode="i" horiz-adv-x="261" d="M95 625Q95 640 106 649T132 658Q145 658 155 649T166 625Q166 608 156 598T132 588Q117 588 106 598T95 625ZM104 450H156V0H104V450Z"  />
<glyph unicode="j" horiz-adv-x="260" d="M97 625Q97 640 108 649T134 658Q147 658 157 649T168 625Q168 608 158 598T134 588Q119 588 108 598T97 625ZM159 -33Q159 -116 126 -162T18 -208Q-11 -208 -35 -200T-74 -180L-58 -138Q-46 -146 -29 -152T7 -159Q61 -159 84 -125T107 -29V450H159V-33Z"  />
<glyph unicode="k" horiz-adv-x="473" d="M79 700H131V0H79V700ZM224 239L453 0H383L160 235L366 450H434L224 239Z"  />
<glyph unicode="l" horiz-adv-x="282" d="M79 700H131V144Q131 93 145 68T196 43Q214 43 231 50T259 65L272 24Q256 12 232 3T177 -6Q79 -6 79 116V700Z"  />
<glyph unicode="m" horiz-adv-x="805" d="M735 0H683V281Q683 347 655 378T569 409Q521 409 486 388T431 334Q433 328 433 319T433 302V0H381V304Q381 351 352 380T268 409Q221 409 186 387T131 338V0H79V450H131V387Q157 419 199 438T287 458Q340 458 376 436T425 375Q450 413 494 435T589 458Q620 458 647 450T693 423T724 373T735 295V0Z"  />
<glyph unicode="n" horiz-adv-x="551" d="M79 450H131V387Q157 416 201 437T293 458Q385 458 433 411T481 257V0H429V247Q429 330 393 369T281 409Q234 409 194 388T131 340V0H79V450Z"  />
<glyph unicode="o" horiz-adv-x="567" d="M47 225Q47 276 64 318T112 392T187 441T283 459Q335 459 378 442T453 393T502 319T519 225Q519 174 502 132T454 58T379 9T283 -9Q230 -9 187 8T113 57T64 131T47 225ZM102 225Q102 184 115 151T153 92T210 54T283 40Q323 40 356 53T413 91T450 150T464 225Q464 265 451 299T413 358T356 396T283 410Q244 410 211 397T154 359T116 300T102 225Z"  />
<glyph unicode="p" horiz-adv-x="554" d="M79 450H131V390Q157 420 202 439T296 459Q345 459 384 442T450 395T491 324T506 232Q506 181 490 137T443 60T370 10T275 -9Q233 -9 196 0T131 29V-200H79V450ZM282 410Q234 410 194 389T131 340V81Q166 58 200 49T271 40Q312 40 345 54T401 93T438 153T451 229Q451 269 440 302T407 360T354 397T282 410Z"  />
<glyph unicode="q" horiz-adv-x="555" d="M423 49Q396 23 357 7T276 -9Q224 -9 182 7T109 54T63 128T47 225Q47 274 66 317T118 391T196 441T296 459Q347 459 394 446T475 410V-200H423V49ZM282 40Q304 40 325 46T365 61T399 82T423 106V377Q391 395 359 402T295 410Q253 410 218 396T157 356T117 296T102 223Q102 182 115 148T151 90T208 53T282 40Z"  />
<glyph unicode="r" horiz-adv-x="329" d="M79 450H131V390Q150 419 178 438T252 458Q280 458 295 454T322 441L304 392Q287 402 275 405T241 409Q219 409 202 403T172 386T149 363T131 336V0H79V450Z"  />
<glyph unicode="s" horiz-adv-x="418" d="M312 118Q312 146 294 162T248 189T188 209T128 234T82 274T63 340Q63 394 103 426T208 459Q256 459 292 444T349 409L327 370Q306 390 275 401T209 413Q167 413 143 392T118 341Q118 311 136 294T182 266T242 246T302 221T348 183T367 120Q367 87 354 63T319 22T267 -1T205 -9Q181 -9 157 -4T112 11T75 32T51 56L80 90Q89 78 104 68T138 52T175 41T211 37Q230 37 248 42T281 57T303 82T312 118Z"  />
<glyph unicode="t" horiz-adv-x="348" d="M69 575H121V450H302V401H121V179Q121 113 144 78T222 43Q245 43 263 50T294 67L311 26Q295 13 269 4T210 -6Q135 -6 102 39T69 171V575Z"  />
<glyph unicode="u" horiz-adv-x="544" d="M464 0H412V71Q399 55 381 41T341 15T294 -2T241 -9Q159 -9 114 38T69 189V450H121V200Q121 121 154 81T260 40Q284 40 306 47T349 65T385 90T412 118V450H464V0Z"  />
<glyph unicode="v" horiz-adv-x="472" d="M258 -6H222L11 450H72L201 167Q212 144 222 119T242 68Q251 93 261 119T282 170L406 450H461L258 -6Z"  />
<glyph unicode="w" horiz-adv-x="694" d="M534 -6H491L367 321Q362 335 357 349T347 378Q342 362 338 348T327 318L206 -6H165L14 450H70L172 135Q177 118 181 102T191 69Q196 86 201 101T213 135L328 450H371L488 136Q494 119 499 102T511 68Q516 87 521 104T532 141L627 450H680L534 -6Z"  />
<glyph unicode="x" horiz-adv-x="495" d="M285 232L464 0H400L246 199L92 0H31L210 230L41 450H105L248 264L393 450H454L285 232Z"  />
<glyph unicode="y" horiz-adv-x="481" d="M285 0Q260 -60 239 -99T199 -160T159 -191T116 -200Q94 -200 76 -194T39 -177L56 -137Q69 -143 82 -147T109 -152Q144 -152 170 -123T226 -24L236 0L14 450H76L230 132L262 62Q267 79 273 97T287 134L408 450H467L285 0Z"  />
<glyph unicode="z" horiz-adv-x="481" d="M62 450H434V416L122 49H429V0H47V34L358 401H62V450Z"  />
<glyph unicode="{" horiz-adv-x="313" d="M110 104Q110 134 102 153T80 183T51 198T20 202V248Q33 248 49 252T78 269T101 303T110 358V519Q110 582 136 616T232 650H293V601H244Q199 601 181 578T162 503V340Q162 291 142 261T87 226Q119 222 140 196T162 112V-54Q162 -106 184 -128T250 -151H293V-200H232Q172 -200 141 -171T110 -73V104Z"  />
<glyph unicode="|" horiz-adv-x="322" d="M135 700H187V0H135V700Z"  />
<glyph unicode="}" horiz-adv-x="313" d="M203 -73Q203 -141 172 -170T81 -200H20V-151H63Q107 -151 129 -129T151 -54V112Q151 170 172 196T226 226Q192 231 172 261T151 340V503Q151 555 133 578T69 601H20V650H81Q150 650 176 616T203 519V358Q203 325 212 304T234 270T263 253T293 248V202Q278 202 262 198T233 183T212 153T203 104V-73Z"  />
<glyph unicode="~" horiz-adv-x="589" d="M57 356Q121 420 185 420Q216 420 245 409T302 384T358 359T416 347Q463 347 509 393L531 357Q502 330 473 316T415 301Q385 301 356 312T299 337T243 362T187 374Q159 374 133 360T82 322L57 356Z"  />
<glyph unicode="&#xA0;" horiz-adv-x="235" />
<glyph unicode="&#xA1;" horiz-adv-x="310" d="M195 419Q195 405 184 394T155 383Q139 383 129 394T118 419Q118 435 128 447T155 459Q173 459 184 447T195 419ZM184 -243H129V264H184V-243Z"  />
<glyph unicode="&#xA2;" horiz-adv-x="589" d="M499 64Q473 31 433 13T347 -8V-120H295V-7Q250 -2 213 16T148 65T106 135T91 225Q91 271 106 312T149 384T213 434T295 458V567H347V458Q390 455 426 442T490 403L465 361Q435 388 399 399T323 410Q287 410 255 396T199 358T161 299T146 225Q146 182 160 148T200 90T259 53T333 40Q377 40 413 57T473 102L499 64Z"  />
<glyph unicode="&#xA3;" horiz-adv-x="589" d="M81 326H160Q152 347 143 366T125 407T110 455T104 514Q104 552 118 587T159 649T224 692T312 708Q372 708 420 688T499 635L469 595Q437 626 398 641T312 656Q277 656 250 644T203 612T173 565T162 511Q162 479 168 455T183 410T201 369T219 326H391V283H228Q231 266 231 248Q231 197 215 162T179 100H186Q216 100 244 92T301 74T357 56T413 48Q441 48 467 58T523 96L548 56Q516 24 481 10T411 -4Q382 -4 354 4T297 22T241 40T183 48Q123 48 68 -7L44 34Q64 54 83 67T122 88Q145 117 160 154T176 240Q176 252 175 262T172 283H81V326Z"  />
<glyph unicode="&#xA4;" horiz-adv-x="589" d="M71 347Q71 387 83 423T118 490L29 581L61 614L151 524Q179 547 214 560T295 574Q339 574 375 561T439 524L534 618L566 586L471 490Q519 428 519 347Q519 265 471 203L563 112L530 80L440 170Q412 147 376 134T295 120Q250 120 215 133T151 170L55 75L23 107L118 204Q95 234 83 270T71 347ZM120 347Q120 311 132 278T166 221T221 181T295 166Q337 166 369 181T424 220T458 278T470 347Q470 384 458 416T424 474T369 513T295 528Q254 528 222 514T167 474T132 417T120 347Z"  />
<glyph unicode="&#xA5;" horiz-adv-x="589" d="M71 348H240L25 700H89L295 358L502 700H563L347 348H517V305H321V182H517V139H321V0H266V139H71V182H266V305H71V348Z"  />
<glyph unicode="&#xA6;" horiz-adv-x="322" d="M187 260V0H135V260H187ZM135 440V700H187V440H135Z"  />
<glyph unicode="&#xA7;" horiz-adv-x="524" d="M71 249Q71 315 109 363T214 426Q178 443 150 477T121 561Q121 591 131 616T162 660T210 689T274 700Q301 700 321 695T357 680T384 660T403 639L372 603Q365 611 357 619T337 635T311 646T274 651Q253 651 235 644T203 623T181 591T173 552Q173 529 182 510T205 476T238 450T277 430Q317 428 349 413T405 374T440 318T453 249Q453 183 414 135T309 73Q345 55 373 22T401 -61Q401 -91 391 -116T360 -160T312 -189T248 -200Q221 -200 201 -195T165 -180T138 -161T119 -139L150 -103Q157 -111 165 -119T185 -135T211 -146T248 -151Q269 -151 287 -144T319 -123T341 -91T349 -52Q349 -29 340 -10T317 23T283 49T244 68Q205 71 173 86T119 125T84 180T71 249ZM123 249Q123 220 134 196T164 153T208 125T262 114Q292 114 317 124T361 153T390 195T401 249Q401 278 390 303T361 346T317 374T262 385Q233 385 208 375T164 346T134 303T123 249Z"  />
<glyph unicode="&#xA8;" horiz-adv-x="393" d="M268 618Q268 633 278 642T302 651Q313 651 323 642T333 618Q333 602 323 593T302 583Q288 583 278 592T268 618ZM60 618Q60 633 70 642T94 651Q105 651 115 642T125 618Q125 602 115 593T94 583Q80 583 70 592T60 618Z"  />
<glyph unicode="&#xA9;" horiz-adv-x="1018" d="M687 64Q658 28 613 10T517 -9Q465 -9 421 7T346 54T297 128T279 225Q279 274 296 317T343 391T414 441T503 459Q556 459 601 447T678 403L653 361Q623 388 587 399T511 410Q475 410 443 396T387 358T349 299T334 225Q334 182 348 148T388 90T447 53T521 40Q565 40 601 57T661 102L687 64ZM123 221Q123 141 152 71T232 -51T355 -134T509 -165Q592 -165 663 -135T785 -52T866 71T895 221Q895 301 866 371T786 493T663 576T509 607Q426 607 355 577T233 494T152 371T123 221ZM77 221Q77 311 110 389T200 526T337 619T509 653Q602 653 681 619T817 527T908 390T941 221Q941 131 908 52T818 -85T681 -177T509 -211Q416 -211 337 -178T201 -86T110 52T77 221Z"  />
<glyph unicode="&#xAA;" horiz-adv-x="409" d="M87 621Q108 637 138 647T204 658Q263 658 299 627T335 535V339H289V391Q272 370 244 353T165 336Q114 336 84 365T54 434Q54 483 87 509T178 536Q213 536 239 530T289 509V524Q289 572 265 595T196 618Q169 618 149 611T108 590L87 621ZM185 375Q221 375 246 389T289 420V478Q270 489 243 495T192 502Q156 502 130 486T103 438Q103 410 126 393T185 375Z"  />
<glyph unicode="&#xAB;" horiz-adv-x="506" d="M51 248V252L233 461L267 431L111 250L265 69L231 37L51 248ZM225 248V252L407 461L441 431L285 250L439 69L405 37L225 248Z"  />
<glyph unicode="&#xAC;" horiz-adv-x="589" d="M65 383H523V206H477V337H65V383Z"  />
<glyph unicode="&#xAD;" horiz-adv-x="399" d="M85 296H314V247H85V296Z"  />
<glyph unicode="&#xAE;" horiz-adv-x="582" d="M54 497Q54 546 72 589T123 664T198 714T292 733Q341 733 384 715T459 664T509 589T528 497Q528 447 510 404T459 328T384 278T292 259Q242 259 199 277T123 328T73 403T54 497ZM97 496Q97 456 112 421T154 359T215 318T291 302Q331 302 366 317T428 359T469 420T485 496Q485 536 470 571T428 633T367 674T291 690Q251 690 216 675T154 633T113 572T97 496ZM203 360V640H286Q344 640 366 616T389 557Q389 529 371 507T323 478L410 360H365L285 471H240V360H203ZM240 612V499H287Q312 499 332 515T352 557Q352 583 335 597T282 612H240Z"  />
<glyph unicode="&#xAF;" horiz-adv-x="372" d="M60 647H312V604H60V647Z"  />
<glyph unicode="&#xB0;" horiz-adv-x="398" d="M54 569Q54 600 65 626T96 672T142 703T198 715Q228 715 255 704T301 674T332 628T344 571Q344 541 333 514T302 468T255 437T198 425Q168 425 142 436T97 466T66 512T54 569ZM100 570Q100 550 108 532T129 501T161 479T199 471Q219 471 237 479T268 500T290 532T298 570Q298 590 290 608T269 639T237 661T199 669Q179 669 161 661T130 640T108 608T100 570Z"  />
<glyph unicode="&#xB1;" horiz-adv-x="589" d="M71 219H517V173H71V219ZM71 462H269V661H318V462H517V416H318V277H269V416H71V462Z"  />
<glyph unicode="&#xB2;" horiz-adv-x="339" d="M39 384Q65 402 99 426T165 478T217 536T239 596Q239 624 221 644T165 664Q138 664 113 648T83 601L43 614Q51 658 87 681T168 704Q230 704 259 674T288 600Q288 563 265 529T210 468T148 420T101 390H307V350H39V384Z"  />
<glyph unicode="&#xB3;" horiz-adv-x="342" d="M164 345Q122 345 86 360T31 412L59 436Q73 410 101 397T159 384Q201 384 225 403T249 451Q249 477 227 494T167 511H131V545H163Q192 545 213 563T234 609Q234 637 214 651T158 666Q121 666 99 652T66 618L42 643Q56 670 87 687T167 705Q221 705 252 682T283 617Q283 588 265 565T212 532V531Q254 527 276 503T298 447Q298 423 288 405T259 373T217 352T164 345Z"  />
<glyph unicode="&#xB4;" horiz-adv-x="268" d="M92 542L60 565L168 716L208 685L92 542Z"  />
<glyph unicode="&#xB5;" horiz-adv-x="547" d="M467 0H415V71Q402 55 384 41T344 15T297 -2T244 -9Q166 -9 124 32V-200H72V450H124V200Q124 121 157 81T263 40Q287 40 309 47T352 65T388 90T415 118V450H467V0Z"  />
<glyph unicode="&#xB6;" horiz-adv-x="437" d="M51 481Q51 584 107 642T259 700H403V651H309V-29Q309 -113 276 -160T162 -208Q131 -208 104 -198T61 -173L83 -135Q95 -144 115 -151T158 -159Q189 -159 208 -149T238 -121T253 -79T257 -28V263Q214 263 177 278T111 321T67 389T51 481Z"  />
<glyph unicode="&#xB7;" horiz-adv-x="235" d="M79 297Q79 311 90 322T119 333Q135 333 145 322T155 297Q155 281 145 269T119 257Q101 257 90 269T79 297Z"  />
<glyph unicode="&#xB8;" horiz-adv-x="330" d="M76 -147Q93 -158 112 -163T148 -169Q178 -169 198 -157T218 -123Q218 -101 202 -89T147 -76H141V0H171V-50Q222 -52 246 -72T270 -126Q270 -160 240 -181T155 -203Q123 -203 101 -194T60 -174L76 -147Z"  />
<glyph unicode="&#xB9;" horiz-adv-x="239" d="M126 702H158V350H112V647L46 603L27 635L126 702Z"  />
<glyph unicode="&#xBA;" horiz-adv-x="458" d="M57 496Q57 532 70 562T106 613T160 646T229 658Q266 658 297 646T352 613T388 562T401 496Q401 460 388 430T352 379T298 345T229 333Q192 333 161 345T106 378T70 430T57 496ZM106 496Q106 469 116 447T143 409T183 385T229 376Q254 376 276 384T315 408T342 446T352 496Q352 523 342 545T315 582T276 606T229 615Q205 615 183 607T143 583T116 545T106 496Z"  />
<glyph unicode="&#xBB;" horiz-adv-x="506" d="M101 37L66 69L221 250L65 431L99 461L281 252V248L101 37ZM275 37L240 69L395 250L239 431L273 461L455 252V248L275 37Z"  />
<glyph unicode="&#xBC;" horiz-adv-x="657" d="M532 87H337V116L516 350H561L386 124H532V225H575V124H637V87H575V0H532V87ZM575 709L606 687L85 -9L54 13L575 709ZM140 702H172V350H126V647L60 603L41 635L140 702Z"  />
<glyph unicode="&#xBD;" horiz-adv-x="673" d="M365 34Q391 52 425 76T491 128T543 186T565 246Q565 274 547 294T491 314Q464 314 439 298T409 251L369 264Q377 308 413 331T494 354Q556 354 585 324T614 250Q614 213 591 179T536 118T474 70T427 40H633V0H365V34ZM547 709L578 687L57 -9L26 13L547 709ZM140 702H172V350H126V647L60 603L41 635L140 702Z"  />
<glyph unicode="&#xBE;" horiz-adv-x="699" d="M167 345Q125 345 89 360T34 412L62 436Q76 410 104 397T162 384Q204 384 228 403T252 451Q252 477 230 494T170 511H134V545H166Q195 545 216 563T237 609Q237 637 217 651T161 666Q124 666 102 652T69 618L45 643Q59 670 90 687T170 705Q224 705 255 682T286 617Q286 588 268 565T215 532V531Q257 527 279 503T301 447Q301 423 291 405T262 373T220 352T167 345ZM574 87H379V116L558 350H603L428 124H574V225H617V124H679V87H617V0H574V87ZM627 709L658 687L137 -9L106 13L627 709Z"  />
<glyph unicode="&#xBF;" horiz-adv-x="460" d="M297 419Q297 405 287 394T258 383Q242 383 232 394T221 419Q221 435 231 447T258 459Q276 459 286 447T297 419ZM89 -71Q89 -98 99 -122T129 -163T175 -190T234 -200Q282 -200 320 -179T388 -119L420 -152Q393 -196 343 -224T230 -252Q183 -252 147 -239T85 -202T47 -148T34 -82Q34 -36 49 -4T86 51T135 93T184 131T222 174T237 232Q237 240 236 248T233 265L280 267Q282 255 283 245T285 224Q285 187 271 162T234 116T187 79T140 41T104 -6T89 -71Z"  />
<glyph unicode="&#xC0;" horiz-adv-x="697" d="M200 824L220 868L398 769L383 738L200 824ZM201 290H492L347 630L201 290ZM326 706H371L676 0H617L515 238H179L77 0H21L326 706Z"  />
<glyph unicode="&#xC1;" horiz-adv-x="697" d="M317 738L301 769L480 868L499 824L317 738ZM201 290H492L347 630L201 290ZM326 706H371L676 0H617L515 238H179L77 0H21L326 706Z"  />
<glyph unicode="&#xC2;" horiz-adv-x="697" d="M345 865H349L519 767L496 737L347 818L197 737L177 767L345 865ZM201 290H492L347 630L201 290ZM326 706H371L676 0H617L515 238H179L77 0H21L326 706Z"  />
<glyph unicode="&#xC3;" horiz-adv-x="697" d="M180 800Q201 820 224 830T270 840Q292 840 312 833T350 818T387 803T426 796Q443 796 462 802T500 829L516 796Q495 771 472 761T423 750Q402 750 383 757T345 772T305 787T264 794Q231 794 198 767L180 800ZM201 290H492L347 630L201 290ZM326 706H371L676 0H617L515 238H179L77 0H21L326 706Z"  />
<glyph unicode="&#xC4;" horiz-adv-x="697" d="M428 804Q428 819 439 827T467 836Q481 836 491 828T502 804Q502 787 492 779T467 770Q451 770 440 778T428 804ZM195 804Q195 819 206 827T233 836Q247 836 258 828T269 804Q269 787 258 779T233 770Q217 770 206 778T195 804ZM201 290H492L347 630L201 290ZM326 706H371L676 0H617L515 238H179L77 0H21L326 706Z"  />
<glyph unicode="&#xC5;" horiz-adv-x="697" d="M236 785Q236 831 268 852T347 873Q395 873 427 852T460 785Q460 747 436 725T375 696L676 0H617L515 238H179L77 0H21L321 696Q284 701 260 723T236 785ZM201 290H492L347 630L201 290ZM276 785Q276 755 296 740T348 725Q378 725 399 740T420 785Q420 815 399 828T348 842Q317 842 297 829T276 785Z"  />
<glyph unicode="&#xC6;" horiz-adv-x="960" d="M883 648H551V381H853V329H551V52H893V0H496V244H232L60 0H-5L496 700H883V648ZM269 296H496V617L269 296Z"  />
<glyph unicode="&#xC7;" horiz-adv-x="656" d="M310 -145Q327 -155 347 -162T384 -169Q414 -169 434 -157T454 -123Q454 -101 438 -89T383 -76H377V-8Q305 -4 246 23T144 97T78 208T54 350Q54 425 78 490T146 604T254 681T397 709Q529 709 609 643L583 602Q545 631 500 644T398 657Q334 657 282 634T192 570T133 473T112 350Q112 281 134 225T195 128T288 65T409 43Q466 43 514 61T600 109L622 68Q586 32 528 12T407 -9V-50Q461 -52 485 -72T509 -126Q509 -160 479 -181T395 -203Q360 -203 336 -194T293 -173L310 -145Z"  />
<glyph unicode="&#xC8;" horiz-adv-x="575" d="M175 824L195 868L373 769L358 738L175 824ZM111 700H498V648H166V381H468V329H166V52H508V0H111V700Z"  />
<glyph unicode="&#xC9;" horiz-adv-x="575" d="M253 738L237 769L416 868L435 824L253 738ZM111 700H498V648H166V381H468V329H166V52H508V0H111V700Z"  />
<glyph unicode="&#xCA;" horiz-adv-x="575" d="M303 865H307L477 767L454 737L305 818L155 737L135 767L303 865ZM111 700H498V648H166V381H468V329H166V52H508V0H111V700Z"  />
<glyph unicode="&#xCB;" horiz-adv-x="575" d="M387 804Q387 819 398 827T426 836Q440 836 450 828T461 804Q461 787 451 779T426 770Q410 770 399 778T387 804ZM154 804Q154 819 165 827T192 836Q206 836 217 828T228 804Q228 787 217 779T192 770Q176 770 165 778T154 804ZM111 700H498V648H166V381H468V329H166V52H508V0H111V700Z"  />
<glyph unicode="&#xCC;" horiz-adv-x="325" d="M3 824L23 868L201 769L186 738L3 824ZM135 700H190V0H135V700Z"  />
<glyph unicode="&#xCD;" horiz-adv-x="325" d="M140 738L124 769L303 868L322 824L140 738ZM135 700H190V0H135V700Z"  />
<glyph unicode="&#xCE;" horiz-adv-x="325" d="M160 865H164L334 767L311 737L162 818L12 737L-8 767L160 865ZM135 700H190V0H135V700Z"  />
<glyph unicode="&#xCF;" horiz-adv-x="325" d="M242 804Q242 819 253 827T281 836Q295 836 305 828T316 804Q316 787 306 779T281 770Q265 770 254 778T242 804ZM9 804Q9 819 20 827T47 836Q61 836 72 828T83 804Q83 787 72 779T47 770Q31 770 20 778T9 804ZM135 700H190V0H135V700Z"  />
<glyph unicode="&#xD0;" horiz-adv-x="758" d="M10 381H132V700H143Q181 700 223 701T311 703Q416 703 490 675T612 600T682 490T704 360Q704 285 679 219T604 104T478 27T303 -2Q265 -2 224 -1T141 0H132V332H10V381ZM309 651Q270 651 244 650T187 648V381H385V332H187V52Q208 52 228 52T265 51T291 50T305 50Q389 50 453 74T560 139T624 237T646 360Q646 421 626 474T565 566T460 628T309 651Z"  />
<glyph unicode="&#xD1;" horiz-adv-x="797" d="M236 800Q257 820 280 830T326 840Q348 840 368 833T406 818T443 803T482 796Q499 796 518 802T556 829L572 796Q551 771 528 761T479 750Q458 750 439 757T401 772T361 787T320 794Q287 794 254 767L236 800ZM642 0L163 602V0H111V700H155L634 96V700H686V0H642Z"  />
<glyph unicode="&#xD2;" horiz-adv-x="810" d="M295 824L315 868L493 769L478 738L295 824ZM112 350Q112 284 134 228T196 131T289 67T405 43Q469 43 523 66T616 131T676 228T698 350Q698 416 676 472T614 570T521 634T405 657Q343 657 290 634T197 570T135 473T112 350ZM54 350Q54 426 80 491T154 605T265 681T405 709Q480 709 544 683T655 608T729 494T756 350Q756 273 729 207T655 93T544 18T405 -9Q330 -9 266 17T155 92T81 206T54 350Z"  />
<glyph unicode="&#xD3;" horiz-adv-x="810" d="M359 738L343 769L522 868L541 824L359 738ZM112 350Q112 284 134 228T196 131T289 67T405 43Q469 43 523 66T616 131T676 228T698 350Q698 416 676 472T614 570T521 634T405 657Q343 657 290 634T197 570T135 473T112 350ZM54 350Q54 426 80 491T154 605T265 681T405 709Q480 709 544 683T655 608T729 494T756 350Q756 273 729 207T655 93T544 18T405 -9Q330 -9 266 17T155 92T81 206T54 350Z"  />
<glyph unicode="&#xD4;" horiz-adv-x="810" d="M406 865H410L580 767L557 737L408 818L258 737L238 767L406 865ZM112 350Q112 284 134 228T196 131T289 67T405 43Q469 43 523 66T616 131T676 228T698 350Q698 416 676 472T614 570T521 634T405 657Q343 657 290 634T197 570T135 473T112 350ZM54 350Q54 426 80 491T154 605T265 681T405 709Q480 709 544 683T655 608T729 494T756 350Q756 273 729 207T655 93T544 18T405 -9Q330 -9 266 17T155 92T81 206T54 350Z"  />
<glyph unicode="&#xD5;" horiz-adv-x="810" d="M238 800Q259 820 282 830T328 840Q350 840 370 833T408 818T445 803T484 796Q501 796 520 802T558 829L574 796Q553 771 530 761T481 750Q460 750 441 757T403 772T363 787T322 794Q289 794 256 767L238 800ZM112 350Q112 284 134 228T196 131T289 67T405 43Q469 43 523 66T616 131T676 228T698 350Q698 416 676 472T614 570T521 634T405 657Q343 657 290 634T197 570T135 473T112 350ZM54 350Q54 426 80 491T154 605T265 681T405 709Q480 709 544 683T655 608T729 494T756 350Q756 273 729 207T655 93T544 18T405 -9Q330 -9 266 17T155 92T81 206T54 350Z"  />
<glyph unicode="&#xD6;" horiz-adv-x="810" d="M485 804Q485 819 496 827T524 836Q538 836 548 828T559 804Q559 787 549 779T524 770Q508 770 497 778T485 804ZM252 804Q252 819 263 827T290 836Q304 836 315 828T326 804Q326 787 315 779T290 770Q274 770 263 778T252 804ZM112 350Q112 284 134 228T196 131T289 67T405 43Q469 43 523 66T616 131T676 228T698 350Q698 416 676 472T614 570T521 634T405 657Q343 657 290 634T197 570T135 473T112 350ZM54 350Q54 426 80 491T154 605T265 681T405 709Q480 709 544 683T655 608T729 494T756 350Q756 273 729 207T655 93T544 18T405 -9Q330 -9 266 17T155 92T81 206T54 350Z"  />
<glyph unicode="&#xD7;" horiz-adv-x="589" d="M154 534L294 392L435 534L467 501L327 360L469 218L437 186L294 327L152 186L120 218L262 360L121 501L154 534Z"  />
<glyph unicode="&#xD8;" horiz-adv-x="810" d="M54 350Q54 426 80 491T154 605T265 681T405 709Q475 709 535 686T643 619L691 665L721 635L673 588Q712 541 734 481T756 350Q756 273 729 207T655 93T544 18T405 -9Q332 -9 270 16T160 86L113 40L82 72L131 119Q94 165 74 223T54 350ZM698 350Q698 408 681 458T632 548L201 126Q240 87 292 65T405 43Q469 43 523 66T616 131T676 228T698 350ZM112 350Q112 295 127 247T172 160L603 580Q565 616 514 636T405 657Q343 657 290 634T197 570T135 473T112 350Z"  />
<glyph unicode="&#xD9;" horiz-adv-x="751" d="M252 824L272 868L450 769L435 738L252 824ZM650 293Q650 213 629 156T571 63T486 9T385 -8Q324 -8 272 11T182 69T123 165T101 300V700H156V310Q156 246 172 197T219 113T291 62T385 44Q431 44 469 59T536 107T579 189T595 305V700H650V293Z"  />
<glyph unicode="&#xDA;" horiz-adv-x="751" d="M326 738L310 769L489 868L508 824L326 738ZM650 293Q650 213 629 156T571 63T486 9T385 -8Q324 -8 272 11T182 69T123 165T101 300V700H156V310Q156 246 172 197T219 113T291 62T385 44Q431 44 469 59T536 107T579 189T595 305V700H650V293Z"  />
<glyph unicode="&#xDB;" horiz-adv-x="751" d="M372 865H376L546 767L523 737L374 818L224 737L204 767L372 865ZM650 293Q650 213 629 156T571 63T486 9T385 -8Q324 -8 272 11T182 69T123 165T101 300V700H156V310Q156 246 172 197T219 113T291 62T385 44Q431 44 469 59T536 107T579 189T595 305V700H650V293Z"  />
<glyph unicode="&#xDC;" horiz-adv-x="751" d="M452 804Q452 819 463 827T491 836Q505 836 515 828T526 804Q526 787 516 779T491 770Q475 770 464 778T452 804ZM219 804Q219 819 230 827T257 836Q271 836 282 828T293 804Q293 787 282 779T257 770Q241 770 230 778T219 804ZM650 293Q650 213 629 156T571 63T486 9T385 -8Q324 -8 272 11T182 69T123 165T101 300V700H156V310Q156 246 172 197T219 113T291 62T385 44Q431 44 469 59T536 107T579 189T595 305V700H650V293Z"  />
<glyph unicode="&#xDD;" horiz-adv-x="584" d="M248 738L232 769L411 868L430 824L248 738ZM318 306V0H263V306L14 700H78L293 358L509 700H570L318 306Z"  />
<glyph unicode="&#xDE;" horiz-adv-x="585" d="M111 0V700H166V593Q178 593 194 593T226 594T258 594T282 595Q355 595 403 577T479 529T519 461T531 384Q531 343 517 305T472 236T394 188T282 170Q257 170 227 171T166 174V0H111ZM283 543Q272 543 256 543T224 543T192 542T166 540V227Q195 225 222 224T280 222Q376 222 424 267T473 385Q473 419 462 448T428 498T369 531T283 543Z"  />
<glyph unicode="&#xDF;" horiz-adv-x="542" d="M439 149Q439 180 425 202T388 241T340 274T292 307T255 346T240 398Q240 432 256 454T291 496T327 534T344 583Q344 618 316 639T252 660Q193 660 165 623T137 504V-3H85V514Q85 615 129 662T258 709Q288 709 314 700T358 676T388 639T399 592Q399 555 383 532T347 491T311 454T295 407Q295 379 309 360T346 325T394 294T442 260T479 214T494 148Q494 114 483 85T451 35T404 3T344 -9Q292 -9 257 13T203 61L223 100Q230 90 241 80T265 60T295 46T332 40Q353 40 372 47T406 69T430 103T439 149Z"  />
<glyph unicode="&#xE0;" horiz-adv-x="459" d="M138 684L179 715L287 565L254 542L138 684ZM199 43Q227 43 249 49T287 66T316 89T337 114V189Q287 225 220 225Q198 225 177 220T138 203T110 174T99 131Q99 89 128 66T199 43ZM79 418Q111 438 146 448T222 459Q269 459 301 447T352 412T380 356T389 279V0H337V69Q316 40 280 17T183 -6Q120 -6 82 30T44 128Q44 162 57 188T93 232T147 259T215 268Q242 268 276 261T337 234Q337 274 335 306T320 362T285 397T219 410Q179 410 151 401T93 375L79 418Z"  />
<glyph unicode="&#xE1;" horiz-adv-x="459" d="M208 542L176 565L284 716L324 685L208 542ZM199 43Q227 43 249 49T287 66T316 89T337 114V189Q287 225 220 225Q198 225 177 220T138 203T110 174T99 131Q99 89 128 66T199 43ZM79 418Q111 438 146 448T222 459Q269 459 301 447T352 412T380 356T389 279V0H337V69Q316 40 280 17T183 -6Q120 -6 82 30T44 128Q44 162 57 188T93 232T147 259T215 268Q242 268 276 261T337 234Q337 274 335 306T320 362T285 397T219 410Q179 410 151 401T93 375L79 418Z"  />
<glyph unicode="&#xE2;" horiz-adv-x="459" d="M360 576L335 544L230 649L123 545L97 576L228 707H232L360 576ZM199 43Q227 43 249 49T287 66T316 89T337 114V189Q287 225 220 225Q198 225 177 220T138 203T110 174T99 131Q99 89 128 66T199 43ZM79 418Q111 438 146 448T222 459Q269 459 301 447T352 412T380 356T389 279V0H337V69Q316 40 280 17T183 -6Q120 -6 82 30T44 128Q44 162 57 188T93 232T147 259T215 268Q242 268 276 261T337 234Q337 274 335 306T320 362T285 397T219 410Q179 410 151 401T93 375L79 418Z"  />
<glyph unicode="&#xE3;" horiz-adv-x="459" d="M75 598Q104 627 129 638T176 650Q194 650 207 643T233 627T259 611T287 604Q304 604 321 613T361 642L380 615Q352 586 328 574T282 561Q265 561 252 568T227 584T201 600T170 607Q141 607 98 573L75 598ZM199 43Q227 43 249 49T287 66T316 89T337 114V189Q287 225 220 225Q198 225 177 220T138 203T110 174T99 131Q99 89 128 66T199 43ZM79 418Q111 438 146 448T222 459Q269 459 301 447T352 412T380 356T389 279V0H337V69Q316 40 280 17T183 -6Q120 -6 82 30T44 128Q44 162 57 188T93 232T147 259T215 268Q242 268 276 261T337 234Q337 274 335 306T320 362T285 397T219 410Q179 410 151 401T93 375L79 418Z"  />
<glyph unicode="&#xE4;" horiz-adv-x="459" d="M297 618Q297 633 307 642T331 651Q342 651 352 642T362 618Q362 602 352 593T331 583Q317 583 307 592T297 618ZM89 618Q89 633 99 642T123 651Q134 651 144 642T154 618Q154 602 144 593T123 583Q109 583 99 592T89 618ZM199 43Q227 43 249 49T287 66T316 89T337 114V189Q287 225 220 225Q198 225 177 220T138 203T110 174T99 131Q99 89 128 66T199 43ZM79 418Q111 438 146 448T222 459Q269 459 301 447T352 412T380 356T389 279V0H337V69Q316 40 280 17T183 -6Q120 -6 82 30T44 128Q44 162 57 188T93 232T147 259T215 268Q242 268 276 261T337 234Q337 274 335 306T320 362T285 397T219 410Q179 410 151 401T93 375L79 418Z"  />
<glyph unicode="&#xE5;" horiz-adv-x="459" d="M79 418Q111 438 146 448T222 459Q269 459 301 447T352 412T380 356T389 279V0H337V69Q316 40 280 17T183 -6Q120 -6 82 30T44 128Q44 162 57 188T93 232T147 259T215 268Q242 268 276 261T337 234Q337 274 335 306T320 362T285 397T219 410Q179 410 151 401T93 375L79 418ZM199 43Q227 43 249 49T287 66T316 89T337 114V189Q287 225 220 225Q198 225 177 220T138 203T110 174T99 131Q99 89 128 66T199 43ZM120 614Q120 635 128 654T150 687T184 710T225 718Q247 718 267 710T301 688T323 654T332 614Q332 593 324 574T301 541T267 519T225 511Q203 511 184 519T151 541T128 574T120 614ZM155 614Q155 584 175 563T226 542Q256 542 276 563T297 614Q297 644 277 665T226 687Q196 687 176 666T155 614Z"  />
<glyph unicode="&#xE6;" horiz-adv-x="789" d="M222 459Q280 459 315 441T368 388Q397 421 440 440T540 459Q583 459 620 445T685 404T728 340T744 256Q744 232 741 214H389V125Q412 84 454 62T554 40Q600 40 638 55T700 95L717 55Q686 23 641 7T551 -9Q490 -9 443 12T363 71Q325 31 284 13T192 -6Q123 -6 84 30T44 128Q44 162 57 188T93 232T147 259T215 268Q228 268 245 267T280 264T312 260T337 255Q342 331 317 370T219 410Q179 410 151 401T93 375L79 418Q111 438 146 448T222 459ZM389 257H691Q689 329 648 369T535 410Q483 410 445 388T386 327Q389 304 389 279V257ZM199 43Q227 43 249 49T287 66T316 89T337 114V212Q307 218 281 221T220 225Q198 225 177 220T138 203T110 174T99 131Q99 89 128 66T199 43Z"  />
<glyph unicode="&#xE7;" horiz-adv-x="490" d="M191 -147Q208 -158 227 -163T263 -169Q293 -169 313 -157T333 -123Q333 -101 317 -89T262 -76H256V-7Q209 -3 171 15T105 64T62 134T47 225Q47 274 64 317T111 391T182 441T271 459Q324 459 369 447T446 403L421 361Q391 388 355 399T279 410Q243 410 211 396T155 358T117 299T102 225Q102 182 116 148T156 90T215 53T289 40Q333 40 369 57T429 102L455 64Q426 28 381 10T286 -9V-50Q337 -52 361 -72T385 -126Q385 -160 355 -181T270 -203Q238 -203 216 -194T175 -174L191 -147Z"  />
<glyph unicode="&#xE8;" horiz-adv-x="524" d="M170 684L211 715L319 565L286 542L170 684ZM270 410Q195 410 152 367T102 257H426Q424 329 383 369T270 410ZM452 55Q421 23 376 7T286 -9Q233 -9 189 7T114 54T65 128T47 225Q47 274 62 317T105 391T176 441T275 459Q318 459 355 445T420 404T463 340T479 256Q479 232 476 214H105Q108 133 158 87T289 40Q335 40 373 55T435 95L452 55Z"  />
<glyph unicode="&#xE9;" horiz-adv-x="524" d="M268 542L236 565L344 716L384 685L268 542ZM270 410Q195 410 152 367T102 257H426Q424 329 383 369T270 410ZM452 55Q421 23 376 7T286 -9Q233 -9 189 7T114 54T65 128T47 225Q47 274 62 317T105 391T176 441T275 459Q318 459 355 445T420 404T463 340T479 256Q479 232 476 214H105Q108 133 158 87T289 40Q335 40 373 55T435 95L452 55Z"  />
<glyph unicode="&#xEA;" horiz-adv-x="524" d="M403 576L378 544L273 649L166 545L140 576L271 707H275L403 576ZM270 410Q195 410 152 367T102 257H426Q424 329 383 369T270 410ZM452 55Q421 23 376 7T286 -9Q233 -9 189 7T114 54T65 128T47 225Q47 274 62 317T105 391T176 441T275 459Q318 459 355 445T420 404T463 340T479 256Q479 232 476 214H105Q108 133 158 87T289 40Q335 40 373 55T435 95L452 55Z"  />
<glyph unicode="&#xEB;" horiz-adv-x="524" d="M337 618Q337 633 347 642T371 651Q382 651 392 642T402 618Q402 602 392 593T371 583Q357 583 347 592T337 618ZM129 618Q129 633 139 642T163 651Q174 651 184 642T194 618Q194 602 184 593T163 583Q149 583 139 592T129 618ZM270 410Q195 410 152 367T102 257H426Q424 329 383 369T270 410ZM452 55Q421 23 376 7T286 -9Q233 -9 189 7T114 54T65 128T47 225Q47 274 62 317T105 391T176 441T275 459Q318 459 355 445T420 404T463 340T479 256Q479 232 476 214H105Q108 133 158 87T289 40Q335 40 373 55T435 95L452 55Z"  />
<glyph unicode="&#xEC;" horiz-adv-x="261" d="M14 684L55 715L163 565L130 542L14 684ZM104 450H156V0H104V450Z"  />
<glyph unicode="&#xED;" horiz-adv-x="261" d="M121 542L89 565L197 716L237 685L121 542ZM104 450H156V0H104V450Z"  />
<glyph unicode="&#xEE;" horiz-adv-x="261" d="M262 576L237 544L132 649L25 545L-1 576L130 707H134L262 576ZM104 450H156V0H104V450Z"  />
<glyph unicode="&#xEF;" horiz-adv-x="261" d="M202 618Q202 633 212 642T236 651Q247 651 257 642T267 618Q267 602 257 593T236 583Q222 583 212 592T202 618ZM-6 618Q-6 633 4 642T28 651Q39 651 49 642T59 618Q59 602 49 593T28 583Q14 583 4 592T-6 618ZM104 450H156V0H104V450Z"  />
<glyph unicode="&#xF0;" horiz-adv-x="567" d="M187 574L293 624Q266 647 237 665T179 697L237 709Q291 684 337 645L442 696L458 650L375 610Q444 538 481 446T519 258Q519 196 502 147T454 63T379 10T283 -9Q230 -9 187 8T113 57T64 131T47 225Q47 276 64 318T112 392T187 441T283 459Q339 459 383 431T451 354Q438 423 407 482T330 589L203 528L187 574ZM102 225Q102 184 115 151T153 92T210 54T283 40Q323 40 357 55T415 99T452 169T464 262Q459 289 445 315T408 363T353 397T283 410Q244 410 211 397T154 359T116 300T102 225Z"  />
<glyph unicode="&#xF1;" horiz-adv-x="551" d="M121 598Q150 627 175 638T222 650Q240 650 253 643T279 627T305 611T333 604Q350 604 367 613T407 642L426 615Q398 586 374 574T328 561Q311 561 298 568T273 584T247 600T216 607Q187 607 144 573L121 598ZM79 450H131V387Q157 416 201 437T293 458Q385 458 433 411T481 257V0H429V247Q429 330 393 369T281 409Q234 409 194 388T131 340V0H79V450Z"  />
<glyph unicode="&#xF2;" horiz-adv-x="567" d="M181 684L222 715L330 565L297 542L181 684ZM102 225Q102 184 115 151T153 92T210 54T283 40Q323 40 356 53T413 91T450 150T464 225Q464 265 451 299T413 358T356 396T283 410Q244 410 211 397T154 359T116 300T102 225ZM47 225Q47 276 64 318T112 392T187 441T283 459Q335 459 378 442T453 393T502 319T519 225Q519 174 502 132T454 58T379 9T283 -9Q230 -9 187 8T113 57T64 131T47 225Z"  />
<glyph unicode="&#xF3;" horiz-adv-x="567" d="M270 542L238 565L346 716L386 685L270 542ZM102 225Q102 184 115 151T153 92T210 54T283 40Q323 40 356 53T413 91T450 150T464 225Q464 265 451 299T413 358T356 396T283 410Q244 410 211 397T154 359T116 300T102 225ZM47 225Q47 276 64 318T112 392T187 441T283 459Q335 459 378 442T453 393T502 319T519 225Q519 174 502 132T454 58T379 9T283 -9Q230 -9 187 8T113 57T64 131T47 225Z"  />
<glyph unicode="&#xF4;" horiz-adv-x="567" d="M414 576L389 544L284 649L177 545L151 576L282 707H286L414 576ZM102 225Q102 184 115 151T153 92T210 54T283 40Q323 40 356 53T413 91T450 150T464 225Q464 265 451 299T413 358T356 396T283 410Q244 410 211 397T154 359T116 300T102 225ZM47 225Q47 276 64 318T112 392T187 441T283 459Q335 459 378 442T453 393T502 319T519 225Q519 174 502 132T454 58T379 9T283 -9Q230 -9 187 8T113 57T64 131T47 225Z"  />
<glyph unicode="&#xF5;" horiz-adv-x="567" d="M129 598Q158 627 183 638T230 650Q248 650 261 643T287 627T313 611T341 604Q358 604 375 613T415 642L434 615Q406 586 382 574T336 561Q319 561 306 568T281 584T255 600T224 607Q195 607 152 573L129 598ZM102 225Q102 184 115 151T153 92T210 54T283 40Q323 40 356 53T413 91T450 150T464 225Q464 265 451 299T413 358T356 396T283 410Q244 410 211 397T154 359T116 300T102 225ZM47 225Q47 276 64 318T112 392T187 441T283 459Q335 459 378 442T453 393T502 319T519 225Q519 174 502 132T454 58T379 9T283 -9Q230 -9 187 8T113 57T64 131T47 225Z"  />
<glyph unicode="&#xF6;" horiz-adv-x="567" d="M358 618Q358 633 368 642T392 651Q403 651 413 642T423 618Q423 602 413 593T392 583Q378 583 368 592T358 618ZM150 618Q150 633 160 642T184 651Q195 651 205 642T215 618Q215 602 205 593T184 583Q170 583 160 592T150 618ZM102 225Q102 184 115 151T153 92T210 54T283 40Q323 40 356 53T413 91T450 150T464 225Q464 265 451 299T413 358T356 396T283 410Q244 410 211 397T154 359T116 300T102 225ZM47 225Q47 276 64 318T112 392T187 441T283 459Q335 459 378 442T453 393T502 319T519 225Q519 174 502 132T454 58T379 9T283 -9Q230 -9 187 8T113 57T64 131T47 225Z"  />
<glyph unicode="&#xF7;" horiz-adv-x="589" d="M71 383H517V337H71V383ZM260 151Q260 163 269 173T295 184Q310 184 319 174T329 151Q329 137 320 126T295 115Q278 115 269 126T260 151ZM260 570Q260 582 269 593T295 604Q310 604 319 593T329 570Q329 556 320 545T295 534Q278 534 269 545T260 570Z"  />
<glyph unicode="&#xF8;" horiz-adv-x="567" d="M47 225Q47 276 64 318T112 392T187 441T283 459Q331 459 371 444T442 403L493 453L522 421L472 371Q495 342 507 305T519 225Q519 174 502 132T454 58T379 9T283 -9Q238 -9 201 3T133 39L80 -13L50 20L101 70Q47 132 47 225ZM102 225Q102 155 139 107L404 366Q381 387 350 398T283 410Q244 410 211 397T154 359T116 300T102 225ZM464 225Q464 286 433 333L171 76Q218 40 283 40Q323 40 356 53T413 91T450 150T464 225Z"  />
<glyph unicode="&#xF9;" horiz-adv-x="544" d="M168 684L209 715L317 565L284 542L168 684ZM464 0H412V71Q399 55 381 41T341 15T294 -2T241 -9Q159 -9 114 38T69 189V450H121V200Q121 121 154 81T260 40Q284 40 306 47T349 65T385 90T412 118V450H464V0Z"  />
<glyph unicode="&#xFA;" horiz-adv-x="544" d="M260 542L228 565L336 716L376 685L260 542ZM464 0H412V71Q399 55 381 41T341 15T294 -2T241 -9Q159 -9 114 38T69 189V450H121V200Q121 121 154 81T260 40Q284 40 306 47T349 65T385 90T412 118V450H464V0Z"  />
<glyph unicode="&#xFB;" horiz-adv-x="544" d="M399 576L374 544L269 649L162 545L136 576L267 707H271L399 576ZM464 0H412V71Q399 55 381 41T341 15T294 -2T241 -9Q159 -9 114 38T69 189V450H121V200Q121 121 154 81T260 40Q284 40 306 47T349 65T385 90T412 118V450H464V0Z"  />
<glyph unicode="&#xFC;" horiz-adv-x="544" d="M343 618Q343 633 353 642T377 651Q388 651 398 642T408 618Q408 602 398 593T377 583Q363 583 353 592T343 618ZM135 618Q135 633 145 642T169 651Q180 651 190 642T200 618Q200 602 190 593T169 583Q155 583 145 592T135 618ZM464 0H412V71Q399 55 381 41T341 15T294 -2T241 -9Q159 -9 114 38T69 189V450H121V200Q121 121 154 81T260 40Q284 40 306 47T349 65T385 90T412 118V450H464V0Z"  />
<glyph unicode="&#xFD;" horiz-adv-x="481" d="M226 542L194 565L302 716L342 685L226 542ZM285 0Q260 -60 239 -99T199 -160T159 -191T116 -200Q94 -200 76 -194T39 -177L56 -137Q69 -143 82 -147T109 -152Q144 -152 170 -123T226 -24L236 0L14 450H76L230 132L262 62Q267 79 273 97T287 134L408 450H467L285 0Z"  />
<glyph unicode="&#xFE;" horiz-adv-x="554" d="M79 700H131V393Q158 422 202 440T296 459Q345 459 384 442T450 395T491 324T506 232Q506 181 490 137T443 60T370 10T275 -9Q233 -9 196 0T131 29V-200H79V700ZM282 410Q234 410 194 389T131 340V81Q166 58 200 49T271 40Q312 40 345 54T401 93T438 153T451 229Q451 269 440 302T407 360T354 397T282 410Z"  />
<glyph unicode="&#xFF;" horiz-adv-x="481" d="M315 618Q315 633 325 642T349 651Q360 651 370 642T380 618Q380 602 370 593T349 583Q335 583 325 592T315 618ZM107 618Q107 633 117 642T141 651Q152 651 162 642T172 618Q172 602 162 593T141 583Q127 583 117 592T107 618ZM285 0Q260 -60 239 -99T199 -160T159 -191T116 -200Q94 -200 76 -194T39 -177L56 -137Q69 -143 82 -147T109 -152Q144 -152 170 -123T226 -24L236 0L14 450H76L230 132L262 62Q267 79 273 97T287 134L408 450H467L285 0Z"  />
<glyph unicode="&#x152;" horiz-adv-x="1045" d="M581 36Q546 15 501 3T405 -9Q327 -9 263 16T152 89T80 202T54 350Q54 425 78 490T146 604T254 681T397 709Q508 709 581 663V700H968V648H636V381H938V329H636V52H978V0H581V36ZM409 43Q461 43 503 56T581 95V603Q508 657 398 657Q334 657 282 634T192 570T133 473T112 350Q112 281 134 225T195 128T288 65T409 43Z"  />
<glyph unicode="&#x153;" horiz-adv-x="843" d="M770 55Q739 23 694 7T604 -9Q505 -9 442 45Q379 -9 283 -9Q230 -9 187 8T113 57T64 131T47 225Q47 276 64 318T112 392T187 441T283 459Q331 459 370 445T439 406Q467 431 505 445T593 459Q636 459 673 445T739 404T782 340T798 256Q798 243 797 233T794 214H424Q427 133 477 87T608 40Q653 40 691 55T753 95L770 55ZM283 40Q321 40 352 52T407 84Q387 112 377 147T366 225Q366 308 405 367Q382 387 352 398T283 410Q244 410 211 397T153 359T116 300T102 225Q102 184 115 151T153 92T210 54T283 40ZM589 410Q513 410 470 367T421 257H744Q742 329 701 369T589 410Z"  />
<glyph unicode="&#x160;" horiz-adv-x="546" d="M106 838L129 868L279 785L428 868L449 839L281 740H277L106 838ZM434 174Q434 223 407 253T340 303T253 340T166 380T99 440T72 534Q72 571 85 603T125 658T190 695T277 709Q336 709 386 690T465 638L435 597Q375 657 279 657Q210 657 170 624T130 534Q130 485 157 456T224 408T311 372T398 333T465 273T492 175Q492 133 475 99T427 41T356 4T269 -9Q238 -9 206 -2T144 18T91 49T54 92L87 130Q102 109 123 93T169 66T218 49T268 43Q300 43 330 51T383 76T420 117T434 174Z"  />
<glyph unicode="&#x161;" horiz-adv-x="418" d="M77 678L103 709L209 598L315 709L340 678L211 546H207L77 678ZM312 118Q312 146 294 162T248 189T188 209T128 234T82 274T63 340Q63 394 103 426T208 459Q256 459 292 444T349 409L327 370Q306 390 275 401T209 413Q167 413 143 392T118 341Q118 311 136 294T182 266T242 246T302 221T348 183T367 120Q367 87 354 63T319 22T267 -1T205 -9Q181 -9 157 -4T112 11T75 32T51 56L80 90Q89 78 104 68T138 52T175 41T211 37Q230 37 248 42T281 57T303 82T312 118Z"  />
<glyph unicode="&#x178;" horiz-adv-x="584" d="M372 804Q372 819 383 827T411 836Q425 836 435 828T446 804Q446 787 436 779T411 770Q395 770 384 778T372 804ZM139 804Q139 819 150 827T177 836Q191 836 202 828T213 804Q213 787 202 779T177 770Q161 770 150 778T139 804ZM318 306V0H263V306L14 700H78L293 358L509 700H570L318 306Z"  />
<glyph unicode="&#x17D;" horiz-adv-x="629" d="M143 838L166 868L316 785L465 868L486 839L318 740H314L143 838ZM60 700H579V665L116 52H589V0H40V35L501 648H60V700Z"  />
<glyph unicode="&#x17E;" horiz-adv-x="481" d="M112 678L138 709L244 598L350 709L375 678L246 546H242L112 678ZM62 450H434V416L122 49H429V0H47V34L358 401H62V450Z"  />
<glyph unicode="&#x192;" horiz-adv-x="589" d="M345 450H510V401H336L259 -33Q251 -75 240 -107T210 -162T164 -196T100 -208Q71 -208 47 -200T8 -180L24 -138Q36 -146 52 -152T89 -159Q143 -159 169 -125T207 -27L283 401H127V450H292L305 523Q323 618 361 663T475 709Q516 709 545 698T591 671L572 631Q555 644 534 652T483 660Q429 660 400 626T357 514L345 450Z"  />
<glyph unicode="&#x2C6;" horiz-adv-x="383" d="M323 576L298 544L193 649L86 545L60 576L191 707H195L323 576Z"  />
<glyph unicode="&#x2DC;" horiz-adv-x="425" d="M60 598Q89 627 114 638T161 650Q179 650 192 643T218 627T244 611T272 604Q289 604 306 613T346 642L365 615Q337 586 313 574T267 561Q250 561 237 568T212 584T186 600T155 607Q126 607 83 573L60 598Z"  />
<glyph unicode="&#x3BC;" horiz-adv-x="547" d="M467 0H415V71Q402 55 384 41T344 15T297 -2T244 -9Q166 -9 124 32V-200H72V450H124V200Q124 121 157 81T263 40Q287 40 309 47T352 65T388 90T415 118V450H467V0Z"  />
<glyph unicode="&#x2013;" horiz-adv-x="590" d="M94 293H496V247H94V293Z"  />
<glyph unicode="&#x2014;" horiz-adv-x="796" d="M94 293H702V247H94V293Z"  />
<glyph unicode="&#x2018;" horiz-adv-x="238" d="M105 526Q94 537 87 556T79 598Q79 650 101 681T153 730L177 706Q153 691 141 666T128 610Q128 590 134 576T148 553L105 526Z"  />
<glyph unicode="&#x2019;" horiz-adv-x="238" d="M133 729Q144 717 151 698T159 656Q159 604 137 573T85 524L61 549Q85 563 97 588T110 645Q110 665 104 679T90 701L133 729Z"  />
<glyph unicode="&#x201A;" horiz-adv-x="238" d="M133 64Q144 52 151 33T159 -9Q159 -61 137 -92T85 -141L61 -116Q85 -102 97 -77T110 -20Q110 0 104 14T90 36L133 64Z"  />
<glyph unicode="&#x201C;" horiz-adv-x="369" d="M105 526Q94 537 87 556T79 598Q79 650 101 681T153 730L177 706Q153 691 141 666T128 610Q128 590 134 576T148 553L105 526ZM236 526Q225 537 218 556T210 598Q210 650 232 681T284 730L308 706Q284 691 272 666T259 610Q259 590 265 576T279 553L236 526Z"  />
<glyph unicode="&#x201D;" horiz-adv-x="369" d="M133 729Q144 717 151 698T159 656Q159 604 137 573T85 524L61 549Q85 563 97 588T110 645Q110 665 104 679T90 701L133 729ZM264 729Q275 717 282 698T290 656Q290 604 268 573T216 524L192 549Q216 563 228 588T241 645Q241 665 235 679T221 701L264 729Z"  />
<glyph unicode="&#x201E;" horiz-adv-x="369" d="M133 64Q144 52 151 33T159 -9Q159 -61 137 -92T85 -141L61 -116Q85 -102 97 -77T110 -20Q110 0 104 14T90 36L133 64ZM264 64Q275 52 282 33T290 -9Q290 -61 268 -92T216 -141L192 -116Q216 -102 228 -77T241 -20Q241 0 235 14T221 36L264 64Z"  />
<glyph unicode="&#x2020;" horiz-adv-x="433" d="M40 468H192V700H241V468H393V422H241V-100H192V422H40V468Z"  />
<glyph unicode="&#x2021;" horiz-adv-x="433" d="M40 468H192V700H241V468H393V422H241V208H393V162H241V-100H192V162H40V208H192V422H40V468Z"  />
<glyph unicode="&#x2022;" horiz-adv-x="186" d="M34 262Q34 286 51 303T93 321Q117 321 134 304T152 262Q152 238 135 221T93 203Q69 203 52 220T34 262Z"  />
<glyph unicode="&#x2026;" horiz-adv-x="840" d="M82 38Q82 52 93 63T122 74Q138 74 148 63T158 38Q158 22 148 10T122 -2Q104 -2 93 10T82 38ZM382 38Q382 52 393 63T422 74Q438 74 448 63T458 38Q458 22 448 10T422 -2Q404 -2 393 10T382 38ZM682 38Q682 52 693 63T722 74Q738 74 748 63T758 38Q758 22 748 10T722 -2Q704 -2 693 10T682 38Z"  />
<glyph unicode="&#x2030;" horiz-adv-x="1264" d="M869 159Q869 195 882 225T918 276T972 309T1041 321Q1078 321 1109 309T1164 276T1200 225T1213 159Q1213 123 1200 93T1164 42T1110 8T1041 -4Q1004 -4 973 8T918 41T882 93T869 159ZM918 159Q918 132 928 110T955 72T995 48T1041 39Q1066 39 1088 47T1127 71T1154 109T1164 159Q1164 186 1154 208T1127 245T1088 269T1041 278Q1017 278 995 270T955 246T928 208T918 159ZM672 709L703 687L182 -9L151 13L672 709ZM51 542Q51 578 64 608T100 659T154 692T223 704Q260 704 291 692T346 659T382 608T395 542Q395 506 382 476T346 425T292 391T223 379Q186 379 155 391T100 424T64 476T51 542ZM100 542Q100 515 110 493T137 455T177 431T223 422Q248 422 270 430T309 454T336 492T346 542Q346 569 336 591T309 628T270 652T223 661Q199 661 177 653T137 629T110 591T100 542ZM455 159Q455 195 468 225T504 276T558 309T627 321Q664 321 695 309T750 276T786 225T799 159Q799 123 786 93T750 42T696 8T627 -4Q590 -4 559 8T504 41T468 93T455 159ZM504 159Q504 132 514 110T541 72T581 48T627 39Q652 39 674 47T713 71T740 109T750 159Q750 186 740 208T713 245T674 269T627 278Q603 278 581 270T541 246T514 208T504 159Z"  />
<glyph unicode="&#x2039;" horiz-adv-x="332" d="M51 248V252L233 461L267 431L111 250L265 69L231 37L51 248Z"  />
<glyph unicode="&#x203A;" horiz-adv-x="332" d="M101 37L66 69L221 250L65 431L99 461L281 252V248L101 37Z"  />
<glyph unicode="&#x20AC;" horiz-adv-x="589" d="M36 463H112Q127 517 156 562T226 640T320 691T435 709Q473 709 511 701T572 680L552 632Q529 643 500 650T436 657Q339 657 270 605T172 463H507L492 420H161Q155 385 155 350Q155 322 158 297H460L446 254H167Q180 205 206 166T268 100T350 58T448 43Q482 43 508 48T552 64L562 13Q553 8 540 4T510 -3T477 -7T444 -9Q379 -9 324 9T225 61T151 144T107 254H20L37 297H100Q97 322 97 350Q97 368 98 385T102 420H19L36 463Z"  />
<glyph unicode="&#x2122;" horiz-adv-x="832" d="M13 700H327V652H194V385H145V652H13V700ZM382 700H427L571 535L709 700H753V385H703V637L570 477H568L431 637V385H382V700Z"  />


</font>
</defs>
</svg>
