<?xml  version="1.0" encoding="UTF-8"?>
<!DOCTYPE svg PUBLIC "-//W3C//DTD SVG 1.0//EN" "http://www.w3.org/TR/2001/REC-SVG-20010904/DTD/svg10.dtd" >
<svg xmlns="http://www.w3.org/2000/svg" >
<metadata>
<version>1.0</version>
<id><![CDATA[Circe W01 Bold]]></id>
<vendor>Monotype Imaging Inc.</vendor>
<credits>
<name>Fonts.com WebFonts</name>
<URL>http://webfonts.fonts.com</URL>
<role>Home of the Web fonts</role>
</credits>
<license>
<URL>http://webfonts.fonts.com/Legal</URL>
</license>
<copyright></copyright>
<trademark></trademark>
<licensee>
<name></name>
</licensee>
</metadata>
<defs >
<font horiz-adv-x="544" id="ea6a34a5-caee-49cc-8162-f4ae212f3798">
<font-face font-family="" panose-1="2 11 6 2 2 2 3 2 2 3" ascent="752" descent="-248" units-per-em="1000" alphabetic="0">
</font-face>
<missing-glyph horiz-adv-x="0" />

<glyph unicode="&#xA;" />
<glyph unicode="&#xD;" />
<glyph unicode=" " horiz-adv-x="212" />
<glyph unicode="!" horiz-adv-x="310" d="M78 75Q78 88 83 101T99 125T124 142T158 149Q174 149 187 143T210 126T225 102T231 75Q231 60 226 46T211 20T188 2T158 -5Q120 -5 99 19T78 75ZM94 700H216V242H94V700Z"  />
<glyph unicode="&quot;" horiz-adv-x="432" d="M67 700H182V459H67V700ZM249 700H364V459H249V700Z"  />
<glyph unicode="#" horiz-adv-x="724" d="M372 180H219L148 -11L59 20L118 180H40V280H155L207 420H40V520H245L316 711L405 679L346 520H497L568 711L657 680L598 520H684V420H561L509 280H684V180H472L402 -11L313 21L372 180ZM256 280H409L460 420H308L256 280Z"  />
<glyph unicode="$" horiz-adv-x="596" d="M398 186Q398 220 375 242T316 283T240 318T163 361T105 424T81 518Q81 551 92 581T125 636T177 679T246 705V790H361V707Q456 692 507 636L441 544Q415 569 387 582T317 596Q263 596 237 575T211 519Q211 483 234 461T293 421T369 386T446 345T504 283T528 187Q528 149 516 118T482 61T429 19T361 -5V-100H246V-6Q218 -2 192 7T142 29T101 60T73 99L143 183Q174 143 218 124T304 104Q348 104 373 125T398 186Z"  />
<glyph unicode="%" horiz-adv-x="911" d="M675 711L740 662L236 -11L170 35L675 711ZM37 531Q37 571 51 604T92 660T155 696T234 709Q277 709 313 697T375 661T416 604T431 531Q431 491 416 458T375 402T313 365T234 352Q191 352 155 365T93 401T52 458T37 531ZM145 531Q145 491 171 468T234 445Q273 445 298 468T324 531Q324 570 298 593T234 616Q196 616 171 593T145 531ZM479 169Q479 209 493 242T534 298T597 334T676 347Q719 347 755 335T817 299T858 242T873 169Q873 129 858 96T817 40T755 3T676 -10Q633 -10 597 3T535 39T494 96T479 169ZM587 169Q587 129 613 106T676 83Q715 83 740 106T766 169Q766 208 740 231T676 254Q638 254 613 231T587 169Z"  />
<glyph unicode="&amp;" horiz-adv-x="753" d="M501 73Q486 57 467 42T423 15T367 -4T295 -11Q242 -11 199 4T124 46T77 109T60 190Q60 234 72 268T106 329T156 380T215 425Q179 442 157 475T135 559Q135 595 148 623T185 670T238 700T301 711Q334 711 364 701T417 671T453 623T467 559Q467 536 460 514T441 474T412 443T377 424L513 247Q531 282 545 332T560 450H674Q674 366 650 289T582 155L703 0H560L501 73ZM299 104Q346 104 378 120T432 165L290 359Q239 318 215 286T190 213Q190 190 198 170T221 136T256 113T299 104ZM242 559Q242 536 258 519T301 501Q327 501 343 518T360 559Q360 584 343 601T301 618Q276 618 259 602T242 559Z"  />
<glyph unicode="&apos;" horiz-adv-x="250" d="M67 700H182V459H67V700Z"  />
<glyph unicode="(" horiz-adv-x="315" d="M242 -206Q185 -157 147 -104T84 3T50 114T40 225Q40 280 50 335T84 444T147 551T243 656L314 593Q232 512 194 424T155 225Q155 170 167 118T200 19T250 -69T315 -143L242 -206Z"  />
<glyph unicode=")" horiz-adv-x="315" d="M0 -143Q35 -110 64 -70T115 18T148 118T160 225Q160 335 122 423T1 593L72 656Q129 604 168 551T231 444T265 335T275 225Q275 170 265 114T231 4T169 -104T73 -206L0 -143Z"  />
<glyph unicode="*" horiz-adv-x="540" d="M55 568Q55 597 76 619T127 641Q158 641 179 619T201 568Q201 538 180 517T127 496Q98 496 77 517T55 568ZM55 405Q55 435 76 457T127 479Q158 479 179 457T201 405Q201 376 180 355T127 334Q98 334 77 355T55 405ZM339 405Q339 435 361 457T412 479Q442 479 463 457T485 405Q485 376 464 355T412 334Q383 334 361 355T339 405ZM339 568Q339 597 361 619T412 641Q442 641 463 619T485 568Q485 538 464 517T412 496Q383 496 361 517T339 568ZM197 332Q197 362 218 384T269 406Q298 406 319 384T341 332Q341 303 320 282T269 261Q239 261 218 282T197 332ZM199 638Q199 667 220 688T272 710Q301 710 322 689T344 638Q344 607 323 586T272 565Q241 565 220 586T199 638Z"  />
<glyph unicode="+" horiz-adv-x="596" d="M66 410H243V591H351V410H530V310H351V127H243V310H66V410Z"  />
<glyph unicode="&#x2c;" horiz-adv-x="252" d="M47 64Q47 96 66 116T124 137Q165 137 188 106T212 25Q212 -39 179 -83T85 -145L54 -91Q73 -84 88 -73T115 -38Q122 -24 124 -12T124 8Q119 2 112 1T98 0Q78 0 63 18T47 64Z"  />
<glyph unicode="-" horiz-adv-x="376" d="M62 327H314V220H62V327Z"  />
<glyph unicode="." horiz-adv-x="243" d="M45 75Q45 88 50 101T66 125T91 142T125 149Q141 149 154 143T177 126T192 102T198 75Q198 60 193 46T178 20T155 2T125 -5Q87 -5 66 19T45 75Z"  />
<glyph unicode="/" horiz-adv-x="359" d="M300 711L389 678L59 -208L-30 -175L300 711Z"  />
<glyph unicode="0" horiz-adv-x="554" d="M42 350Q42 430 56 496T99 609T172 682T277 708Q337 708 381 682T454 609T497 496T511 350Q511 270 497 204T455 91T383 18T279 -8Q219 -8 174 18T100 91T57 204T42 350ZM165 350Q165 221 193 160T279 99Q339 99 364 159T389 350Q389 480 363 540T277 600Q217 600 191 539T165 350Z"  />
<glyph unicode="1" horiz-adv-x="389" d="M201 702H284V0H169V538L83 473L22 568L201 702Z"  />
<glyph unicode="2" horiz-adv-x="524" d="M37 92Q80 134 130 184T225 288T298 396T328 502Q328 544 306 568T239 593Q201 593 175 569T138 499L42 542Q56 619 112 663T252 708Q302 708 339 693T401 652T438 593T450 525Q450 476 435 429T394 340T339 260T279 192T225 140T186 107H477V0H37V92Z"  />
<glyph unicode="3" horiz-adv-x="530" d="M244 -11Q163 -11 107 21T22 107L87 191Q113 152 152 128T237 104Q294 104 322 132T350 201Q350 249 316 274T220 300H170V415H215Q236 415 255 421T290 440T314 470T323 511Q323 549 301 572T234 596Q192 596 160 578T102 521L38 602Q67 656 120 683T245 711Q290 711 327 699T390 663T431 607T446 533Q446 414 339 367V364Q372 358 397 343T439 306T464 256T473 197Q473 149 456 111T407 45T334 4T244 -11Z"  />
<glyph unicode="4" horiz-adv-x="565" d="M335 162H15V247L285 700H417L164 277H335V450H450V277H540V162H450V0H335V162Z"  />
<glyph unicode="5" horiz-adv-x="514" d="M127 700H458V585H228L208 446Q216 448 226 449T248 450Q294 450 334 435T404 390T451 320T468 227Q468 170 449 126T398 52T321 5T227 -11Q199 -11 170 -5T113 14T62 45T22 89L88 176Q111 143 150 124T230 104Q281 104 313 137T345 222Q345 275 306 310T196 346Q162 346 130 341T81 328L127 700Z"  />
<glyph unicode="6" horiz-adv-x="559" d="M45 248Q45 344 77 423T159 561T271 659T389 711L436 624Q393 611 353 589T279 534T220 461T181 368Q203 398 237 415T325 433Q365 433 400 418T463 374T505 307T521 219Q521 164 502 121T450 49T378 5T295 -11Q236 -11 190 9T112 65T62 148T45 248ZM167 247Q167 217 175 191T200 146T240 115T296 104Q320 104 339 113T371 136T392 170T399 211Q399 259 371 292T286 326Q262 326 243 319T210 301T185 275T167 247Z"  />
<glyph unicode="7" horiz-adv-x="497" d="M25 700H465V623L217 0H91L327 585H25V700Z"  />
<glyph unicode="8" horiz-adv-x="600" d="M310 417Q330 417 346 424T375 444T393 473T400 507Q400 550 372 573T298 596Q253 596 226 571T199 507Q199 489 205 473T224 445T253 425T291 417H310ZM293 302Q271 302 251 295T215 276T190 245T180 203Q180 161 211 133T299 104Q362 104 391 132T420 203Q419 252 388 277T310 302H293ZM300 -11Q249 -11 205 2T128 40T76 100T57 181Q57 249 91 295T177 358V361Q136 378 107 421T77 527Q77 568 94 602T142 660T212 697T299 711Q345 711 386 698T457 660T505 602T523 527Q523 476 495 430T415 362V359Q441 354 464 340T504 304T532 254T542 191Q542 143 524 105T472 42T395 3T300 -11Z"  />
<glyph unicode="9" horiz-adv-x="555" d="M510 444Q510 343 482 263T406 125T292 33T151 -11L113 80Q222 102 287 164T374 324Q352 294 319 278T241 261Q197 261 159 277T92 323T47 391T30 478Q30 533 50 576T104 650T178 695T262 711Q320 711 366 691T444 636T493 552T510 444ZM388 445Q388 475 380 502T357 550T317 583T262 596Q238 596 218 587T183 562T160 527T152 486Q152 463 160 442T183 405T219 379T269 369Q316 369 345 392T388 445Z"  />
<glyph unicode=":" horiz-adv-x="318" d="M82 75Q82 88 87 101T103 125T128 142T162 149Q178 149 191 143T214 126T229 102T235 75Q235 60 230 46T215 20T192 2T162 -5Q124 -5 103 19T82 75ZM82 387Q82 400 87 413T103 437T128 454T162 461Q178 461 191 455T214 438T229 414T235 387Q235 372 230 358T215 332T192 314T162 307Q124 307 103 331T82 387Z"  />
<glyph unicode=";" horiz-adv-x="324" d="M83 64Q83 96 102 116T160 137Q201 137 224 106T248 25Q248 -39 215 -83T121 -145L90 -91Q109 -84 124 -73T151 -38Q158 -24 160 -12T160 8Q155 2 148 1T134 0Q114 0 99 18T83 64ZM82 387Q82 400 87 413T103 437T128 454T162 461Q178 461 191 455T214 438T229 414T235 387Q235 372 230 358T215 332T192 314T162 307Q124 307 103 331T82 387Z"  />
<glyph unicode="&lt;" horiz-adv-x="596" d="M49 337V386L513 655V531L207 362L513 191V66L49 337Z"  />
<glyph unicode="=" horiz-adv-x="596" d="M66 315H530V215H66V315ZM66 505H530V405H66V505Z"  />
<glyph unicode="&gt;" horiz-adv-x="596" d="M82 66V191L389 362L82 531V655L547 386V337L82 66Z"  />
<glyph unicode="?" horiz-adv-x="473" d="M140 75Q140 88 145 101T161 125T186 142T219 149Q235 149 249 143T272 126T287 102T293 75Q293 44 273 20T219 -5Q182 -5 161 19T140 75ZM325 510Q325 528 318 543T299 570T269 589T231 596Q189 596 161 580T108 532L40 609Q67 653 118 682T238 711Q288 711 327 697T393 659T434 603T448 535Q448 486 433 452T397 394T350 351T305 313T273 272T267 218L162 217Q155 261 164 290T191 341T232 380T276 414T311 454T325 510Z"  />
<glyph unicode="@" horiz-adv-x="996" d="M599 36Q576 15 545 2T475 -11Q424 -11 384 6T314 54T270 128T254 225Q254 274 273 317T326 392T407 442T512 461Q570 461 624 446T714 407V107H734Q776 107 803 151T831 273Q831 331 809 383T745 474T643 535T508 558Q437 558 375 535T266 469T192 365T165 225Q165 152 192 91T265 -14T374 -83T508 -108Q565 -108 616 -96L621 -203Q594 -209 566 -212T508 -216Q411 -216 329 -183T186 -92T91 48T57 225Q57 317 91 397T185 537T328 631T508 665Q599 665 678 637T814 558T905 435T938 273Q938 222 924 174T882 87T811 26T714 0H599V36ZM496 96Q527 96 554 110T599 143V331Q579 341 557 347T511 353Q478 353 453 342T411 313T386 271T377 220Q377 160 410 128T496 96Z"  />
<glyph unicode="A" horiz-adv-x="715" d="M303 702H411L707 0H576L503 179H204L131 0H7L303 702ZM251 294H456L354 543L251 294Z"  />
<glyph unicode="B" horiz-adv-x="617" d="M97 698Q112 699 135 699T186 701T243 702T299 703Q362 703 405 690T476 653T516 598T529 530Q529 470 502 431T429 371V369Q481 356 516 316T552 206Q552 152 532 113T478 47T395 9T292 -4Q268 -4 241 -4T186 -3T136 -1T97 1V698ZM220 301V116Q233 114 254 113T301 111Q364 111 396 136T429 212Q429 257 397 279T307 301H220ZM297 588Q253 588 220 585V408H303Q346 408 376 430T407 501Q407 544 377 566T297 588Z"  />
<glyph unicode="C" horiz-adv-x="655" d="M630 68Q613 50 589 36T536 11T473 -5T406 -11Q326 -11 260 14T146 87T72 201T45 350Q45 425 68 491T137 606T249 683T403 711Q472 711 526 692T616 640L561 549Q529 570 493 583T403 596Q354 596 313 579T241 530T193 453T175 350Q175 295 192 250T242 173T318 122T417 104Q462 104 504 118T583 160L630 68Z"  />
<glyph unicode="D" horiz-adv-x="741" d="M97 700H110Q126 700 151 700T203 701T257 702T303 703Q408 703 482 675T604 600T674 489T696 357Q696 283 671 218T596 104T470 27T295 -2Q279 -2 258 -2T212 -1T161 -1T111 0H97V700ZM301 588Q279 588 260 588T220 585V115Q246 113 266 113T299 113Q362 113 412 130T496 179T548 256T566 357Q566 410 548 452T496 525T413 571T301 588Z"  />
<glyph unicode="E" horiz-adv-x="575" d="M97 700H502V585H220V411H472V296H220V115H512V0H97V700Z"  />
<glyph unicode="F" horiz-adv-x="537" d="M97 700H497V585H220V387H467V272H220V0H97V700Z"  />
<glyph unicode="G" horiz-adv-x="727" d="M388 377H672V87Q649 64 618 46T551 15T479 -4T410 -11Q324 -11 257 14T142 87T70 201T45 350Q45 425 69 491T139 606T249 683T394 711Q469 711 522 693T619 640L567 542Q541 567 498 581T409 596Q358 596 316 580T242 532T193 454T175 350Q175 294 192 249T240 171T315 122T412 104Q432 104 453 108T495 118T531 134T557 152V262H388V377Z"  />
<glyph unicode="H" horiz-adv-x="759" d="M540 299H220V0H97V700H220V414H540V700H662V0H540V299Z"  />
<glyph unicode="I" horiz-adv-x="347" d="M112 700H235V0H112V700Z"  />
<glyph unicode="J" horiz-adv-x="390" d="M293 165Q293 80 252 35T124 -11Q84 -11 52 2T5 32L45 126Q57 117 73 111T107 104Q141 104 155 126T170 186V700H293V165Z"  />
<glyph unicode="K" horiz-adv-x="672" d="M97 700H220V368L496 700H644L356 374L662 0H506L220 361V0H97V700Z"  />
<glyph unicode="L" horiz-adv-x="547" d="M97 700H220V115H535V0H97V700Z"  />
<glyph unicode="M" horiz-adv-x="901" d="M97 700H221L460 373L688 700H804V0H682V506L461 195H443L220 503V0H97V700Z"  />
<glyph unicode="N" horiz-adv-x="792" d="M597 0L212 485V0H97V700H195L580 213V700H695V0H597Z"  />
<glyph unicode="O" horiz-adv-x="819" d="M45 350Q45 426 71 492T146 606T261 683T409 711Q487 711 554 685T669 612T746 499T774 350Q774 271 746 205T670 91T554 16T409 -11Q331 -11 265 14T149 87T73 201T45 350ZM175 350Q175 297 193 252T242 174T317 123T409 104Q464 104 507 123T581 175T628 253T644 350Q644 404 626 449T576 527T501 578T409 596Q359 596 316 578T242 528T193 450T175 350Z"  />
<glyph unicode="P" horiz-adv-x="612" d="M97 0V700Q112 700 138 700T193 701T250 701T296 702Q373 702 425 683T508 633T553 561T567 477Q567 432 551 391T502 319T422 269T311 250Q295 250 269 250T220 253V0H97ZM308 587Q289 587 267 587T220 585V370Q242 368 264 367T307 365Q334 365 358 371T399 392T427 427T437 478Q437 533 404 560T308 587Z"  />
<glyph unicode="Q" horiz-adv-x="819" d="M45 350Q45 426 71 492T146 606T261 683T409 711Q487 711 554 685T669 612T746 499T774 350Q774 275 749 212T678 100L764 0H621L592 33Q512 -11 409 -11Q331 -11 265 14T149 87T73 201T45 350ZM175 350Q175 297 193 252T242 174T317 123T409 104Q465 104 514 126L455 195L535 267L597 194Q620 226 632 265T644 350Q644 404 626 449T576 527T501 578T409 596Q359 596 316 578T242 528T193 450T175 350Z"  />
<glyph unicode="R" horiz-adv-x="658" d="M97 0V700Q112 700 144 700T210 701T273 701T310 702Q382 702 430 686T508 640T551 571T564 486Q564 441 551 407T518 349T475 309T429 286L648 0H499L306 262H220V0H97ZM304 587Q287 587 266 587T220 585V377H300Q327 377 351 383T393 403T423 437T434 485Q434 506 428 524T406 557T366 579T304 587Z"  />
<glyph unicode="S" horiz-adv-x="553" d="M378 186Q378 220 355 242T296 283T220 318T143 361T85 424T61 518Q61 557 76 592T119 654T187 695T279 711Q344 711 395 691T479 636L413 544Q387 569 359 582T289 596Q243 596 217 575T191 519Q191 483 214 461T273 421T349 386T426 345T484 283T508 187Q508 143 490 107T441 44T366 4T274 -11Q240 -11 205 -4T139 17T83 51T45 99L115 183Q146 143 190 124T276 104Q320 104 349 125T378 186Z"  />
<glyph unicode="T" horiz-adv-x="597" d="M10 700H587V585H360V0H237V585H10V700Z"  />
<glyph unicode="U" horiz-adv-x="751" d="M663 290Q663 210 640 153T579 60T491 6T385 -11Q320 -11 265 8T171 66T109 162T87 297V700H210V323Q210 274 220 234T252 165T307 120T385 104Q465 104 503 158T541 315V700H663V290Z"  />
<glyph unicode="V" horiz-adv-x="656" d="M378 -2H285L-3 700H128L336 181L535 700H658L378 -2Z"  />
<glyph unicode="W" horiz-adv-x="985" d="M780 0H665L496 506L330 0H214L5 700H143L284 201L440 700H562L722 200L862 700H980L780 0Z"  />
<glyph unicode="X" horiz-adv-x="669" d="M414 357L659 0H515L334 263L154 0H10L255 357L21 700H165L337 447L506 700H650L414 357Z"  />
<glyph unicode="Y" horiz-adv-x="629" d="M375 292V0H252V292L5 700H145L319 407L491 700H624L375 292Z"  />
<glyph unicode="Z" horiz-adv-x="642" d="M60 700H592V615L204 115H602V0H40V84L427 585H60V700Z"  />
<glyph unicode="[" horiz-adv-x="350" d="M60 650H335V542H175V-93H335V-200H60V650Z"  />
<glyph unicode="\" horiz-adv-x="359" d="M389 -175L299 -208L-30 678L58 711L389 -175Z"  />
<glyph unicode="]" horiz-adv-x="350" d="M290 -200H15V-93H175V542H15V650H290V-200Z"  />
<glyph unicode="^" horiz-adv-x="507" d="M215 708H294L477 450H352L254 593L154 450H30L215 708Z"  />
<glyph unicode="_" horiz-adv-x="344" d="M0 -85H344V-200H0V-85Z"  />
<glyph unicode="`" horiz-adv-x="315" d="M60 660L151 728L255 565L187 517L60 660Z"  />
<glyph unicode="a" horiz-adv-x="463" d="M70 418Q99 435 141 448T229 461Q279 461 313 449T369 412T399 354T409 274V0H309V52Q291 26 257 10T176 -6Q114 -6 75 30T35 132Q35 169 48 196T83 242T135 269T199 278Q229 278 256 270T301 249Q303 306 286 335T217 365Q178 365 151 355T99 334L70 418ZM214 91Q250 91 270 104T301 132V178Q272 200 222 200Q193 200 172 187T150 144Q150 118 168 105T214 91Z"  />
<glyph unicode="b" horiz-adv-x="548" d="M64 700H179V422Q200 439 231 450T298 461Q348 461 388 444T455 397T497 324T512 232Q512 176 494 132T443 55T362 6T255 -11Q199 -11 147 4T64 39V700ZM271 353Q241 353 217 340T179 310V119Q215 96 261 96Q315 96 352 129T389 224Q389 289 355 321T271 353Z"  />
<glyph unicode="c" horiz-adv-x="487" d="M459 67Q430 29 383 9T280 -11Q225 -11 180 6T103 54T54 128T36 225Q36 274 53 317T101 392T175 442T269 461Q325 461 371 447T450 400L396 309Q370 334 343 343T284 353Q260 353 238 344T198 319T170 279T159 225Q159 195 169 171T198 131T239 105T289 96Q326 96 354 111T405 151L459 67Z"  />
<glyph unicode="d" horiz-adv-x="556" d="M377 47Q354 23 323 8T248 -8Q200 -8 161 8T94 55T51 127T36 220Q36 273 54 317T105 394T183 443T283 461Q313 461 335 456T377 439V700H492V0H377V47ZM272 99Q304 99 330 112T377 145V326Q333 353 288 353Q262 353 239 345T198 320T170 279T159 224Q159 194 168 171T192 132T228 108T272 99Z"  />
<glyph unicode="e" horiz-adv-x="516" d="M450 45Q416 16 371 3T278 -11Q224 -11 179 6T103 54T54 128T36 225Q36 274 52 317T99 392T174 442T274 461Q317 461 356 446T424 404T470 338T487 252Q487 231 486 217T480 190H155Q163 139 199 112T290 85Q332 85 364 97T417 126L450 45ZM269 365Q217 365 189 339T151 267H372Q373 309 346 337T269 365Z"  />
<glyph unicode="f" horiz-adv-x="325" d="M69 523Q69 617 111 664T229 711Q270 711 304 699T355 669L316 581Q305 592 288 597T250 603Q221 603 203 582T184 514V450H306V342H184V0H69V523Z"  />
<glyph unicode="g" horiz-adv-x="499" d="M5 -61Q5 -4 45 30T151 78Q143 92 143 109Q143 128 153 141Q102 161 74 201T46 292Q46 326 59 356T97 410T157 447T238 461Q272 461 301 453T353 429L489 459L493 367L418 350Q429 322 429 292Q429 258 416 228T377 176T317 140T238 126H230Q228 121 228 117T228 109Q228 96 234 86H239Q288 86 331 77T405 50T455 5T473 -61Q473 -99 455 -126T406 -172T331 -199T239 -208Q190 -208 147 -200T73 -173T23 -128T5 -61ZM112 -61Q112 -87 146 -101T239 -116Q298 -116 331 -102T365 -61Q365 -36 334 -21T239 -6Q177 -6 145 -21T112 -61ZM154 292Q154 260 176 240T238 219Q275 219 298 238T322 292Q322 324 301 346T238 368Q199 368 177 346T154 292Z"  />
<glyph unicode="h" horiz-adv-x="546" d="M64 700H179V409Q201 430 235 444T308 458Q349 458 383 447T441 413T479 352T493 261V0H378V246Q378 297 352 323T278 350Q220 350 179 309V0H64V700Z"  />
<glyph unicode="i" horiz-adv-x="277" d="M69 612Q69 643 90 661T141 679Q166 679 186 661T207 612Q207 577 187 559T141 540Q112 540 91 558T69 612ZM81 450H196V0H81V450Z"  />
<glyph unicode="j" horiz-adv-x="284" d="M76 612Q76 643 97 661T148 679Q173 679 193 661T214 612Q214 577 194 559T148 540Q119 540 98 558T76 612ZM202 -33Q202 -116 169 -162T61 -208Q25 -208 -5 -199T-49 -176L-18 -85Q-6 -93 6 -97T33 -101Q63 -101 75 -80T87 -23V450H202V-33Z"  />
<glyph unicode="k" horiz-adv-x="514" d="M64 700H179V0H64V700ZM318 244L507 0H359L181 235L342 450H487L318 244Z"  />
<glyph unicode="l" horiz-adv-x="299" d="M64 700H179V171Q179 133 188 116T218 98Q232 98 243 103T265 116L289 28Q269 12 240 1T170 -10Q118 -10 91 22T64 124V700Z"  />
<glyph unicode="m" horiz-adv-x="800" d="M747 0H632V264Q632 306 614 328T555 350Q523 350 499 336T462 298Q462 293 462 283T463 265V0H348V272Q348 307 329 328T273 350Q242 350 218 338T179 302V0H64V450H179V400Q203 427 240 442T320 458Q372 458 405 438T451 386Q475 418 512 438T603 458Q634 458 660 450T705 422T736 372T747 294V0Z"  />
<glyph unicode="n" horiz-adv-x="546" d="M64 450H179V405Q199 427 233 442T308 458Q349 458 383 448T441 414T479 354T493 264V0H378V244Q378 298 352 324T277 350Q248 350 224 339T179 307V0H64V450Z"  />
<glyph unicode="o" horiz-adv-x="562" d="M36 225Q36 276 53 319T103 393T180 443T281 461Q337 461 382 443T459 394T508 319T526 225Q526 174 509 131T459 57T382 7T281 -11Q225 -11 180 7T103 56T54 131T36 225ZM159 225Q159 168 193 132T281 96Q335 96 369 131T404 225Q404 253 395 277T369 317T330 343T281 353Q255 353 233 344T195 319T169 278T159 225Z"  />
<glyph unicode="p" horiz-adv-x="558" d="M64 450H179V407Q200 430 237 445T318 461Q364 461 402 444T466 397T507 324T522 232Q522 181 505 137T457 59T382 8T284 -11Q254 -11 227 -6T179 11V-200H64V450ZM282 353Q253 353 227 340T179 304V122Q202 107 223 102T274 96Q304 96 327 106T367 134T391 176T400 229Q400 283 370 318T282 353Z"  />
<glyph unicode="q" horiz-adv-x="559" d="M381 23Q355 6 326 -2T270 -11Q216 -11 173 6T99 54T53 128T36 225Q36 274 55 317T108 392T189 442T294 461Q352 461 406 446T496 407V-200H381V23ZM285 96Q312 96 338 107T381 137V331Q361 341 339 347T293 353Q260 353 235 342T193 313T168 271T159 220Q159 166 193 131T285 96Z"  />
<glyph unicode="r" horiz-adv-x="354" d="M64 450H179V406Q195 428 218 443T282 458Q310 458 325 454T352 441L311 333Q294 343 283 346T253 350Q223 350 206 336T179 302V0H64V450Z"  />
<glyph unicode="s" horiz-adv-x="444" d="M292 127Q292 145 274 155T229 174T171 191T112 216T67 257T49 324Q49 357 61 382T96 425T149 452T214 461Q280 461 322 443T385 404L342 322Q322 338 289 351T220 365Q194 365 179 353T164 326Q164 307 182 297T227 278T285 261T344 237T389 198T407 133Q407 66 358 28T225 -11Q194 -11 164 -4T108 15T64 40T37 66L93 141Q103 130 120 120T156 102T196 90T233 85Q258 85 275 95T292 127Z"  />
<glyph unicode="t" horiz-adv-x="360" d="M54 575H169V450H314V342H169V178Q169 141 181 119T223 97Q246 97 263 105T292 123L327 34Q307 17 273 4T194 -10Q117 -10 86 37T54 171V575Z"  />
<glyph unicode="u" horiz-adv-x="535" d="M471 0H356V55Q336 30 301 10T212 -11Q179 -11 150 0T100 33T67 91T54 175V450H169V199Q169 154 188 125T255 96Q284 96 310 110T356 151V450H471V0Z"  />
<glyph unicode="v" horiz-adv-x="481" d="M289 -2H204L-3 450H134L217 257Q226 237 235 209T251 155Q257 181 266 209T284 259L362 450H483L289 -2Z"  />
<glyph unicode="w" horiz-adv-x="721" d="M574 -2H471L375 248Q370 261 367 274T360 301Q354 272 344 246L249 -2H151L5 450H128L200 205Q205 188 207 175T213 145Q217 159 220 172T230 205L314 450H416L503 206Q508 191 512 176T520 144Q523 160 526 176T534 209L600 450H716L574 -2Z"  />
<glyph unicode="x" horiz-adv-x="522" d="M344 235L504 0H364L259 162L150 0H17L177 229L27 450H168L263 301L361 450H494L344 235Z"  />
<glyph unicode="y" horiz-adv-x="503" d="M321 0Q296 -60 275 -99T234 -160T193 -191T147 -200Q116 -200 93 -190T50 -165L87 -78Q96 -83 108 -88T134 -94Q175 -94 203 -24L213 0L5 450H143L248 204Q255 187 260 172T270 139Q273 155 276 171T286 205L367 450H498L321 0Z"  />
<glyph unicode="z" horiz-adv-x="490" d="M57 450H447V367L203 107H442V0H42V83L286 342H57V450Z"  />
<glyph unicode="{" horiz-adv-x="362" d="M110 77Q110 107 102 126T80 156T51 171T20 175V275Q33 275 49 279T78 296T101 330T110 385V497Q110 574 144 612T267 650H342V542H296Q256 542 241 525T225 457V340Q225 291 205 261T150 226Q182 222 203 196T225 112V-7Q225 -53 242 -73T302 -93H342V-200H260Q188 -200 149 -167T110 -54V77Z"  />
<glyph unicode="|" horiz-adv-x="340" d="M112 700H227V0H112V700Z"  />
<glyph unicode="}" horiz-adv-x="362" d="M252 -54Q252 -134 213 -167T103 -200H20V-93H60Q102 -93 119 -73T137 -7V112Q137 170 158 196T212 226Q178 231 158 261T137 340V457Q137 507 122 524T66 542H20V650H95Q139 650 169 641T217 612T244 564T252 497V385Q252 352 261 331T283 297T312 280T342 275V175Q327 175 311 171T282 156T261 126T252 77V-54Z"  />
<glyph unicode="~" horiz-adv-x="596" d="M42 362Q74 398 112 420T188 442Q219 442 248 432T306 408T363 385T421 374Q444 374 468 387T509 419L554 340Q525 313 490 294T420 274Q390 274 361 284T304 308T249 331T195 342Q163 342 137 325T92 288L42 362Z"  />
<glyph unicode="&#xA0;" horiz-adv-x="212" />
<glyph unicode="&#xA1;" horiz-adv-x="310" d="M232 381Q232 368 227 355T211 331T186 314T152 307Q136 307 123 313T100 330T85 354T79 381Q79 396 84 410T99 436T122 454T152 461Q190 461 211 437T232 381ZM216 -244H94V214H216V-244Z"  />
<glyph unicode="&#xA2;" horiz-adv-x="596" d="M510 67Q487 37 453 19T378 -7V-120H263V-3Q182 15 135 75T87 225Q87 267 99 304T135 372T190 424T263 454V564H378V457Q415 451 446 437T501 400L447 309Q421 334 394 343T335 353Q311 353 289 344T249 319T221 279T210 225Q210 195 220 171T249 131T290 105T340 96Q377 96 405 111T456 151L510 67Z"  />
<glyph unicode="&#xA3;" horiz-adv-x="596" d="M68 357H148Q140 375 131 392T113 428T100 468T95 515Q95 556 111 591T158 652T229 693T321 708Q387 708 435 687T517 629L454 539Q424 567 394 580T326 593Q281 593 253 568T225 506Q225 483 231 465T246 429T265 395T282 357H432V265H292Q287 232 272 206T237 157Q259 152 281 144T325 129T369 116T413 111Q441 111 466 119T521 156L572 66Q540 33 498 15T411 -4Q382 -4 354 4T297 22T241 40T183 48Q154 48 128 33T77 -7L31 85Q72 133 125 152Q145 178 158 205T172 265H68V357Z"  />
<glyph unicode="&#xA4;" horiz-adv-x="596" d="M68 342Q68 412 103 467L26 546L96 616L174 537Q200 552 231 560T298 569Q334 569 364 561T421 537L502 617L572 547L493 468Q510 440 519 408T529 342Q529 309 520 277T494 218L571 142L500 71L423 148Q370 115 298 115Q226 115 173 148L94 68L23 139L102 218Q85 246 77 277T68 342ZM175 342Q175 316 183 293T207 253T246 225T298 215Q328 215 351 225T389 252T413 293T421 342Q421 399 389 434T298 469Q241 469 208 434T175 342Z"  />
<glyph unicode="&#xA5;" horiz-adv-x="596" d="M66 385H184L11 700H151L302 407L452 700H585L409 385H530V292H358V210H530V117H358V0H236V117H66V210H236V292H66V385Z"  />
<glyph unicode="&#xA6;" horiz-adv-x="340" d="M227 260V0H112V260H227ZM112 440V700H227V440H112Z"  />
<glyph unicode="&#xA7;" horiz-adv-x="524" d="M57 249Q57 309 88 355T179 422Q148 442 128 476T107 557Q107 585 118 611T150 657T204 688T278 700Q327 700 363 680T422 630L353 553Q339 569 324 580T282 592Q258 592 240 575T222 534Q222 500 242 476T294 433Q336 428 368 412T422 372T455 316T466 249Q466 189 436 143T345 76Q375 56 394 22T414 -57Q414 -86 403 -112T371 -157T317 -188T243 -200Q195 -200 159 -180T100 -130L169 -53Q183 -69 198 -81T239 -93Q264 -93 281 -76T299 -34Q299 1 280 23T228 65Q186 70 155 86T101 126T68 182T57 249ZM172 249Q172 234 178 219T195 191T223 171T262 163Q285 163 302 170T330 190T346 217T351 249Q351 265 346 280T329 308T301 327T262 335Q240 335 224 328T196 308T178 281T172 249Z"  />
<glyph unicode="&#xA8;" horiz-adv-x="443" d="M259 599Q259 629 278 646T323 663Q346 663 364 646T383 599Q383 567 365 550T323 532Q297 532 278 549T259 599ZM60 599Q60 629 79 646T125 663Q148 663 166 646T185 599Q185 567 167 550T125 532Q99 532 80 549T60 599Z"  />
<glyph unicode="&#xA9;" horiz-adv-x="1018" d="M695 67Q666 29 619 9T516 -11Q461 -11 416 6T339 54T290 128T272 225Q272 274 289 317T337 392T411 442T505 461Q561 461 607 447T686 400L632 309Q606 334 579 343T520 353Q496 353 474 344T434 319T406 279T395 225Q395 195 405 171T434 131T475 105T525 96Q562 96 590 111T641 151L695 67ZM172 220Q172 151 197 90T268 -17T375 -89T510 -116Q582 -116 643 -90T750 -17T820 90T845 220Q845 290 820 351T750 458T644 530T510 557Q437 557 375 531T268 458T198 351T172 220ZM72 221Q72 312 105 392T198 530T336 623T509 657Q602 657 681 623T819 531T911 392T945 221Q945 129 912 50T820 -89T682 -182T509 -216Q416 -216 337 -182T198 -89T106 49T72 221Z"  />
<glyph unicode="&#xAA;" horiz-adv-x="445" d="M81 620Q104 634 138 646T227 658Q256 658 283 650T332 626T367 583T380 522V307H280V350Q262 329 235 316T156 302Q130 302 110 310T75 334T53 369T45 411Q45 468 79 497T174 527Q236 527 280 506Q278 542 259 557T207 573Q178 573 157 567T121 553L81 620ZM207 387Q227 387 245 394T280 412V443Q264 449 246 453T209 457Q180 457 166 447T152 422Q152 407 165 397T207 387Z"  />
<glyph unicode="&#xAB;" horiz-adv-x="561" d="M37 248V252L234 478L309 411L170 250L308 87L230 22L37 248ZM247 248V252L444 478L519 411L380 250L518 87L440 22L247 248Z"  />
<glyph unicode="&#xAC;" horiz-adv-x="596" d="M51 410H545V179H445V310H51V410Z"  />
<glyph unicode="&#xAD;" horiz-adv-x="376" d="M62 327H314V220H62V327Z"  />
<glyph unicode="&#xAE;" horiz-adv-x="663" d="M45 497Q45 556 67 608T129 698T220 759T333 782Q392 782 444 760T534 699T595 608T618 497Q618 437 596 385T535 293T444 232T333 209Q273 209 221 231T129 293T68 384T45 497ZM137 496Q137 456 152 421T194 359T255 318T331 302Q371 302 406 317T468 359T509 420T525 496Q525 536 510 571T468 633T407 674T331 690Q291 690 256 675T194 633T153 572T137 496ZM221 360V640H338Q398 640 425 615T452 547Q452 517 436 496T399 466L457 360H368L325 448H298V360H221ZM298 585V503H327Q350 503 362 516T374 546Q374 564 363 574T327 585H298Z"  />
<glyph unicode="&#xAF;" horiz-adv-x="399" d="M60 642H339V550H60V642Z"  />
<glyph unicode="&#xB0;" horiz-adv-x="425" d="M45 568Q45 604 58 635T93 688T146 724T211 737Q246 737 276 725T330 692T366 640T380 574Q380 538 367 507T330 453T277 416T211 402Q177 402 147 414T94 449T58 502T45 568ZM145 570Q145 542 165 522T212 502Q240 502 260 522T280 570Q280 598 260 617T212 637Q185 637 165 618T145 570Z"  />
<glyph unicode="&#xB1;" horiz-adv-x="596" d="M66 255H530V155H66V255ZM66 502H243V683H351V502H530V402H351V299H243V402H66V502Z"  />
<glyph unicode="&#xB2;" horiz-adv-x="363" d="M30 423Q59 440 91 459T150 499T194 540T212 580Q212 598 201 608T169 619Q148 619 133 603T115 569L32 598Q40 647 78 675T179 704Q248 704 283 673T319 593Q319 560 301 534T258 489T205 456T160 435H335V350H30V423Z"  />
<glyph unicode="&#xB3;" horiz-adv-x="361" d="M175 344Q124 344 81 362T17 418L75 471Q85 453 108 439T158 425Q190 425 204 435T219 460Q219 473 206 482T160 492H130V562H158Q181 562 193 571T206 596Q206 609 195 617T161 625Q131 625 110 613T76 584L28 639Q45 665 81 685T181 706Q239 706 276 683T314 617Q314 585 293 564T237 535V534Q282 531 304 507T326 451Q326 426 314 406T281 373T233 352T175 344Z"  />
<glyph unicode="&#xB4;" horiz-adv-x="315" d="M129 517L60 565L165 730L255 662L129 517Z"  />
<glyph unicode="&#xB5;" horiz-adv-x="542" d="M478 0H363V55Q343 30 308 10T219 -11Q198 -11 176 -6V-200H61V450H176V190Q178 148 197 122T262 96Q291 96 317 110T363 151V450H478V0Z"  />
<glyph unicode="&#xB6;" horiz-adv-x="491" d="M37 481Q37 532 54 572T100 641T170 685T259 700H466V592H372V8Q372 -208 185 -208Q145 -208 110 -194T55 -159L100 -76Q112 -85 132 -93T177 -101Q201 -101 216 -92T241 -68T253 -33T257 12V263Q214 263 175 278T105 321T56 389T37 481Z"  />
<glyph unicode="&#xB7;" horiz-adv-x="212" d="M29 302Q29 315 34 328T50 352T75 369T109 376Q125 376 138 370T161 353T176 329T182 302Q182 287 177 273T162 247T139 229T109 222Q71 222 50 246T29 302Z"  />
<glyph unicode="&#xB8;" horiz-adv-x="378" d="M94 -112Q108 -123 126 -130T164 -138Q181 -138 192 -132T203 -113Q203 -99 194 -92T162 -85H156V0H214V-35Q318 -41 318 -120Q318 -158 284 -183T180 -208Q132 -208 105 -194T60 -166L94 -112Z"  />
<glyph unicode="&#xB9;" horiz-adv-x="269" d="M129 699H201V350H101V584L53 556L16 624L129 699Z"  />
<glyph unicode="&#xBA;" horiz-adv-x="499" d="M52 480Q52 520 66 553T107 609T170 645T249 658Q292 658 328 646T390 610T431 553T446 480Q446 440 431 407T390 351T328 314T249 301Q206 301 170 314T108 350T67 407T52 480ZM160 480Q160 440 186 417T249 394Q288 394 313 417T339 480Q339 519 313 542T249 565Q211 565 186 542T160 480Z"  />
<glyph unicode="&#xBB;" horiz-adv-x="561" d="M121 22L43 87L181 250L42 411L117 478L314 252V248L121 22ZM331 22L253 87L391 250L252 411L327 478L524 252V248L331 22Z"  />
<glyph unicode="&#xBC;" horiz-adv-x="693" d="M525 70H332V137L487 350H582L434 148H525V225H617V148H673V70H617V0H525V70ZM550 711L615 662L111 -11L45 35L550 711ZM134 699H206V350H106V584L58 556L21 624L134 699Z"  />
<glyph unicode="&#xBD;" horiz-adv-x="710" d="M365 73Q394 90 426 109T485 149T529 190T547 230Q547 248 536 258T504 269Q483 269 468 253T450 219L367 248Q375 297 413 325T514 354Q583 354 618 323T654 243Q654 210 636 184T593 139T540 106T495 85H670V0H365V73ZM540 711L605 662L101 -11L35 35L540 711ZM134 699H206V350H106V584L58 556L21 624L134 699Z"  />
<glyph unicode="&#xBE;" horiz-adv-x="753" d="M182 344Q131 344 88 362T24 418L82 471Q92 453 115 439T165 425Q197 425 211 435T226 460Q226 473 213 482T167 492H137V562H165Q188 562 200 571T213 596Q213 609 202 617T168 625Q138 625 117 613T83 584L35 639Q52 665 88 685T188 706Q246 706 283 683T321 617Q321 585 300 564T244 535V534Q289 531 311 507T333 451Q333 426 321 406T288 373T240 352T182 344ZM585 70H392V137L547 350H642L494 148H585V225H677V148H733V70H677V0H585V70ZM620 711L685 662L181 -11L115 35L620 711Z"  />
<glyph unicode="&#xBF;" horiz-adv-x="473" d="M333 381Q333 368 328 355T312 331T287 314T254 307Q237 307 224 313T201 330T186 354T180 381Q180 412 200 436T254 461Q291 461 312 437T333 381ZM148 -54Q148 -72 155 -87T174 -114T204 -133T242 -140Q284 -140 312 -124T365 -76L433 -153Q406 -197 355 -226T235 -255Q185 -255 146 -241T80 -203T39 -147T25 -79Q25 -30 40 4T76 62T123 105T168 143T200 184T206 238L311 239Q318 195 309 166T282 115T241 76T197 42T162 2T148 -54Z"  />
<glyph unicode="&#xC0;" horiz-adv-x="715" d="M185 812L228 911L442 800L410 731L185 812ZM251 294H456L354 543L251 294ZM303 702H411L707 0H576L503 179H204L131 0H7L303 702Z"  />
<glyph unicode="&#xC1;" horiz-adv-x="715" d="M304 731L272 800L486 911L529 812L304 731ZM251 294H456L354 543L251 294ZM303 702H411L707 0H576L503 179H204L131 0H7L303 702Z"  />
<glyph unicode="&#xC2;" horiz-adv-x="715" d="M353 904H357L536 793L491 728L355 799L219 728L178 792L353 904ZM251 294H456L354 543L251 294ZM303 702H411L707 0H576L503 179H204L131 0H7L303 702Z"  />
<glyph unicode="&#xC3;" horiz-adv-x="715" d="M176 826Q198 851 228 865T288 880Q310 880 328 875T362 863T394 851T431 845Q448 845 468 851T507 877L538 804Q497 745 423 745Q404 745 387 750T353 762T318 774T278 780Q245 780 212 753L176 826ZM251 294H456L354 543L251 294ZM303 702H411L707 0H576L503 179H204L131 0H7L303 702Z"  />
<glyph unicode="&#xC4;" horiz-adv-x="715" d="M399 825Q399 854 421 870T476 887Q504 887 525 871T547 825Q547 793 526 776T476 759Q444 759 422 776T399 825ZM167 825Q167 854 189 870T244 887Q271 887 293 871T315 825Q315 793 293 776T244 759Q212 759 190 776T167 825ZM251 294H456L354 543L251 294ZM303 702H411L707 0H576L503 179H204L131 0H7L303 702Z"  />
<glyph unicode="&#xC5;" horiz-adv-x="715" d="M216 800Q216 828 227 848T256 882T300 901T355 908Q385 908 411 902T456 882T487 849T498 800Q498 759 475 734T413 697L707 0H576L503 179H204L131 0H7L301 697Q263 708 240 733T216 800ZM251 294H456L354 543L251 294ZM301 800Q301 776 317 765T356 753Q380 753 396 764T413 800Q413 824 397 834T356 845Q333 845 317 835T301 800Z"  />
<glyph unicode="&#xC6;" horiz-adv-x="951" d="M473 181H240L114 0H-28L475 700H878V585H596V411H848V296H596V115H888V0H473V181ZM321 296H473V514L321 296Z"  />
<glyph unicode="&#xC7;" horiz-adv-x="655" d="M291 -105Q304 -116 325 -127T365 -138Q382 -138 393 -132T404 -113Q404 -99 395 -92T363 -85H357V-8Q287 -1 230 28T131 103T68 212T45 350Q45 425 68 491T137 606T249 683T403 711Q472 711 526 692T616 640L561 549Q529 570 493 583T403 596Q354 596 313 579T241 530T193 453T175 350Q175 295 192 250T242 173T318 122T417 104Q462 104 504 118T583 160L630 68Q598 33 540 12T415 -11V-35Q474 -38 500 -60T526 -120Q526 -158 492 -183T393 -208Q336 -208 304 -192T254 -163L291 -105Z"  />
<glyph unicode="&#xC8;" horiz-adv-x="575" d="M137 812L180 911L394 800L362 731L137 812ZM97 700H502V585H220V411H472V296H220V115H512V0H97V700Z"  />
<glyph unicode="&#xC9;" horiz-adv-x="575" d="M249 731L217 800L431 911L474 812L249 731ZM97 700H502V585H220V411H472V296H220V115H512V0H97V700Z"  />
<glyph unicode="&#xCA;" horiz-adv-x="575" d="M296 904H300L479 793L434 728L298 799L162 728L121 792L296 904ZM97 700H502V585H220V411H472V296H220V115H512V0H97V700Z"  />
<glyph unicode="&#xCB;" horiz-adv-x="575" d="M345 825Q345 854 367 870T422 887Q450 887 471 871T493 825Q493 793 472 776T422 759Q390 759 368 776T345 825ZM113 825Q113 854 135 870T190 887Q217 887 239 871T261 825Q261 793 239 776T190 759Q158 759 136 776T113 825ZM97 700H502V585H220V411H472V296H220V115H512V0H97V700Z"  />
<glyph unicode="&#xCC;" horiz-adv-x="347" d="M-8 812L35 911L249 800L217 731L-8 812ZM112 700H235V0H112V700Z"  />
<glyph unicode="&#xCD;" horiz-adv-x="347" d="M132 731L100 800L314 911L357 812L132 731ZM112 700H235V0H112V700Z"  />
<glyph unicode="&#xCE;" horiz-adv-x="347" d="M169 904H173L352 793L307 728L171 799L35 728L-6 792L169 904ZM112 700H235V0H112V700Z"  />
<glyph unicode="&#xCF;" horiz-adv-x="347" d="M215 825Q215 854 237 870T292 887Q320 887 341 871T363 825Q363 793 342 776T292 759Q260 759 238 776T215 825ZM-17 825Q-17 854 5 870T60 887Q87 887 109 871T131 825Q131 793 109 776T60 759Q28 759 6 776T-17 825ZM112 700H235V0H112V700Z"  />
<glyph unicode="&#xD0;" horiz-adv-x="749" d="M10 405H105V700H118Q134 700 158 700T210 701T264 702T311 703Q416 703 490 675T612 600T682 489T704 357Q704 283 679 218T604 104T478 27T303 -2Q287 -2 266 -2T219 -1T169 -1T119 0H105V297H10V405ZM309 588Q286 588 267 588T227 585V405H404V297H227V115Q253 113 273 113T307 113Q370 113 420 130T504 179T556 256T574 357Q574 410 556 452T504 525T421 571T309 588Z"  />
<glyph unicode="&#xD1;" horiz-adv-x="792" d="M222 826Q244 851 274 865T334 880Q356 880 374 875T408 863T440 851T477 845Q494 845 514 851T553 877L584 804Q543 745 469 745Q450 745 433 750T399 762T364 774T324 780Q291 780 258 753L222 826ZM597 0L212 485V0H97V700H195L580 213V700H695V0H597Z"  />
<glyph unicode="&#xD2;" horiz-adv-x="819" d="M257 812L300 911L514 800L482 731L257 812ZM175 350Q175 297 193 252T242 174T317 123T409 104Q464 104 507 123T581 175T628 253T644 350Q644 404 626 449T576 527T501 578T409 596Q359 596 316 578T242 528T193 450T175 350ZM45 350Q45 426 71 492T146 606T261 683T409 711Q487 711 554 685T669 612T746 499T774 350Q774 271 746 205T670 91T554 16T409 -11Q331 -11 265 14T149 87T73 201T45 350Z"  />
<glyph unicode="&#xD3;" horiz-adv-x="819" d="M364 731L332 800L546 911L589 812L364 731ZM175 350Q175 297 193 252T242 174T317 123T409 104Q464 104 507 123T581 175T628 253T644 350Q644 404 626 449T576 527T501 578T409 596Q359 596 316 578T242 528T193 450T175 350ZM45 350Q45 426 71 492T146 606T261 683T409 711Q487 711 554 685T669 612T746 499T774 350Q774 271 746 205T670 91T554 16T409 -11Q331 -11 265 14T149 87T73 201T45 350Z"  />
<glyph unicode="&#xD4;" horiz-adv-x="819" d="M408 904H412L591 793L546 728L410 799L274 728L233 792L408 904ZM175 350Q175 297 193 252T242 174T317 123T409 104Q464 104 507 123T581 175T628 253T644 350Q644 404 626 449T576 527T501 578T409 596Q359 596 316 578T242 528T193 450T175 350ZM45 350Q45 426 71 492T146 606T261 683T409 711Q487 711 554 685T669 612T746 499T774 350Q774 271 746 205T670 91T554 16T409 -11Q331 -11 265 14T149 87T73 201T45 350Z"  />
<glyph unicode="&#xD5;" horiz-adv-x="819" d="M224 826Q246 851 276 865T336 880Q358 880 376 875T410 863T442 851T479 845Q496 845 516 851T555 877L586 804Q545 745 471 745Q452 745 435 750T401 762T366 774T326 780Q293 780 260 753L224 826ZM175 350Q175 297 193 252T242 174T317 123T409 104Q464 104 507 123T581 175T628 253T644 350Q644 404 626 449T576 527T501 578T409 596Q359 596 316 578T242 528T193 450T175 350ZM45 350Q45 426 71 492T146 606T261 683T409 711Q487 711 554 685T669 612T746 499T774 350Q774 271 746 205T670 91T554 16T409 -11Q331 -11 265 14T149 87T73 201T45 350Z"  />
<glyph unicode="&#xD6;" horiz-adv-x="819" d="M448 825Q448 854 470 870T525 887Q553 887 574 871T596 825Q596 793 575 776T525 759Q493 759 471 776T448 825ZM216 825Q216 854 238 870T293 887Q320 887 342 871T364 825Q364 793 342 776T293 759Q261 759 239 776T216 825ZM175 350Q175 297 193 252T242 174T317 123T409 104Q464 104 507 123T581 175T628 253T644 350Q644 404 626 449T576 527T501 578T409 596Q359 596 316 578T242 528T193 450T175 350ZM45 350Q45 426 71 492T146 606T261 683T409 711Q487 711 554 685T669 612T746 499T774 350Q774 271 746 205T670 91T554 16T409 -11Q331 -11 265 14T149 87T73 201T45 350Z"  />
<glyph unicode="&#xD7;" horiz-adv-x="596" d="M170 559L298 431L426 559L497 488L369 360L498 231L427 160L298 289L169 160L98 231L227 360L99 488L170 559Z"  />
<glyph unicode="&#xD8;" horiz-adv-x="819" d="M45 350Q45 426 71 492T146 606T261 683T409 711Q473 711 529 693T631 643L671 682L737 615L699 578Q734 533 754 476T774 350Q774 271 746 205T670 91T554 16T409 -11Q340 -11 281 8T175 65L133 24L66 92L109 134Q78 178 62 232T45 350ZM644 350Q644 389 634 423T607 487L266 154Q295 130 331 117T409 104Q464 104 507 123T581 175T628 253T644 350ZM175 350Q175 282 204 227L542 556Q513 575 480 585T409 596Q359 596 316 578T242 528T193 450T175 350Z"  />
<glyph unicode="&#xD9;" horiz-adv-x="751" d="M210 812L253 911L467 800L435 731L210 812ZM663 290Q663 210 640 153T579 60T491 6T385 -11Q320 -11 265 8T171 66T109 162T87 297V700H210V323Q210 274 220 234T252 165T307 120T385 104Q465 104 503 158T541 315V700H663V290Z"  />
<glyph unicode="&#xDA;" horiz-adv-x="751" d="M327 731L295 800L509 911L552 812L327 731ZM663 290Q663 210 640 153T579 60T491 6T385 -11Q320 -11 265 8T171 66T109 162T87 297V700H210V323Q210 274 220 234T252 165T307 120T385 104Q465 104 503 158T541 315V700H663V290Z"  />
<glyph unicode="&#xDB;" horiz-adv-x="751" d="M370 904H374L553 793L508 728L372 799L236 728L195 792L370 904ZM663 290Q663 210 640 153T579 60T491 6T385 -11Q320 -11 265 8T171 66T109 162T87 297V700H210V323Q210 274 220 234T252 165T307 120T385 104Q465 104 503 158T541 315V700H663V290Z"  />
<glyph unicode="&#xDC;" horiz-adv-x="751" d="M410 825Q410 854 432 870T487 887Q515 887 536 871T558 825Q558 793 537 776T487 759Q455 759 433 776T410 825ZM178 825Q178 854 200 870T255 887Q282 887 304 871T326 825Q326 793 304 776T255 759Q223 759 201 776T178 825ZM663 290Q663 210 640 153T579 60T491 6T385 -11Q320 -11 265 8T171 66T109 162T87 297V700H210V323Q210 274 220 234T252 165T307 120T385 104Q465 104 503 158T541 315V700H663V290Z"  />
<glyph unicode="&#xDD;" horiz-adv-x="629" d="M267 731L235 800L449 911L492 812L267 731ZM375 292V0H252V292L5 700H145L319 407L491 700H624L375 292Z"  />
<glyph unicode="&#xDE;" horiz-adv-x="612" d="M97 0V700H220V597Q226 597 236 597T258 598T279 598T296 599Q373 599 425 580T508 530T553 459T567 375Q567 330 551 289T502 217T422 166T311 147Q295 147 269 148T220 151V0H97ZM298 484Q290 484 280 484T258 484T237 483T220 481V267Q242 265 264 264T307 262Q334 262 358 269T399 290T427 325T437 376Q437 430 402 457T298 484Z"  />
<glyph unicode="&#xDF;" horiz-adv-x="551" d="M398 160Q398 182 386 199T356 230T317 259T277 289T247 327T235 376Q235 415 248 439T276 480T304 513T317 551Q317 574 299 588T252 603Q213 603 195 576T177 490V-1H62V500Q62 611 117 661T269 711Q306 711 337 700T390 671T426 627T439 573Q439 535 427 513T399 475T371 442T358 399Q358 375 370 359T400 328T439 301T479 268T509 223T521 157Q521 123 510 93T477 39T427 3T362 -11Q310 -11 274 6T216 48L253 136Q270 119 289 108T334 96Q361 96 379 112T398 160Z"  />
<glyph unicode="&#xE0;" horiz-adv-x="463" d="M121 660L212 728L316 565L248 517L121 660ZM214 91Q250 91 270 104T301 132V178Q272 200 222 200Q193 200 172 187T150 144Q150 118 168 105T214 91ZM70 418Q99 435 141 448T229 461Q279 461 313 449T369 412T399 354T409 274V0H309V52Q291 26 257 10T176 -6Q114 -6 75 30T35 132Q35 169 48 196T83 242T135 269T199 278Q229 278 256 270T301 249Q303 306 286 335T217 365Q178 365 151 355T99 334L70 418Z"  />
<glyph unicode="&#xE1;" horiz-adv-x="463" d="M224 517L155 565L260 730L350 662L224 517ZM214 91Q250 91 270 104T301 132V178Q272 200 222 200Q193 200 172 187T150 144Q150 118 168 105T214 91ZM70 418Q99 435 141 448T229 461Q279 461 313 449T369 412T399 354T409 274V0H309V52Q291 26 257 10T176 -6Q114 -6 75 30T35 132Q35 169 48 196T83 242T135 269T199 278Q229 278 256 270T301 249Q303 306 286 335T217 365Q178 365 151 355T99 334L70 418Z"  />
<glyph unicode="&#xE2;" horiz-adv-x="463" d="M385 572L331 504L230 585L128 506L76 573L229 706H233L385 572ZM214 91Q250 91 270 104T301 132V178Q272 200 222 200Q193 200 172 187T150 144Q150 118 168 105T214 91ZM70 418Q99 435 141 448T229 461Q279 461 313 449T369 412T399 354T409 274V0H309V52Q291 26 257 10T176 -6Q114 -6 75 30T35 132Q35 169 48 196T83 242T135 269T199 278Q229 278 256 270T301 249Q303 306 286 335T217 365Q178 365 151 355T99 334L70 418Z"  />
<glyph unicode="&#xE3;" horiz-adv-x="463" d="M55 590Q84 626 115 642T176 659Q194 659 208 653T235 638T262 624T291 617Q314 617 327 625T360 648L399 590Q371 559 341 542T282 525Q265 525 251 531T224 545T196 559T165 566Q150 566 134 558T102 538L55 590ZM214 91Q250 91 270 104T301 132V178Q272 200 222 200Q193 200 172 187T150 144Q150 118 168 105T214 91ZM70 418Q99 435 141 448T229 461Q279 461 313 449T369 412T399 354T409 274V0H309V52Q291 26 257 10T176 -6Q114 -6 75 30T35 132Q35 169 48 196T83 242T135 269T199 278Q229 278 256 270T301 249Q303 306 286 335T217 365Q178 365 151 355T99 334L70 418Z"  />
<glyph unicode="&#xE4;" horiz-adv-x="463" d="M273 599Q273 629 292 646T337 663Q360 663 378 646T397 599Q397 567 379 550T337 532Q311 532 292 549T273 599ZM74 599Q74 629 93 646T139 663Q162 663 180 646T199 599Q199 567 181 550T139 532Q113 532 94 549T74 599ZM214 91Q250 91 270 104T301 132V178Q272 200 222 200Q193 200 172 187T150 144Q150 118 168 105T214 91ZM70 418Q99 435 141 448T229 461Q279 461 313 449T369 412T399 354T409 274V0H309V52Q291 26 257 10T176 -6Q114 -6 75 30T35 132Q35 169 48 196T83 242T135 269T199 278Q229 278 256 270T301 249Q303 306 286 335T217 365Q178 365 151 355T99 334L70 418Z"  />
<glyph unicode="&#xE5;" horiz-adv-x="463" d="M70 418Q99 435 141 448T229 461Q279 461 313 449T369 412T399 354T409 274V0H309V52Q291 26 257 10T176 -6Q114 -6 75 30T35 132Q35 169 48 196T83 242T135 269T199 278Q229 278 256 270T301 249Q303 306 286 335T217 365Q178 365 151 355T99 334L70 418ZM214 91Q250 91 270 104T301 132V178Q272 200 222 200Q193 200 172 187T150 144Q150 118 168 105T214 91ZM111 612Q111 637 120 658T146 696T186 722T237 732Q265 732 288 723T329 697T355 659T365 612Q365 588 356 567T329 529T289 504T237 494Q210 494 187 503T147 529T121 566T111 612ZM185 613Q185 590 200 573T239 556Q262 556 276 573T291 613Q291 636 277 652T239 669Q215 669 200 653T185 613Z"  />
<glyph unicode="&#xE6;" horiz-adv-x="759" d="M229 461Q278 461 311 449T367 414Q396 436 434 448T517 461Q560 461 599 446T667 404T713 338T730 252Q730 231 728 217T723 190H409V147Q423 119 455 102T532 85Q574 85 607 97T660 126L692 45Q657 17 613 3T523 -11Q415 -11 350 48Q304 12 266 2T196 -9Q117 -9 76 29T35 138Q35 203 80 240T199 278Q225 278 256 271T301 256Q306 309 285 337T222 365Q178 365 151 355T99 334L70 418Q99 435 141 448T229 461ZM409 267H615Q613 309 587 337T508 365Q479 365 452 352T407 308Q408 300 408 292T409 274V267ZM214 91Q244 91 265 103T300 129L301 186Q265 200 222 200Q192 200 171 185T150 144Q150 122 166 107T214 91Z"  />
<glyph unicode="&#xE7;" horiz-adv-x="487" d="M173 -112Q187 -123 205 -130T243 -138Q260 -138 271 -132T282 -113Q282 -99 273 -92T241 -85H235V-7Q144 6 90 67T36 225Q36 274 53 317T101 392T175 442T269 461Q325 461 371 447T450 400L396 309Q370 334 343 343T284 353Q260 353 238 344T198 319T170 279T159 225Q159 195 169 171T198 131T239 105T289 96Q326 96 354 111T405 151L459 67Q432 31 388 11T293 -11V-35Q397 -41 397 -120Q397 -158 363 -183T259 -208Q211 -208 184 -194T139 -166L173 -112Z"  />
<glyph unicode="&#xE8;" horiz-adv-x="516" d="M161 660L252 728L356 565L288 517L161 660ZM269 365Q217 365 189 339T151 267H372Q373 309 346 337T269 365ZM450 45Q416 16 371 3T278 -11Q224 -11 179 6T103 54T54 128T36 225Q36 274 52 317T99 392T174 442T274 461Q317 461 356 446T424 404T470 338T487 252Q487 231 486 217T480 190H155Q163 139 199 112T290 85Q332 85 364 97T417 126L450 45Z"  />
<glyph unicode="&#xE9;" horiz-adv-x="516" d="M274 517L205 565L310 730L400 662L274 517ZM269 365Q217 365 189 339T151 267H372Q373 309 346 337T269 365ZM450 45Q416 16 371 3T278 -11Q224 -11 179 6T103 54T54 128T36 225Q36 274 52 317T99 392T174 442T274 461Q317 461 356 446T424 404T470 338T487 252Q487 231 486 217T480 190H155Q163 139 199 112T290 85Q332 85 364 97T417 126L450 45Z"  />
<glyph unicode="&#xEA;" horiz-adv-x="516" d="M423 572L369 504L268 585L166 506L114 573L267 706H271L423 572ZM269 365Q217 365 189 339T151 267H372Q373 309 346 337T269 365ZM450 45Q416 16 371 3T278 -11Q224 -11 179 6T103 54T54 128T36 225Q36 274 52 317T99 392T174 442T274 461Q317 461 356 446T424 404T470 338T487 252Q487 231 486 217T480 190H155Q163 139 199 112T290 85Q332 85 364 97T417 126L450 45Z"  />
<glyph unicode="&#xEB;" horiz-adv-x="516" d="M306 599Q306 629 325 646T370 663Q393 663 411 646T430 599Q430 567 412 550T370 532Q344 532 325 549T306 599ZM107 599Q107 629 126 646T172 663Q195 663 213 646T232 599Q232 567 214 550T172 532Q146 532 127 549T107 599ZM269 365Q217 365 189 339T151 267H372Q373 309 346 337T269 365ZM450 45Q416 16 371 3T278 -11Q224 -11 179 6T103 54T54 128T36 225Q36 274 52 317T99 392T174 442T274 461Q317 461 356 446T424 404T470 338T487 252Q487 231 486 217T480 190H155Q163 139 199 112T290 85Q332 85 364 97T417 126L450 45Z"  />
<glyph unicode="&#xEC;" horiz-adv-x="277" d="M-4 660L87 728L191 565L123 517L-4 660ZM81 450H196V0H81V450Z"  />
<glyph unicode="&#xED;" horiz-adv-x="277" d="M132 517L63 565L168 730L258 662L132 517ZM81 450H196V0H81V450Z"  />
<glyph unicode="&#xEE;" horiz-adv-x="277" d="M293 572L239 504L138 585L36 506L-16 573L137 706H141L293 572ZM81 450H196V0H81V450Z"  />
<glyph unicode="&#xEF;" horiz-adv-x="277" d="M176 599Q176 629 195 646T240 663Q263 663 281 646T300 599Q300 567 282 550T240 532Q214 532 195 549T176 599ZM-23 599Q-23 629 -4 646T42 663Q65 663 83 646T102 599Q102 567 84 550T42 532Q16 532 -3 549T-23 599ZM81 450H196V0H81V450Z"  />
<glyph unicode="&#xF0;" horiz-adv-x="562" d="M156 595L238 624Q196 663 150 692L279 711Q313 691 346 663L450 700L482 598L423 577Q448 541 467 502T500 422T519 341T526 264Q526 199 509 148T459 62T382 8T281 -11Q225 -11 180 7T103 56T54 131T36 225Q36 276 53 319T103 393T180 443T281 461Q310 461 335 449T376 416Q365 449 350 479T315 538L189 493L156 595ZM159 225Q159 168 193 132T281 96Q339 96 373 142T404 269Q393 305 361 329T281 353Q255 353 233 344T195 319T169 278T159 225Z"  />
<glyph unicode="&#xF1;" horiz-adv-x="546" d="M99 590Q128 626 159 642T220 659Q238 659 252 653T279 638T306 624T335 617Q358 617 371 625T404 648L443 590Q415 559 385 542T326 525Q309 525 295 531T268 545T240 559T209 566Q194 566 178 558T146 538L99 590ZM64 450H179V405Q199 427 233 442T308 458Q349 458 383 448T441 414T479 354T493 264V0H378V244Q378 298 352 324T277 350Q248 350 224 339T179 307V0H64V450Z"  />
<glyph unicode="&#xF2;" horiz-adv-x="562" d="M157 660L248 728L352 565L284 517L157 660ZM159 225Q159 168 193 132T281 96Q335 96 369 131T404 225Q404 253 395 277T369 317T330 343T281 353Q255 353 233 344T195 319T169 278T159 225ZM36 225Q36 276 53 319T103 393T180 443T281 461Q337 461 382 443T459 394T508 319T526 225Q526 174 509 131T459 57T382 7T281 -11Q225 -11 180 7T103 56T54 131T36 225Z"  />
<glyph unicode="&#xF3;" horiz-adv-x="562" d="M280 517L211 565L316 730L406 662L280 517ZM159 225Q159 168 193 132T281 96Q335 96 369 131T404 225Q404 253 395 277T369 317T330 343T281 353Q255 353 233 344T195 319T169 278T159 225ZM36 225Q36 276 53 319T103 393T180 443T281 461Q337 461 382 443T459 394T508 319T526 225Q526 174 509 131T459 57T382 7T281 -11Q225 -11 180 7T103 56T54 131T36 225Z"  />
<glyph unicode="&#xF4;" horiz-adv-x="562" d="M437 572L383 504L282 585L180 506L128 573L281 706H285L437 572ZM159 225Q159 168 193 132T281 96Q335 96 369 131T404 225Q404 253 395 277T369 317T330 343T281 353Q255 353 233 344T195 319T169 278T159 225ZM36 225Q36 276 53 319T103 393T180 443T281 461Q337 461 382 443T459 394T508 319T526 225Q526 174 509 131T459 57T382 7T281 -11Q225 -11 180 7T103 56T54 131T36 225Z"  />
<glyph unicode="&#xF5;" horiz-adv-x="562" d="M107 590Q136 626 167 642T228 659Q246 659 260 653T287 638T314 624T343 617Q366 617 379 625T412 648L451 590Q423 559 393 542T334 525Q317 525 303 531T276 545T248 559T217 566Q202 566 186 558T154 538L107 590ZM159 225Q159 168 193 132T281 96Q335 96 369 131T404 225Q404 253 395 277T369 317T330 343T281 353Q255 353 233 344T195 319T169 278T159 225ZM36 225Q36 276 53 319T103 393T180 443T281 461Q337 461 382 443T459 394T508 319T526 225Q526 174 509 131T459 57T382 7T281 -11Q225 -11 180 7T103 56T54 131T36 225Z"  />
<glyph unicode="&#xF6;" horiz-adv-x="562" d="M325 599Q325 629 344 646T389 663Q412 663 430 646T449 599Q449 567 431 550T389 532Q363 532 344 549T325 599ZM126 599Q126 629 145 646T191 663Q214 663 232 646T251 599Q251 567 233 550T191 532Q165 532 146 549T126 599ZM159 225Q159 168 193 132T281 96Q335 96 369 131T404 225Q404 253 395 277T369 317T330 343T281 353Q255 353 233 344T195 319T169 278T159 225ZM36 225Q36 276 53 319T103 393T180 443T281 461Q337 461 382 443T459 394T508 319T526 225Q526 174 509 131T459 57T382 7T281 -11Q225 -11 180 7T103 56T54 131T36 225Z"  />
<glyph unicode="&#xF7;" horiz-adv-x="596" d="M66 410H530V310H66V410ZM230 164Q230 187 247 208T298 230Q313 230 325 224T347 209T360 188T365 164Q365 137 348 116T298 94Q265 94 248 115T230 164ZM230 557Q230 581 247 601T298 622Q330 622 347 602T365 557Q365 531 348 509T298 487Q265 487 248 509T230 557Z"  />
<glyph unicode="&#xF8;" horiz-adv-x="577" d="M84 81Q36 141 36 225Q36 276 54 319T106 393T186 443T289 461Q336 461 375 449T447 413L486 449L527 401L492 369Q515 340 528 304T541 225Q541 174 523 131T471 57T392 7T289 -11Q242 -11 202 1T130 36L91 0L49 49L84 81ZM419 225Q419 261 404 288L216 115Q248 96 289 96Q348 96 383 131T419 225ZM159 225Q159 190 173 162L361 334Q329 353 289 353Q232 353 196 319T159 225Z"  />
<glyph unicode="&#xF9;" horiz-adv-x="535" d="M139 660L230 728L334 565L266 517L139 660ZM471 0H356V55Q336 30 301 10T212 -11Q179 -11 150 0T100 33T67 91T54 175V450H169V199Q169 154 188 125T255 96Q284 96 310 110T356 151V450H471V0Z"  />
<glyph unicode="&#xFA;" horiz-adv-x="535" d="M270 517L201 565L306 730L396 662L270 517ZM471 0H356V55Q336 30 301 10T212 -11Q179 -11 150 0T100 33T67 91T54 175V450H169V199Q169 154 188 125T255 96Q284 96 310 110T356 151V450H471V0Z"  />
<glyph unicode="&#xFB;" horiz-adv-x="535" d="M421 572L367 504L266 585L164 506L112 573L265 706H269L421 572ZM471 0H356V55Q336 30 301 10T212 -11Q179 -11 150 0T100 33T67 91T54 175V450H169V199Q169 154 188 125T255 96Q284 96 310 110T356 151V450H471V0Z"  />
<glyph unicode="&#xFC;" horiz-adv-x="535" d="M302 599Q302 629 321 646T366 663Q389 663 407 646T426 599Q426 567 408 550T366 532Q340 532 321 549T302 599ZM103 599Q103 629 122 646T168 663Q191 663 209 646T228 599Q228 567 210 550T168 532Q142 532 123 549T103 599ZM471 0H356V55Q336 30 301 10T212 -11Q179 -11 150 0T100 33T67 91T54 175V450H169V199Q169 154 188 125T255 96Q284 96 310 110T356 151V450H471V0Z"  />
<glyph unicode="&#xFD;" horiz-adv-x="503" d="M246 517L177 565L282 730L372 662L246 517ZM321 0Q296 -60 275 -99T234 -160T193 -191T147 -200Q116 -200 93 -190T50 -165L87 -78Q96 -83 108 -88T134 -94Q175 -94 203 -24L213 0L5 450H143L248 204Q255 187 260 172T270 139Q273 155 276 171T286 205L367 450H498L321 0Z"  />
<glyph unicode="&#xFE;" horiz-adv-x="558" d="M64 700H179V414Q202 434 237 447T318 461Q364 461 402 444T466 397T507 324T522 232Q522 181 505 137T457 59T382 8T284 -11Q254 -11 227 -6T179 11V-200H64V700ZM282 353Q253 353 227 340T179 304V122Q202 107 223 102T274 96Q304 96 327 106T367 134T391 176T400 229Q400 283 370 318T282 353Z"  />
<glyph unicode="&#xFF;" horiz-adv-x="503" d="M296 599Q296 629 315 646T360 663Q383 663 401 646T420 599Q420 567 402 550T360 532Q334 532 315 549T296 599ZM97 599Q97 629 116 646T162 663Q185 663 203 646T222 599Q222 567 204 550T162 532Q136 532 117 549T97 599ZM321 0Q296 -60 275 -99T234 -160T193 -191T147 -200Q116 -200 93 -190T50 -165L87 -78Q96 -83 108 -88T134 -94Q175 -94 203 -24L213 0L5 450H143L248 204Q255 187 260 172T270 139Q273 155 276 171T286 205L367 450H498L321 0Z"  />
<glyph unicode="&#x152;" horiz-adv-x="1038" d="M560 20Q527 6 488 -2T406 -11Q326 -11 260 14T146 87T72 201T45 350Q45 425 68 491T137 606T249 683T403 711Q448 711 488 702T560 677V700H965V585H683V411H935V296H683V115H975V0H560V20ZM417 104Q455 104 491 114T560 144V549Q528 570 492 583T403 596Q354 596 313 579T241 530T193 453T175 350Q175 295 192 250T242 173T318 122T417 104Z"  />
<glyph unicode="&#x153;" horiz-adv-x="833" d="M766 45Q733 16 688 3T594 -11Q500 -11 438 37Q375 -11 281 -11Q225 -11 180 7T103 56T54 131T36 225Q36 276 53 319T103 393T180 443T281 461Q329 461 368 448T438 411Q467 434 505 447T591 461Q634 461 673 446T741 404T787 338T804 252Q804 231 803 217T797 190H472Q480 139 516 112T606 85Q648 85 681 97T734 126L766 45ZM281 96Q309 96 331 105T370 128Q353 173 353 225Q353 278 371 322Q355 335 333 344T281 353Q255 353 233 344T194 319T168 278T158 225Q158 168 192 132T281 96ZM586 365Q534 365 506 339T468 267H689Q690 309 663 337T586 365Z"  />
<glyph unicode="&#x160;" horiz-adv-x="553" d="M100 846L145 911L281 832L416 911L457 847L283 735H279L100 846ZM378 186Q378 220 355 242T296 283T220 318T143 361T85 424T61 518Q61 557 76 592T119 654T187 695T279 711Q344 711 395 691T479 636L413 544Q387 569 359 582T289 596Q243 596 217 575T191 519Q191 483 214 461T273 421T349 386T426 345T484 283T508 187Q508 143 490 107T441 44T366 4T274 -11Q240 -11 205 -4T139 17T83 51T45 99L115 183Q146 143 190 124T276 104Q320 104 349 125T378 186Z"  />
<glyph unicode="&#x161;" horiz-adv-x="444" d="M67 643L121 711L222 619L324 709L376 642L223 509H219L67 643ZM292 127Q292 145 274 155T229 174T171 191T112 216T67 257T49 324Q49 357 61 382T96 425T149 452T214 461Q280 461 322 443T385 404L342 322Q322 338 289 351T220 365Q194 365 179 353T164 326Q164 307 182 297T227 278T285 261T344 237T389 198T407 133Q407 66 358 28T225 -11Q194 -11 164 -4T108 15T64 40T37 66L93 141Q103 130 120 120T156 102T196 90T233 85Q258 85 275 95T292 127Z"  />
<glyph unicode="&#x178;" horiz-adv-x="629" d="M356 825Q356 854 378 870T433 887Q461 887 482 871T504 825Q504 793 483 776T433 759Q401 759 379 776T356 825ZM124 825Q124 854 146 870T201 887Q228 887 250 871T272 825Q272 793 250 776T201 759Q169 759 147 776T124 825ZM375 292V0H252V292L5 700H145L319 407L491 700H624L375 292Z"  />
<glyph unicode="&#x17D;" horiz-adv-x="642" d="M148 846L193 911L329 832L464 911L505 847L331 735H327L148 846ZM60 700H592V615L204 115H602V0H40V84L427 585H60V700Z"  />
<glyph unicode="&#x17E;" horiz-adv-x="490" d="M98 643L152 711L253 619L355 709L407 642L254 509H250L98 643ZM57 450H447V367L203 107H442V0H42V83L286 342H57V450Z"  />
<glyph unicode="&#x192;" horiz-adv-x="596" d="M392 450H507V342H373L307 -33Q299 -74 288 -106T259 -161T215 -196T151 -208Q115 -208 85 -199T41 -176L72 -85Q84 -93 96 -97T124 -101Q153 -101 169 -80T192 -22L256 342H139V450H275L288 523Q306 619 343 665T456 711Q497 711 530 699T581 669L542 581Q531 592 514 597T476 603Q447 603 429 582T403 514L392 450Z"  />
<glyph unicode="&#x2C6;" horiz-adv-x="429" d="M369 572L315 504L214 585L112 506L60 573L213 706H217L369 572Z"  />
<glyph unicode="&#x2DC;" horiz-adv-x="464" d="M60 590Q89 626 120 642T181 659Q199 659 213 653T240 638T267 624T296 617Q319 617 332 625T365 648L404 590Q376 559 346 542T287 525Q270 525 256 531T229 545T201 559T170 566Q155 566 139 558T107 538L60 590Z"  />
<glyph unicode="&#x3BC;" horiz-adv-x="542" d="M478 0H363V55Q343 30 308 10T219 -11Q198 -11 176 -6V-200H61V450H176V190Q178 148 197 122T262 96Q291 96 317 110T363 151V450H478V0Z"  />
<glyph unicode="&#x2013;" horiz-adv-x="599" d="M85 320H514V220H85V320Z"  />
<glyph unicode="&#x2014;" horiz-adv-x="814" d="M85 320H729V220H85V320Z"  />
<glyph unicode="&#x2018;" horiz-adv-x="241" d="M81 494Q65 511 56 536T47 587Q47 622 56 649T81 698T113 735T147 759L200 710Q178 692 167 666T155 612Q155 594 161 578T178 550L81 494Z"  />
<glyph unicode="&#x2019;" horiz-adv-x="241" d="M160 755Q176 738 185 713T194 662Q194 627 185 599T160 550T128 514T94 490L41 539Q63 557 74 582T86 636Q86 655 80 671T63 698L160 755Z"  />
<glyph unicode="&#x201A;" horiz-adv-x="241" d="M160 90Q176 73 185 48T194 -3Q194 -38 185 -66T160 -115T128 -151T94 -175L41 -126Q63 -108 74 -83T86 -29Q86 10 63 33L160 90Z"  />
<glyph unicode="&#x201C;" horiz-adv-x="404" d="M81 494Q65 511 56 536T47 587Q47 622 56 649T81 698T113 735T147 759L200 710Q178 692 167 666T155 612Q155 594 161 578T178 550L81 494ZM243 494Q227 511 218 536T209 587Q209 622 218 649T243 698T275 735T309 759L362 710Q340 692 329 666T317 612Q317 594 323 578T340 550L243 494Z"  />
<glyph unicode="&#x201D;" horiz-adv-x="404" d="M160 755Q176 738 185 713T194 662Q194 627 185 599T160 550T128 514T94 490L41 539Q63 557 74 582T86 636Q86 655 80 671T63 698L160 755ZM322 755Q338 738 347 713T356 662Q356 627 347 599T322 550T290 514T256 490L203 539Q225 557 236 582T248 636Q248 655 242 671T225 698L322 755Z"  />
<glyph unicode="&#x201E;" horiz-adv-x="404" d="M160 90Q176 73 185 48T194 -3Q194 -38 185 -66T160 -115T128 -151T94 -175L41 -126Q63 -108 74 -83T86 -29Q86 10 63 33L160 90ZM322 90Q338 73 347 48T356 -3Q356 -38 347 -66T322 -115T290 -151T256 -175L203 -126Q225 -108 236 -83T248 -29Q248 10 225 33L322 90Z"  />
<glyph unicode="&#x2020;" horiz-adv-x="491" d="M40 495H192V700H299V495H451V395H299V-100H192V395H40V495Z"  />
<glyph unicode="&#x2021;" horiz-adv-x="491" d="M40 495H192V700H299V495H451V395H299V235H451V135H299V-100H192V135H40V235H192V395H40V495Z"  />
<glyph unicode="&#x2022;" horiz-adv-x="285" d="M25 264Q25 288 34 309T59 347T96 372T142 382Q166 382 187 373T225 347T250 310T260 264Q260 240 251 219T225 182T188 157T142 147Q118 147 97 156T60 182T35 219T25 264Z"  />
<glyph unicode="&#x2026;" horiz-adv-x="863" d="M55 75Q55 88 60 101T76 125T101 142T135 149Q151 149 164 143T187 126T202 102T208 75Q208 60 203 46T188 20T165 2T135 -5Q97 -5 76 19T55 75ZM355 75Q355 88 360 101T376 125T401 142T435 149Q451 149 464 143T487 126T502 102T508 75Q508 60 503 46T488 20T465 2T435 -5Q397 -5 376 19T355 75ZM655 75Q655 88 660 101T676 125T701 142T735 149Q751 149 764 143T787 126T802 102T808 75Q808 60 803 46T788 20T765 2T735 -5Q697 -5 676 19T655 75Z"  />
<glyph unicode="&#x2030;" horiz-adv-x="1345" d="M913 169Q913 209 927 242T968 298T1031 334T1110 347Q1153 347 1189 335T1251 299T1292 242T1307 169Q1307 129 1292 96T1251 40T1189 3T1110 -10Q1067 -10 1031 3T969 39T928 96T913 169ZM1021 169Q1021 129 1047 106T1110 83Q1149 83 1174 106T1200 169Q1200 208 1174 231T1110 254Q1072 254 1047 231T1021 169ZM675 711L740 662L236 -11L170 35L675 711ZM37 531Q37 571 51 604T92 660T155 696T234 709Q277 709 313 697T375 661T416 604T431 531Q431 491 416 458T375 402T313 365T234 352Q191 352 155 365T93 401T52 458T37 531ZM145 531Q145 491 171 468T234 445Q273 445 298 468T324 531Q324 570 298 593T234 616Q196 616 171 593T145 531ZM479 169Q479 209 493 242T534 298T597 334T676 347Q719 347 755 335T817 299T858 242T873 169Q873 129 858 96T817 40T755 3T676 -10Q633 -10 597 3T535 39T494 96T479 169ZM587 169Q587 129 613 106T676 83Q715 83 740 106T766 169Q766 208 740 231T676 254Q638 254 613 231T587 169Z"  />
<glyph unicode="&#x2039;" horiz-adv-x="351" d="M37 248V252L234 478L309 411L170 250L308 87L230 22L37 248Z"  />
<glyph unicode="&#x203A;" horiz-adv-x="351" d="M121 22L43 87L181 250L42 411L117 478L314 252V248L121 22Z"  />
<glyph unicode="&#x20AC;" horiz-adv-x="596" d="M53 490H128Q145 539 174 579T244 649T337 694T451 711Q488 711 524 703T583 683L540 577Q523 586 499 591T450 596Q393 596 345 569T267 490H517L482 397H238Q235 374 235 350Q235 341 235 332T237 315H459L428 222H265Q294 166 346 135T466 104Q494 104 516 108T553 119L572 8Q555 0 525 -5T456 -11Q396 -11 343 5T247 51T173 124T124 222H19L54 315H106Q105 323 105 332T105 350Q105 362 105 373T107 397H18L53 490Z"  />
<glyph unicode="&#x2122;" horiz-adv-x="865" d="M17 700H340V596H233V385H125V596H17V700ZM379 700H476L595 592L708 700H802V385H693V564L593 467H591L487 564V385H379V700Z"  />


</font>
</defs>
</svg>
